<svg xmlns="http://www.w3.org/2000/svg" width="85.49" height="49.894" viewBox="0 0 85.49 49.894">
  <g id="fish" transform="translate(-280.429 -121.461)">
    <path id="Path_12197" data-name="Path 12197" d="M395.24,161.89c8-3.8,10.57-16.81,10.15-24.64a.8.8,0,0,0-1.35-.56c-4.78,4-10.54,5-14,10.63a18.14,18.14,0,0,0-2.64,11.7,33.14,33.14,0,0,0-13-9.9.6.6,0,0,0-.19-.44,35.091,35.091,0,0,0-6.35-4.82.38.38,0,0,0-.35-.22c-.83-.48-1.68-.92-2.56-1.32a.3.3,0,0,0-.41-.17,28.918,28.918,0,0,0-2.85-1.1c-3.74-1.22-9.73-2.66-13.52-1.21a.62.62,0,0,0-.44.58,10.419,10.419,0,0,0,.51,3.7c-10.89.36-23.72,4-24.73,15.74-1.23,14.41,16.29,18.11,27.11,17.67,12.64-.52,27.71-2.74,36.8-12.32-.74,9.25,13.52,15.58,18.83,20.91a.87.87,0,0,0,1.44-.38,17.78,17.78,0,0,0-12.45-23.85Zm-1.34-16.77c2.83-2.8,6.7-4.06,9.94-6.29,0,9.07-3,19.75-12.29,22.62H390a.8.8,0,0,0-.64.37h0a.74.74,0,0,0,.07-.45C388.56,155.38,389.41,149.58,393.9,145.12Zm-10.76,12.62a2.19,2.19,0,0,0,.35-1.05,26.209,26.209,0,0,1,2,1.94.43.43,0,0,0-.17.22,2.929,2.929,0,0,0-.09.84,2,2,0,0,1-.35.88,2.54,2.54,0,0,1-1.41.89h0c.18-1.36-.79-2.19-1.94-2.75A2.26,2.26,0,0,0,383.14,157.74Zm-20,10.39h0a4.58,4.58,0,0,0-1.87-2.44,3.64,3.64,0,0,0,3.31-2.77.57.57,0,0,0,.45.11,2.34,2.34,0,0,1,2.88,2.95,3.11,3.11,0,0,1-1.61,1.94,3.72,3.72,0,0,1-1.56.43c-.3,0-.75-.12-1,.13h0a.36.36,0,0,0-.63-.35Zm-9.33-19.2v-.15c1.73.44,3.71.61,4.39,2.6s-.78,2.9-2.35,3.37a3.8,3.8,0,0,0-2.18.23.18.18,0,0,0-.07.05,3.72,3.72,0,0,0-2.38-2.63,5.16,5.16,0,0,0,2.56-3.47Zm-.58-3c1.85.12,3.61.3,5.24.53a3.32,3.32,0,0,1-1,1.12,3.44,3.44,0,0,1-1.15.51,6.17,6.17,0,0,0-2.46-.32,4.409,4.409,0,0,0-.66-1.87Zm10.87,9.95c1.59.26,3.89.44,4.18,2.37.31,2.13-2,3.14-3.62,3.62h-.06a4.24,4.24,0,0,0-2.36-3.1,2.83,2.83,0,0,0,1.89-2.52,2.689,2.689,0,0,0-.06-.4Zm-4.93,3.43a11.74,11.74,0,0,1,2.58.64,2.9,2.9,0,0,1,1.64,2.3c.11,1.88-1.73,2.68-3.37,2.84-.24-.1-.49-.19-.73-.27a.691.691,0,0,0-.24,0,4,4,0,0,0-2.28-2.68,4.09,4.09,0,0,0,2.37-2.86Zm-3.85,2.38a3.76,3.76,0,0,0-1.16,0,4.09,4.09,0,0,0-2.27-2.69,3.37,3.37,0,0,0,1.85-3.1.5.5,0,0,0,.36.06,3.19,3.19,0,0,1,4,2.31,3.13,3.13,0,0,1-2.81,3.39Zm4.56-3.36h-.64v-.29a3.9,3.9,0,0,0-2-2.86,3.42,3.42,0,0,0,2.2-2c1.23.83,2.95.85,3.43,2.55.48,1.93-1.53,2.36-3.02,2.57Zm-8.11-4.22c1.29,1.7.59,4.27-1.87,4.1a.56.56,0,0,0-.42.14,34.254,34.254,0,0,0-.59-5.06h.19a3.12,3.12,0,0,1,2.66.79Zm-2.25,5.18a.52.52,0,0,0,.22.12,4.33,4.33,0,0,1,2.23,1.08c1,.53.77,1.29-.68,2.27a2.47,2.47,0,0,1-.69,1.8,6.41,6.41,0,0,0-1.32-.39,36.176,36.176,0,0,0,.21-4.91Zm4.6,3.72v-.29c1.33.62,3.27.43,3.71,2.25.55,2.23-1.7,3.32-3.58,3.28a5.54,5.54,0,0,0-.89-.23h0a3.45,3.45,0,0,0-1.5-2.74,3,3,0,0,0,2.23-2.28Zm4.92,3c1.8.61,3.83,2.35,2.72,4.43a2.69,2.69,0,0,1-1.74,1.26,15,15,0,0,0-2.55-.1h-.07a4.55,4.55,0,0,0-1.8-2.6,3.69,3.69,0,0,0,3.4-3Zm7.9-4a3.82,3.82,0,0,0,2.6-3.36.37.37,0,0,0,.18.21c.74.38,1.52.37,2.19.95a2.82,2.82,0,0,1,1,2.44,3.06,3.06,0,0,1-1.4,2.14,10.218,10.218,0,0,1-1.72.64,2.616,2.616,0,0,1-.38-.09.54.54,0,0,0-.18,0,3.73,3.73,0,0,0-2.32-3.04Zm4.92-3.9a5.37,5.37,0,0,0,2.58-2.59c1.54.64,4.58,1.38,4,3.46a3.89,3.89,0,0,1-2.76,2.6,5.549,5.549,0,0,0-1.21-.28.47.47,0,0,0-.27.05,4.87,4.87,0,0,0-2.37-3.35Zm7.8,1.15c1.1.46,2.64,1,2.63,2.1,0,1.58-1.93,1.92-3.17,2h-.2a.68.68,0,0,0-.63.26,4.29,4.29,0,0,0-1.47-1.43,4.38,4.38,0,0,0,2.81-3.04Zm.22-5.24c.73.48,1.44,1,2.13,1.53a.52.52,0,0,0,0,.54.92.92,0,0,1,0,1.25c-.5.55-1.5.53-2.17.55h-.11a3.79,3.79,0,0,0-1.84-2.44l.18-.05a3.81,3.81,0,0,0,1.78-1.49ZM374,150.73a43.536,43.536,0,0,1,4.73,2.5,1.779,1.779,0,0,1-.12.17,3.21,3.21,0,0,1-1,.87,3.44,3.44,0,0,1-1.17.39,7.07,7.07,0,0,0-1.73-.37,1.6,1.6,0,0,0,0-.23,3.26,3.26,0,0,0-1.4-2.79A2,2,0,0,0,374,150.73Zm-4.52,6.61a.24.24,0,0,0-.17,0,3.46,3.46,0,0,0-2.15-2,3.81,3.81,0,0,0,2.58-3.46,3.319,3.319,0,0,0,0-.71h.22a3.59,3.59,0,0,0,1.59.42A3,3,0,0,1,373,152.8c1.35,2.06-1.29,4.96-3.5,4.54Zm2.77-6.68a9,9,0,0,0-2.86-.64,4.1,4.1,0,0,0-1.09-1.42,43.688,43.688,0,0,1,4.57,1.65,2.9,2.9,0,0,1-.6.41Zm-4.94-4.1a6.232,6.232,0,0,0,.42-1.19,32.432,32.432,0,0,1,3.36,2.38c-1.22-.45-2.48-.83-3.76-1.19Zm-2.24-2.69q1,.49,1.92,1-.15.74-.33,1.47l-1.69-.45c.03-.63.1-1.32.12-2.02Zm3.35,7.15a3.14,3.14,0,0,1-3.84,3.72.27.27,0,0,0-.31.15h-.45a4.22,4.22,0,0,0-1.5-1.67,3.53,3.53,0,0,0,2.28-2.06,4.08,4.08,0,0,0-.14-2.84c1.64.46,3.48.75,3.98,2.68Zm-5.76-8.22c.56.22,1.1.47,1.65.72,0,.77.06,1.54.1,2.3l-1.77-.39v-.06a9.222,9.222,0,0,0,.04-2.57Zm-2-.71,1.19.4a15.436,15.436,0,0,0,.12,2.81L360,145a28.414,28.414,0,0,0,0-3.06Zm0,4.68.91.17a.51.51,0,0,0,.1.21c.44.48,1.05.71,1.43,1.29a2.62,2.62,0,0,1-2.48,4.15,4.069,4.069,0,0,0-.49-.05,2.33,2.33,0,0,1-.38-.08.27.27,0,0,0-.2,0,3.891,3.891,0,0,0,0-.6,4,4,0,0,0-2-3.17,2.062,2.062,0,0,0,.26-.12,4.6,4.6,0,0,0,1.92-2ZM357,141.1c.72.16,1.42.34,2.07.53a20.064,20.064,0,0,0,.11,3.19c-.79-.12-1.57-.23-2.35-.32C356.88,143.36,357,142.23,357,141.1Zm-2.55-.43c.59.06,1.21.15,1.81.27a14.548,14.548,0,0,0,0,3.49c-.61-.07-1.24-.13-1.9-.18a20.381,20.381,0,0,0,.12-3.58Zm-.75,0a19.676,19.676,0,0,0,.07,3.6c-.54,0-1.09-.07-1.67-.09,0-1.13,0-2.3-.11-3.43a8.65,8.65,0,0,1,1.74-.13Zm-2.38.25a23.383,23.383,0,0,0,.2,3.24h-2.35a2.94,2.94,0,0,1,2.18-3.29Zm0,4.94a3.27,3.27,0,0,1,.87,3.73,5.21,5.21,0,0,1-2.57,2.54,4.7,4.7,0,0,0-1.06,0,31,31,0,0,0-2.15-6.27c1.72-.11,3.37-.1,4.98-.05Zm-13.32,29c-6.89-1.86-14.41-8-12.65-16,1.94-8.92,10.61-12.13,19.59-12.83,3.46,10.31,3.53,19.66-.33,29.91a34.141,34.141,0,0,1-6.54-1.17Zm13.52,1a55.486,55.486,0,0,1-5.91.07,33.7,33.7,0,0,0,3.45-10.78,6.53,6.53,0,0,1,1.93.94c2.21,1.88.64,5-2.14,4.09a.57.57,0,0,0-.44,1c1.71.92,4.05,2.39,3.18,4.63Zm1.43-.51c-.18,0-.19.3,0,.39h-.48c.67-1.74-.4-3.27-1.8-4.42a3.22,3.22,0,0,0,2.42-2.1c1.52.47,3,1.41,3.06,3.17.16,2.01-1.47,2.61-3.15,2.91Zm3.05.14h-.24a3.82,3.82,0,0,0,1.62-2.58v-.27a9.11,9.11,0,0,0,2.4.26c1,.06,2.53.58,2.36,1.77-1.98.33-4.04.55-6.07.77Zm11.73-1.88c-1.59.37-3.19.69-4.81.95a2.3,2.3,0,0,0-1-2.16,2.559,2.559,0,0,0-.45-.27,3,3,0,0,0,1.6-2,2.747,2.747,0,0,0,.1-.56c1.37,1.05,5.44,1.94,4.63,3.99Zm4.68-1.3c-1.21.4-2.44.75-3.69,1.06a2.72,2.72,0,0,0-.47-2,4.81,4.81,0,0,0-1.87-1.44l-1.09-.53a5.6,5.6,0,0,0,1-.21,4.19,4.19,0,0,0,2.81-2.92,1.353,1.353,0,0,0,0-.29c1.15.76,2.39,1.18,3.26,2.34a3.19,3.19,0,0,1,.12,3.94Zm.68-5a7.78,7.78,0,0,0-1.89-1.69,4.8,4.8,0,0,0,2.93-3.34c1.2.72,3.73,1.33,3.13,3.28a2.44,2.44,0,0,1-1.26,1.41,3.9,3.9,0,0,0-2.79.19.349.349,0,0,0-.05.11Zm.82,4.48a3.58,3.58,0,0,0-.17-3.48,8.41,8.41,0,0,0,1.65-.13,3.553,3.553,0,0,1,.57.07c.63.13,2.5.57,2.6,1.49a40.238,40.238,0,0,1-4.56,2.01Zm5.49-2.5c-.15-.79-1-1.45-2-1.89a2.92,2.92,0,0,0,1.21-1.91,3,3,0,0,0,0-1,13.57,13.57,0,0,1,3.35,1.16c.58.35.54,1,.62,1.67a31.4,31.4,0,0,1-3.11,1.93Zm4-2.67a2.689,2.689,0,0,0,0-.75,1.72,1.72,0,0,0-.71-1.11,7.071,7.071,0,0,0-1.63-.9,3,3,0,0,0,1.92-1.37c.24.15.51.28.63.35a6.67,6.67,0,0,1,2,1.84q-1.008,1-2.11,1.9Zm2.85-2.57a7.61,7.61,0,0,0-1.79-1.92,2.93,2.93,0,0,0,1.17-.81,3.07,3.07,0,0,0,.72-1.67c.53.58,1,1.18,1.52,1.81a1.042,1.042,0,0,0,.1.33.861.861,0,0,0,.11.19,26.228,26.228,0,0,1-1.73,2.02Zm20.16,20c-6.62-5.93-18.07-10.53-17.62-20.38.18-.22.36-.42.53-.64a.74.74,0,0,0,.58.21c11.72-.57,19.83,9.76,16.61,20.76Z" transform="translate(-43.02 -15.01)" fill="#3c3c3b"/>
    <path id="Path_12198" data-name="Path 12198" d="M340,156a6.21,6.21,0,0,1,.12-1.82c.1-.73-.94-.85-1.28-.34-.8,1.21-1,3.84.27,4.75.62.44,1.32-.16,1.38-.78S340.13,156.63,340,156Z" transform="translate(-43.02 -15.01)" fill="#3c3c3b"/>
  </g>
</svg>
