<svg xmlns="http://www.w3.org/2000/svg" width="77.497" height="81.128" viewBox="0 0 77.497 81.128">
  <path id="soces" d="M407.67,635.45c-4.79-11.52-19.78-8.7-28.12-15.67-11.5-9.6-1.05-24.15-6.61-35.83-4-8.48-15.23-8.89-21.61-3.05a13,13,0,0,0-9,.5c-11.65,4.89-11.94,20.05-10.92,30.69,1.22,12.73,5.88,25.38,15.31,34.31s23.79,12.55,36.74,11.54c5.36-.42,9.71-3,11.84-8.05.12-.29.22-.59.32-.89a.74.74,0,0,0,.42.45C404.87,653.09,410.84,643.07,407.67,635.45Zm-14.51,15a11.44,11.44,0,0,1-9,5.64c-5.79.7-12.35-.2-18-1.41-11.14-2.4-20.2-9.52-25.91-19.31-5.8-10-8.05-22.24-7.36-33.69.38-6.39,2-13.56,7.65-17.41,2.82-1.92,6.5-3.11,9.91-2.14,2.7.76,5.14,4.16,5.62,6.85a6.659,6.659,0,0,1-.25,2.68c-3.41,4.76-3.83,11.5-3.9,17.15-.08,6.34,1.2,12.13,5.18,17.18,7.57,9.61,21.36,15.8,33.48,12.37a.73.73,0,0,0,.33.29c4.74,2.12,4.38,7.99,2.25,11.85Zm-1.45-13.21a.931.931,0,0,0-.22,0,.73.73,0,0,0-.83-.41,32.77,32.77,0,0,1-31.33-10.76c-7.74-9-6.76-20.78-3.56-31.38,1.83-3.9,2.6-8.37-.89-11.69a4.135,4.135,0,0,0-.32-.27,8.45,8.45,0,0,1,10.27,1.79,8.33,8.33,0,0,1,2.56,6,16.46,16.46,0,0,1-1.48,5.05c-2.73.22-3,2.93-2.8,5.41,1.47,1.75,1.59,3.87.33,6.37l-.82,1.21c-.66,1.37-1.81,2.51-2.05,4.09a4.76,4.76,0,0,0,1.1,4.16c3.15,3.59,4.18.81,6.28,7.13.5,1.53.31,2.89,1.68,4,.95.73,1.49.55,2.52.89a49.594,49.594,0,0,1,6.71,2.67c1.66.83,2.27,1.45,4.21,1.09a.48.48,0,0,0,.4-.43h.21a1.51,1.51,0,0,0,1.41-1.15c3.28.62,7-.2,10.09,1.05,4.39,1.77,5.81,9.09,1.08,11.24a7.39,7.39,0,0,0-4.55-6.01Zm-26.79-22.18a.419.419,0,0,0,.13.07,18.418,18.418,0,0,0,2,1.23c2,1.31,2.61,2.92,3.16,5.12a3.53,3.53,0,0,0,1.27,2.29,4.53,4.53,0,0,0,1.79.64c2.09.45,3.17.48,4.85,2.22,1.37,1.42,2,2.94,4.16,2.77a.56.56,0,0,0,.37-.19c.6.09,1.21.23,1.3,1a1.14,1.14,0,0,1-.16.79c-.1.14-.43.4-.53.18a.3.3,0,0,0-.56.15.451.451,0,0,0,0,.11c-2.28,0-4.12-2.57-6.11-3.42s-2.94-.5-5-1.73c-2.93-1.74-1.77-2.65-2.75-5.17a5.76,5.76,0,0,0-1.52-2.3c-1.89-1.76-5-2.38-5.16-5.72-.11-1.87,2.89-4.37,3.64-6.09a6.429,6.429,0,0,0,.68-3.28c-.28-2.12-3.94-5.34-.11-7.14l.11-.05c.28.59.13,3.26.24,3.69.57,2.15,2.12,2,1.5,4.93a10.489,10.489,0,0,1-2.11,3.66c-1.22,1.7-3.42,4.55-1.19,6.29Zm31.5,33a.61.61,0,0,0-.52,0,13,13,0,0,0,.46-3.31c5.11-1.47,5.29-6.75,3.25-10.94-2.42-5-9.74-4.65-14.44-3.82a2.25,2.25,0,0,0-2.69-2,.55.55,0,0,0-.32.26c-2.42-.71-2.79-3-4.7-4.27-2.24-1.47-4.59.09-6.06-3.42-.6-1.42-.53-2.55-1.68-3.78-1-1-3-1.57-4.09-2.51-1.58-2.56,3.21-6.48,3.76-8.85.47-2.07-.48-3.18-1.07-5-.09-.29.12-4.47-1-4.94,2.59-4.38,1.9-9.14-2-12.69-3.07-2.79-8.29-4-11.32-.61a9.569,9.569,0,0,0-1.6-.94c4.44-2.77,10.22-4.08,15-1.28s5.78,8.58,5.7,13.59c-.13,8-2.92,16.36,1.94,23.51,3.82,5.62,10.1,8,16.45,9.5,5,1.15,10.13,2.64,13.29,7,4.59,6.44.92,17.9-8.36,14.54Z" transform="translate(-331.034 -576.976)" fill="#3c3c3b"/>
</svg>
