<svg xmlns="http://www.w3.org/2000/svg" width="89.607" height="91.519" viewBox="0 0 89.607 91.519">
  <g id="pizza" transform="translate(-5008.499 1176.192)">
    <path id="Path_12472" data-name="Path 12472" d="M567.78,128.18c-2.44-.85-6,.1-7,2.6a.31.31,0,0,0-.14.12c-3.37,6.33,8.33,10.93,10.77,4.29C572.49,132.34,570.52,129.14,567.78,128.18Zm2,7.19c-1.94,2.82-5.49,2.12-7.37,0a6,6,0,0,0,3.23,1.17c2.56.08,5.27-2.31,3.81-4.92a.28.28,0,0,0-.51.21c1.37,5.07-7.86,4.6-7.54.23,1.15-2.52,3.59-4.17,6.41-2.67,2.1,1.08,3.45,3.87,2,5.98Z" transform="translate(4462.972 -1277.056)" fill="#3c3c3b"/>
    <path id="Path_12473" data-name="Path 12473" d="M564.8,132.58a.8.8,0,0,1-1.3-.84.2.2,0,1,0-.39-.11,1.2,1.2,0,0,0,1.95,1.3C565.24,132.76,565,132.44,564.8,132.58Z" transform="translate(4462.972 -1277.056)" fill="#3c3c3b"/>
    <path id="Path_12474" data-name="Path 12474" d="M566.92,130a2,2,0,0,0-2.32-.36c-.29.16-.09.58.22.52a2.6,2.6,0,0,1,1.86.15A.2.2,0,0,0,566.92,130Z" transform="translate(4462.972 -1277.056)" fill="#3c3c3b"/>
    <path id="Path_12475" data-name="Path 12475" d="M567.21,131.25c-.08.15-.15.3-.23.46s0,.07.06,0l.22-.45S567.23,131.22,567.21,131.25Z" transform="translate(4462.972 -1277.056)" fill="#3c3c3b"/>
    <path id="Path_12476" data-name="Path 12476" d="M567.53,133.32c-.13.19-.53.37-.73.19s-.06-.62.19-.74.1-.79-.28-.65a1.27,1.27,0,0,0-.55,2,1.23,1.23,0,0,0,2.05-.54.37.37,0,0,0-.68-.26Z" transform="translate(4462.972 -1277.056)" fill="#3c3c3b"/>
    <path id="Path_12477" data-name="Path 12477" d="M595.06,155.84c-.29,0-.91.33-.74.74a.3.3,0,0,0,.56,0,.12.12,0,0,0-.07-.16h.38a2.931,2.931,0,0,1-.79.78.59.59,0,0,1-.67,0c-.19-.15-.31-.42-.11-.6s-.12-.58-.37-.36c-.56.48-.14,1.34.47,1.57.88.34,1.65-.55,2-1.26l.18.09a1.34,1.34,0,0,1,.64.94c.05.28.43.18.45-.06a1.61,1.61,0,0,0-1.93-1.68Z" transform="translate(4462.972 -1277.056)" fill="#3c3c3b"/>
    <path id="Path_12478" data-name="Path 12478" d="M597,159.54a1.09,1.09,0,0,1-.91.51c-.5,0,0-.55.26-.44a.213.213,0,1,0,.21-.37c-.74-.54-1.86.44-1.37,1.24a1.33,1.33,0,0,0,1.38.38,1.36,1.36,0,0,0,1-1.06.34.34,0,0,0-.57-.26Z" transform="translate(4462.972 -1277.056)" fill="#3c3c3b"/>
    <path id="Path_12479" data-name="Path 12479" d="M590.88,170.09v-.05a7,7,0,0,0-1.07-2.6c-1.61-2.37-5.5-4.08-7.75-1.51a.37.37,0,0,0,0,.43,6.38,6.38,0,0,0-2.16,6.41c.18,3.73,2,7.36,6.51,6.83a6.22,6.22,0,0,0,4.47-9.51Zm-8.21-3.68c2.41-1.13,5-.69,6.35,1.82s.78,6.42-2.27,7.5a4.39,4.39,0,0,1-5.62-3.26,6.75,6.75,0,0,1,1.54-6.06Zm2.68,12.33a4.39,4.39,0,0,1-4.33-3.53,5.45,5.45,0,0,0,7.13,1.35,5.74,5.74,0,0,0,2.7-4C591.16,175.74,589.07,178.86,585.35,178.74Z" transform="translate(4462.972 -1277.056)" fill="#3c3c3b"/>
    <path id="Path_12480" data-name="Path 12480" d="M585.45,172.54c-.07-.25-.48-.21-.46.06,0,.7-.51,1.53-1.29,1.37a1.2,1.2,0,0,1-.86-1.53c.08-.25-.29-.34-.38-.11a1.58,1.58,0,1,0,3,.21Z" transform="translate(4462.972 -1277.056)" fill="#3c3c3b"/>
    <path id="Path_12481" data-name="Path 12481" d="M584,170.11a.84.84,0,0,0-.74,1.24.231.231,0,0,0,.4-.23c-.09-.18.14-.42.29-.46a.52.52,0,0,1,.48.16,1.919,1.919,0,0,1,.38.72c.08.2.43.19.41-.06C585.18,170.85,584.75,170.07,584,170.11Z" transform="translate(4462.972 -1277.056)" fill="#3c3c3b"/>
    <path id="Path_12482" data-name="Path 12482" d="M587.94,171.4c-.05-.25-.43-.18-.44.06a1.59,1.59,0,0,1-1,1.39.26.26,0,0,1,.07-.28.25.25,0,0,0-.35-.35.89.89,0,0,0-.09,1.29.32.32,0,0,0,.33.09,1.85,1.85,0,0,0,1.48-2.2Z" transform="translate(4462.972 -1277.056)" fill="#3c3c3b"/>
    <path id="Path_12483" data-name="Path 12483" d="M585.34,167.9c-.15.33-.42.72-.84.63a.68.68,0,0,1-.36-1c.12-.22-.19-.48-.36-.28a1.31,1.31,0,0,0,.37,2,1.28,1.28,0,0,0,1.84-1.1C586,167.77,585.49,167.56,585.34,167.9Z" transform="translate(4462.972 -1277.056)" fill="#3c3c3b"/>
    <path id="Path_12484" data-name="Path 12484" d="M575.75,151.13a4,4,0,0,0-.56-.82,7,7,0,0,0-4.19-2.2,2.16,2.16,0,0,0-2.44.83l-.32.1c-3,.05-3.74,4-2.84,6.27a6.005,6.005,0,0,0,.38.76,5.77,5.77,0,0,0,7.34,4.93,5.94,5.94,0,0,0,2.63-9.87Zm-8.69-.17a5.38,5.38,0,0,1,.77-.73c.47-.11.53-.3.95-.59l.33-.2a5,5,0,0,1,.68-.24.13.13,0,0,0,.07,0,3.36,3.36,0,0,1,1.9.25c2.52.91,4.33,3.56,2.8,6.17a4.56,4.56,0,0,1-6.59,1.14,5.53,5.53,0,0,1-1.86-3.58,4.941,4.941,0,0,1,.95-2.18Zm5.83,9.21a5.24,5.24,0,0,1-6.3-3,5.91,5.91,0,0,0,6.95,1.1,5.47,5.47,0,0,0,2.82-4.63c.64,2.7-.26,5.6-3.47,6.53Z" transform="translate(4462.972 -1277.056)" fill="#3c3c3b"/>
    <path id="Path_12485" data-name="Path 12485" d="M573.08,153.71c-.13-.31-.69-.17-.64.17a1,1,0,0,1-.71,1.18c-.61.09-1-.63-.9-1.16.08-.31-.36-.41-.47-.13a1.48,1.48,0,1,0,2.72-.06Z" transform="translate(4462.972 -1277.056)" fill="#3c3c3b"/>
    <path id="Path_12486" data-name="Path 12486" d="M571.18,150.63a.81.81,0,0,0-.67,1.07.34.34,0,0,0-.51.13,1.43,1.43,0,0,1-1.21.79c-.51,0-1.57-.26-.77-.84a.22.22,0,0,0-.21-.38c-.44.22-1,.69-.73,1.21a1.83,1.83,0,0,0,1.17.8,2,2,0,0,0,2.45-1.29.3.3,0,0,0,0-.16.16.16,0,1,0,.22-.23.36.36,0,0,1,.19-.57.63.63,0,0,1,.65.27,2.71,2.71,0,0,1,.35,1.16.23.23,0,0,0,.45-.06C572.57,151.73,572.19,150.55,571.18,150.63Z" transform="translate(4462.972 -1277.056)" fill="#3c3c3b"/>
    <path id="Path_12487" data-name="Path 12487" d="M593.89,129.56a.14.14,0,0,0-.18-.06,5,5,0,0,0-.67-1.34c-1.44-1.89-4.74-2.77-6.41-.82a.18.18,0,0,0-.16,0,4.86,4.86,0,0,0-2.28,5.79c-.5,3,4.43,5.2,6.86,4.46C594.49,136.55,595.49,132.52,593.89,129.56Zm-7.61-1.42a.31.31,0,0,0,.45.16,4.221,4.221,0,0,1,3.18-1.05,3.69,3.69,0,0,1,2.81,2.49,4.26,4.26,0,0,1-2.29,5.18,4.12,4.12,0,0,1-5-1.79A4.44,4.44,0,0,1,586.28,128.14Zm5.4,8.34c-1.72,1-4.62.23-6.12-1.38a5.38,5.38,0,0,0,6.15.51,5.15,5.15,0,0,0,2.27-4.08,4.84,4.84,0,0,1-2.3,4.95Z" transform="translate(4462.972 -1277.056)" fill="#3c3c3b"/>
    <path id="Path_12488" data-name="Path 12488" d="M588.27,130.34a.19.19,0,1,0-.35.15.54.54,0,0,1-.35.64.44.44,0,0,1-.45-.62c.12-.27-.27-.51-.41-.24a1,1,0,0,0,.76,1.45.93.93,0,0,0,.8-1.38Z" transform="translate(4462.972 -1277.056)" fill="#3c3c3b"/>
    <path id="Path_12489" data-name="Path 12489" d="M588.05,129.28a.25.25,0,0,0,.35.35.67.67,0,0,1,1.11.65.22.22,0,0,0,.42.11,1.11,1.11,0,0,0-1.88-1.11Z" transform="translate(4462.972 -1277.056)" fill="#3c3c3b"/>
    <path id="Path_12490" data-name="Path 12490" d="M589.36,133.38a.91.91,0,0,1-.74.45,1.18,1.18,0,0,1,.78-1.33.22.22,0,0,0-.11-.42,1.76,1.76,0,0,0-1.36,2.17c.17.41.79.41,1.15.31a1.2,1.2,0,0,0,.86-1C590,133.21,589.51,133.15,589.36,133.38Z" transform="translate(4462.972 -1277.056)" fill="#3c3c3b"/>
    <path id="Path_12491" data-name="Path 12491" d="M591.49,131.22c-.08.32-.63.5-.82.18a.19.19,0,0,0-.35.14c.23.93,1.8.65,1.62-.32a.24.24,0,0,0-.45,0Z" transform="translate(4462.972 -1277.056)" fill="#3c3c3b"/>
    <path id="Path_12492" data-name="Path 12492" d="M589.39,115.81c-.25-1.62-1.33-3.47-3-3.67a4.69,4.69,0,0,0-5.88.73,3.88,3.88,0,0,0-1.07,5.25,5,5,0,0,0,8.08,2.71,5.39,5.39,0,0,0,1.87-5.02Zm-9-2a.33.33,0,0,0,.26-.08c1.55-1.39,3.7-2.24,5.53-.75a3.58,3.58,0,0,1-.13,5.75,4.66,4.66,0,0,1-5.58-.88,3.42,3.42,0,0,1-.1-4.04Zm6,6.74a4.27,4.27,0,0,1-5.57-1.08,5.38,5.38,0,0,0,6.2-.21,4.37,4.37,0,0,0,1.35-4.31,5.829,5.829,0,0,1,.26,2,4.43,4.43,0,0,1-2.25,3.6Z" transform="translate(4462.972 -1277.056)" fill="#3c3c3b"/>
    <path id="Path_12493" data-name="Path 12493" d="M583.34,115.16a.7.7,0,0,1-1,.42.68.68,0,0,1,.06-1.11.2.2,0,0,0-.2-.34,1.13,1.13,0,1,0,1.6,1.09C583.88,114.93,583.43,114.9,583.34,115.16Z" transform="translate(4462.972 -1277.056)" fill="#3c3c3b"/>
    <path id="Path_12494" data-name="Path 12494" d="M583.87,113.61c-.28,0-.16.46.12.42a1,1,0,0,1,1,1.35c-.07.22.28.37.38.16a1.41,1.41,0,0,0-1.5-1.93Z" transform="translate(4462.972 -1277.056)" fill="#3c3c3b"/>
    <path id="Path_12495" data-name="Path 12495" d="M582.94,117.4a.18.18,0,0,0,.33.14,1,1,0,0,1,.94-.52c.43.07.58.42.71.78a.25.25,0,0,0,.48-.07C585.55,116.33,583.2,116,582.94,117.4Z" transform="translate(4462.972 -1277.056)" fill="#3c3c3b"/>
    <path id="Path_12496" data-name="Path 12496" d="M635,145.65a1.007,1.007,0,0,0,0-.18c.72-16.45-9.09-32.58-23.73-39.94-15.36-7.72-34-5.59-47.82,4.38-14.26,10.25-19.82,29.24-17.36,46.09,2.43,16.59,12,29.61,28.39,34.27,16.7,4.74,42,2.39,49.07-16.26a.39.39,0,0,0-.28-.51c1.41-5.06-6.83-5.82-9.83-7.56-3.2-1.85-6.24-4.05-9.29-6.19a.46.46,0,0,0-.22-.15c-1.06-.74-2.11-1.47-3.17-2.18A93.472,93.472,0,0,1,589.2,149c9-.42,18-.8,27-1.19a58.807,58.807,0,0,1,6.07-.26c1.84.13,3.43.9,5.24,1.07a10.84,10.84,0,0,0,7.33-2.05.63.63,0,0,0,.16-.92Zm-33.26,14,1.4.94c-1.19,2.32-3,4.2-6,3.54a5.43,5.43,0,0,1-2.11-1,5.84,5.84,0,0,0,6.66-3.43ZM593.33,154c2.38,1.76,4.85,3.39,7.31,5-1.23,2.36-3.73,4-6.39,2.55A4.32,4.32,0,0,1,592,158C592,156.73,592.06,154.62,593.33,154Zm30.11-7.61c-3.59-.5-7.56.18-11.15.36q-12.27.61-24.52,1.18a.6.6,0,0,0-.42,1,51,51,0,0,0,5.35,4.59c-1.13.48-1.54,1.81-1.73,3.07a6.32,6.32,0,0,0,.63,4.08,7.9,7.9,0,0,0,5.51,4.71,6.31,6.31,0,0,0,6.91-4.09c2.88,2,5.73,4.06,8.71,5.87a38.323,38.323,0,0,0,4.4,1.76c-1.94.53-2,2.07-3.11,4-1.84,3.1-3.48,3.11-6.21,4.46a8.26,8.26,0,0,0-2.6,2.16c-.74.84-1.26,2.2-2.16,2.83-2.15,1.51-5.21,1.35-7.59,1.12a15.26,15.26,0,0,0-4.77,0c-3.25.72-4.52,2.5-8.41.47-1.4-.73-2.26-1.73-3.84-2.15s-3.56-.07-5.11-.71c-2.3-.93-2.14-2.4-3.8-3.47-2.58-1.67-4.91-2.38-7-4.78a21.23,21.23,0,0,1-4.82-8.44c-.49-1.77-.59-3.72-1.48-5.37-1.26-2.35-2.68-3.46-3.18-6.33-1.11-6.43.38-12.9,2-19.11.7.2.94-.84.28-1.11-.4-.16,4-6.87,4.55-7.74,1.45-2.21,3.11-3,5.18-4.41a8.09,8.09,0,0,0,2.08-1.79,20.337,20.337,0,0,0,1.09-1.79c1.36-2.13,2.06-2.16,4.38-2.9,4.13-1.31,7.55-4.94,12-5.28,2.06-.15,4.32.73,6.47.64a21,21,0,0,1,9.88,2,43.341,43.341,0,0,1,5.56,2.72c2.15,1.36,2.4,3,3.54,5a25.791,25.791,0,0,0,2.64,3.6c1.92,2.37,2.06,4.45,2.69,7.2a.984.984,0,0,0,.08.28,7.49,7.49,0,0,0-1.89-1.7,6.58,6.58,0,0,0-2.09-1.56c-2.56-1.23-6.53-.21-6.46,3.16a.36.36,0,0,0,.09.23c-1.07,1.58.18,4.32,1.78,5.4.13.09.28.15.42.23a5.82,5.82,0,0,0,6.21,1.3,4.23,4.23,0,0,0,3-4.6v-.15c1.67,2.6,4.39,4.4,4.74,8.12.23,2.46.21,4.55,2.42,6Zm-17.52-15.82a2.5,2.5,0,0,1,.89-1.07.19.19,0,0,0-.15-.34,2.841,2.841,0,0,0-.64.25c1.43-4.59,9.37-1.13,7.75,3.52a3.93,3.93,0,0,1-4.54,2.53,4.77,4.77,0,0,1-1.7-.73,6,6,0,0,1-1.61-4.18Zm8.38,3.59a4.68,4.68,0,0,0-.08-5,4.19,4.19,0,0,1,1.57,2.28,4,4,0,0,1-3.56,5,5.85,5.85,0,0,1-1.25,0,4.71,4.71,0,0,0,3.32-2.3Zm9.51,12.29a.12.12,0,0,0,.07-.18c-2.43-3.44-.43-8.14-3.19-11.5-.82-1-2.24-1.66-3-2.71-1.12-1.59-1.12-3.92-1.73-5.66a12.242,12.242,0,0,0-1.78-3.51c-1-1.31-2.29-2.41-3-3.87-.54-1.06-.41-2.93-1-3.84-.72-1.15-1.85-1.57-3-2.19-4.15-2.22-8.78-4.89-13.62-5-4.5-.14-9.53-1.08-13.75.91-1.19.56-2.22,1.38-3.36,2-1.93,1.11-3.64,1.15-5.7,1.88a4.84,4.84,0,0,0-2.67,1.94c-1.56,2-2.15,3.41-4.54,4.85-1.17.71-1.76.75-2.73,1.89a61.327,61.327,0,0,0-5.43,8.08c-.86,1.45-1.48,1.92-1.24,3.54a.52.52,0,0,0,.31.37,34.39,34.39,0,0,0-3,15.79,22.471,22.471,0,0,0,1.07,7.25c.2.48.72.81,1,1.26,1.84,3.32,2.08,3.25,2.85,6.33,1.16,4.62,3.73,8.09,7,11.51,1.62,1.7,2.74,1.73,4.51,2.83s2.8,3,4.7,3.75c2.53,1.08,5.27.39,7.76,1.84,1.41.83,2.5,2.21,4.19,2.51,1.51.27,2.8-.32,4.19-.83,3.57-1.3,6.21-.56,9.83-.54,4.94,0,5.31-3,8.62-5.69,1.68-1.4,4.22-1.27,6-2.48,2-1.39,3-6.68,5.16-6.89a.66.66,0,0,0,.59-.47c2.31,1.06,4.18,2.44,3.43,4.42a.38.38,0,0,0,.11.42c-9.07,14.64-26.78,18.54-43.09,15.4S552,176.11,548.32,160.07c-3.66-15.81,0-34.75,12.42-46,11.85-10.71,29.77-14.48,44.81-9,17.42,6.32,27.36,22.32,28.13,40.4a.72.72,0,0,0,.11.34c-3.79,2.26-6.14,1.19-9.98.62Z" transform="translate(4462.972 -1277.056)" fill="#3c3c3b"/>
    <path id="Path_12497" data-name="Path 12497" d="M610.94,132.53a.33.33,0,0,0-.64,0,1.21,1.21,0,0,1-.74,1,.94.94,0,0,1-.64.06c-.32-.15,0-.71.17-.9s-.07-.35-.23-.22c-.34.27-.8.87-.62,1.36s.73.49,1.08.48a1.6,1.6,0,0,0,1.62-1.78Z" transform="translate(4462.972 -1277.056)" fill="#3c3c3b"/>
    <path id="Path_12498" data-name="Path 12498" d="M609.19,130.47c-.36-.77-1.7-1.41-2.28-.48-.35.58,0,1.63.76,1.55a.2.2,0,0,0,0-.39c-.41,0-.46-.62-.2-.85s1,.11,1.28.44a.26.26,0,0,0,.44-.27Z" transform="translate(4462.972 -1277.056)" fill="#3c3c3b"/>
    <path id="Path_12499" data-name="Path 12499" d="M612,129.19c-.26-.32-.67,0-.62.36s.15.81-.17,1-.79-.17-.44-.5,0-.49-.28-.36a1,1,0,0,0,.51,1.73,1.37,1.37,0,0,0,1-2.23Z" transform="translate(4462.972 -1277.056)" fill="#3c3c3b"/>
    <path id="Path_12500" data-name="Path 12500" d="M605.44,119.8a6.09,6.09,0,0,1-2.72-1.21.47.47,0,0,0-.64,0,8.652,8.652,0,0,0-1.82,3.09.43.43,0,0,0,.61.47c.52.48,1.06.93,1.53,1.45a.42.42,0,0,0,.66-.09,9.81,9.81,0,0,1,2.49-2.84C605.84,120.45,605.88,119.88,605.44,119.8Zm-2.87,2.89c-.47-.33-.92-.7-1.37-1a12.279,12.279,0,0,1,1.29-2.11,6.12,6.12,0,0,0,1.82,1A9.491,9.491,0,0,0,602.57,122.69Z" transform="translate(4462.972 -1277.056)" fill="#3c3c3b"/>
    <path id="Path_12501" data-name="Path 12501" d="M595.63,115.91a24.334,24.334,0,0,1-.5-2.68.62.62,0,0,0-.6-.6,5.62,5.62,0,0,0-1.69.11.45.45,0,0,0-.3.58c-.22,1.72-.52,5.25,1.86,5.54.67.08,1.68-.26,1.74-1a6.871,6.871,0,0,0-.51-1.95Zm-1,1.84c-1.33.23-1.45-2.66-1.49-4a5.62,5.62,0,0,0,.92.09c.08.57.17,1.14.3,1.71s.22.94.35,1.4.37.71-.13.8Z" transform="translate(4462.972 -1277.056)" fill="#3c3c3b"/>
    <path id="Path_12502" data-name="Path 12502" d="M584,123a5.27,5.27,0,0,1-2.29-1,.43.43,0,0,0-.67.08c-.8,1.34-1.67,2.63-2.54,3.92a.28.28,0,0,0-.16.45l2.08,2.46a.37.37,0,0,0,.58-.08,18.13,18.13,0,0,1,3.2-5.16.43.43,0,0,0-.2-.67Zm-3.49,5-1.4-1.45a.32.32,0,0,0,.12-.11,38.768,38.768,0,0,0,2.31-3.52,5.449,5.449,0,0,0,1.56.74,14.3,14.3,0,0,0-2.59,4.34Z" transform="translate(4462.972 -1277.056)" fill="#3c3c3b"/>
    <path id="Path_12503" data-name="Path 12503" d="M573.39,124.24A42.1,42.1,0,0,1,570.8,119c-.11-.26-.48-.45-.7-.18-.55.66-1.7,1.54-1.49,2.51a7.13,7.13,0,0,0,.92,1.72c.5.9,1,1.79,1.52,2.68.17.3.6,0,.46-.26v-.07a6.84,6.84,0,0,0,1.76-.57.45.45,0,0,0,.12-.59Zm-3.48-2c-.22-.44-.58-.89-.44-1.41a2.87,2.87,0,0,1,.79-1,42.558,42.558,0,0,0,2.1,4.36,6.178,6.178,0,0,1-1.18.31.33.33,0,0,0-.12,0c-.39-.68-.77-1.5-1.15-2.23Z" transform="translate(4462.972 -1277.056)" fill="#3c3c3b"/>
    <path id="Path_12504" data-name="Path 12504" d="M565.11,143.25a.37.37,0,0,0-.38-.37c-1.17,0-2.34-.08-3.52-.1a15.459,15.459,0,0,0-3.26,0c-1.33.3-1,1.88-.77,2.9.11.51,1,.41.93-.13s-.35-1.4.12-1.79c.28-.23,1.79,0,2.17,0,1.32,0,2.64,0,4-.07v1.84a22.3,22.3,0,0,0-5.94-.21.25.25,0,0,0,0,.5,34.112,34.112,0,0,1,6.22.49.37.37,0,0,0,.47-.35C565.11,145,565.11,144.13,565.11,143.25Z" transform="translate(4462.972 -1277.056)" fill="#3c3c3b"/>
    <path id="Path_12505" data-name="Path 12505" d="M579.77,146.6c-.24-1-.47-2-.73-3a4.739,4.739,0,0,0-.93-2.05c-.66-.69-2.18-1-2.68,0a.291.291,0,0,0,0,.2.23.23,0,0,0-.1.21c.17,1,.37,2,.57,2.92a4.109,4.109,0,0,0,.65,1.9c.72.83,2,.6,2.94.37a.45.45,0,0,0,.28-.55Zm-1.94-.11c-.79-.09-1-.76-1.22-1.44-.27-1-.54-2-.84-3h.16c1.29-.73,1.89.51,2.18,1.62l.69,2.72a2.89,2.89,0,0,1-.97.1Z" transform="translate(4462.972 -1277.056)" fill="#3c3c3b"/>
    <path id="Path_12506" data-name="Path 12506" d="M568.24,164.39a.48.48,0,0,0-.56-.07,3.4,3.4,0,0,0-1.36,1.21.37.37,0,0,0-.31,0,.28.28,0,0,0-.2.26c-.07.6.46,1.18.75,1.66a22.692,22.692,0,0,0,1.42,2.31,2.49,2.49,0,0,0,2.67,1.14C573.91,169.88,569.09,165.41,568.24,164.39Zm1.43,5.69c-.85-.23-1.33-1.22-1.77-1.89a18.565,18.565,0,0,0-1.35-1.9h.1a10.48,10.48,0,0,0,1.18-.93l1.65,1.95a9.561,9.561,0,0,1,1.07,1.31C570.93,169.31,570.62,170.34,569.67,170.08Z" transform="translate(4462.972 -1277.056)" fill="#3c3c3b"/>
    <path id="Path_12507" data-name="Path 12507" d="M583.21,153.68a.47.47,0,0,0-.58.44,17.339,17.339,0,0,1-1.32,5.17.29.29,0,0,0,0,.52,19.219,19.219,0,0,0,3.46,1.64.4.4,0,0,0,.49-.38,11.872,11.872,0,0,1,.5-3.51c.22-.69.94-1.6.89-2.38C586.53,153.87,584.06,153.87,583.21,153.68Zm1.77,3.16a9.4,9.4,0,0,0-.57,3.68,14.738,14.738,0,0,1-2.22-.9,15.8,15.8,0,0,0,1.3-5,4.62,4.62,0,0,1,1.73.43c.61.45,0,1.17-.22,1.79Z" transform="translate(4462.972 -1277.056)" fill="#3c3c3b"/>
    <path id="Path_12508" data-name="Path 12508" d="M602.13,169.2a27,27,0,0,1-4.67-.22.48.48,0,0,0-.57.32,10.728,10.728,0,0,0-.5,2.69.23.23,0,0,0,0,.24v.12a.41.41,0,0,0,.68.33,22.711,22.711,0,0,0,3.93,1.69.42.42,0,0,0,.52-.3c.36-1.43.71-2.86,1.06-4.3a.46.46,0,0,0-.45-.57Zm-1.33,4.22a29,29,0,0,1-3.52-1.28,14.848,14.848,0,0,1,.4-2.23,29.715,29.715,0,0,0,3.89.19C601.31,171.2,601.05,172.31,600.8,173.42Z" transform="translate(4462.972 -1277.056)" fill="#3c3c3b"/>
    <path id="Path_12509" data-name="Path 12509" d="M609.71,168.33a.5.5,0,0,0-.49-.49,18.109,18.109,0,0,1-2.75-.44.46.46,0,0,0-.57.56c.3,1.31.53,2.63.77,3.95h0c-.57.22-.36,1.1.21,1a.9.9,0,0,0,.08.45c.06.31.59.24.55-.08l-.06-.52a3.29,3.29,0,0,1,1.67.08.5.5,0,0,0,.64-.48C609.72,171,609.72,169.67,609.71,168.33Zm-2.44,3.4c-.15-1.1-.29-2.2-.4-3.3.61.14,1.23.25,1.85.33v3a4.15,4.15,0,0,0-1.45-.03Z" transform="translate(4462.972 -1277.056)" fill="#3c3c3b"/>
  </g>
</svg>
