<svg xmlns="http://www.w3.org/2000/svg" width="86.965" height="77.263" viewBox="0 0 86.965 77.263">
  <g id="berger" transform="translate(-4774.237 1050.574)">
    <path id="Path_12426" data-name="Path 12426" d="M317.625,599.1c1.956-7.2-.89-14.22-7.677-17.408a3.335,3.335,0,0,0,3.13-4.107,4.088,4.088,0,0,0-2.562-2.934,5.251,5.251,0,0,0-2.934-.156c.264-9.662-1.721-19.667-8.156-27.158-6.934-8.049-17.017-9.78-27.158-8.44-8.978,1.154-18.053,4.743-24.215,11.579-6.445,7.139-8.557,16.723-8.714,26.083a6.366,6.366,0,0,0-4.587-1.046,3.912,3.912,0,0,0-2.856,3.129,3.726,3.726,0,0,0,1.457,3.677,4.351,4.351,0,0,0,1.6.724,4.362,4.362,0,0,0-.254,5.868,13.907,13.907,0,0,0-3.169,9.526.353.353,0,0,0,0,.685l.293.068a.577.577,0,0,0,.5.117l.978.235a4.581,4.581,0,0,0,1.35.225.274.274,0,0,0,.411.166,37.561,37.561,0,0,1,5.31-2.484c-.724,2.533-.479,5.183,1.506,6.631-1.8,4.108-2.23,9.4,2.934,10.993,3.716,1.154,8.244.489,12.078.479,5.34,0,10.67-.059,16-.088l15.061-.108c3.5,0,7.667.479,10.992-.929,4.89-2.064,4.821-7.325,3.071-11.569a6.23,6.23,0,0,0,2.934-7.628,50.954,50.954,0,0,1,5.643,2.758c1.32.743,3.012,2.416,4.479,2.719s2.846-.137,2.474-1.6Zm-10.288-20.988a.665.665,0,0,0,.108-.332q.068-.978.117-1.907a5.234,5.234,0,0,1,1.467-.245,3.012,3.012,0,0,1,2.572,1.545,2.328,2.328,0,0,1-2.24,3.531,2.709,2.709,0,0,0,.655-1.819.46.46,0,0,0-.851-.235,11.008,11.008,0,0,1-.831,1.663,3.028,3.028,0,0,1-.489.509.414.414,0,0,0-.1.088,4.224,4.224,0,0,1-.978.577c-.44.186-.127.91.323.773a5.1,5.1,0,0,0,.978-.46c1.125,1.056.509,2.621-1.154,2.826s-3.032-.978-4.342-1.75a.342.342,0,0,0-.509.342.587.587,0,0,0-.5.743,2.034,2.034,0,0,1-.919,2.494,2.181,2.181,0,0,1-2.7-.9c-.176-.274-.694-.1-.557.245v.059a.459.459,0,0,0-.117.391c.567,2.464-1.8,3.2-3.57,1.956-.548-.381-1.105.342-.851.861-.978,2.386-2.181,2.846-3.609,1.359a5.317,5.317,0,0,1-.851-1.193,6.386,6.386,0,0,1-.7-2.093,1.447,1.447,0,0,0,0-.411,5,5,0,0,0,1.868,0,.4.4,0,0,0,0-.763,5.867,5.867,0,0,0-2.112-.235,3.675,3.675,0,0,0-1.848.156.235.235,0,0,0,0,.4,2.278,2.278,0,0,0,1.056.333,5.72,5.72,0,0,1-.3.929,2.524,2.524,0,0,1-1.535,1.242,2.562,2.562,0,0,1-2.934-2.416.313.313,0,0,0-.42-.274,2.582,2.582,0,0,0,0-1.222,76.085,76.085,0,0,0,8.1-.851c5.663-.919,12.714-1.418,17.428-5.027a.88.88,0,0,0,.352-.89Zm-29.77,21.926a34.228,34.228,0,0,1,10.758-9,3.405,3.405,0,0,0,.313.333c-4.733,1.868-8.8,7.374-10.953,11.794,0-.616.059-1.232,0-1.858a4.129,4.129,0,0,0-.117-1.262Zm-28.361-48.4c5.77-6.337,14.142-9.643,22.493-10.836,9.78-1.408,19.736,0,26.474,7.824,6.934,8.1,7.912,18.826,7.824,29.056-4.391,3.012-10.807,3.609-15.951,4.489a89.979,89.979,0,0,1-18.337,1.056c-10.5-.342-21.887.293-31.432-4.753h0c.675-9.5,2.269-19.511,8.939-26.826Zm26.845,35.53c.851.978-.372,2.015-1.262,2a3.248,3.248,0,0,1-1.692-.646c-.372-.245-.773.3-.469.606l.284.254c0,3.4-5.966.9-5.33-.6.225-.538-.46-1.271-.909-.7a4.8,4.8,0,0,1-1.252,1.261c-1.956.381-2.934-.117-3.012-1.486a3.765,3.765,0,0,0,1.956-.3.518.518,0,0,0-.254-.978c-.724,0-1.418.176-2.142.117a6.654,6.654,0,0,0-1.888-.235.293.293,0,0,0-.176.43,1.828,1.828,0,0,0,1.183.743c-.87,1.34-2.21,2.21-3.853,1.33s-1.956-2.934-1.565-4.626c5.379.518,10.9.391,16.019.587,2.885.108,5.741.117,8.587,0a2.034,2.034,0,0,1-.841,1.79,1.819,1.819,0,0,1-2.455-.538c-.548-.616-1.467.332-.919,1ZM236.512,583a1.847,1.847,0,0,0,.587-.333.45.45,0,0,0-.176-.743.244.244,0,0,0-.205,0,5.406,5.406,0,0,1-2.24-.528,2.337,2.337,0,0,1-.978-2.778c.861-2.689,3.912-1.711,5.868-.978v1.291a.4.4,0,0,0,.156.323.508.508,0,0,0,.205.254c4.489,2.934,9.721,4.245,15.129,4.831a1.4,1.4,0,0,0-.078.176.4.4,0,0,0-.284,0c-.655.166-.978.782-1.751.88a2.171,2.171,0,0,1-2.073-.822.636.636,0,0,0-.841.822c2.308,2.4-2.787,4.714-3.511,1.956a.557.557,0,0,0-.978-.127c-.978,1.712-2.934,1.105-3.57-.381a3.335,3.335,0,0,0,1.888-.186.489.489,0,0,0-.117-.9c-.665-.156-1.359-.1-2.034-.245a5.71,5.71,0,0,1-1.389-.489.284.284,0,0,0-.186-.293,2.483,2.483,0,0,0-.714-.117.518.518,0,0,0-.362.87,6.5,6.5,0,0,0,1.408.88,6.926,6.926,0,0,1-1.262,2.054,2.269,2.269,0,0,1-3.345-.088C234,586.44,235.192,584.445,236.512,583Zm-1.193,6.533c2.21,1.633,4.89,0,5.672-2.347a2.787,2.787,0,0,0,4.684,1.193,3.55,3.55,0,0,0,4.714.616,2.768,2.768,0,0,0,1.076-2.778,3.389,3.389,0,0,0,1.115.2,3.521,3.521,0,0,0,1.9-.587,4.45,4.45,0,0,0,2.592,4.459,3.912,3.912,0,0,0,4.479-.978c.734,1.7,3.364,1.956,5.017.714.606,1.408,2.65,2.015,4.264,2.1,1.35.078,3.032-.773,3.09-2.044a2.67,2.67,0,0,0,2.729-.264,2.4,2.4,0,0,0,.91-1.555,2.934,2.934,0,0,0,3.667-1.516,3.286,3.286,0,0,0,3.433,3.13,4.352,4.352,0,0,0,2.4-1.36,6.524,6.524,0,0,0,.567,1.584,25.916,25.916,0,0,0-10.895,9.437,37.026,37.026,0,0,0-24.567-8.391,36.4,36.4,0,0,0-13.291,3c-.792.352-5.056,3.257-5.731,3.139-1.418-.313,1.32-6.142,2.181-7.775Zm5.643,6.455a1.319,1.319,0,0,0-.068.176,28.756,28.756,0,0,0-5.868,3.149.312.312,0,0,0-.117-.137,4.075,4.075,0,0,0-1.5-.391h-.1c13.428-8.939,29.965-8.088,42.679,1.819a.7.7,0,0,0,.391.137,3.956,3.956,0,0,0,.069.9,5.8,5.8,0,0,1,.088.782c-9.9-7.384-23.471-10.807-35.09-6.474a.313.313,0,0,0-.489.02Zm55.3,17.516a35.616,35.616,0,0,1-7.364.323c-5.643,0-11.3.078-16.939.117-5.33,0-10.67,0-16,.127-2.6,0-5.242.205-7.824.078-6.376-.313-6.474-4.948-5.643-9.633a6.34,6.34,0,0,0,1.487.548c4.655,1.066,10.279.489,15.041.655,4.538.156,9.076.274,13.613.313s20.2,1.349,28.107-2.4c1.7,4.274.538,8.7-4.479,9.848Zm-24.616-9.124c-5.193,0-10.376-.147-15.56-.3l-7.824-.274c-2.934-.108-2.67.166-4.968-2.484-2.064-2.386-2.073-2.308-1.878-4.176,12.225-4.166,24.655-.978,35.461,7.041a.577.577,0,0,0,.861-.381.46.46,0,0,0,.7-.108,41.237,41.237,0,0,1,4.89-6.543c1.751-1.848,3.912-3.188,5.682-5a.441.441,0,0,0,.117-.254,3.911,3.911,0,0,0,1.848.694,3.051,3.051,0,0,0,2.152-.587,60.092,60.092,0,0,1,9.956,2.6c4.01,12.088-24.938,9.77-31.442,9.75Zm41.7-5.956c-.978-.479-1.956-1.144-2.934-1.663a52.912,52.912,0,0,0-5.477-2.464l-.313-.108h0a.812.812,0,0,0-1.164-.4,51.313,51.313,0,0,0-9.672-2.347h0a40.79,40.79,0,0,1,22.7,7.883c.029.352-3.041-.88-3.139-.919Zm1.389-1.819c-1.438-.655-2.738-1.633-4.186-2.318a36.369,36.369,0,0,0-16.45-3.462,2.932,2.932,0,0,0,.215-.919,3.2,3.2,0,0,0,3.4-.518,2.65,2.65,0,0,0,.89-2.191,2.758,2.758,0,0,0,2.435.293,2.934,2.934,0,0,0,1.9-2.846.45.45,0,0,0,.059-.225v-.274c1.7,1.457,4.147,2.562,6.1.978a3.09,3.09,0,0,0,.88-2.729c3.912,2.465,6.66,6.122,7.09,10.846.245,3.081.7,4.743-2.337,3.345Z" transform="translate(4542.972 -1589.055)" fill="#3c3c3b"/>
    <path id="Path_12427" data-name="Path 12427" d="M270.984,544.563a2.562,2.562,0,0,0-2.5,0c-.812.459-1.633,1.526-1.193,2.494a1.506,1.506,0,0,0,2.093.577,2.738,2.738,0,0,0,1.134-2.562.332.332,0,0,0-.068-.156,1.284,1.284,0,0,1,.391,0C271.033,544.983,271.2,544.651,270.984,544.563Zm-1.643,1.868c-.274.372-1.2.646-1.066-.117a2.063,2.063,0,0,1,1.584-1.32A4.235,4.235,0,0,1,269.341,546.431Z" transform="translate(4542.182 -1589.182)" fill="#3c3c3b"/>
    <path id="Path_12428" data-name="Path 12428" d="M277.185,543.092a4.323,4.323,0,0,0-2.846-.763.156.156,0,0,0-.157.117.352.352,0,0,0-.342.391c.205,1.183,2.641,3.579,3.8,2.161C278.163,544.364,277.732,543.542,277.185,543.092Zm-.489,1.526c-.489,0-.978-.489-1.34-.812a13.11,13.11,0,0,1-.861-1.086,4.981,4.981,0,0,1,1.79.606C276.588,543.5,277.752,544.589,276.7,544.618Z" transform="translate(4542.035 -1589.14)" fill="#3c3c3b"/>
    <path id="Path_12429" data-name="Path 12429" d="M273.359,545.149a.411.411,0,0,0-.606.469,3.407,3.407,0,0,0,.147.332,3,3,0,0,0-1.3,2.68,1.858,1.858,0,0,0,1.682,1.457C275.707,550.107,274.533,545.98,273.359,545.149Zm-.078,3.912c-.655.068-.812-.88-.694-1.291a4.2,4.2,0,0,1,.626-1.213,3.787,3.787,0,0,1,.284.636C273.6,547.554,273.946,548.992,273.281,549.061Z" transform="translate(4542.085 -1589.201)" fill="#3c3c3b"/>
    <path id="Path_12430" data-name="Path 12430" d="M246.479,574.375a.391.391,0,0,0-.186-.313.254.254,0,0,0-.284-.342,3.668,3.668,0,0,0-2.152,1.623c-.43.694-.831,1.878-.215,2.582s1.565.264,2.064-.332A4.714,4.714,0,0,0,246.479,574.375Zm-1.1,1.858c-.108.3-.284.841-.626.978s-.469,0-.43-.411a3.423,3.423,0,0,1,1.34-2.249A5.526,5.526,0,0,1,245.384,576.233Z" transform="translate(4542.707 -1589.832)" fill="#3c3c3b"/>
    <path id="Path_12431" data-name="Path 12431" d="M251.119,577.051a6.318,6.318,0,0,0-2.641-3,.5.5,0,0,0-.714.43,4.186,4.186,0,0,0,.2,3.306,2.377,2.377,0,0,0,2.337,1.457C251.354,579.037,251.481,577.912,251.119,577.051Zm-1.232,1.174c-.665,0-1.144-.9-1.34-1.408a3.559,3.559,0,0,1-.225-1.653,7.656,7.656,0,0,1,1.115,1.134C249.691,576.631,250.835,578.215,249.887,578.225Z" transform="translate(4542.614 -1589.838)" fill="#3c3c3b"/>
    <path id="Path_12432" data-name="Path 12432" d="M304.938,574.527a.333.333,0,0,0-.6-.078,2.386,2.386,0,0,0-.156,1.408c0,.43.4,1.956-.381,2.054-1.31.254.352-3.266.538-3.609a.264.264,0,0,0-.381-.3c-1.066.841-2.934,4.352-.714,5.037a1.751,1.751,0,0,0,1.956-1.2,5.575,5.575,0,0,0-.264-3.306Z" transform="translate(4541.41 -1589.837)" fill="#3c3c3b"/>
    <path id="Path_12433" data-name="Path 12433" d="M301.173,572.656a3.707,3.707,0,0,0-3.051.421,1.956,1.956,0,0,0-.587,2.494c1.467,2.455,3.834-.978,4.362-2.367C302.043,572.8,301.506,572.441,301.173,572.656Zm-2.553,2.435c-.5-.469.1-1.144.5-1.389a3.385,3.385,0,0,1,1.565-.372c-.577.88-1.516,2.279-2.064,1.76Z" transform="translate(4541.518 -1589.805)" fill="#3c3c3b"/>
    <path id="Path_12434" data-name="Path 12434" d="M304.969,569.741a3.335,3.335,0,0,0-2.846-.782.459.459,0,0,0-.362.2.293.293,0,0,0-.4.245,2.67,2.67,0,0,0,1.105,2.386c.7.518,1.887.87,2.562.127A1.751,1.751,0,0,0,304.969,569.741Zm-.645,1.545c-.372.4-1.252-.147-1.545-.411a2.59,2.59,0,0,1-.675-.978h0a3.326,3.326,0,0,1,1.829.225C304.264,570.328,304.636,570.954,304.323,571.286Z" transform="translate(4541.429 -1589.725)" fill="#3c3c3b"/>
    <path id="Path_12435" data-name="Path 12435" d="M244.72,600.2c-.469,0-.773-.538-.323-.831.225-.137.088-.557-.186-.45a.978.978,0,1,0,.587,1.839.284.284,0,0,0-.078-.558Z" transform="translate(4542.706 -1590.386)" fill="#3c3c3b"/>
    <path id="Path_12436" data-name="Path 12436" d="M246.226,599.279a.284.284,0,0,0,.147.538,1.085,1.085,0,0,1,1.213,1.291.205.205,0,0,0,.372.147,1.438,1.438,0,0,0-1.731-1.976Z" transform="translate(4542.646 -1590.393)" fill="#3c3c3b"/>
    <path id="Path_12437" data-name="Path 12437" d="M248.931,603.361c-.548.215-1.379.626-1.956.323a.841.841,0,0,1-.274-1.281.205.205,0,0,0-.245-.323,1.35,1.35,0,0,0-.2,2.093,2.064,2.064,0,0,0,2.934-.284C249.39,603.674,249.214,603.243,248.931,603.361Z" transform="translate(4542.651 -1590.456)" fill="#3c3c3b"/>
    <path id="Path_12438" data-name="Path 12438" d="M255.526,600.427a3.9,3.9,0,0,1-.978-.5c-.235-.205-.479-.675-.137-.909a.293.293,0,0,0-.293-.5,1.134,1.134,0,0,0-.469,1.408,1.955,1.955,0,0,0,1.643,1.066C255.6,601.062,255.868,600.573,255.526,600.427Z" transform="translate(4542.481 -1590.377)" fill="#3c3c3b"/>
    <path id="Path_12439" data-name="Path 12439" d="M258.1,598.586a1.33,1.33,0,0,0-1.77.4c-.254.411.4.782.655.372s.753-.156.978.108a4.463,4.463,0,0,1,.518,1.369.293.293,0,0,0,.577-.078A2.249,2.249,0,0,0,258.1,598.586Z" transform="translate(4542.421 -1590.375)" fill="#3c3c3b"/>
    <path id="Path_12440" data-name="Path 12440" d="M257.7,602.058c-.372.137-1.154.616-.8,1.115a.362.362,0,0,0,.655-.156h0a1.154,1.154,0,0,1,1.174-.117c.45.235.548.694.685,1.134a.352.352,0,0,0,.675,0C260.536,602.654,258.844,601.647,257.7,602.058Z" transform="translate(4542.409 -1590.454)" fill="#3c3c3b"/>
    <path id="Path_12441" data-name="Path 12441" d="M269.314,602.757c-.479.049-1.232.225-1.663-.078-.264-.186-.4-.812,0-.978.2-.078.205-.44-.049-.411-.733.068-.929.841-.665,1.447.421.978,1.663.841,2.484.548C269.666,603.207,269.646,602.718,269.314,602.757Z" transform="translate(4542.189 -1590.439)" fill="#3c3c3b"/>
    <path id="Path_12442" data-name="Path 12442" d="M272.029,602.762a1.7,1.7,0,0,0-2.064-.694.274.274,0,1,0,.147.528,1.046,1.046,0,0,1,1.232.577c.2.469-.059.841-.264,1.242a.352.352,0,0,0,.479.479,1.574,1.574,0,0,0,.469-2.132Z" transform="translate(4542.125 -1590.453)" fill="#3c3c3b"/>
    <path id="Path_12443" data-name="Path 12443" d="M287.179,602.823c-.059.548-.655.792-1.134.782a2.457,2.457,0,0,1-.753-.147c-.068,0-.509-.284-.372-.274a.331.331,0,0,0,.088-.645.734.734,0,0,0-.978.645c-.068.606.5.978.978,1.125,1.144.391,3.071.137,2.875-1.487a.381.381,0,0,0-.7,0Z" transform="translate(4541.811 -1590.465)" fill="#3c3c3b"/>
    <path id="Path_12444" data-name="Path 12444" d="M285.6,599.508a1.78,1.78,0,0,0-2.181.978.278.278,0,0,0,.479.284,1.154,1.154,0,0,1,1.428-.44c.518.244.557.734.685,1.222.078.264.5.362.626.088a1.663,1.663,0,0,0-1.037-2.132Z" transform="translate(4541.825 -1590.398)" fill="#3c3c3b"/>
    <path id="Path_12445" data-name="Path 12445" d="M290.923,599.121c-.606.215-1.526.773-2.181.46-.362-.166-.714-.861-.274-1.134a.325.325,0,0,0-.333-.558c-.88.382-.763,1.555-.2,2.161.929.978,2.445.362,3.335-.323C291.549,599.5,291.236,598.974,290.923,599.121Z" transform="translate(4541.734 -1590.363)" fill="#3c3c3b"/>
    <path id="Path_12446" data-name="Path 12446" d="M298.59,597.627a1.594,1.594,0,0,0-.733,2.112c.137.3.675.088.548-.225a.871.871,0,0,1,.489-1.2,1.036,1.036,0,0,1,1.115.587c.2.352.675.1.606-.254a1.487,1.487,0,0,0-2.024-1.017Z" transform="translate(4541.509 -1590.355)" fill="#3c3c3b"/>
    <path id="Path_12447" data-name="Path 12447" d="M299.574,595.489a3.089,3.089,0,0,1-.978.606,1.956,1.956,0,0,1-.978,0h0a.469.469,0,0,0-.822-.3c-.391.44.137.89.518,1.066.9.42,2.416.166,2.768-.89a.381.381,0,0,0-.509-.479Z" transform="translate(4541.532 -1590.31)" fill="#3c3c3b"/>
  </g>
</svg>
