<svg xmlns="http://www.w3.org/2000/svg" width="119.675" height="82.15" viewBox="0 0 119.675 82.15">
  <g id="meat2" transform="translate(-5291.902 298.048)">
    <path id="Path_12409" data-name="Path 12409" d="M571.32,699.23a5.27,5.27,0,0,0-6.77-3c-1.8.8-3.22,3.81-1.69,5.37-5.56,1.21-11,3.08-16.48,4.67-3.63,1.06-7.54,1.89-11,3.56h-.06a10.766,10.766,0,0,0-1.35.47,4.688,4.688,0,0,1-1.17.19c-.08-.33-.15-.64-.19-.93-.29-1.71-.18-4.09-2.1-4.72-2.42-.79-6.6,1.15-8.87,1.89a.59.59,0,0,0-.32.25,39.724,39.724,0,0,0-10,2.28,1.072,1.072,0,0,0-.21.13c-3.2-.07-7.7,1.91-9.37,2.64a.51.51,0,0,0-.31.47c-3.22-.67-7.94,1.05-10.54,1.09a.6.6,0,0,0-.56.81c-1.92,0-3.95.23-5.21.22-3.1,0-5.08,0-6.28,2.83a26.5,26.5,0,0,0-5.7.55c-1.8.47-3.13,1.61-2.85,3.46h-.16c-.65.09-.68,1-.27,1.33h0a65.278,65.278,0,0,0,.3,6.68c-.63.15-1.23.29-1.81.39-5.33.94-10.7,1.8-16,3.07-.64.15-.52,1.26.16,1.18,3.87-.46,7.69-1.18,11.52-1.86,2-.35,4.09-.92,6.22-1.4q.1,1.08.24,2.16c.2,1.6.36,3.27,1.65,4.41,1.63,1.43,4.32,1.29,6.33,1.49,1.37.13,2.86.55,4-.13a.65.65,0,0,0,.88.19c1.15-.68,3.77-1.62,4.5-2.95a3.381,3.381,0,0,0,.29-1.63,4.83,4.83,0,0,0,3.65-.47,25.008,25.008,0,0,0,3.29-2.13,8.78,8.78,0,0,0,4,.24.3.3,0,0,0,.38.09L500,732a.1.1,0,0,0,0-.18h0c1,.19,3.3-1.52,4-2.27a3.491,3.491,0,0,0,.67-.89c1.61,0,4.07-.1,5.51-1.06a.24.24,0,0,0,.19,0c1.33-1,4.56-2.55,5.16-4.13.54-1.42-.42-5-.56-6.49s-.13-3.16-.4-4.66c1.56-.3,3.46-.89,4.94-.66,2.56.41,2.44,3.38,2.49,5.43.05,1.67.2,3.79-1.06,4.95s-3.69,1.19-5.26,1.52a.3.3,0,0,0,.08.59c1.49,0,4.12.16,5.76-.66a.27.27,0,0,0,.24-.06l.13-.13a2.881,2.881,0,0,0,.58-.52h0a1.324,1.324,0,0,1,.08-.14c.03-.04,0,0-.06.12l.38-.25a5.557,5.557,0,0,0,1.3-1.42h0a6.39,6.39,0,0,0,3.19.08c0,.09,0,.2.16.16,1.86-.67,4.79-2.06,5.7-4,.67-1.43.3-3.41-.12-5.21,10-3.38,20.4-5.55,30.25-9.23a4.05,4.05,0,0,0,4.83,2.41,4.63,4.63,0,0,0,3.14-6.07ZM482,737c-1,1.21-3.37.47-4.71.33-2.8-.31-4.79-1.09-5.23-4.19,0-.27-.21-1.23-.41-2.45a22,22,0,0,1,5.56-.53c.44,0,.66-.68.24-.86-1.82-.78-4-.45-6,0-.41-2.69-.75-5.86-.17-6.32l3.91-.34c2.45-.2,4.46-.71,5.58,1.92.63,1.46.63,3.57.88,5.14S483.13,735.59,482,737Zm4.68-2.29c-.41,1.14-1.85,2-3,2.65a13.28,13.28,0,0,0,0-5c-.39-3.1-.51-7.25-1.7-10.15-.67-1.64-1.44-1.51-3.15-1.44-2.64.12-5.3.36-7.93.71,1.71-2.85,6.12-2.4,8.87-2.6,1.16-.09,2.72-.54,3.81-.09.85-.2,1.2.11,1.07.92l.36,2.39q.57,3.95,1.1,7.9c.13,1.05.98,3.58.59,4.66Zm1.45-1c-.15-1.39-.57-2.91-.68-3.77q-.5-3.69-1.05-7.37c-.07-.48-.08-1.16-.13-1.89a11.188,11.188,0,0,1,3.75,0c1.45.51,1.17,2.85,1.27,4.37.23,2.95.82,8.49-3.14,8.59Zm4.65-1.6a28.942,28.942,0,0,0,0-5.41c0-1.53.26-5.86-1-7.06s-4.09-.51-5.7-.43a2.88,2.88,0,0,0-.83-1.69c-1-.77-3-.16-4.1-.07h-.64c1.72-1.77,5-1.37,7.29-1.31a15.5,15.5,0,0,1,3.34.12,1.5,1.5,0,0,1,2.1,1.25,2.72,2.72,0,0,1,.83,2.54,49.212,49.212,0,0,1,.33,6.77c.14,2.52-.31,3.77-1.6,5.18Zm7.16-3.56c-.11,2.41-2.3,2.55-4.25,2.72a.859.859,0,0,0,.07-.1c.63-1.13.24-3.12.19-4.31q-.17-4.06-.48-8.13v-.5c1.92-.5,3.88-.21,4.17,2.19.16,1.34.19,2.71.25,4.06s.11,2.65.11,4Zm3.55-4.33c-.11,1.53-.13,3.41-1,4.76a5.8,5.8,0,0,1-1.25,1.2c.65-2,.1-5,0-6.72s.17-4.92-1.4-6.38c-1.29-1.18-3.09-.86-4.59-.28a2.4,2.4,0,0,0-.59-1.11,3.571,3.571,0,0,0-1.47-.82c.88-.06,1.75-.16,2.63-.3,3.52-.56,6.49-2.08,7.52,3a27.169,27.169,0,0,1,.17,6.58Zm5.16,2.63c-1.16.61-2.56.81-3.81,1.31.05-.22.09-.47.14-.79a38.051,38.051,0,0,0-.32-11.57,6.8,6.8,0,0,0-.21-.72c1.52-.23,2.93-.41,4.32.57s1.15,1.36,1.21,2.82c.05,1,.07,2.05.08,3.08.03,1.77.51,4.22-1.39,5.23Zm5.45-4.72c-.23,1.52-1.47,2.64-2.68,3.68.51-1.8.13-4.29.08-5.8,0-1.82.59-5.42-1.53-6.22a10.529,10.529,0,0,0-6.21.07,3.361,3.361,0,0,0-1-.76,32.15,32.15,0,0,1,4.73-1.7c2.06-.49,4.4-.44,5.73,1.64.43.68.21,2.47.29,3.25.22,1.71.86,4.01.61,5.77Zm9.31-2a20.684,20.684,0,0,0,0-4.35c-.16-1.66-.23-4.51-2-5.32s-5.15.08-7.16.58a2.481,2.481,0,0,0-.85-.91c1.31-.41,2.63-.77,4-1.06a17.484,17.484,0,0,1,3.51-.57c1.75,0,2.06.22,2.77,1.78a17.25,17.25,0,0,1,1.21,5.45,7,7,0,0,1-1.46,4.27Zm5.17-1.89c-.56,1.86-2.26,2.25-3.94,2.26a7.508,7.508,0,0,0,1.6-2.68c.58-2.3-.42-5.86-1.34-8.25,1.31-.32,2.61-.68,3.35.79.56,1.13.48,3,.52,4.23a12.048,12.048,0,0,1-.17,3.54Zm3.1-1.91a5.35,5.35,0,0,1-2,2.7,11.3,11.3,0,0,0,.43-4c0-1.77.06-4.68-1.06-6.18s-3.08-1-4.63-.39a2.66,2.66,0,0,0-.73-.91,20.755,20.755,0,0,1,3.37-.84c1.28-.18,3-.76,3.76.62a11,11,0,0,1,.45,2.76c.36,1.99,1.01,4.05.43,6.13Zm36-12.87a3.2,3.2,0,0,1-3.27-1.53.63.63,0,0,0,.09-.6c-.42-1.34-.63-2.83,1.11-3.31a3.35,3.35,0,0,1,3.89,2.24,2.73,2.73,0,0,1-1.76,3.09Z" transform="translate(4839.972 -955.056)" fill="#3c3c3b"/>
    <path id="Path_12410" data-name="Path 12410" d="M554.831,699.689c-.91-3.053-3.51-4.573-5.835-3.412-1.551.91-2.775,4.333-1.457,6.107-4.792,1.376-9.481,3.5-14.2,5.311-3.129,1.206-6.5,2.149-9.481,4.049H523.8a7.9,7.9,0,0,0-1.164.534,3.16,3.16,0,0,1-1.008.216c-.069-.375-.129-.728-.164-1.058-.25-1.945-.155-4.652-1.81-5.368-2.086-.9-5.688,1.308-7.645,2.149a.559.559,0,0,0-.276.284,27.453,27.453,0,0,0-8.619,2.593.927.927,0,0,0-.181.148c-2.758-.08-6.637,2.172-8.076,3a.607.607,0,0,0-.267.534c-2.775-.762-6.843,1.194-9.084,1.24a.5.5,0,0,0-.424.294.87.87,0,0,0-.059.627c-1.655,0-3.4.262-4.491.25-2.672,0-4.378,0-5.413,3.219a17.519,17.519,0,0,0-4.913.625,3.482,3.482,0,0,0-2.456,3.935h-.138c-.56.1-.586,1.137-.233,1.513h0q-.018,3.8.259,7.6c-.543.171-1.06.33-1.56.444-4.594,1.069-9.222,2.047-13.79,3.492-.552.171-.448,1.433.138,1.342,3.336-.523,6.628-1.342,9.929-2.115,1.724-.4,3.525-1.046,5.361-1.592q.086,1.228.207,2.457c.172,1.82.31,3.719,1.422,5.015,1.4,1.626,3.723,1.467,5.456,1.695,1.181.148,2.465.625,3.448-.148a.484.484,0,0,0,.758.216c.991-.773,3.249-1.842,3.879-3.355a4.943,4.943,0,0,0,.25-1.854,3.3,3.3,0,0,0,3.146-.534,21.982,21.982,0,0,0,2.836-2.423,5.813,5.813,0,0,0,3.448.273.223.223,0,0,0,.327.1l.465-.136a.132.132,0,0,0,0-.2h0c.862.216,2.844-1.729,3.448-2.582a4.07,4.07,0,0,0,.578-1.012c1.388,0,3.508-.114,4.749-1.206a.162.162,0,0,0,.164,0c1.146-1.137,3.93-2.9,4.447-4.7.465-1.615-.362-5.687-.483-7.381s-.112-3.594-.345-5.3c1.345-.341,2.982-1.012,4.258-.751,2.206.466,2.1,3.844,2.146,6.176.043,1.9.172,4.31-.914,5.63s-3.18,1.353-4.534,1.729a.352.352,0,0,0-.19.376.294.294,0,0,0,.259.3c1.284,0,3.551.182,4.965-.751a.194.194,0,0,0,.207-.068l.112-.148a2.887,2.887,0,0,0,.5-.591h0a1.688,1.688,0,0,1,.069-.159c.026-.046,0,0-.052.136l.328-.284a6.026,6.026,0,0,0,1.12-1.615h0a4.225,4.225,0,0,0,2.749.091c0,.1,0,.227.138.182,1.6-.762,4.128-2.343,4.913-4.549.577-1.626.259-3.878-.1-5.925,8.619-3.844,17.583-6.312,26.072-10.5.657,2.178,2.449,3.358,4.163,2.741a4.435,4.435,0,0,0,2.506-2.665A6.807,6.807,0,0,0,554.831,699.689Zm-76.984,42.956c-.862,1.376-2.9.535-4.06.375-2.413-.353-4.128-1.24-4.508-4.765,0-.307-.181-1.4-.353-2.786a14.559,14.559,0,0,1,4.792-.6c.379,0,.569-.773.207-.978-1.569-.887-3.448-.512-5.171,0-.353-3.059-.646-6.665-.147-7.188l3.37-.387c2.112-.227,3.844-.808,4.809,2.184a34.035,34.035,0,0,1,.758,5.846C477.761,736.128,478.821,741.041,477.847,742.645Zm4.034-2.6a6.365,6.365,0,0,1-2.586,3.014,19.853,19.853,0,0,0,0-5.686c-.336-3.526-.44-8.245-1.465-11.544-.577-1.865-1.241-1.717-2.715-1.638a60.588,60.588,0,0,0-6.835.807c1.474-3.241,5.275-2.73,7.645-2.957,1-.1,2.344-.614,3.284-.1.733-.227,1.034.125.922,1.046l.31,2.718q.491,4.492.948,8.985c.112,1.194.845,4.071.509,5.3Zm1.25-1.137c-.129-1.581-.491-3.31-.586-4.288q-.431-4.2-.9-8.382c-.06-.546-.069-1.319-.112-2.149a7.346,7.346,0,0,1,3.232,0c1.25.58,1.008,3.241,1.095,4.97.2,3.355.707,9.656-2.706,9.769Zm4.008-1.82a43.4,43.4,0,0,0,0-6.153c0-1.74.224-6.665-.862-8.029s-3.525-.58-4.913-.489a3.761,3.761,0,0,0-.715-1.922c-.862-.876-2.586-.182-3.534-.08h-.552c1.482-2.013,4.309-1.558,6.283-1.49a10.159,10.159,0,0,1,2.879.136,1.024,1.024,0,0,1,1.183.1,1.829,1.829,0,0,1,.627,1.327,3.736,3.736,0,0,1,.715,2.889,73.7,73.7,0,0,1,.284,7.7c.121,2.866-.267,4.288-1.379,5.891Zm6.171-4.049c-.095,2.741-1.982,2.9-3.663,3.093a1.036,1.036,0,0,0,.06-.114c.543-1.285.207-3.548.164-4.9q-.147-4.617-.414-9.246V721.3c1.655-.569,3.344-.239,3.594,2.491.138,1.524.164,3.082.215,4.617s.095,3.014.095,4.549Zm3.06-4.925c-.095,1.74-.112,3.878-.862,5.414a5.979,5.979,0,0,1-1.077,1.365c.56-2.275.086-5.687,0-7.643s.147-5.6-1.207-7.256c-1.112-1.342-2.663-.978-3.956-.318a3.088,3.088,0,0,0-.508-1.262,2.982,2.982,0,0,0-1.267-.933,19.493,19.493,0,0,0,2.267-.341c3.034-.637,5.594-2.366,6.481,3.412a40.693,40.693,0,0,1,.146,7.483Zm4.447,2.991a29.7,29.7,0,0,1-3.284,1.49c.043-.25.078-.534.121-.9a56.934,56.934,0,0,0-.276-13.159q-.073-.416-.181-.819c1.31-.261,2.525-.466,3.723.648s.991,1.547,1.043,3.207c.043,1.137.06,2.331.069,3.5.026,2.013.44,4.8-1.2,5.948Zm4.7-5.368a7.779,7.779,0,0,1-2.31,4.185c.44-2.047.112-4.879.069-6.6,0-2.07.509-6.164-1.319-7.074a6.992,6.992,0,0,0-5.352.08,3.148,3.148,0,0,0-.862-.864,23.744,23.744,0,0,1,4.077-1.933c1.775-.557,3.792-.5,4.939,1.865.371.773.181,2.809.25,3.7.19,1.945.741,4.56.526,6.562Zm8.024-2.275a30.991,30.991,0,0,0,0-4.947c-.138-1.888-.2-5.129-1.724-6.05s-4.439.091-6.171.66a2.665,2.665,0,0,0-.733-1.035,30.493,30.493,0,0,1,3.448-1.206,11.768,11.768,0,0,1,3.025-.648c1.508,0,1.775.25,2.387,2.024a25.046,25.046,0,0,1,1.043,6.2,9.708,9.708,0,0,1-1.258,4.856Zm4.456-2.15a3.084,3.084,0,0,1-3.4,2.57,9.4,9.4,0,0,0,1.379-3.048c.5-2.616-.362-6.665-1.155-9.383,1.129-.364,2.25-.773,2.887.9a17.119,17.119,0,0,1,.448,4.811,18.009,18.009,0,0,1-.146,4.026Zm2.672-2.172a6.242,6.242,0,0,1-1.724,3.071,16.773,16.773,0,0,0,.371-4.549c0-2.013.052-5.323-.914-7.029s-2.655-1.137-3.991-.444a3.028,3.028,0,0,0-.629-1.035,14.464,14.464,0,0,1,2.9-.955c1.1-.2,2.586-.864,3.241.705a16.2,16.2,0,0,1,.388,3.139c.31,2.263.871,4.606.371,6.971ZM551.694,704.5a2.589,2.589,0,0,1-2.818-1.74.908.908,0,0,0,.078-.682c-.362-1.524-.543-3.219.957-3.765,1.447-.41,2.9.69,3.353,2.548a3.34,3.34,0,0,1-1.517,3.514Z" transform="translate(4949.673 -1050.059) rotate(8)" fill="#3c3c3b"/>
  </g>
</svg>
