<?xml version="1.0" encoding="utf-8"?>
<!-- Generator: Adobe Illustrator 16.0.0, SVG Export Plug-In . SVG Version: 6.00 Build 0)  -->
<!DOCTYPE svg PUBLIC "-//W3C//DTD SVG 1.1//EN" "http://www.w3.org/Graphics/SVG/1.1/DTD/svg11.dtd" [
	<!ENTITY ns_flows "http://ns.adobe.com/Flows/1.0/">
	<!ENTITY ns_extend "http://ns.adobe.com/Extensibility/1.0/">
	<!ENTITY ns_ai "http://ns.adobe.com/AdobeIllustrator/10.0/">
	<!ENTITY ns_graphs "http://ns.adobe.com/Graphs/1.0/">
]>
<svg version="1.1" id="Layer_1" xmlns:x="&ns_extend;" xmlns:i="&ns_ai;" xmlns:graph="&ns_graphs;"
	 xmlns="http://www.w3.org/2000/svg" xmlns:xlink="http://www.w3.org/1999/xlink" xmlns:a="http://ns.adobe.com/AdobeSVGViewerExtensions/3.0/"
	 x="0px" y="0px" width="1268.367px" height="229.592px" viewBox="0 0 1268.367 229.592"
	 enable-background="new 0 0 1268.367 229.592" xml:space="preserve">
<g>
	<g>
		<g>
			<path fill="#2E3E3D" d="M84.287,198.229c0.072-0.014,0.15-0.018,0.232-0.018c0.274,0,0.667,0.053,1.179,0.16
				c0.939,0.189,1.685,0.496,2.231,0.91v16.479h-3.643v-1.5c-1.391,0.998-2.927,1.5-4.605,1.5c-2.285,0-4.236-0.857-5.855-2.572
				c-1.606-1.715-2.41-3.777-2.41-6.193c0-2.43,0.803-4.5,2.41-6.213c1.619-1.701,3.57-2.553,5.855-2.553
				c1.679,0,3.214,0.492,4.605,1.48V198.229z M79.681,212.1c1.262,0,2.344-0.5,3.25-1.5c0.904-1,1.355-2.199,1.355-3.605
				c0-1.418-0.451-2.625-1.355-3.625c-0.906-1-1.988-1.498-3.25-1.498c-1.273,0-2.362,0.498-3.266,1.498
				c-0.893,1-1.34,2.207-1.34,3.625c0,1.406,0.447,2.605,1.34,3.605C77.319,211.6,78.408,212.1,79.681,212.1z"/>
			<path fill="#2E3E3D" d="M100.443,214.33c0.108,0.512,0.161,0.91,0.161,1.197c0,0.082-0.006,0.16-0.018,0.232l-1.107-0.018
				c-1.356-0.072-2.452-0.342-3.285-0.805c-0.393-0.225-0.702-0.428-0.928-0.607c-1.822-1.393-2.732-3.225-2.732-5.496v-13.963
				c0.93-0.701,2.113-1.051,3.553-1.051h0.107v4.943h3.642v0.088c0,1.154-0.351,2.109-1.053,2.859h-2.588v7.123
				c0,0.842,0.285,1.582,0.857,2.211c0.118,0.096,0.238,0.186,0.357,0.27c0.083,0.061,0.167,0.117,0.25,0.178
				c0.095,0.049,0.172,0.09,0.232,0.127c0.06,0.021,0.119,0.053,0.179,0.086c0.237,0.109,0.47,0.191,0.696,0.252
				c0.071,0.025,0.184,0.047,0.338,0.07c0.095,0.023,0.19,0.043,0.286,0.055h0.036c0.023,0,0.059,0.006,0.106,0.018
				C99.961,212.67,100.265,213.414,100.443,214.33z"/>
			<path fill="#2E3E3D" d="M103.21,194.889c0.548-0.414,1.292-0.719,2.232-0.908c0.547-0.107,0.952-0.16,1.213-0.16
				c0.083,0,0.148,0.006,0.196,0.018v3.479c-0.048-0.012-0.114-0.016-0.196-0.016c-0.261,0-0.666,0.053-1.213,0.158
				c-0.94,0.191-1.684,0.494-2.232,0.912V194.889z M103.21,199.281c0.548-0.414,1.292-0.721,2.232-0.91
				c0.524-0.107,0.916-0.16,1.178-0.16c0.095,0,0.173,0.004,0.232,0.018v17.531h-3.642V199.281z"/>
			<path fill="#2E3E3D" d="M118.581,198.229c2.274,0,4.219,0.852,5.838,2.553c1.607,1.713,2.41,3.783,2.41,6.213
				c0,2.416-0.803,4.479-2.41,6.193c-1.619,1.715-3.563,2.572-5.838,2.572c-2.285,0-4.237-0.857-5.855-2.572
				c-1.607-1.715-2.411-3.777-2.411-6.193c0-2.43,0.804-4.5,2.411-6.213C114.344,199.08,116.296,198.229,118.581,198.229z
				 M118.581,212.1c1.261,0,2.345-0.5,3.249-1.5c0.905-1,1.357-2.199,1.357-3.605c0-1.418-0.452-2.625-1.357-3.625
				c-0.904-1-1.988-1.498-3.249-1.498c-1.273,0-2.362,0.498-3.266,1.498c-0.893,1-1.339,2.207-1.339,3.625
				c0,1.406,0.446,2.605,1.339,3.605C116.219,211.6,117.308,212.1,118.581,212.1z"/>
			<path fill="#2E3E3D" d="M143.681,199.709c2.439,1.738,3.659,4.166,3.659,7.285v8.766h-3.659v-8.766
				c0-1.418-0.446-2.625-1.338-3.625c-0.905-1-1.994-1.498-3.267-1.498c-1.261,0-2.344,0.498-3.249,1.498s-1.357,2.207-1.357,3.625
				v8.766h-3.641v-16.479c0.547-0.414,1.291-0.721,2.23-0.91c0.524-0.107,0.917-0.16,1.179-0.16c0.094,0,0.171,0.004,0.232,0.018
				v1.48c1.393-1,2.927-1.498,4.606-1.498C140.766,198.211,142.301,198.709,143.681,199.709z"/>
			<path fill="#2E3E3D" d="M164.211,198.229c0.071-0.014,0.149-0.018,0.232-0.018c0.274,0,0.667,0.053,1.179,0.16
				c0.939,0.189,1.684,0.496,2.231,0.91v16.479h-3.642v-1.5c-1.392,0.998-2.928,1.5-4.606,1.5c-2.285,0-4.237-0.857-5.856-2.572
				c-1.606-1.715-2.409-3.777-2.409-6.193c0-2.43,0.803-4.5,2.409-6.213c1.619-1.701,3.571-2.553,5.856-2.553
				c1.678,0,3.214,0.492,4.606,1.48V198.229z M159.605,212.1c1.261,0,2.345-0.5,3.25-1.5c0.904-1,1.356-2.199,1.356-3.605
				c0-1.418-0.453-2.625-1.356-3.625c-0.905-1-1.988-1.498-3.25-1.498c-1.273,0-2.363,0.498-3.267,1.498
				c-0.892,1-1.338,2.207-1.338,3.625c0,1.406,0.446,2.605,1.338,3.605C157.243,211.6,158.332,212.1,159.605,212.1z"/>
			<path fill="#2E3E3D" d="M176.189,215.76h-3.659v-24.512c0.547-0.428,1.292-0.732,2.231-0.91c0.547-0.119,0.964-0.178,1.25-0.178
				c0.071,0,0.131,0.006,0.178,0.018V215.76z"/>
			<path fill="#2E3E3D" d="M199.577,206.404c1.332,0.75,2.243,1.674,2.73,2.768c0.227,0.5,0.339,0.939,0.339,1.32v0.322
				c0,1.404-0.661,2.576-1.982,3.516c-0.69,0.5-1.387,0.852-2.088,1.053c-0.869,0.252-1.702,0.377-2.5,0.377h-0.017
				c-0.096,0-0.239-0.008-0.428-0.018c-2.547-0.096-4.446-1.029-5.695-2.805c-0.334-0.475-0.5-0.779-0.5-0.91
				c0.154-0.117,0.339-0.244,0.553-0.375c0.94-0.584,1.856-0.898,2.749-0.945c0.024,0.084,0.065,0.184,0.125,0.303
				c0,0.012,0.006,0.025,0.018,0.035c0.011,0.023,0.023,0.043,0.036,0.055c0.511,0.832,1.522,1.25,3.035,1.25h0.232
				c0.821-0.012,1.475-0.244,1.963-0.697c0.298-0.357,0.447-0.695,0.447-1.016c0-0.643-0.571-1.191-1.714-1.645
				c-0.571-0.236-1.137-0.402-1.695-0.5c-1.12-0.238-1.994-0.547-2.625-0.928c-1.333-0.75-2.244-1.672-2.731-2.768
				c-0.227-0.5-0.339-0.934-0.339-1.301v-0.322c0-1.404,0.654-2.582,1.963-3.535c0.691-0.5,1.393-0.844,2.107-1.035
				c0.869-0.262,1.702-0.393,2.5-0.393c0.106,0,0.25,0.004,0.428,0.018c2.559,0.096,4.451,1.023,5.676,2.783
				c0.167,0.229,0.304,0.447,0.411,0.662c0.095,0.201,0.137,0.291,0.125,0.266c-0.226,0.168-0.411,0.295-0.553,0.377
				c-0.94,0.582-1.863,0.9-2.768,0.947c-0.012-0.086-0.047-0.18-0.107-0.287c-0.012-0.023-0.03-0.051-0.054-0.09
				c-0.524-0.83-1.536-1.248-3.035-1.248h-0.196c-0.833,0-1.5,0.232-2,0.695c-0.297,0.357-0.446,0.689-0.446,0.998
				c0,0.645,0.566,1.197,1.697,1.662c0.571,0.227,1.142,0.393,1.713,0.498C198.07,205.732,198.945,206.035,199.577,206.404z"/>
			<path fill="#2E3E3D" d="M221.767,206.994c0,0.477-0.036,0.963-0.107,1.463h-12.569c0.286,1.061,0.828,1.924,1.625,2.588
				c0.81,0.678,1.737,1.031,2.785,1.055c0.25,0.023,0.488,0.037,0.714,0.037c0.536,0,1.005-0.061,1.41-0.18
				c0.322-0.096,0.69-0.244,1.107-0.447c1.261,0.465,2.213,1.297,2.857,2.5l-0.197,0.143l-0.053,0.035l-0.572,0.357
				c-0.036,0.025-0.078,0.049-0.125,0.072c-0.107,0.07-0.244,0.148-0.41,0.232c-0.072,0.035-0.126,0.064-0.162,0.088
				c-0.023,0.012-0.107,0.047-0.25,0.107c-0.106,0.047-0.274,0.113-0.5,0.195c-0.107,0.047-0.226,0.092-0.358,0.127
				c-0.106,0.033-0.256,0.076-0.446,0.125c-0.083,0.023-0.148,0.041-0.197,0.053l-0.071,0.02c-0.06,0.01-0.113,0.021-0.16,0.035
				c-0.048,0.01-0.079,0.016-0.089,0.016c-0.048,0.012-0.108,0.025-0.179,0.037c-0.083,0.012-0.149,0.018-0.197,0.018
				c-0.131,0.023-0.279,0.041-0.445,0.053c-0.156,0.012-0.28,0.025-0.375,0.037h-1.304c-2.821,0-5.052-1.221-6.694-3.66
				c-0.75-1.096-1.232-2.307-1.446-3.643c-0.071-0.5-0.107-0.986-0.107-1.463s0.036-0.965,0.107-1.465
				c0.333-2.082,1.262-3.818,2.785-5.211c1.546-1.393,3.332-2.09,5.355-2.09c0.5,0,1.005,0.047,1.518,0.143
				c1.702,0.332,3.159,1.154,4.374,2.465c1.225,1.32,1.982,2.885,2.268,4.693C221.731,206.029,221.767,206.518,221.767,206.994z
				 M217.928,205.529c-0.487-1.832-1.564-2.992-3.23-3.48c-0.381-0.119-0.78-0.178-1.196-0.178c-1.023,0-1.946,0.342-2.767,1.033
				c-0.81,0.678-1.357,1.555-1.643,2.625H217.928z"/>
			<path fill="#2E3E3D" d="M234.745,198.211c0.013,0.07,0.018,0.154,0.018,0.25c0,0.273-0.053,0.672-0.161,1.193
				c-0.178,0.918-0.481,1.656-0.91,2.217c-0.047,0.01-0.083,0.018-0.107,0.018c-0.011,0.01-0.023,0.018-0.035,0.018
				c-0.095,0-0.19,0.012-0.286,0.033c-0.154,0.037-0.267,0.063-0.339,0.072c-0.226,0.072-0.458,0.162-0.696,0.27
				c-0.06,0.023-0.119,0.053-0.178,0.088c-0.072,0.035-0.149,0.078-0.232,0.125c-0.083,0.047-0.167,0.102-0.25,0.16
				c-0.12,0.084-0.238,0.174-0.357,0.271c-0.083,0.068-0.167,0.146-0.25,0.229c-0.084,0.098-0.167,0.193-0.25,0.285
				c-0.096,0.098-0.179,0.191-0.25,0.287c-0.061,0.096-0.102,0.162-0.125,0.197c-0.048,0.059-0.09,0.123-0.125,0.195
				c-0.12,0.178-0.232,0.393-0.34,0.643c-0.048,0.107-0.089,0.215-0.125,0.322c-0.048,0.131-0.096,0.281-0.143,0.445
				c-0.024,0.109-0.048,0.215-0.072,0.322v0.035c-0.048,0.18-0.077,0.369-0.089,0.572v0.018c-0.012,0.07-0.018,0.137-0.018,0.195
				c-0.011,0.131-0.018,0.232-0.018,0.305v8.783h-3.641v-16.479c0.547-0.43,1.291-0.732,2.23-0.91
				c0.548-0.119,0.959-0.178,1.232-0.178c0.071,0,0.131,0.004,0.178,0.018v1.498c0.274-0.189,0.536-0.355,0.786-0.5
				c0.178-0.094,0.357-0.184,0.535-0.266c0.286-0.131,0.565-0.244,0.839-0.34c0.131-0.037,0.327-0.09,0.589-0.16
				c0.036-0.014,0.09-0.025,0.162-0.037c0.059-0.012,0.107-0.023,0.142-0.035c0.179-0.035,0.387-0.064,0.625-0.09
				c0.321-0.047,0.63-0.07,0.928-0.07H234.745z"/>
			<path fill="#2E3E3D" d="M251.509,198.229l-0.144,0.41l-5.981,16.693l-0.053,0.141l-0.054,0.107
				c-0.071,0.025-0.172,0.047-0.303,0.072c-0.274,0.047-0.601,0.082-0.982,0.107h-1.106c-0.381-0.025-0.709-0.061-0.983-0.107
				c-0.083-0.012-0.19-0.037-0.32-0.072l-0.036-0.088l-0.054-0.16l-5.98-16.693l-0.143-0.428h3.875l4.195,11.709l4.195-11.709
				L251.509,198.229z"/>
			<path fill="#2E3E3D" d="M253.508,194.889c0.547-0.414,1.292-0.719,2.231-0.908c0.547-0.107,0.952-0.16,1.214-0.16
				c0.083,0,0.149,0.006,0.197,0.018v3.479c-0.048-0.012-0.114-0.016-0.197-0.016c-0.262,0-0.667,0.053-1.214,0.158
				c-0.939,0.191-1.684,0.494-2.231,0.912V194.889z M253.508,199.281c0.547-0.414,1.292-0.721,2.231-0.91
				c0.523-0.107,0.917-0.16,1.179-0.16c0.094,0,0.172,0.004,0.232,0.018v17.531h-3.642V199.281z"/>
			<path fill="#2E3E3D" d="M264.094,214.152c0-0.012-0.089-0.09-0.268-0.23c-0.037-0.025-0.06-0.043-0.071-0.057
				c-0.084-0.057-0.168-0.127-0.25-0.213c-0.285-0.262-0.542-0.523-0.768-0.785c-0.06-0.072-0.137-0.172-0.232-0.303
				c-0.071-0.086-0.136-0.168-0.196-0.25c-0.179-0.25-0.346-0.512-0.5-0.785c-0.048-0.072-0.096-0.154-0.143-0.252
				c-0.154-0.285-0.292-0.576-0.411-0.875c-0.023-0.082-0.053-0.166-0.089-0.248c-0.167-0.441-0.292-0.906-0.375-1.393
				c-0.023-0.131-0.041-0.207-0.053-0.234c-0.035-0.236-0.065-0.449-0.088-0.641c-0.024-0.309-0.036-0.609-0.036-0.893
				c0-0.287,0.012-0.584,0.036-0.895c0.023-0.189,0.053-0.402,0.088-0.643c0.012-0.033,0.03-0.109,0.053-0.23
				c0.084-0.453,0.209-0.916,0.375-1.391c0.036-0.098,0.065-0.182,0.089-0.254c0.132-0.318,0.269-0.611,0.411-0.873
				c0.047-0.096,0.095-0.184,0.143-0.268c0.143-0.25,0.311-0.512,0.5-0.785c0.061-0.082,0.125-0.168,0.196-0.25
				c0.095-0.131,0.172-0.227,0.232-0.287c0.095-0.117,0.22-0.254,0.375-0.41c0.059-0.059,0.118-0.117,0.179-0.18
				c0.094-0.105,0.166-0.176,0.214-0.211c0.083-0.074,0.167-0.137,0.25-0.199c0.023-0.033,0.046-0.059,0.071-0.07
				c0.143-0.119,0.232-0.189,0.268-0.213c0.107-0.084,0.214-0.162,0.321-0.232c0.024-0.012,0.13-0.084,0.321-0.215h0.018
				c0.072-0.047,0.184-0.113,0.338-0.197c0.072-0.047,0.191-0.105,0.357-0.178c0.059-0.035,0.178-0.088,0.357-0.162
				c0.155-0.07,0.28-0.125,0.375-0.158c0.369-0.133,0.75-0.238,1.142-0.322c0.096-0.012,0.233-0.035,0.411-0.07
				c0.119-0.014,0.244-0.025,0.375-0.037l0.089-0.02h0.161c0.083-0.01,0.143-0.016,0.178-0.016c0.071-0.014,0.179-0.018,0.321-0.018
				c0.167,0,0.328,0.004,0.482,0.018c0.095,0.012,0.226,0.023,0.392,0.035c0.072,0.012,0.173,0.023,0.305,0.037
				c0.119,0.023,0.214,0.041,0.285,0.053c0.119,0.023,0.256,0.053,0.411,0.09c0.071,0.012,0.195,0.047,0.374,0.105
				c0.131,0.037,0.304,0.096,0.518,0.178c0.131,0.037,0.268,0.092,0.411,0.162c0.178,0.084,0.316,0.15,0.411,0.197
				c0.143,0.072,0.274,0.143,0.393,0.213c0.107,0.061,0.238,0.143,0.393,0.252c0.119,0.082,0.244,0.164,0.375,0.246
				c0.131,0.098,0.25,0.193,0.356,0.289c0.131,0.105,0.226,0.191,0.286,0.25c0.107,0.105,0.237,0.232,0.392,0.373
				c0.107,0.119,0.209,0.232,0.305,0.34c0.107,0.119,0.202,0.238,0.285,0.357l0.071,0.07l0.019,0.057l0.392,0.551l0.036,0.055
				l0.143,0.195l-0.018,0.02c-0.988,0.809-2.107,1.213-3.356,1.213h-0.232l-0.072-0.09l-0.017-0.018
				c-0.037-0.035-0.09-0.096-0.162-0.178c-0.047-0.059-0.101-0.113-0.161-0.162c-0.059-0.057-0.119-0.111-0.178-0.16
				c-0.059-0.061-0.119-0.113-0.179-0.16c-0.499-0.395-1.064-0.666-1.695-0.822c-0.048-0.012-0.124-0.029-0.231-0.055l-0.232-0.016
				c-0.048-0.014-0.114-0.018-0.197-0.018c-0.13-0.014-0.231-0.018-0.303-0.018c-0.785,0-1.511,0.205-2.178,0.623
				c-0.202,0.119-0.392,0.25-0.571,0.393c-0.095,0.084-0.208,0.191-0.339,0.322c-0.999,1.012-1.499,2.273-1.499,3.785
				c0,1.406,0.446,2.605,1.339,3.605c0.905,1,1.987,1.5,3.249,1.5c0.477,0,0.935-0.078,1.375-0.232
				c0.049-0.012,0.12-0.035,0.215-0.072c0.298-0.117,0.565-0.262,0.803-0.426c0.06-0.037,0.119-0.08,0.179-0.127
				c0.285-0.215,0.541-0.451,0.768-0.715c0-0.01,0.029-0.053,0.088-0.125h0.232c1.25,0,2.369,0.412,3.356,1.232h0.018l-0.143,0.197
				c0,0.01-0.012,0.029-0.036,0.053l-0.392,0.572c-0.025,0.035-0.054,0.07-0.09,0.107c-0.083,0.119-0.178,0.238-0.285,0.355
				c-0.06,0.072-0.16,0.186-0.305,0.338c-0.119,0.121-0.249,0.246-0.392,0.377c-0.06,0.059-0.155,0.145-0.286,0.25
				c-0.106,0.096-0.226,0.191-0.356,0.285c-0.12,0.094-0.245,0.184-0.375,0.268c-0.19,0.121-0.321,0.197-0.393,0.232
				c-0.119,0.084-0.25,0.154-0.393,0.215c-0.238,0.129-0.511,0.256-0.821,0.373c-0.262,0.098-0.518,0.18-0.768,0.252
				c-0.107,0.023-0.214,0.049-0.321,0.07h-0.018c-0.095,0.025-0.208,0.047-0.339,0.072c-0.06,0.012-0.107,0.018-0.143,0.018
				c-0.131,0.023-0.232,0.037-0.305,0.037c-0.166,0.021-0.297,0.035-0.392,0.035c-0.155,0.01-0.315,0.018-0.482,0.018
				c-0.142,0-0.25-0.008-0.321-0.018c-0.155,0-0.274-0.008-0.356-0.02h-0.072c-0.131-0.012-0.257-0.029-0.375-0.053
				c-0.095-0.014-0.208-0.029-0.339-0.055c-0.167-0.023-0.321-0.057-0.464-0.105l-0.375-0.109c-0.155-0.045-0.278-0.086-0.374-0.123
				c-0.131-0.049-0.25-0.096-0.357-0.143h-0.037c-0.106-0.049-0.214-0.096-0.32-0.145c-0.144-0.07-0.28-0.148-0.411-0.23
				c-0.012,0-0.113-0.055-0.303-0.16c0-0.014-0.006-0.02-0.018-0.02c-0.119-0.07-0.208-0.131-0.269-0.18
				C264.421,214.379,264.296,214.295,264.094,214.152z"/>
			<path fill="#2E3E3D" d="M294.781,206.994c0,0.477-0.035,0.963-0.106,1.463h-12.569c0.286,1.061,0.828,1.924,1.625,2.588
				c0.81,0.678,1.738,1.031,2.785,1.055c0.25,0.023,0.488,0.037,0.714,0.037c0.535,0,1.005-0.061,1.41-0.18
				c0.321-0.096,0.69-0.244,1.107-0.447c1.261,0.465,2.214,1.297,2.856,2.5l-0.196,0.143l-0.053,0.035l-0.571,0.357
				c-0.037,0.025-0.079,0.049-0.125,0.072c-0.107,0.07-0.245,0.148-0.411,0.232c-0.071,0.035-0.125,0.064-0.162,0.088
				c-0.023,0.012-0.107,0.047-0.249,0.107c-0.107,0.047-0.274,0.113-0.5,0.195c-0.107,0.047-0.226,0.092-0.357,0.127
				c-0.107,0.033-0.257,0.076-0.446,0.125c-0.084,0.023-0.149,0.041-0.196,0.053l-0.072,0.02c-0.06,0.01-0.113,0.021-0.16,0.035
				c-0.048,0.01-0.079,0.016-0.09,0.016c-0.048,0.012-0.107,0.025-0.178,0.037c-0.084,0.012-0.15,0.018-0.197,0.018
				c-0.131,0.023-0.28,0.041-0.447,0.053c-0.155,0.012-0.279,0.025-0.375,0.037h-1.303c-2.82,0-5.052-1.221-6.694-3.66
				c-0.75-1.096-1.232-2.307-1.446-3.643c-0.071-0.5-0.107-0.986-0.107-1.463s0.036-0.965,0.107-1.465
				c0.333-2.082,1.262-3.818,2.785-5.211c1.547-1.393,3.333-2.09,5.356-2.09c0.499,0,1.005,0.047,1.517,0.143
				c1.702,0.332,3.16,1.154,4.374,2.465c1.226,1.32,1.981,2.885,2.268,4.693C294.746,206.029,294.781,206.518,294.781,206.994z
				 M290.943,205.529c-0.488-1.832-1.564-2.992-3.231-3.48c-0.381-0.119-0.78-0.178-1.196-0.178c-1.024,0-1.946,0.342-2.767,1.033
				c-0.81,0.678-1.356,1.555-1.643,2.625H290.943z"/>
			<path fill="#2E3E3D" d="M317.507,198.211c0.012,0.07,0.018,0.154,0.018,0.25c0,0.273-0.053,0.672-0.16,1.193
				c-0.179,0.918-0.482,1.656-0.911,2.217c-0.048,0.01-0.083,0.018-0.107,0.018c-0.012,0.01-0.024,0.018-0.035,0.018
				c-0.095,0-0.191,0.012-0.286,0.033c-0.154,0.037-0.268,0.063-0.339,0.072c-0.227,0.072-0.459,0.162-0.697,0.27
				c-0.059,0.023-0.12,0.053-0.179,0.088c-0.071,0.035-0.147,0.078-0.232,0.125c-0.082,0.047-0.167,0.102-0.249,0.16
				c-0.12,0.084-0.238,0.174-0.357,0.271c-0.083,0.068-0.168,0.146-0.25,0.229c-0.083,0.098-0.167,0.193-0.25,0.285
				c-0.096,0.098-0.179,0.191-0.251,0.287c-0.059,0.096-0.1,0.162-0.125,0.197c-0.047,0.059-0.089,0.123-0.125,0.195
				c-0.119,0.178-0.232,0.393-0.339,0.643c-0.048,0.107-0.089,0.215-0.125,0.322c-0.048,0.131-0.096,0.281-0.143,0.445
				c-0.024,0.109-0.047,0.215-0.071,0.322v0.035c-0.048,0.18-0.078,0.369-0.089,0.572v0.018c-0.012,0.07-0.017,0.137-0.017,0.195
				c-0.013,0.131-0.019,0.232-0.019,0.305v8.783h-3.641v-16.479c0.546-0.43,1.291-0.732,2.231-0.91
				c0.547-0.119,0.957-0.178,1.232-0.178c0.07,0,0.13,0.004,0.178,0.018v1.498c0.274-0.189,0.536-0.355,0.786-0.5
				c0.178-0.094,0.357-0.184,0.535-0.266c0.286-0.131,0.565-0.244,0.84-0.34c0.13-0.037,0.326-0.09,0.589-0.16
				c0.035-0.014,0.089-0.025,0.16-0.037c0.06-0.012,0.108-0.023,0.143-0.035c0.178-0.035,0.386-0.064,0.624-0.09
				c0.322-0.047,0.631-0.07,0.93-0.07H317.507z"/>
			<path fill="#2E3E3D" d="M336.109,206.994c0,0.477-0.035,0.963-0.107,1.463h-12.567c0.286,1.061,0.828,1.924,1.625,2.588
				c0.81,0.678,1.737,1.031,2.786,1.055c0.25,0.023,0.487,0.037,0.713,0.037c0.536,0,1.006-0.061,1.411-0.18
				c0.32-0.096,0.689-0.244,1.106-0.447c1.261,0.465,2.214,1.297,2.856,2.5l-0.196,0.143l-0.053,0.035l-0.572,0.357
				c-0.036,0.025-0.078,0.049-0.124,0.072c-0.107,0.07-0.246,0.148-0.412,0.232c-0.072,0.035-0.125,0.064-0.161,0.088
				c-0.024,0.012-0.106,0.047-0.25,0.107c-0.108,0.047-0.274,0.113-0.5,0.195c-0.107,0.047-0.227,0.092-0.357,0.127
				c-0.107,0.033-0.255,0.076-0.446,0.125c-0.083,0.023-0.147,0.041-0.196,0.053l-0.071,0.02c-0.059,0.01-0.114,0.021-0.16,0.035
				c-0.048,0.01-0.079,0.016-0.09,0.016c-0.048,0.012-0.108,0.025-0.178,0.037c-0.083,0.012-0.149,0.018-0.196,0.018
				c-0.131,0.023-0.28,0.041-0.446,0.053c-0.156,0.012-0.28,0.025-0.376,0.037h-1.301c-2.822,0-5.053-1.221-6.696-3.66
				c-0.75-1.096-1.231-2.307-1.445-3.643c-0.072-0.5-0.107-0.986-0.107-1.463s0.035-0.965,0.107-1.465
				c0.334-2.082,1.262-3.818,2.786-5.211c1.546-1.393,3.332-2.09,5.355-2.09c0.499,0,1.004,0.047,1.516,0.143
				c1.703,0.332,3.161,1.154,4.375,2.465c1.225,1.32,1.981,2.885,2.266,4.693C336.074,206.029,336.109,206.518,336.109,206.994z
				 M332.271,205.529c-0.488-1.832-1.564-2.992-3.229-3.48c-0.382-0.119-0.78-0.178-1.196-0.178c-1.025,0-1.947,0.342-2.768,1.033
				c-0.81,0.678-1.356,1.555-1.642,2.625H332.271z"/>
			<path fill="#2E3E3D" d="M352.123,198.229c0.048-0.014,0.107-0.018,0.178-0.018c0.274,0,0.685,0.059,1.232,0.178
				c0.94,0.178,1.684,0.48,2.231,0.91v15.014c0,0.477-0.035,0.965-0.107,1.465c-0.214,1.322-0.695,2.533-1.446,3.641
				c-0.571,0.857-1.268,1.576-2.088,2.16c-1.38,1-2.916,1.5-4.606,1.5h-4.694c-0.013-0.061-0.018-0.137-0.018-0.232
				c0-0.285,0.059-0.691,0.178-1.213c0.166-0.918,0.464-1.654,0.892-2.215h3.642c1.023,0,1.946-0.346,2.768-1.035
				c0.81-0.666,1.355-1.535,1.641-2.605c0.133-0.49,0.197-0.977,0.197-1.465v-0.053c-0.011,0-0.018,0.012-0.018,0.035l-0.019,0.072
				c-0.012,0-0.017-0.018-0.017-0.055c-1.369,0.965-2.887,1.447-4.553,1.447c-1.654,0-3.179-0.482-4.57-1.447
				c-1.19-0.834-2.118-1.934-2.785-3.303c-0.606-1.248-0.911-2.588-0.911-4.016c0-2.416,0.803-4.482,2.411-6.195
				c1.619-1.713,3.57-2.57,5.855-2.57c1.679,0,3.213,0.498,4.606,1.498V198.229z M350.355,211.027
				c0.976-0.844,1.547-1.945,1.714-3.301c0.036-0.238,0.053-0.482,0.053-0.732c0-1.406-0.452-2.607-1.357-3.605
				c-0.905-1-1.988-1.5-3.249-1.5c-1.274,0-2.362,0.5-3.267,1.5c-0.893,0.998-1.339,2.199-1.339,3.605
				c0,0.25,0.011,0.494,0.035,0.732c0.179,1.344,0.749,2.445,1.714,3.301c0.834,0.727,1.785,1.09,2.856,1.09
				C348.576,212.117,349.522,211.754,350.355,211.027z"/>
			<path fill="#2E3E3D" d="M360.084,194.889c0.548-0.414,1.292-0.719,2.232-0.908c0.546-0.107,0.951-0.16,1.214-0.16
				c0.082,0,0.147,0.006,0.195,0.018v3.479c-0.048-0.012-0.113-0.016-0.195-0.016c-0.263,0-0.668,0.053-1.214,0.158
				c-0.94,0.191-1.684,0.494-2.232,0.912V194.889z M360.084,199.281c0.548-0.414,1.292-0.721,2.232-0.91
				c0.522-0.107,0.917-0.16,1.177-0.16c0.095,0,0.173,0.004,0.232,0.018v17.531h-3.642V199.281z"/>
			<path fill="#2E3E3D" d="M376.758,206.404c1.334,0.75,2.244,1.674,2.731,2.768c0.227,0.5,0.34,0.939,0.34,1.32v0.322
				c0,1.404-0.661,2.576-1.983,3.516c-0.689,0.5-1.386,0.852-2.087,1.053c-0.868,0.252-1.702,0.377-2.498,0.377h-0.019
				c-0.096,0-0.238-0.008-0.429-0.018c-2.546-0.096-4.446-1.029-5.696-2.805c-0.332-0.475-0.499-0.779-0.499-0.91
				c0.155-0.117,0.339-0.244,0.554-0.375c0.939-0.584,1.856-0.898,2.749-0.945c0.023,0.084,0.065,0.184,0.125,0.303
				c0,0.012,0.006,0.025,0.018,0.035c0.011,0.023,0.023,0.043,0.036,0.055c0.511,0.832,1.523,1.25,3.035,1.25h0.232
				c0.82-0.012,1.476-0.244,1.964-0.697c0.296-0.357,0.445-0.695,0.445-1.016c0-0.643-0.57-1.191-1.714-1.645
				c-0.571-0.236-1.135-0.402-1.694-0.5c-1.12-0.238-1.994-0.547-2.625-0.928c-1.334-0.75-2.244-1.672-2.732-2.768
				c-0.225-0.5-0.339-0.934-0.339-1.301v-0.322c0-1.404,0.654-2.582,1.963-3.535c0.69-0.5,1.393-0.844,2.107-1.035
				c0.868-0.262,1.702-0.393,2.5-0.393c0.107,0,0.249,0.004,0.428,0.018c2.559,0.096,4.452,1.023,5.677,2.783
				c0.167,0.229,0.303,0.447,0.411,0.662c0.096,0.201,0.137,0.291,0.125,0.266c-0.226,0.168-0.41,0.295-0.553,0.377
				c-0.94,0.582-1.864,0.9-2.767,0.947c-0.012-0.086-0.048-0.18-0.107-0.287c-0.012-0.023-0.03-0.051-0.054-0.09
				c-0.523-0.83-1.536-1.248-3.034-1.248h-0.197c-0.833,0-1.498,0.232-1.998,0.695c-0.299,0.357-0.446,0.689-0.446,0.998
				c0,0.645,0.564,1.197,1.696,1.662c0.571,0.227,1.141,0.393,1.714,0.498C375.253,205.732,376.127,206.035,376.758,206.404z"/>
			<path fill="#2E3E3D" d="M391.202,214.33c0.106,0.512,0.16,0.91,0.16,1.197c0,0.082-0.006,0.16-0.018,0.232l-1.106-0.018
				c-1.356-0.072-2.452-0.342-3.285-0.805c-0.393-0.225-0.703-0.428-0.928-0.607c-1.821-1.393-2.731-3.225-2.731-5.496v-13.963
				c0.929-0.701,2.112-1.051,3.552-1.051h0.107v4.943h3.643v0.088c0,1.154-0.351,2.109-1.054,2.859h-2.588v7.123
				c0,0.842,0.286,1.582,0.857,2.211c0.119,0.096,0.238,0.186,0.357,0.27c0.083,0.061,0.166,0.117,0.249,0.178
				c0.095,0.049,0.173,0.09,0.232,0.127c0.061,0.021,0.12,0.053,0.18,0.086c0.237,0.109,0.47,0.191,0.696,0.252
				c0.072,0.025,0.185,0.047,0.339,0.07c0.096,0.023,0.19,0.043,0.286,0.055h0.036c0.024,0,0.061,0.006,0.107,0.018
				C390.719,212.67,391.022,213.414,391.202,214.33z"/>
			<path fill="#2E3E3D" d="M403.483,198.211c0.012,0.07,0.018,0.154,0.018,0.25c0,0.273-0.053,0.672-0.16,1.193
				c-0.179,0.918-0.481,1.656-0.911,2.217c-0.048,0.01-0.083,0.018-0.107,0.018c-0.011,0.01-0.023,0.018-0.035,0.018
				c-0.095,0-0.191,0.012-0.286,0.033c-0.155,0.037-0.268,0.063-0.339,0.072c-0.227,0.072-0.458,0.162-0.696,0.27
				c-0.06,0.023-0.12,0.053-0.18,0.088c-0.071,0.035-0.147,0.078-0.232,0.125c-0.082,0.047-0.167,0.102-0.249,0.16
				c-0.118,0.084-0.239,0.174-0.357,0.271c-0.083,0.068-0.166,0.146-0.25,0.229c-0.083,0.098-0.168,0.193-0.25,0.285
				c-0.096,0.098-0.178,0.191-0.249,0.287c-0.061,0.096-0.102,0.162-0.125,0.197c-0.048,0.059-0.09,0.123-0.126,0.195
				c-0.119,0.178-0.232,0.393-0.339,0.643c-0.046,0.107-0.088,0.215-0.125,0.322c-0.048,0.131-0.096,0.281-0.142,0.445
				c-0.025,0.109-0.048,0.215-0.071,0.322v0.035c-0.049,0.18-0.078,0.369-0.09,0.572v0.018c-0.012,0.07-0.019,0.137-0.019,0.195
				c-0.012,0.131-0.018,0.232-0.018,0.305v8.783h-3.642v-16.479c0.547-0.43,1.292-0.732,2.232-0.91
				c0.547-0.119,0.957-0.178,1.231-0.178c0.071,0,0.13,0.004,0.178,0.018v1.498c0.274-0.189,0.536-0.355,0.787-0.5
				c0.178-0.094,0.356-0.184,0.535-0.266c0.286-0.131,0.566-0.244,0.839-0.34c0.13-0.037,0.328-0.09,0.589-0.16
				c0.037-0.014,0.09-0.025,0.161-0.037c0.06-0.012,0.108-0.023,0.143-0.035c0.179-0.035,0.386-0.064,0.624-0.09
				c0.322-0.047,0.631-0.07,0.93-0.07H403.483z"/>
			<path fill="#2E3E3D" d="M418.444,198.229c0.071-0.014,0.148-0.018,0.232-0.018c0.273,0,0.665,0.053,1.178,0.16
				c0.94,0.189,1.684,0.496,2.23,0.91v16.479h-3.64v-1.5c-1.394,0.998-2.928,1.5-4.606,1.5c-2.285,0-4.237-0.857-5.855-2.572
				c-1.608-1.715-2.411-3.777-2.411-6.193c0-2.43,0.803-4.5,2.411-6.213c1.619-1.701,3.57-2.553,5.855-2.553
				c1.678,0,3.212,0.492,4.606,1.48V198.229z M413.838,212.1c1.261,0,2.344-0.5,3.249-1.5c0.904-1,1.357-2.199,1.357-3.605
				c0-1.418-0.453-2.625-1.357-3.625c-0.905-1-1.988-1.498-3.249-1.498c-1.273,0-2.362,0.498-3.267,1.498
				c-0.893,1-1.338,2.207-1.338,3.625c0,1.406,0.445,2.605,1.338,3.605C411.476,211.6,412.564,212.1,413.838,212.1z"/>
			<path fill="#2E3E3D" d="M434.601,214.33c0.107,0.512,0.16,0.91,0.16,1.197c0,0.082-0.005,0.16-0.019,0.232l-1.105-0.018
				c-1.358-0.072-2.452-0.342-3.286-0.805c-0.392-0.225-0.702-0.428-0.929-0.607c-1.821-1.393-2.731-3.225-2.731-5.496v-13.963
				c0.927-0.701,2.113-1.051,3.553-1.051h0.107v4.943h3.643v0.088c0,1.154-0.352,2.109-1.054,2.859h-2.589v7.123
				c0,0.842,0.286,1.582,0.857,2.211c0.118,0.096,0.237,0.186,0.355,0.27c0.084,0.061,0.168,0.117,0.251,0.178
				c0.096,0.049,0.172,0.09,0.232,0.127c0.06,0.021,0.12,0.053,0.179,0.086c0.239,0.109,0.471,0.191,0.696,0.252
				c0.072,0.025,0.186,0.047,0.339,0.07c0.096,0.023,0.192,0.043,0.286,0.055h0.036c0.023,0,0.06,0.006,0.108,0.018
				C434.117,212.67,434.421,213.414,434.601,214.33z"/>
			<path fill="#2E3E3D" d="M437.366,194.889c0.548-0.414,1.292-0.719,2.231-0.908c0.548-0.107,0.953-0.16,1.215-0.16
				c0.083,0,0.147,0.006,0.195,0.018v3.479c-0.048-0.012-0.113-0.016-0.195-0.016c-0.263,0-0.667,0.053-1.215,0.158
				c-0.939,0.191-1.683,0.494-2.231,0.912V194.889z M437.366,199.281c0.548-0.414,1.292-0.721,2.231-0.91
				c0.523-0.107,0.917-0.16,1.179-0.16c0.095,0,0.173,0.004,0.232,0.018v17.531h-3.642V199.281z"/>
			<path fill="#2E3E3D" d="M452.736,198.229c2.273,0,4.22,0.852,5.838,2.553c1.607,1.713,2.411,3.783,2.411,6.213
				c0,2.416-0.804,4.479-2.411,6.193c-1.618,1.715-3.564,2.572-5.838,2.572c-2.284,0-4.236-0.857-5.854-2.572
				c-1.608-1.715-2.41-3.777-2.41-6.193c0-2.43,0.801-4.5,2.41-6.213C448.5,199.08,450.452,198.229,452.736,198.229z M452.736,212.1
				c1.262,0,2.345-0.5,3.249-1.5c0.905-1,1.357-2.199,1.357-3.605c0-1.418-0.453-2.625-1.357-3.625
				c-0.904-1-1.987-1.498-3.249-1.498c-1.273,0-2.362,0.498-3.266,1.498c-0.892,1-1.339,2.207-1.339,3.625
				c0,1.406,0.448,2.605,1.339,3.605C450.375,211.6,451.463,212.1,452.736,212.1z"/>
			<path fill="#2E3E3D" d="M477.837,199.709c2.44,1.738,3.66,4.166,3.66,7.285v8.766h-3.66v-8.766c0-1.418-0.447-2.625-1.338-3.625
				c-0.905-1-1.994-1.498-3.268-1.498c-1.262,0-2.344,0.498-3.248,1.498c-0.905,1-1.358,2.207-1.358,3.625v8.766h-3.642v-16.479
				c0.548-0.414,1.291-0.721,2.232-0.91c0.522-0.107,0.916-0.16,1.179-0.16c0.094,0,0.172,0.004,0.231,0.018v1.48
				c1.394-1,2.928-1.498,4.605-1.498C474.921,198.211,476.457,198.709,477.837,199.709z"/>
		</g>
		<g>
			<g>
				<path fill="#2E3E3D" d="M426.966,48.593c0,1.631-0.847,3.072-2.538,4.334c-1.693,1.258-3.624,1.887-5.791,1.887
					c-1.82,0-3.237-0.455-4.252-1.365c-1.015-0.91-1.523-2.189-1.523-3.84c0-1.512,0.196-2.85,0.587-4.012
					c0.445-1.322,1.286-2.904,2.522-4.744l0.985,0.664c-1.524,2.287-2.285,4.266-2.285,5.936c0,2.01,1.363,3.016,4.092,3.016
					c1.861,0,3.375-0.363,4.537-1.088c1.164-0.725,1.745-1.664,1.745-2.816c0-0.994-0.058-1.84-0.173-2.539
					c-0.604-3.396-1.211-6.791-1.826-10.184l-0.792-0.572c-0.01-1.016,0.476-2.602,1.459-4.758l0.73,0.348
					c-0.042,0.146-0.064,0.316-0.064,0.506c0,0.361,0.122,0.637,0.364,0.826c0.096,0.074,0.798,0.488,2.111,1.236
					c-0.169,1.313-0.53,2.551-1.08,3.715L425.3,34.95l0.855,4.729c0.541,3.002,0.811,4.791,0.811,5.361V48.593z"/>
				<path fill="#2E3E3D" d="M435.787,48.989h-9.933v-4.313h8.346c-0.169-0.994-0.751-2.08-1.746-3.254l1.271-3.775
					c0.792,0.91,1.326,1.836,1.602,2.775c0.307,1.016,0.46,2.492,0.46,4.428V48.989z M435.532,51.782l-1.744,3.238l-2.253-1.27
					l-1.27,2.506l-2.951-1.619l1.65-3.076l2.348,1.174l1.332-2.57L435.532,51.782z"/>
				<path fill="#2E3E3D" d="M452.793,48.989h-18.117v-4.313h11.279c-2.348-2.422-4.475-3.635-6.378-3.635
					c-0.497,0-1.079,0.074-1.745,0.221c1.142-2.6,2.601-3.9,4.378-3.9c1.005,0,2.036,0.396,3.095,1.189
					c0.845,0.645,2.109,1.889,3.791,3.729c0.803,0.889,1.422,1.471,1.855,1.744c0.402,0.254,1.016,0.473,1.84,0.652V48.989z
					 M446.924,52.464l-2,3.588l-3.649-1.969l1.84-3.586L446.924,52.464z"/>
				<path fill="#2E3E3D" d="M472.561,48.989c-2.381-0.158-4.135-0.512-5.268-1.061c-0.635,0.453-1.231,0.75-1.792,0.889
					c-0.455,0.115-1.126,0.172-2.015,0.172H460.9c-1.259,0-2.189-0.797-2.792-2.395c-1.047,1.598-2.434,2.395-4.158,2.395h-2.269
					v-4.313h2.269c1.089,0,1.999-0.318,2.729-0.953c0.92-0.805,1.417-2.037,1.49-3.695l1.047,0.158
					c-0.063,0.951-0.095,1.816-0.095,2.6c0,0.553,0.186,1.004,0.557,1.357c0.368,0.355,0.793,0.533,1.269,0.533h1.953
					c1.278,0,2.198-0.186,2.759-0.557c0.667-0.443,0.999-1.248,0.999-2.41c0-0.371,0.275-0.773,0.826-1.207l0.602-0.475
					c0.042,0.424,0.064,0.92,0.064,1.488c0,0.584-0.084,1.355-0.254,2.318c0.751,0.379,1.704,0.65,2.856,0.809
					c0-0.359-0.133-0.822-0.397-1.389c-0.264-0.564-0.396-0.953-0.396-1.164c0-0.34,0.152-0.717,0.459-1.129l1.349-1.824
					c0.528,1.207,0.793,2.492,0.793,3.855V48.989z"/>
				<path fill="#2E3E3D" d="M481.381,48.989h-9.932v-4.313h8.345c-0.17-0.994-0.751-2.08-1.746-3.254l1.27-3.775
					c0.793,0.91,1.327,1.836,1.603,2.775c0.305,1.016,0.459,2.492,0.459,4.428V48.989z M481.127,32.032l-1.745,3.234l-2.252-1.268
					l-1.27,2.506l-2.951-1.617l1.65-3.078l2.347,1.172l1.333-2.568L481.127,32.032z"/>
			</g>
			<g>
				<path fill="#2E3E3D" d="M352.742,48.989h-2.08c-2.104,0-3.341-2.174-3.711-6.52c-1.46,1.799-2.507,2.699-3.142,2.699
					c-0.179,0-0.434-0.033-0.762-0.098l-1.935-0.381l-1.047-0.189c-0.509-0.137-0.762-0.328-0.762-0.57
					c0-0.277,0.37-1.18,1.111-2.713c0.74-1.535,1.268-2.469,1.586-2.809c0.549-0.592,1.872-1.482,3.965-2.666
					c-0.063-0.252-0.095-0.551-0.095-0.887c0-0.912,0.423-2.17,1.27-3.777l1.522,9.9c0.381,2.465,1.047,3.697,1.999,3.697h2.08
					V48.989z M349.077,26.462l-1.746,3.238l-2.252-1.27l-1.269,2.508l-2.951-1.619l1.65-3.078l2.348,1.174l1.332-2.57
					L349.077,26.462z M346.57,40.028l-0.317-1.904c-0.477,0.211-1.206,0.625-2.189,1.236c-0.635,0.508-0.952,0.879-0.952,1.111
					c0,0.316,0.55,0.477,1.649,0.477C345.152,40.948,345.755,40.64,346.57,40.028z"/>
				<path fill="#2E3E3D" d="M366.369,48.974c-2.465-0.063-4.934-0.729-7.409-1.998c-0.888,1.344-2.237,2.014-4.045,2.014h-3.142
					v-4.313h3.142c1.966,0,3.22-0.631,3.759-1.891c0.571-1.342,1.337-2.453,2.3-3.33c0.846-0.762,1.561-1.141,2.142-1.141
					c0.55,0,1.222,0.814,2.015,2.441c0.825,1.713,1.237,3.299,1.237,4.76V48.974z M363.402,44.185c0-0.234-0.228-0.641-0.682-1.223
					c-0.508-0.623-0.947-0.936-1.316-0.936c-0.412,0-0.762,0.477-1.047,1.426c1.64,0.635,2.539,0.953,2.697,0.953
					C363.285,44.405,363.402,44.331,363.402,44.185z"/>
				<path fill="#2E3E3D" d="M377.505,48.989h-7.186c-1.523,0-2.285-0.732-2.285-2.205c0-0.93,0.095-1.977,0.286-3.141l0.603-0.031
					c0.168,0.709,0.707,1.064,1.618,1.064h5.457c-0.423-2.678-1.539-4.586-3.347-5.729l1.142-4.949
					c1.375,1.035,2.353,2.363,2.935,3.98c0.518,1.471,0.776,3.443,0.776,5.918V48.989z"/>
				<path fill="#2E3E3D" d="M394.513,48.989h-18.118v-4.313h11.28c-2.349-2.422-4.474-3.635-6.377-3.635
					c-0.497,0-1.079,0.074-1.745,0.221c1.142-2.6,2.601-3.9,4.378-3.9c1.005,0,2.036,0.396,3.094,1.189
					c0.846,0.645,2.11,1.889,3.792,3.729c0.804,0.889,1.422,1.471,1.856,1.744c0.402,0.254,1.016,0.473,1.84,0.652V48.989z
					 M388.136,32.095l-1.904,3.555l-3.713-1.938l1.84-3.586L388.136,32.095z"/>
				<path fill="#2E3E3D" d="M402.127,48.989h-8.726v-4.313h6.823l-1.92-10.773l-1.016-0.666c-0.075-1.1,0.433-2.686,1.522-4.76
					l0.73,0.381c0,0.063-0.021,0.232-0.063,0.506c0,0.615,0.845,1.281,2.537,2c-0.2,1.406-0.55,2.645-1.047,3.713l-0.57-0.221
					l1.728,9.82V48.989z"/>
				<path fill="#2E3E3D" d="M407.87,44.374c0,1.598-0.539,3.5-1.618,5.711l-0.95-0.381c0.253-1.354,0.38-2.453,0.38-3.299
					c0-1.365-0.181-3.461-0.541-6.283c-0.169-1.332-0.423-2.85-0.761-4.553c-0.275-1.395-0.413-2.195-0.413-2.396
					c0-0.666,0.624-2.18,1.872-4.537l0.952,5.617C407.512,38.718,407.87,42.091,407.87,44.374z"/>
			</g>
			<g>
				<path fill="#2E3E3D" d="M272.341,48.989h-2.077c-2.106,0-3.343-2.174-3.713-6.52c-1.459,1.799-2.506,2.699-3.142,2.699
					c-0.18,0-0.434-0.033-0.761-0.098l-1.935-0.381l-1.048-0.189c-0.507-0.137-0.762-0.328-0.762-0.57c0-0.277,0.37-1.18,1.11-2.713
					c0.74-1.535,1.27-2.469,1.587-2.809c0.549-0.592,1.872-1.482,3.966-2.666c-0.063-0.252-0.095-0.551-0.095-0.887
					c0-0.912,0.422-2.17,1.269-3.777l1.523,9.9c0.381,2.465,1.048,3.697,2,3.697h2.077V48.989z M268.677,26.462l-1.745,3.238
					l-2.254-1.27l-1.269,2.508l-2.951-1.619l1.65-3.078l2.348,1.174l1.333-2.57L268.677,26.462z M266.171,40.028l-0.318-1.904
					c-0.476,0.211-1.206,0.625-2.189,1.236c-0.635,0.508-0.952,0.879-0.952,1.111c0,0.316,0.55,0.477,1.65,0.477
					C264.752,40.948,265.356,40.64,266.171,40.028z"/>
				<path fill="#2E3E3D" d="M281.305,48.989h-9.931v-4.313h8.345c-0.169-0.994-0.751-2.08-1.745-3.254l1.27-3.775
					c0.793,0.91,1.326,1.836,1.602,2.775c0.307,1.016,0.46,2.492,0.46,4.428V48.989z M281.051,51.782l-1.745,3.238l-2.253-1.27
					l-1.27,2.506l-2.95-1.619l1.649-3.076l2.349,1.174l1.333-2.57L281.051,51.782z"/>
				<path fill="#2E3E3D" d="M290.126,48.989h-9.932v-4.313h8.345c-0.169-0.994-0.751-2.08-1.745-3.254l1.27-3.775
					c0.793,0.91,1.328,1.836,1.602,2.775c0.307,1.016,0.46,2.492,0.46,4.428V48.989z M290.22,31.714l-1.903,3.553l-3.712-1.936
					l1.841-3.584L290.22,31.714z"/>
				<path fill="#2E3E3D" d="M307.133,48.989h-18.118v-4.313h2.11c0.361,0,1.639-0.885,3.839-2.65
					c-0.042-2.676-0.528-5.859-1.46-9.551l-0.919-0.572c0.348-1.586,0.856-3.141,1.522-4.662l0.73,0.285
					c0,0.074-0.021,0.211-0.064,0.414c0,0.559,1.048,1.215,3.142,1.965c-0.159,1.186-0.54,2.518-1.143,3.998l-0.571-0.191
					c0.55,2.561,0.825,4.307,0.825,5.236c0,0.613-0.053,1.184-0.158,1.713l2.792-1.967c1.47-0.953,2.539-1.426,3.205-1.426
					c1.248,0,2.247,0.326,2.998,0.982c0.847,0.73,1.27,1.777,1.27,3.139V48.989z M304.928,43.056c0-0.357-0.412-0.713-1.238-1.061
					c-0.751-0.309-1.417-0.461-1.998-0.461c-1.207,0-3.259,1.047-6.156,3.143h4.156C303.182,44.677,304.928,44.136,304.928,43.056z"
					/>
				<path fill="#2E3E3D" d="M321.792,47.896c0,1.82-0.775,3.617-2.324,5.395c-1.549,1.777-3.07,2.666-4.562,2.666
					c-0.878,0-1.837-0.281-2.878-0.84c-1.042-0.563-2.643-1.668-4.799-3.318l0.666-0.918c0.983,0.656,1.75,1.098,2.301,1.33
					c0.793,0.34,1.645,0.508,2.554,0.508c2.168,0,4.41-1.373,6.727-4.125c-0.444,0.064-0.815,0.096-1.11,0.096
					c-1.047,0-1.88-0.34-2.5-1.021c-0.618-0.684-0.927-1.609-0.927-2.785c0-1.586,0.37-3.119,1.11-4.602
					c0.792-1.586,1.691-2.379,2.696-2.379c0.836,0,1.553,0.58,2.15,1.738c0.597,1.156,0.896,2.545,0.896,4.164V47.896z
					 M319.888,44.677c-0.296-1.703-0.899-2.555-1.809-2.555c-0.328,0-0.598,0.143-0.81,0.43c-0.179,0.24-0.269,0.51-0.269,0.809
					c0,0.877,0.761,1.316,2.285,1.316H319.888z"/>
				<path fill="#2E3E3D" d="M329.406,48.989h-8.726v-4.313h6.823l-1.919-10.773l-1.015-0.666c-0.075-1.1,0.432-2.686,1.521-4.76
					l0.73,0.381c0,0.063-0.021,0.232-0.063,0.506c0,0.615,0.847,1.281,2.539,2c-0.202,1.406-0.55,2.645-1.047,3.713l-0.571-0.221
					l1.729,9.82V48.989z"/>
				<path fill="#2E3E3D" d="M335.15,44.374c0,1.598-0.54,3.5-1.619,5.711l-0.951-0.381c0.253-1.354,0.381-2.453,0.381-3.299
					c0-1.365-0.18-3.461-0.54-6.283c-0.17-1.332-0.423-2.85-0.761-4.553c-0.275-1.395-0.414-2.195-0.414-2.396
					c0-0.666,0.624-2.18,1.873-4.537l0.952,5.617C334.791,38.718,335.15,42.091,335.15,44.374z"/>
			</g>
			<g>
				<path fill="#2E3E3D" d="M426.966,48.593c0,1.631-0.847,3.072-2.538,4.334c-1.693,1.258-3.624,1.887-5.791,1.887
					c-1.82,0-3.237-0.455-4.252-1.365c-1.015-0.91-1.523-2.189-1.523-3.84c0-1.512,0.196-2.85,0.587-4.012
					c0.445-1.322,1.286-2.904,2.522-4.744l0.985,0.664c-1.524,2.287-2.285,4.266-2.285,5.936c0,2.01,1.363,3.016,4.092,3.016
					c1.861,0,3.375-0.363,4.537-1.088c1.164-0.725,1.745-1.664,1.745-2.816c0-0.994-0.058-1.84-0.173-2.539
					c-0.604-3.396-1.211-6.791-1.826-10.184l-0.792-0.572c-0.01-1.016,0.476-2.602,1.459-4.758l0.73,0.348
					c-0.042,0.146-0.064,0.316-0.064,0.506c0,0.361,0.122,0.637,0.364,0.826c0.096,0.074,0.798,0.488,2.111,1.236
					c-0.169,1.313-0.53,2.551-1.08,3.715L425.3,34.95l0.855,4.729c0.541,3.002,0.811,4.791,0.811,5.361V48.593z"/>
				<path fill="#2E3E3D" d="M435.787,48.989h-9.933v-4.313h8.346c-0.169-0.994-0.751-2.08-1.746-3.254l1.271-3.775
					c0.792,0.91,1.326,1.836,1.602,2.775c0.307,1.016,0.46,2.492,0.46,4.428V48.989z M435.532,51.782l-1.744,3.238l-2.253-1.27
					l-1.27,2.506l-2.951-1.619l1.65-3.076l2.348,1.174l1.332-2.57L435.532,51.782z"/>
				<path fill="#2E3E3D" d="M452.793,48.989h-18.117v-4.313h11.279c-2.348-2.422-4.475-3.635-6.378-3.635
					c-0.497,0-1.079,0.074-1.745,0.221c1.142-2.6,2.601-3.9,4.378-3.9c1.005,0,2.036,0.396,3.095,1.189
					c0.845,0.645,2.109,1.889,3.791,3.729c0.803,0.889,1.422,1.471,1.855,1.744c0.402,0.254,1.016,0.473,1.84,0.652V48.989z
					 M446.924,52.464l-2,3.588l-3.649-1.969l1.84-3.586L446.924,52.464z"/>
				<path fill="#2E3E3D" d="M472.561,48.989c-2.381-0.158-4.135-0.512-5.268-1.061c-0.635,0.453-1.231,0.75-1.792,0.889
					c-0.455,0.115-1.126,0.172-2.015,0.172H460.9c-1.259,0-2.189-0.797-2.792-2.395c-1.047,1.598-2.434,2.395-4.158,2.395h-2.269
					v-4.313h2.269c1.089,0,1.999-0.318,2.729-0.953c0.92-0.805,1.417-2.037,1.49-3.695l1.047,0.158
					c-0.063,0.951-0.095,1.816-0.095,2.6c0,0.553,0.186,1.004,0.557,1.357c0.368,0.355,0.793,0.533,1.269,0.533h1.953
					c1.278,0,2.198-0.186,2.759-0.557c0.667-0.443,0.999-1.248,0.999-2.41c0-0.371,0.275-0.773,0.826-1.207l0.602-0.475
					c0.042,0.424,0.064,0.92,0.064,1.488c0,0.584-0.084,1.355-0.254,2.318c0.751,0.379,1.704,0.65,2.856,0.809
					c0-0.359-0.133-0.822-0.397-1.389c-0.264-0.564-0.396-0.953-0.396-1.164c0-0.34,0.152-0.717,0.459-1.129l1.349-1.824
					c0.528,1.207,0.793,2.492,0.793,3.855V48.989z"/>
				<path fill="#2E3E3D" d="M481.381,48.989h-9.932v-4.313h8.345c-0.17-0.994-0.751-2.08-1.746-3.254l1.27-3.775
					c0.793,0.91,1.327,1.836,1.603,2.775c0.305,1.016,0.459,2.492,0.459,4.428V48.989z M481.127,32.032l-1.745,3.234l-2.252-1.268
					l-1.27,2.506l-2.951-1.617l1.65-3.078l2.347,1.172l1.333-2.568L481.127,32.032z"/>
			</g>
			<g>
				<path fill="#2E3E3D" d="M352.742,48.989h-2.08c-2.104,0-3.341-2.174-3.711-6.52c-1.46,1.799-2.507,2.699-3.142,2.699
					c-0.179,0-0.434-0.033-0.762-0.098l-1.935-0.381l-1.047-0.189c-0.509-0.137-0.762-0.328-0.762-0.57
					c0-0.277,0.37-1.18,1.111-2.713c0.74-1.535,1.268-2.469,1.586-2.809c0.549-0.592,1.872-1.482,3.965-2.666
					c-0.063-0.252-0.095-0.551-0.095-0.887c0-0.912,0.423-2.17,1.27-3.777l1.522,9.9c0.381,2.465,1.047,3.697,1.999,3.697h2.08
					V48.989z M349.077,26.462l-1.746,3.238l-2.252-1.27l-1.269,2.508l-2.951-1.619l1.65-3.078l2.348,1.174l1.332-2.57
					L349.077,26.462z M346.57,40.028l-0.317-1.904c-0.477,0.211-1.206,0.625-2.189,1.236c-0.635,0.508-0.952,0.879-0.952,1.111
					c0,0.316,0.55,0.477,1.649,0.477C345.152,40.948,345.755,40.64,346.57,40.028z"/>
				<path fill="#2E3E3D" d="M366.369,48.974c-2.465-0.063-4.934-0.729-7.409-1.998c-0.888,1.344-2.237,2.014-4.045,2.014h-3.142
					v-4.313h3.142c1.966,0,3.22-0.631,3.759-1.891c0.571-1.342,1.337-2.453,2.3-3.33c0.846-0.762,1.561-1.141,2.142-1.141
					c0.55,0,1.222,0.814,2.015,2.441c0.825,1.713,1.237,3.299,1.237,4.76V48.974z M363.402,44.185c0-0.234-0.228-0.641-0.682-1.223
					c-0.508-0.623-0.947-0.936-1.316-0.936c-0.412,0-0.762,0.477-1.047,1.426c1.64,0.635,2.539,0.953,2.697,0.953
					C363.285,44.405,363.402,44.331,363.402,44.185z"/>
				<path fill="#2E3E3D" d="M377.505,48.989h-7.186c-1.523,0-2.285-0.732-2.285-2.205c0-0.93,0.095-1.977,0.286-3.141l0.603-0.031
					c0.168,0.709,0.707,1.064,1.618,1.064h5.457c-0.423-2.678-1.539-4.586-3.347-5.729l1.142-4.949
					c1.375,1.035,2.353,2.363,2.935,3.98c0.518,1.471,0.776,3.443,0.776,5.918V48.989z"/>
				<path fill="#2E3E3D" d="M394.513,48.989h-18.118v-4.313h11.28c-2.349-2.422-4.474-3.635-6.377-3.635
					c-0.497,0-1.079,0.074-1.745,0.221c1.142-2.6,2.601-3.9,4.378-3.9c1.005,0,2.036,0.396,3.094,1.189
					c0.846,0.645,2.11,1.889,3.792,3.729c0.804,0.889,1.422,1.471,1.856,1.744c0.402,0.254,1.016,0.473,1.84,0.652V48.989z
					 M388.136,32.095l-1.904,3.555l-3.713-1.938l1.84-3.586L388.136,32.095z"/>
				<path fill="#2E3E3D" d="M402.127,48.989h-8.726v-4.313h6.823l-1.92-10.773l-1.016-0.666c-0.075-1.1,0.433-2.686,1.522-4.76
					l0.73,0.381c0,0.063-0.021,0.232-0.063,0.506c0,0.615,0.845,1.281,2.537,2c-0.2,1.406-0.55,2.645-1.047,3.713l-0.57-0.221
					l1.728,9.82V48.989z"/>
				<path fill="#2E3E3D" d="M407.87,44.374c0,1.598-0.539,3.5-1.618,5.711l-0.95-0.381c0.253-1.354,0.38-2.453,0.38-3.299
					c0-1.365-0.181-3.461-0.541-6.283c-0.169-1.332-0.423-2.85-0.761-4.553c-0.275-1.395-0.413-2.195-0.413-2.396
					c0-0.666,0.624-2.18,1.872-4.537l0.952,5.617C407.512,38.718,407.87,42.091,407.87,44.374z"/>
			</g>
			<g>
				<path fill="#2E3E3D" d="M272.341,48.989h-2.077c-2.106,0-3.343-2.174-3.713-6.52c-1.459,1.799-2.506,2.699-3.142,2.699
					c-0.18,0-0.434-0.033-0.761-0.098l-1.935-0.381l-1.048-0.189c-0.507-0.137-0.762-0.328-0.762-0.57c0-0.277,0.37-1.18,1.11-2.713
					c0.74-1.535,1.27-2.469,1.587-2.809c0.549-0.592,1.872-1.482,3.966-2.666c-0.063-0.252-0.095-0.551-0.095-0.887
					c0-0.912,0.422-2.17,1.269-3.777l1.523,9.9c0.381,2.465,1.048,3.697,2,3.697h2.077V48.989z M268.677,26.462l-1.745,3.238
					l-2.254-1.27l-1.269,2.508l-2.951-1.619l1.65-3.078l2.348,1.174l1.333-2.57L268.677,26.462z M266.171,40.028l-0.318-1.904
					c-0.476,0.211-1.206,0.625-2.189,1.236c-0.635,0.508-0.952,0.879-0.952,1.111c0,0.316,0.55,0.477,1.65,0.477
					C264.752,40.948,265.356,40.64,266.171,40.028z"/>
				<path fill="#2E3E3D" d="M281.305,48.989h-9.931v-4.313h8.345c-0.169-0.994-0.751-2.08-1.745-3.254l1.27-3.775
					c0.793,0.91,1.326,1.836,1.602,2.775c0.307,1.016,0.46,2.492,0.46,4.428V48.989z M281.051,51.782l-1.745,3.238l-2.253-1.27
					l-1.27,2.506l-2.95-1.619l1.649-3.076l2.349,1.174l1.333-2.57L281.051,51.782z"/>
				<path fill="#2E3E3D" d="M290.126,48.989h-9.932v-4.313h8.345c-0.169-0.994-0.751-2.08-1.745-3.254l1.27-3.775
					c0.793,0.91,1.328,1.836,1.602,2.775c0.307,1.016,0.46,2.492,0.46,4.428V48.989z M290.22,31.714l-1.903,3.553l-3.712-1.936
					l1.841-3.584L290.22,31.714z"/>
				<path fill="#2E3E3D" d="M307.133,48.989h-18.118v-4.313h2.11c0.361,0,1.639-0.885,3.839-2.65
					c-0.042-2.676-0.528-5.859-1.46-9.551l-0.919-0.572c0.348-1.586,0.856-3.141,1.522-4.662l0.73,0.285
					c0,0.074-0.021,0.211-0.064,0.414c0,0.559,1.048,1.215,3.142,1.965c-0.159,1.186-0.54,2.518-1.143,3.998l-0.571-0.191
					c0.55,2.561,0.825,4.307,0.825,5.236c0,0.613-0.053,1.184-0.158,1.713l2.792-1.967c1.47-0.953,2.539-1.426,3.205-1.426
					c1.248,0,2.247,0.326,2.998,0.982c0.847,0.73,1.27,1.777,1.27,3.139V48.989z M304.928,43.056c0-0.357-0.412-0.713-1.238-1.061
					c-0.751-0.309-1.417-0.461-1.998-0.461c-1.207,0-3.259,1.047-6.156,3.143h4.156C303.182,44.677,304.928,44.136,304.928,43.056z"
					/>
				<path fill="#2E3E3D" d="M321.792,47.896c0,1.82-0.775,3.617-2.324,5.395c-1.549,1.777-3.07,2.666-4.562,2.666
					c-0.878,0-1.837-0.281-2.878-0.84c-1.042-0.563-2.643-1.668-4.799-3.318l0.666-0.918c0.983,0.656,1.75,1.098,2.301,1.33
					c0.793,0.34,1.645,0.508,2.554,0.508c2.168,0,4.41-1.373,6.727-4.125c-0.444,0.064-0.815,0.096-1.11,0.096
					c-1.047,0-1.88-0.34-2.5-1.021c-0.618-0.684-0.927-1.609-0.927-2.785c0-1.586,0.37-3.119,1.11-4.602
					c0.792-1.586,1.691-2.379,2.696-2.379c0.836,0,1.553,0.58,2.15,1.738c0.597,1.156,0.896,2.545,0.896,4.164V47.896z
					 M319.888,44.677c-0.296-1.703-0.899-2.555-1.809-2.555c-0.328,0-0.598,0.143-0.81,0.43c-0.179,0.24-0.269,0.51-0.269,0.809
					c0,0.877,0.761,1.316,2.285,1.316H319.888z"/>
				<path fill="#2E3E3D" d="M329.406,48.989h-8.726v-4.313h6.823l-1.919-10.773l-1.015-0.666c-0.075-1.1,0.432-2.686,1.521-4.76
					l0.73,0.381c0,0.063-0.021,0.232-0.063,0.506c0,0.615,0.847,1.281,2.539,2c-0.202,1.406-0.55,2.645-1.047,3.713l-0.571-0.221
					l1.729,9.82V48.989z"/>
				<path fill="#2E3E3D" d="M335.15,44.374c0,1.598-0.54,3.5-1.619,5.711l-0.951-0.381c0.253-1.354,0.381-2.453,0.381-3.299
					c0-1.365-0.18-3.461-0.54-6.283c-0.17-1.332-0.423-2.85-0.761-4.553c-0.275-1.395-0.414-2.195-0.414-2.396
					c0-0.666,0.624-2.18,1.873-4.537l0.952,5.617C334.791,38.718,335.15,42.091,335.15,44.374z"/>
			</g>
		</g>
		<g>
			<g>
				<g>
					<path fill="#2E3E3D" d="M1084.202,98.96c0,5.07-2.633,9.557-7.896,13.477c-5.266,3.916-11.27,5.873-18.014,5.873
						c-5.66,0-10.067-1.416-13.228-4.248c-3.158-2.832-4.738-6.811-4.738-11.943c0-4.703,0.61-8.865,1.825-12.486
						c1.384-4.111,3.999-9.031,7.848-14.756l3.062,2.072c-4.742,7.109-7.107,13.262-7.107,18.457c0,6.254,4.243,9.381,12.732,9.381
						c5.789,0,10.496-1.127,14.114-3.381c3.62-2.254,5.428-5.176,5.428-8.76c0-3.094-0.18-5.729-0.54-7.898
						c-1.878-10.564-3.767-21.127-5.678-31.684l-2.467-1.777c-0.031-3.158,1.482-8.094,4.541-14.805l2.272,1.084
						c-0.134,0.459-0.198,0.984-0.198,1.576c0,1.121,0.379,1.977,1.131,2.57c0.299,0.229,2.485,1.516,6.568,3.846
						c-0.527,4.08-1.647,7.932-3.358,11.555l-1.479-0.596l2.662,14.707c1.68,9.342,2.521,14.906,2.521,16.68V98.96z"/>
					<path fill="#2E3E3D" d="M1111.643,100.192h-30.898V86.774h25.963c-0.527-3.096-2.339-6.469-5.431-10.123l3.95-11.744
						c2.466,2.832,4.126,5.711,4.982,8.635c0.955,3.162,1.434,7.748,1.434,13.771V100.192z M1110.853,108.882l-5.428,10.068
						l-7.009-3.949l-3.949,7.794l-9.18-5.032l5.135-9.572l7.305,3.652l4.145-7.994L1110.853,108.882z"/>
					<path fill="#2E3E3D" d="M1164.549,100.192h-56.361V86.774h35.09c-7.305-7.535-13.918-11.305-19.84-11.305
						c-1.548,0-3.356,0.229-5.428,0.688c3.551-8.092,8.091-12.139,13.619-12.139c3.129,0,6.333,1.232,9.627,3.703
						c2.631,2.004,6.563,5.873,11.793,11.594c2.5,2.768,4.424,4.576,5.775,5.432c1.25,0.791,3.158,1.467,5.725,2.027V100.192z
						 M1146.29,111.001l-6.22,11.159l-11.353-6.124l5.727-11.154L1146.29,111.001z"/>
					<path fill="#2E3E3D" d="M1226.044,100.192c-7.405-0.49-12.864-1.594-16.387-3.305c-1.975,1.414-3.833,2.334-5.578,2.766
						c-1.413,0.361-3.502,0.539-6.268,0.539h-8.044c-3.914,0-6.811-2.482-8.684-7.449c-3.257,4.967-7.57,7.449-12.932,7.449h-7.059
						V86.774h7.059c3.387,0,6.217-0.99,8.488-2.967c2.861-2.5,4.408-6.334,4.637-11.496l3.256,0.492
						c-0.193,2.961-0.294,5.654-0.294,8.092c0,1.715,0.576,3.117,1.729,4.221c1.148,1.105,2.47,1.658,3.948,1.658h6.073
						c3.977,0,6.839-0.578,8.584-1.732c2.074-1.381,3.108-3.881,3.108-7.498c0-1.152,0.854-2.406,2.569-3.754l1.873-1.479
						c0.132,1.316,0.198,2.861,0.198,4.637c0,1.809-0.26,4.213-0.79,7.207c2.336,1.184,5.297,2.023,8.886,2.518
						c0-1.117-0.413-2.561-1.236-4.32c-0.821-1.758-1.233-2.967-1.233-3.625c0-1.055,0.475-2.227,1.43-3.508l4.197-5.676
						c1.644,3.752,2.468,7.748,2.468,11.996V100.192z"/>
					<path fill="#2E3E3D" d="M1253.484,100.192h-30.896V86.774h25.959c-0.526-3.096-2.334-6.469-5.428-10.123l3.949-11.744
						c2.468,2.832,4.129,5.711,4.985,8.635c0.951,3.162,1.431,7.748,1.431,13.771V100.192z M1252.693,47.435l-5.428,10.066
						l-7.007-3.943l-3.948,7.795l-9.183-5.031l5.135-9.574l7.302,3.648l4.146-7.994L1252.693,47.435z"/>
				</g>
				<g>
					<path fill="#2E3E3D" d="M853.297,100.192h-6.468c-6.545,0-10.396-6.762-11.547-20.285c-4.541,5.596-7.798,8.396-9.772,8.396
						c-0.557,0-1.35-0.104-2.369-0.301l-6.02-1.184l-3.258-0.594c-1.582-0.426-2.371-1.02-2.371-1.775
						c0-0.857,1.152-3.668,3.457-8.439c2.302-4.77,3.945-7.68,4.936-8.734c1.709-1.842,5.822-4.607,12.336-8.293
						c-0.195-0.789-0.295-1.711-0.295-2.764c0-2.83,1.315-6.744,3.949-11.744l4.735,30.795c1.186,7.67,3.257,11.504,6.219,11.504
						h6.468V100.192z M841.896,30.112l-5.431,10.07l-7.008-3.951l-3.947,7.803l-9.18-5.035l5.134-9.578l7.304,3.652l4.145-7.994
						L841.896,30.112z M834.098,72.312l-0.987-5.924c-1.481,0.658-3.751,1.943-6.81,3.85c-1.977,1.578-2.962,2.732-2.962,3.451
						c0,0.988,1.71,1.484,5.13,1.484C829.688,75.173,831.563,74.218,834.098,72.312z"/>
					<path fill="#2E3E3D" d="M895.69,100.144c-7.668-0.199-15.35-2.266-23.048-6.217c-2.764,4.178-6.959,6.266-12.584,6.266h-9.773
						V86.774h9.773c6.117,0,10.018-1.961,11.695-5.879c1.776-4.178,4.16-7.633,7.156-10.361c2.632-2.371,4.854-3.555,6.664-3.555
						c1.709,0,3.801,2.535,6.268,7.6c2.566,5.328,3.849,10.266,3.849,14.811V100.144z M886.462,85.241
						c0-0.725-0.71-1.992-2.124-3.801c-1.579-1.939-2.945-2.912-4.095-2.912c-1.282,0-2.369,1.48-3.259,4.439
						c5.102,1.975,7.898,2.959,8.391,2.959C886.098,85.927,886.462,85.7,886.462,85.241z"/>
					<path fill="#2E3E3D" d="M930.335,100.192H907.98c-4.739,0-7.107-2.281-7.107-6.859c0-2.896,0.294-6.152,0.889-9.77l1.878-0.098
						c0.522,2.205,2.2,3.309,5.031,3.309h16.978c-1.316-8.328-4.787-14.266-10.414-17.822l3.554-15.395
						c4.276,3.223,7.32,7.354,9.132,12.385c1.609,4.574,2.415,10.709,2.415,18.406V100.192z"/>
					<path fill="#2E3E3D" d="M983.245,100.192h-56.364V86.774h35.091c-7.306-7.535-13.915-11.305-19.839-11.305
						c-1.547,0-3.357,0.229-5.428,0.688c3.552-8.092,8.092-12.139,13.62-12.139c3.127,0,6.335,1.232,9.624,3.703
						c2.632,2.004,6.564,5.873,11.795,11.594c2.501,2.768,4.425,4.576,5.774,5.432c1.252,0.791,3.16,1.467,5.727,2.027V100.192z
						 M963.404,47.634l-5.922,11.057l-11.55-6.025l5.727-11.154L963.404,47.634z"/>
					<path fill="#2E3E3D" d="M1006.933,100.192h-27.144V86.774h21.225l-5.973-33.514l-3.159-2.074
						c-0.232-3.42,1.347-8.354,4.737-14.805l2.271,1.184c0,0.197-0.066,0.723-0.198,1.576c0,1.912,2.629,3.982,7.894,6.219
						c-0.624,4.377-1.711,8.227-3.257,11.553l-1.772-0.693l5.376,30.555V100.192z"/>
					<path fill="#2E3E3D" d="M1024.798,85.835c0,4.969-1.677,10.887-5.034,17.764l-2.957-1.184
						c0.789-4.211,1.184-7.633,1.184-10.266c0-4.246-0.563-10.76-1.68-19.545c-0.526-4.145-1.317-8.863-2.37-14.164
						c-0.854-4.34-1.282-6.828-1.282-7.453c0-2.072,1.94-6.781,5.824-14.113l2.962,17.473
						C1023.682,68.233,1024.798,78.728,1024.798,85.835z"/>
				</g>
				<g>
					<path fill="#2E3E3D" d="M603.179,100.192h-6.461c-6.55,0-10.399-6.762-11.55-20.285c-4.542,5.596-7.798,8.396-9.773,8.396
						c-0.56,0-1.35-0.104-2.369-0.301l-6.021-1.184l-3.258-0.594c-1.578-0.426-2.37-1.02-2.37-1.775c0-0.857,1.15-3.668,3.454-8.439
						c2.304-4.77,3.95-7.68,4.938-8.734c1.708-1.842,5.823-4.607,12.337-8.293c-0.196-0.789-0.295-1.711-0.295-2.764
						c0-2.83,1.313-6.744,3.947-11.744l4.738,30.795c1.185,7.67,3.259,11.504,6.222,11.504h6.461V100.192z M591.781,30.112
						l-5.428,10.07l-7.011-3.951l-3.947,7.803l-9.182-5.035l5.135-9.578l7.304,3.652l4.144-7.994L591.781,30.112z M583.984,72.312
						l-0.99-5.924c-1.48,0.658-3.749,1.943-6.811,3.85c-1.975,1.578-2.959,2.732-2.959,3.451c0,0.988,1.71,1.484,5.133,1.484
						C579.573,75.173,581.448,74.218,583.984,72.312z"/>
					<path fill="#2E3E3D" d="M631.065,100.192h-30.895V86.774h25.96c-0.526-3.096-2.337-6.469-5.43-10.123l3.95-11.744
						c2.468,2.832,4.127,5.711,4.983,8.635c0.953,3.162,1.432,7.748,1.432,13.771V100.192z M630.275,108.882l-5.429,10.068
						l-7.009-3.949l-3.949,7.794l-9.178-5.032l5.132-9.572l7.307,3.652l4.146-7.994L630.275,108.882z"/>
					<path fill="#2E3E3D" d="M658.507,100.192h-30.896V86.774h25.959c-0.525-3.096-2.338-6.469-5.428-10.123l3.949-11.744
						c2.467,2.832,4.129,5.711,4.981,8.635c0.956,3.162,1.434,7.748,1.434,13.771V100.192z M658.801,46.45l-5.922,11.051
						l-11.547-6.02l5.727-11.148L658.801,46.45z"/>
					<path fill="#2E3E3D" d="M711.414,100.192h-56.363V86.774h6.564c1.121,0,5.098-2.752,11.943-8.246
						c-0.133-8.326-1.645-18.229-4.541-29.711l-2.861-1.779c1.084-4.934,2.665-9.77,4.737-14.508l2.271,0.891
						c0,0.23-0.066,0.654-0.199,1.285c0,1.74,3.259,3.777,9.774,6.117c-0.493,3.686-1.68,7.83-3.556,12.438l-1.776-0.596
						c1.712,7.967,2.567,13.396,2.567,16.287c0,1.908-0.166,3.686-0.492,5.334l8.685-6.123c4.573-2.965,7.899-4.439,9.971-4.439
						c3.883,0,6.989,1.02,9.327,3.061c2.633,2.271,3.949,5.527,3.949,9.77V100.192z M704.553,81.733c0-1.115-1.281-2.221-3.85-3.303
						c-2.338-0.957-4.41-1.43-6.218-1.43c-3.751,0-10.136,3.254-19.149,9.773h12.931C699.124,86.774,704.553,85.091,704.553,81.733z
						"/>
					<path fill="#2E3E3D" d="M757.016,96.788c0,5.662-2.411,11.252-7.229,16.783c-4.82,5.525-9.551,8.29-14.191,8.29
						c-2.731,0-5.715-0.873-8.954-2.614c-3.242-1.746-8.221-5.186-14.931-10.318l2.07-2.861c3.062,2.041,5.446,3.422,7.158,4.143
						c2.469,1.055,5.116,1.58,7.945,1.58c6.744,0,13.72-4.273,20.927-12.83c-1.383,0.199-2.535,0.295-3.454,0.295
						c-3.26,0-5.85-1.061-7.775-3.182c-1.923-2.119-2.886-5.006-2.886-8.658c0-4.938,1.149-9.707,3.453-14.314
						c2.467-4.938,5.265-7.406,8.391-7.406c2.601,0,4.83,1.803,6.688,5.408c1.859,3.6,2.789,7.922,2.789,12.955V96.788z
						 M751.093,86.774c-0.921-5.301-2.796-7.949-5.626-7.949c-1.021,0-1.859,0.441-2.518,1.334
						c-0.559,0.754-0.838,1.592-0.838,2.518c0,2.73,2.368,4.098,7.107,4.098H751.093z"/>
					<path fill="#2E3E3D" d="M780.704,100.192H753.56V86.774h21.225l-5.972-33.514l-3.159-2.074
						c-0.23-3.42,1.347-8.354,4.735-14.805l2.271,1.184c0,0.197-0.066,0.723-0.197,1.576c0,1.912,2.633,3.982,7.897,6.219
						c-0.627,4.377-1.711,8.227-3.257,11.553l-1.778-0.693l5.379,30.555V100.192z"/>
					<path fill="#2E3E3D" d="M798.572,85.835c0,4.969-1.678,10.887-5.037,17.764l-2.959-1.184c0.789-4.211,1.186-7.633,1.186-10.266
						c0-4.246-0.561-10.76-1.678-19.545c-0.528-4.145-1.316-8.863-2.369-14.164c-0.855-4.34-1.286-6.828-1.286-7.453
						c0-2.072,1.941-6.781,5.825-14.113l2.961,17.473C797.453,68.233,798.572,78.728,798.572,85.835z"/>
				</g>
				<g>
					<path fill="#2E3E3D" d="M1084.202,98.96c0,5.07-2.633,9.557-7.896,13.477c-5.266,3.916-11.27,5.873-18.014,5.873
						c-5.66,0-10.067-1.416-13.228-4.248c-3.158-2.832-4.738-6.811-4.738-11.943c0-4.703,0.61-8.865,1.825-12.486
						c1.384-4.111,3.999-9.031,7.848-14.756l3.062,2.072c-4.742,7.109-7.107,13.262-7.107,18.457c0,6.254,4.243,9.381,12.732,9.381
						c5.789,0,10.496-1.127,14.114-3.381c3.62-2.254,5.428-5.176,5.428-8.76c0-3.094-0.18-5.729-0.54-7.898
						c-1.878-10.564-3.767-21.127-5.678-31.684l-2.467-1.777c-0.031-3.158,1.482-8.094,4.541-14.805l2.272,1.084
						c-0.134,0.459-0.198,0.984-0.198,1.576c0,1.121,0.379,1.977,1.131,2.57c0.299,0.229,2.485,1.516,6.568,3.846
						c-0.527,4.08-1.647,7.932-3.358,11.555l-1.479-0.596l2.662,14.707c1.68,9.342,2.521,14.906,2.521,16.68V98.96z"/>
					<path fill="#2E3E3D" d="M1111.643,100.192h-30.898V86.774h25.963c-0.527-3.096-2.339-6.469-5.431-10.123l3.95-11.744
						c2.466,2.832,4.126,5.711,4.982,8.635c0.955,3.162,1.434,7.748,1.434,13.771V100.192z M1110.853,108.882l-5.428,10.068
						l-7.009-3.949l-3.949,7.794l-9.18-5.032l5.135-9.572l7.305,3.652l4.145-7.994L1110.853,108.882z"/>
					<path fill="#2E3E3D" d="M1164.549,100.192h-56.361V86.774h35.09c-7.305-7.535-13.918-11.305-19.84-11.305
						c-1.548,0-3.356,0.229-5.428,0.688c3.551-8.092,8.091-12.139,13.619-12.139c3.129,0,6.333,1.232,9.627,3.703
						c2.631,2.004,6.563,5.873,11.793,11.594c2.5,2.768,4.424,4.576,5.775,5.432c1.25,0.791,3.158,1.467,5.725,2.027V100.192z
						 M1146.29,111.001l-6.22,11.159l-11.353-6.124l5.727-11.154L1146.29,111.001z"/>
					<path fill="#2E3E3D" d="M1226.044,100.192c-7.405-0.49-12.864-1.594-16.387-3.305c-1.975,1.414-3.833,2.334-5.578,2.766
						c-1.413,0.361-3.502,0.539-6.268,0.539h-8.044c-3.914,0-6.811-2.482-8.684-7.449c-3.257,4.967-7.57,7.449-12.932,7.449h-7.059
						V86.774h7.059c3.387,0,6.217-0.99,8.488-2.967c2.861-2.5,4.408-6.334,4.637-11.496l3.256,0.492
						c-0.193,2.961-0.294,5.654-0.294,8.092c0,1.715,0.576,3.117,1.729,4.221c1.148,1.105,2.47,1.658,3.948,1.658h6.073
						c3.977,0,6.839-0.578,8.584-1.732c2.074-1.381,3.108-3.881,3.108-7.498c0-1.152,0.854-2.406,2.569-3.754l1.873-1.479
						c0.132,1.316,0.198,2.861,0.198,4.637c0,1.809-0.26,4.213-0.79,7.207c2.336,1.184,5.297,2.023,8.886,2.518
						c0-1.117-0.413-2.561-1.236-4.32c-0.821-1.758-1.233-2.967-1.233-3.625c0-1.055,0.475-2.227,1.43-3.508l4.197-5.676
						c1.644,3.752,2.468,7.748,2.468,11.996V100.192z"/>
					<path fill="#2E3E3D" d="M1253.484,100.192h-30.896V86.774h25.959c-0.526-3.096-2.334-6.469-5.428-10.123l3.949-11.744
						c2.468,2.832,4.129,5.711,4.985,8.635c0.951,3.162,1.431,7.748,1.431,13.771V100.192z M1252.693,47.435l-5.428,10.066
						l-7.007-3.943l-3.948,7.795l-9.183-5.031l5.135-9.574l7.302,3.648l4.146-7.994L1252.693,47.435z"/>
				</g>
				<g>
					<path fill="#2E3E3D" d="M853.297,100.192h-6.468c-6.545,0-10.396-6.762-11.547-20.285c-4.541,5.596-7.798,8.396-9.772,8.396
						c-0.557,0-1.35-0.104-2.369-0.301l-6.02-1.184l-3.258-0.594c-1.582-0.426-2.371-1.02-2.371-1.775
						c0-0.857,1.152-3.668,3.457-8.439c2.302-4.77,3.945-7.68,4.936-8.734c1.709-1.842,5.822-4.607,12.336-8.293
						c-0.195-0.789-0.295-1.711-0.295-2.764c0-2.83,1.315-6.744,3.949-11.744l4.735,30.795c1.186,7.67,3.257,11.504,6.219,11.504
						h6.468V100.192z M841.896,30.112l-5.431,10.07l-7.008-3.951l-3.947,7.803l-9.18-5.035l5.134-9.578l7.304,3.652l4.145-7.994
						L841.896,30.112z M834.098,72.312l-0.987-5.924c-1.481,0.658-3.751,1.943-6.81,3.85c-1.977,1.578-2.962,2.732-2.962,3.451
						c0,0.988,1.71,1.484,5.13,1.484C829.688,75.173,831.563,74.218,834.098,72.312z"/>
					<path fill="#2E3E3D" d="M895.69,100.144c-7.668-0.199-15.35-2.266-23.048-6.217c-2.764,4.178-6.959,6.266-12.584,6.266h-9.773
						V86.774h9.773c6.117,0,10.018-1.961,11.695-5.879c1.776-4.178,4.16-7.633,7.156-10.361c2.632-2.371,4.854-3.555,6.664-3.555
						c1.709,0,3.801,2.535,6.268,7.6c2.566,5.328,3.849,10.266,3.849,14.811V100.144z M886.462,85.241
						c0-0.725-0.71-1.992-2.124-3.801c-1.579-1.939-2.945-2.912-4.095-2.912c-1.282,0-2.369,1.48-3.259,4.439
						c5.102,1.975,7.898,2.959,8.391,2.959C886.098,85.927,886.462,85.7,886.462,85.241z"/>
					<path fill="#2E3E3D" d="M930.335,100.192H907.98c-4.739,0-7.107-2.281-7.107-6.859c0-2.896,0.294-6.152,0.889-9.77l1.878-0.098
						c0.522,2.205,2.2,3.309,5.031,3.309h16.978c-1.316-8.328-4.787-14.266-10.414-17.822l3.554-15.395
						c4.276,3.223,7.32,7.354,9.132,12.385c1.609,4.574,2.415,10.709,2.415,18.406V100.192z"/>
					<path fill="#2E3E3D" d="M983.245,100.192h-56.364V86.774h35.091c-7.306-7.535-13.915-11.305-19.839-11.305
						c-1.547,0-3.357,0.229-5.428,0.688c3.552-8.092,8.092-12.139,13.62-12.139c3.127,0,6.335,1.232,9.624,3.703
						c2.632,2.004,6.564,5.873,11.795,11.594c2.501,2.768,4.425,4.576,5.774,5.432c1.252,0.791,3.16,1.467,5.727,2.027V100.192z
						 M963.404,47.634l-5.922,11.057l-11.55-6.025l5.727-11.154L963.404,47.634z"/>
					<path fill="#2E3E3D" d="M1006.933,100.192h-27.144V86.774h21.225l-5.973-33.514l-3.159-2.074
						c-0.232-3.42,1.347-8.354,4.737-14.805l2.271,1.184c0,0.197-0.066,0.723-0.198,1.576c0,1.912,2.629,3.982,7.894,6.219
						c-0.624,4.377-1.711,8.227-3.257,11.553l-1.772-0.693l5.376,30.555V100.192z"/>
					<path fill="#2E3E3D" d="M1024.798,85.835c0,4.969-1.677,10.887-5.034,17.764l-2.957-1.184
						c0.789-4.211,1.184-7.633,1.184-10.266c0-4.246-0.563-10.76-1.68-19.545c-0.526-4.145-1.317-8.863-2.37-14.164
						c-0.854-4.34-1.282-6.828-1.282-7.453c0-2.072,1.94-6.781,5.824-14.113l2.962,17.473
						C1023.682,68.233,1024.798,78.728,1024.798,85.835z"/>
				</g>
				<g>
					<path fill="#2E3E3D" d="M603.179,100.192h-6.461c-6.55,0-10.399-6.762-11.55-20.285c-4.542,5.596-7.798,8.396-9.773,8.396
						c-0.56,0-1.35-0.104-2.369-0.301l-6.021-1.184l-3.258-0.594c-1.578-0.426-2.37-1.02-2.37-1.775c0-0.857,1.15-3.668,3.454-8.439
						c2.304-4.77,3.95-7.68,4.938-8.734c1.708-1.842,5.823-4.607,12.337-8.293c-0.196-0.789-0.295-1.711-0.295-2.764
						c0-2.83,1.313-6.744,3.947-11.744l4.738,30.795c1.185,7.67,3.259,11.504,6.222,11.504h6.461V100.192z M591.781,30.112
						l-5.428,10.07l-7.011-3.951l-3.947,7.803l-9.182-5.035l5.135-9.578l7.304,3.652l4.144-7.994L591.781,30.112z M583.984,72.312
						l-0.99-5.924c-1.48,0.658-3.749,1.943-6.811,3.85c-1.975,1.578-2.959,2.732-2.959,3.451c0,0.988,1.71,1.484,5.133,1.484
						C579.573,75.173,581.448,74.218,583.984,72.312z"/>
					<path fill="#2E3E3D" d="M631.065,100.192h-30.895V86.774h25.96c-0.526-3.096-2.337-6.469-5.43-10.123l3.95-11.744
						c2.468,2.832,4.127,5.711,4.983,8.635c0.953,3.162,1.432,7.748,1.432,13.771V100.192z M630.275,108.882l-5.429,10.068
						l-7.009-3.949l-3.949,7.794l-9.178-5.032l5.132-9.572l7.307,3.652l4.146-7.994L630.275,108.882z"/>
					<path fill="#2E3E3D" d="M658.507,100.192h-30.896V86.774h25.959c-0.525-3.096-2.338-6.469-5.428-10.123l3.949-11.744
						c2.467,2.832,4.129,5.711,4.981,8.635c0.956,3.162,1.434,7.748,1.434,13.771V100.192z M658.801,46.45l-5.922,11.051
						l-11.547-6.02l5.727-11.148L658.801,46.45z"/>
					<path fill="#2E3E3D" d="M711.414,100.192h-56.363V86.774h6.564c1.121,0,5.098-2.752,11.943-8.246
						c-0.133-8.326-1.645-18.229-4.541-29.711l-2.861-1.779c1.084-4.934,2.665-9.77,4.737-14.508l2.271,0.891
						c0,0.23-0.066,0.654-0.199,1.285c0,1.74,3.259,3.777,9.774,6.117c-0.493,3.686-1.68,7.83-3.556,12.438l-1.776-0.596
						c1.712,7.967,2.567,13.396,2.567,16.287c0,1.908-0.166,3.686-0.492,5.334l8.685-6.123c4.573-2.965,7.899-4.439,9.971-4.439
						c3.883,0,6.989,1.02,9.327,3.061c2.633,2.271,3.949,5.527,3.949,9.77V100.192z M704.553,81.733c0-1.115-1.281-2.221-3.85-3.303
						c-2.338-0.957-4.41-1.43-6.218-1.43c-3.751,0-10.136,3.254-19.149,9.773h12.931C699.124,86.774,704.553,85.091,704.553,81.733z
						"/>
					<path fill="#2E3E3D" d="M757.016,96.788c0,5.662-2.411,11.252-7.229,16.783c-4.82,5.525-9.551,8.29-14.191,8.29
						c-2.731,0-5.715-0.873-8.954-2.614c-3.242-1.746-8.221-5.186-14.931-10.318l2.07-2.861c3.062,2.041,5.446,3.422,7.158,4.143
						c2.469,1.055,5.116,1.58,7.945,1.58c6.744,0,13.72-4.273,20.927-12.83c-1.383,0.199-2.535,0.295-3.454,0.295
						c-3.26,0-5.85-1.061-7.775-3.182c-1.923-2.119-2.886-5.006-2.886-8.658c0-4.938,1.149-9.707,3.453-14.314
						c2.467-4.938,5.265-7.406,8.391-7.406c2.601,0,4.83,1.803,6.688,5.408c1.859,3.6,2.789,7.922,2.789,12.955V96.788z
						 M751.093,86.774c-0.921-5.301-2.796-7.949-5.626-7.949c-1.021,0-1.859,0.441-2.518,1.334
						c-0.559,0.754-0.838,1.592-0.838,2.518c0,2.73,2.368,4.098,7.107,4.098H751.093z"/>
					<path fill="#2E3E3D" d="M780.704,100.192H753.56V86.774h21.225l-5.972-33.514l-3.159-2.074
						c-0.23-3.42,1.347-8.354,4.735-14.805l2.271,1.184c0,0.197-0.066,0.723-0.197,1.576c0,1.912,2.633,3.982,7.897,6.219
						c-0.627,4.377-1.711,8.227-3.257,11.553l-1.778-0.693l5.379,30.555V100.192z"/>
					<path fill="#2E3E3D" d="M798.572,85.835c0,4.969-1.678,10.887-5.037,17.764l-2.959-1.184c0.789-4.211,1.186-7.633,1.186-10.266
						c0-4.246-0.561-10.76-1.678-19.545c-0.528-4.145-1.316-8.863-2.369-14.164c-0.855-4.34-1.286-6.828-1.286-7.453
						c0-2.072,1.941-6.781,5.825-14.113l2.961,17.473C797.453,68.233,798.572,78.728,798.572,85.835z"/>
				</g>
			</g>
			<g>
				<path fill="#2E3E3D" d="M578.308,153.963c3.984,2.839,5.976,6.805,5.976,11.896v14.314h-5.976v-14.314
					c0-2.313-0.729-4.286-2.187-5.918c-1.478-1.633-3.256-2.45-5.335-2.45c-2.061,0-3.829,0.817-5.306,2.45
					c-1.478,1.632-2.216,3.605-2.216,5.918v14.314h-5.947v-26.908c0.894-0.681,2.108-1.177,3.644-1.487
					c0.855-0.175,1.497-0.263,1.924-0.263c0.155,0,0.282,0.01,0.379,0.029v2.419c2.274-1.632,4.781-2.448,7.522-2.448
					C573.545,151.515,576.053,152.331,578.308,153.963z"/>
				<path fill="#2E3E3D" d="M611.835,151.544c0.117-0.02,0.243-0.029,0.379-0.029c0.446,0,1.088,0.088,1.924,0.263
					c1.535,0.311,2.75,0.807,3.645,1.487v26.908h-5.948v-2.448c-2.274,1.632-4.782,2.448-7.522,2.448
					c-3.731,0-6.919-1.397-9.563-4.198c-2.624-2.799-3.936-6.17-3.936-10.116c0-3.965,1.313-7.347,3.936-10.146
					c2.643-2.778,5.831-4.169,9.563-4.169c2.74,0,5.248,0.807,7.522,2.419V151.544z M604.313,174.197
					c2.061,0,3.829-0.816,5.307-2.448c1.477-1.634,2.215-3.596,2.215-5.891c0-2.313-0.739-4.286-2.215-5.918
					c-1.478-1.633-3.246-2.45-5.307-2.45c-2.08,0-3.858,0.817-5.335,2.45c-1.458,1.632-2.187,3.605-2.187,5.918
					c0,2.295,0.729,4.257,2.187,5.891C600.455,173.381,602.233,174.197,604.313,174.197z"/>
				<path fill="#2E3E3D" d="M638.22,177.842c0.176,0.836,0.263,1.485,0.263,1.952c0,0.136-0.01,0.263-0.029,0.379l-1.808-0.029
					c-2.215-0.116-4.004-0.554-5.364-1.311c-0.641-0.369-1.146-0.7-1.516-0.991c-2.974-2.273-4.46-5.269-4.46-8.98v-22.798
					c1.516-1.147,3.45-1.721,5.801-1.721h0.175v8.076h5.948v0.146c0,1.885-0.574,3.44-1.72,4.666h-4.228v11.631
					c0,1.381,0.467,2.586,1.4,3.615c0.194,0.155,0.389,0.301,0.583,0.438c0.136,0.097,0.271,0.194,0.408,0.291
					c0.155,0.078,0.282,0.146,0.379,0.204c0.097,0.039,0.194,0.088,0.292,0.146c0.389,0.175,0.768,0.311,1.137,0.408
					c0.117,0.039,0.301,0.078,0.554,0.116c0.154,0.039,0.311,0.068,0.466,0.088h0.059c0.039,0,0.097,0.01,0.175,0.029
					C637.433,175.131,637.929,176.344,638.22,177.842z"/>
				<path fill="#2E3E3D" d="M642.739,146.093c0.894-0.681,2.108-1.177,3.645-1.487c0.894-0.175,1.555-0.263,1.981-0.263
					c0.137,0,0.243,0.01,0.321,0.029v5.685c-0.078-0.018-0.185-0.029-0.321-0.029c-0.427,0-1.088,0.087-1.981,0.262
					c-1.536,0.312-2.751,0.808-3.645,1.488V146.093z M642.739,153.265c0.894-0.681,2.108-1.177,3.645-1.487
					c0.854-0.175,1.496-0.263,1.924-0.263c0.155,0,0.281,0.01,0.379,0.029v28.629h-5.947V153.265z"/>
				<path fill="#2E3E3D" d="M667.841,151.544c3.713,0,6.891,1.391,9.533,4.169c2.624,2.799,3.936,6.181,3.936,10.146
					c0,3.946-1.312,7.317-3.936,10.116c-2.643,2.801-5.82,4.198-9.533,4.198c-3.731,0-6.92-1.397-9.563-4.198
					c-2.624-2.799-3.937-6.17-3.937-10.116c0-3.965,1.313-7.347,3.937-10.146C660.921,152.935,664.109,151.544,667.841,151.544z
					 M667.841,174.197c2.06,0,3.829-0.816,5.307-2.448c1.477-1.634,2.216-3.596,2.216-5.891c0-2.313-0.739-4.286-2.216-5.918
					c-1.478-1.633-3.247-2.45-5.307-2.45c-2.08,0-3.858,0.817-5.336,2.45c-1.456,1.632-2.186,3.605-2.186,5.918
					c0,2.295,0.729,4.257,2.186,5.891C663.982,173.381,665.761,174.197,667.841,174.197z"/>
				<path fill="#2E3E3D" d="M708.832,153.963c3.984,2.839,5.977,6.805,5.977,11.896v14.314h-5.977v-14.314
					c0-2.313-0.729-4.286-2.188-5.918c-1.477-1.633-3.255-2.45-5.334-2.45c-2.062,0-3.829,0.817-5.307,2.45
					c-1.478,1.632-2.215,3.605-2.215,5.918v14.314h-5.948v-26.908c0.894-0.681,2.109-1.177,3.645-1.487
					c0.854-0.175,1.496-0.263,1.924-0.263c0.156,0,0.282,0.01,0.38,0.029v2.419c2.272-1.632,4.78-2.448,7.521-2.448
					C704.07,151.515,706.577,152.331,708.832,153.963z"/>
				<path fill="#2E3E3D" d="M742.359,151.544c0.117-0.02,0.243-0.029,0.379-0.029c0.446,0,1.088,0.088,1.925,0.263
					c1.534,0.311,2.749,0.807,3.645,1.487v26.908h-5.948v-2.448c-2.274,1.632-4.781,2.448-7.521,2.448
					c-3.731,0-6.921-1.397-9.563-4.198c-2.623-2.799-3.936-6.17-3.936-10.116c0-3.965,1.313-7.347,3.936-10.146
					c2.643-2.778,5.832-4.169,9.563-4.169c2.74,0,5.247,0.807,7.521,2.419V151.544z M734.838,174.197
					c2.06,0,3.828-0.816,5.306-2.448c1.477-1.634,2.216-3.596,2.216-5.891c0-2.313-0.739-4.286-2.216-5.918
					c-1.478-1.633-3.246-2.45-5.306-2.45c-2.08,0-3.858,0.817-5.336,2.45c-1.457,1.632-2.186,3.605-2.186,5.918
					c0,2.295,0.729,4.257,2.186,5.891C730.979,173.381,732.758,174.197,734.838,174.197z"/>
				<path fill="#2E3E3D" d="M761.922,180.173h-5.977v-40.028c0.895-0.7,2.108-1.194,3.645-1.486c0.894-0.194,1.574-0.291,2.04-0.291
					c0.117,0,0.214,0.01,0.292,0.029V180.173z"/>
				<path fill="#2E3E3D" d="M800.115,164.896c2.176,1.226,3.662,2.732,4.46,4.52c0.368,0.817,0.553,1.536,0.553,2.159v0.522
					c0,2.295-1.077,4.209-3.235,5.745c-1.127,0.816-2.264,1.39-3.411,1.719c-1.419,0.408-2.779,0.612-4.082,0.612h-0.029
					c-0.155,0-0.389-0.01-0.699-0.029c-4.159-0.155-7.259-1.68-9.3-4.575c-0.545-0.778-0.817-1.273-0.817-1.488
					c0.253-0.194,0.555-0.398,0.904-0.612c1.536-0.953,3.032-1.466,4.49-1.544c0.039,0.136,0.107,0.302,0.204,0.494
					c0,0.02,0.01,0.041,0.029,0.059c0.019,0.038,0.039,0.067,0.059,0.087c0.834,1.361,2.487,2.042,4.956,2.042h0.378
					c1.342-0.02,2.41-0.398,3.208-1.138c0.485-0.583,0.729-1.138,0.729-1.66c0-1.051-0.933-1.945-2.799-2.684
					c-0.934-0.39-1.856-0.66-2.769-0.817c-1.828-0.387-3.257-0.893-4.286-1.515c-2.178-1.226-3.664-2.73-4.461-4.52
					c-0.37-0.816-0.555-1.524-0.555-2.127v-0.525c0-2.293,1.069-4.218,3.208-5.773c1.127-0.815,2.274-1.379,3.439-1.69
					c1.419-0.428,2.78-0.642,4.081-0.642c0.175,0,0.408,0.01,0.7,0.029c4.179,0.155,7.27,1.672,9.271,4.549
					c0.271,0.369,0.494,0.729,0.67,1.079c0.155,0.33,0.224,0.477,0.204,0.436c-0.37,0.272-0.67,0.477-0.902,0.612
					c-1.536,0.953-3.044,1.469-4.52,1.546c-0.02-0.136-0.078-0.291-0.175-0.467c-0.02-0.039-0.049-0.087-0.088-0.146
					c-0.855-1.359-2.508-2.04-4.957-2.04h-0.319c-1.36,0-2.449,0.377-3.267,1.136c-0.486,0.583-0.729,1.128-0.729,1.634
					c0,1.05,0.923,1.952,2.771,2.711c0.933,0.369,1.865,0.642,2.799,0.816C797.655,163.799,799.084,164.295,800.115,164.896z"/>
				<path fill="#2E3E3D" d="M836.354,165.858c0,0.778-0.059,1.575-0.175,2.392h-20.525c0.467,1.729,1.351,3.139,2.653,4.227
					c1.322,1.108,2.838,1.682,4.548,1.721c0.408,0.039,0.798,0.059,1.167,0.059c0.874,0,1.643-0.098,2.303-0.292
					c0.524-0.155,1.127-0.398,1.808-0.729c2.06,0.759,3.615,2.12,4.665,4.082l-0.321,0.233l-0.087,0.059l-0.933,0.583
					c-0.059,0.039-0.128,0.078-0.204,0.117c-0.175,0.116-0.398,0.242-0.671,0.379c-0.117,0.059-0.204,0.106-0.263,0.146
					c-0.039,0.02-0.175,0.078-0.408,0.175c-0.176,0.078-0.447,0.186-0.816,0.319c-0.175,0.08-0.369,0.146-0.583,0.204
					c-0.175,0.059-0.418,0.129-0.729,0.204c-0.137,0.041-0.244,0.07-0.32,0.088l-0.117,0.029c-0.097,0.02-0.185,0.039-0.263,0.058
					c-0.077,0.02-0.126,0.029-0.146,0.029c-0.078,0.02-0.175,0.039-0.292,0.059c-0.136,0.02-0.243,0.029-0.32,0.029
					c-0.214,0.039-0.457,0.068-0.729,0.088c-0.253,0.019-0.457,0.038-0.612,0.058h-2.129c-4.605,0-8.25-1.991-10.933-5.976
					c-1.225-1.789-2.012-3.771-2.361-5.947c-0.116-0.816-0.175-1.613-0.175-2.392c0-0.775,0.059-1.573,0.175-2.39
					c0.544-3.401,2.06-6.238,4.548-8.514c2.526-2.273,5.442-3.411,8.746-3.411c0.817,0,1.643,0.078,2.479,0.233
					c2.779,0.544,5.16,1.886,7.143,4.023c2.002,2.156,3.236,4.714,3.703,7.668C836.295,164.285,836.354,165.083,836.354,165.858z
					 M830.085,163.469c-0.798-2.993-2.556-4.889-5.276-5.687c-0.623-0.192-1.273-0.292-1.954-0.292
					c-1.671,0-3.178,0.564-4.519,1.692c-1.322,1.108-2.216,2.536-2.683,4.286H830.085z"/>
				<path fill="#2E3E3D" d="M857.549,151.515c0.018,0.117,0.028,0.253,0.028,0.408c0,0.447-0.087,1.099-0.262,1.953
					c-0.292,1.497-0.788,2.702-1.487,3.614c-0.077,0.021-0.136,0.029-0.175,0.029c-0.02,0.021-0.039,0.029-0.059,0.029
					c-0.155,0-0.311,0.021-0.467,0.059c-0.253,0.059-0.438,0.099-0.554,0.116c-0.37,0.117-0.748,0.263-1.137,0.438
					c-0.098,0.039-0.194,0.088-0.292,0.146c-0.116,0.058-0.243,0.126-0.379,0.204c-0.137,0.078-0.272,0.165-0.407,0.263
					c-0.195,0.136-0.39,0.281-0.584,0.438c-0.136,0.116-0.272,0.243-0.408,0.379c-0.136,0.155-0.272,0.312-0.408,0.467
					c-0.155,0.155-0.291,0.312-0.407,0.467c-0.099,0.155-0.166,0.263-0.204,0.32c-0.078,0.098-0.146,0.203-0.204,0.319
					c-0.195,0.292-0.38,0.642-0.555,1.05c-0.078,0.176-0.146,0.351-0.204,0.525c-0.078,0.214-0.155,0.457-0.233,0.729
					c-0.039,0.175-0.078,0.35-0.116,0.524v0.059c-0.078,0.292-0.127,0.603-0.146,0.932v0.029c-0.021,0.116-0.029,0.224-0.029,0.32
					c-0.021,0.214-0.029,0.38-0.029,0.496v14.344h-5.947v-26.908c0.894-0.7,2.108-1.195,3.645-1.487
					c0.894-0.194,1.564-0.292,2.012-0.292c0.116,0,0.213,0.01,0.291,0.029v2.448c0.446-0.309,0.874-0.581,1.283-0.814
					c0.291-0.156,0.583-0.302,0.874-0.438c0.467-0.214,0.924-0.398,1.371-0.555c0.213-0.059,0.533-0.146,0.961-0.263
					c0.059-0.02,0.146-0.038,0.263-0.058c0.098-0.02,0.175-0.039,0.233-0.059c0.292-0.059,0.631-0.107,1.021-0.146
					c0.524-0.078,1.03-0.117,1.516-0.117H857.549z"/>
				<path fill="#2E3E3D" d="M884.925,151.544l-0.233,0.671l-9.767,27.258l-0.088,0.233l-0.087,0.176
					c-0.117,0.038-0.282,0.077-0.496,0.116c-0.447,0.078-0.981,0.136-1.604,0.175h-1.808c-0.622-0.039-1.156-0.097-1.604-0.175
					c-0.136-0.02-0.311-0.059-0.524-0.116l-0.059-0.146l-0.088-0.263l-9.766-27.258l-0.233-0.7h6.326l6.852,19.126l6.852-19.126
					L884.925,151.544z"/>
				<path fill="#2E3E3D" d="M888.189,146.093c0.895-0.681,2.109-1.177,3.645-1.487c0.895-0.175,1.555-0.263,1.982-0.263
					c0.136,0,0.243,0.01,0.32,0.029v5.685c-0.077-0.018-0.185-0.029-0.32-0.029c-0.428,0-1.088,0.087-1.982,0.262
					c-1.535,0.312-2.75,0.808-3.645,1.488V146.093z M888.189,153.265c0.895-0.681,2.109-1.177,3.645-1.487
					c0.855-0.175,1.496-0.263,1.924-0.263c0.155,0,0.282,0.01,0.379,0.029v28.629h-5.947V153.265z"/>
				<path fill="#2E3E3D" d="M905.478,177.55c0-0.02-0.146-0.146-0.437-0.379c-0.059-0.039-0.099-0.068-0.117-0.088
					c-0.136-0.097-0.271-0.214-0.408-0.35c-0.467-0.428-0.885-0.854-1.253-1.282c-0.099-0.116-0.224-0.281-0.38-0.495
					c-0.116-0.137-0.224-0.272-0.32-0.409c-0.292-0.408-0.564-0.836-0.816-1.283c-0.078-0.116-0.156-0.253-0.232-0.408
					c-0.253-0.467-0.477-0.941-0.672-1.428c-0.038-0.136-0.087-0.272-0.146-0.408c-0.272-0.72-0.477-1.478-0.612-2.275
					c-0.039-0.212-0.068-0.338-0.088-0.379c-0.057-0.387-0.106-0.737-0.145-1.048c-0.04-0.506-0.059-0.992-0.059-1.459
					s0.019-0.951,0.059-1.456c0.038-0.312,0.088-0.661,0.145-1.051c0.02-0.058,0.049-0.185,0.088-0.379
					c0.136-0.739,0.34-1.497,0.612-2.273c0.059-0.155,0.107-0.292,0.146-0.408c0.215-0.525,0.438-1.002,0.672-1.43
					c0.076-0.155,0.154-0.301,0.232-0.438c0.232-0.408,0.505-0.834,0.816-1.281c0.097-0.136,0.204-0.272,0.32-0.408
					c0.156-0.214,0.281-0.37,0.38-0.467c0.154-0.194,0.358-0.418,0.611-0.671c0.098-0.098,0.194-0.194,0.292-0.292
					c0.155-0.175,0.271-0.292,0.35-0.35c0.137-0.117,0.272-0.224,0.408-0.321c0.039-0.059,0.077-0.097,0.117-0.116
					c0.233-0.194,0.379-0.31,0.437-0.351c0.175-0.134,0.35-0.263,0.524-0.379c0.039-0.018,0.215-0.134,0.525-0.349h0.029
					c0.117-0.077,0.302-0.185,0.555-0.32c0.116-0.078,0.31-0.175,0.582-0.292c0.098-0.059,0.292-0.146,0.583-0.263
					c0.253-0.116,0.456-0.204,0.613-0.262c0.602-0.215,1.224-0.39,1.865-0.525c0.155-0.02,0.379-0.059,0.67-0.117
					c0.194-0.02,0.399-0.038,0.613-0.058l0.146-0.029h0.263c0.135-0.02,0.233-0.029,0.292-0.029c0.115-0.02,0.29-0.029,0.523-0.029
					c0.272,0,0.535,0.01,0.788,0.029c0.155,0.02,0.368,0.039,0.641,0.059c0.116,0.02,0.282,0.038,0.495,0.058
					c0.195,0.039,0.351,0.068,0.467,0.088c0.195,0.039,0.419,0.088,0.672,0.146c0.116,0.02,0.319,0.078,0.611,0.176
					c0.214,0.058,0.496,0.155,0.846,0.291c0.213,0.059,0.438,0.146,0.67,0.263c0.292,0.137,0.516,0.243,0.671,0.321
					c0.233,0.116,0.447,0.233,0.642,0.35c0.175,0.098,0.388,0.233,0.641,0.406c0.194,0.139,0.398,0.274,0.613,0.408
					c0.214,0.156,0.408,0.312,0.583,0.467c0.213,0.176,0.368,0.312,0.466,0.409c0.175,0.175,0.389,0.379,0.642,0.612
					c0.175,0.194,0.341,0.379,0.496,0.554c0.175,0.195,0.329,0.39,0.467,0.584l0.115,0.116l0.029,0.088l0.642,0.902l0.059,0.087
					l0.233,0.321l-0.029,0.029c-1.613,1.322-3.44,1.983-5.481,1.983h-0.379l-0.116-0.146l-0.029-0.029
					c-0.059-0.059-0.146-0.155-0.263-0.292c-0.078-0.097-0.165-0.185-0.262-0.263c-0.098-0.097-0.195-0.185-0.291-0.263
					c-0.099-0.097-0.195-0.185-0.292-0.262c-0.817-0.643-1.739-1.09-2.771-1.342c-0.078-0.018-0.204-0.047-0.378-0.088l-0.38-0.029
					c-0.077-0.018-0.185-0.029-0.32-0.029c-0.214-0.018-0.379-0.029-0.496-0.029c-1.282,0-2.469,0.341-3.557,1.021
					c-0.33,0.194-0.641,0.408-0.933,0.642c-0.156,0.136-0.34,0.312-0.554,0.525c-1.633,1.65-2.449,3.712-2.449,6.18
					c0,2.295,0.729,4.257,2.187,5.891c1.477,1.632,3.245,2.448,5.306,2.448c0.777,0,1.525-0.127,2.245-0.379
					c0.078-0.02,0.194-0.059,0.351-0.117c0.484-0.194,0.922-0.428,1.312-0.7c0.097-0.058,0.194-0.126,0.291-0.204
					c0.467-0.35,0.884-0.737,1.254-1.165c0-0.02,0.049-0.087,0.146-0.204h0.379c2.041,0,3.868,0.669,5.481,2.011h0.029l-0.233,0.321
					c0,0.02-0.02,0.049-0.059,0.087l-0.642,0.934c-0.039,0.059-0.087,0.117-0.145,0.176c-0.138,0.194-0.292,0.389-0.467,0.583
					c-0.098,0.114-0.263,0.302-0.496,0.552c-0.194,0.195-0.408,0.399-0.642,0.613c-0.098,0.097-0.253,0.233-0.466,0.408
					c-0.175,0.155-0.369,0.312-0.583,0.467c-0.195,0.155-0.399,0.302-0.613,0.438c-0.311,0.194-0.523,0.32-0.641,0.379
					c-0.194,0.137-0.408,0.253-0.642,0.351c-0.389,0.214-0.836,0.418-1.341,0.61c-0.428,0.157-0.846,0.292-1.254,0.408
					c-0.175,0.041-0.35,0.078-0.524,0.117h-0.029c-0.155,0.038-0.34,0.077-0.554,0.116c-0.098,0.02-0.176,0.029-0.234,0.029
					c-0.213,0.039-0.379,0.059-0.495,0.059c-0.272,0.039-0.485,0.058-0.641,0.058c-0.253,0.02-0.516,0.029-0.788,0.029
					c-0.233,0-0.408-0.01-0.523-0.029c-0.253,0-0.449-0.01-0.584-0.028h-0.116c-0.214-0.02-0.419-0.049-0.613-0.088
					c-0.155-0.02-0.34-0.049-0.553-0.088c-0.273-0.039-0.525-0.097-0.759-0.175l-0.612-0.175c-0.253-0.076-0.457-0.146-0.611-0.204
					c-0.215-0.076-0.409-0.154-0.584-0.231h-0.058c-0.176-0.078-0.351-0.155-0.525-0.233c-0.233-0.117-0.457-0.243-0.67-0.379
					c-0.021,0-0.186-0.088-0.496-0.263c0-0.02-0.01-0.029-0.029-0.029c-0.194-0.117-0.34-0.214-0.438-0.292
					C906.012,177.919,905.808,177.783,905.478,177.55z"/>
				<path fill="#2E3E3D" d="M955.595,165.858c0,0.778-0.058,1.575-0.175,2.392h-20.524c0.467,1.729,1.351,3.139,2.653,4.227
					c1.321,1.108,2.837,1.682,4.548,1.721c0.408,0.039,0.797,0.059,1.166,0.059c0.874,0,1.643-0.098,2.303-0.292
					c0.525-0.155,1.127-0.398,1.808-0.729c2.061,0.759,3.615,2.12,4.665,4.082l-0.32,0.233l-0.088,0.059l-0.933,0.583
					c-0.059,0.039-0.127,0.078-0.204,0.117c-0.175,0.116-0.398,0.242-0.671,0.379c-0.116,0.059-0.204,0.106-0.263,0.146
					c-0.038,0.02-0.175,0.078-0.408,0.175c-0.175,0.078-0.447,0.186-0.815,0.319c-0.176,0.08-0.37,0.146-0.584,0.204
					c-0.175,0.059-0.418,0.129-0.728,0.204c-0.138,0.041-0.244,0.07-0.321,0.088l-0.116,0.029c-0.098,0.02-0.186,0.039-0.263,0.058
					c-0.078,0.02-0.127,0.029-0.146,0.029c-0.077,0.02-0.175,0.039-0.291,0.059c-0.137,0.02-0.243,0.029-0.321,0.029
					c-0.214,0.039-0.457,0.068-0.729,0.088c-0.253,0.019-0.457,0.038-0.612,0.058h-2.128c-4.606,0-8.251-1.991-10.934-5.976
					c-1.224-1.789-2.012-3.771-2.36-5.947c-0.117-0.816-0.175-1.613-0.175-2.392c0-0.775,0.058-1.573,0.175-2.39
					c0.543-3.401,2.06-6.238,4.548-8.514c2.525-2.273,5.441-3.411,8.746-3.411c0.816,0,1.642,0.078,2.478,0.233
					c2.779,0.544,5.16,1.886,7.144,4.023c2.002,2.156,3.235,4.714,3.702,7.668C955.537,164.285,955.595,165.083,955.595,165.858z
					 M949.326,163.469c-0.797-2.993-2.555-4.889-5.276-5.687c-0.622-0.192-1.272-0.292-1.953-0.292
					c-1.672,0-3.178,0.564-4.519,1.692c-1.322,1.108-2.216,2.536-2.683,4.286H949.326z"/>
				<path fill="#2E3E3D" d="M992.708,151.515c0.019,0.117,0.029,0.253,0.029,0.408c0,0.447-0.088,1.099-0.263,1.953
					c-0.292,1.497-0.787,2.702-1.486,3.614c-0.078,0.021-0.137,0.029-0.176,0.029c-0.02,0.021-0.038,0.029-0.058,0.029
					c-0.156,0-0.312,0.021-0.467,0.059c-0.253,0.059-0.438,0.099-0.555,0.116c-0.369,0.117-0.747,0.263-1.137,0.438
					c-0.097,0.039-0.194,0.088-0.291,0.146c-0.117,0.058-0.243,0.126-0.38,0.204c-0.136,0.078-0.271,0.165-0.407,0.263
					c-0.194,0.136-0.389,0.281-0.583,0.438c-0.137,0.116-0.272,0.243-0.408,0.379c-0.137,0.155-0.272,0.312-0.409,0.467
					c-0.155,0.155-0.29,0.312-0.407,0.467c-0.098,0.155-0.165,0.263-0.204,0.32c-0.078,0.098-0.146,0.203-0.204,0.319
					c-0.194,0.292-0.379,0.642-0.555,1.05c-0.077,0.176-0.146,0.351-0.204,0.525c-0.077,0.214-0.155,0.457-0.233,0.729
					c-0.038,0.175-0.077,0.35-0.116,0.524v0.059c-0.078,0.292-0.126,0.603-0.146,0.932v0.029c-0.02,0.116-0.028,0.224-0.028,0.32
					c-0.021,0.214-0.029,0.38-0.029,0.496v14.344h-5.948v-26.908c0.894-0.7,2.109-1.195,3.645-1.487
					c0.894-0.194,1.564-0.292,2.012-0.292c0.117,0,0.213,0.01,0.292,0.029v2.448c0.446-0.309,0.874-0.581,1.282-0.814
					c0.292-0.156,0.584-0.302,0.874-0.438c0.467-0.214,0.924-0.398,1.371-0.555c0.213-0.059,0.534-0.146,0.962-0.263
					c0.059-0.02,0.146-0.038,0.263-0.058c0.097-0.02,0.175-0.039,0.233-0.059c0.291-0.059,0.631-0.107,1.02-0.146
					c0.525-0.078,1.031-0.117,1.516-0.117H992.708z"/>
				<path fill="#2E3E3D" d="M1023.088,165.858c0,0.778-0.059,1.575-0.176,2.392h-20.524c0.467,1.729,1.351,3.139,2.653,4.227
					c1.321,1.108,2.837,1.682,4.548,1.721c0.408,0.039,0.797,0.059,1.167,0.059c0.874,0,1.642-0.098,2.302-0.292
					c0.525-0.155,1.127-0.398,1.808-0.729c2.061,0.759,3.615,2.12,4.665,4.082l-0.32,0.233l-0.088,0.059l-0.933,0.583
					c-0.058,0.039-0.127,0.078-0.204,0.117c-0.175,0.116-0.398,0.242-0.671,0.379c-0.116,0.059-0.204,0.106-0.263,0.146
					c-0.038,0.02-0.175,0.078-0.408,0.175c-0.175,0.078-0.447,0.186-0.815,0.319c-0.175,0.08-0.369,0.146-0.584,0.204
					c-0.175,0.059-0.418,0.129-0.728,0.204c-0.138,0.041-0.244,0.07-0.321,0.088l-0.116,0.029c-0.098,0.02-0.185,0.039-0.263,0.058
					c-0.078,0.02-0.127,0.029-0.146,0.029c-0.077,0.02-0.175,0.039-0.291,0.059c-0.137,0.02-0.243,0.029-0.321,0.029
					c-0.214,0.039-0.457,0.068-0.728,0.088c-0.253,0.019-0.457,0.038-0.613,0.058h-2.128c-4.606,0-8.251-1.991-10.933-5.976
					c-1.225-1.789-2.013-3.771-2.361-5.947c-0.117-0.816-0.175-1.613-0.175-2.392c0-0.775,0.058-1.573,0.175-2.39
					c0.543-3.401,2.06-6.238,4.548-8.514c2.525-2.273,5.441-3.411,8.746-3.411c0.816,0,1.642,0.078,2.479,0.233
					c2.778,0.544,5.16,1.886,7.143,4.023c2.002,2.156,3.235,4.714,3.702,7.668C1023.029,164.285,1023.088,165.083,1023.088,165.858z
					 M1016.818,163.469c-0.797-2.993-2.555-4.889-5.276-5.687c-0.622-0.192-1.272-0.292-1.953-0.292
					c-1.672,0-3.178,0.564-4.519,1.692c-1.322,1.108-2.216,2.536-2.683,4.286H1016.818z"/>
				<path fill="#2E3E3D" d="M1049.238,151.544c0.078-0.02,0.175-0.029,0.292-0.029c0.447,0,1.117,0.098,2.012,0.292
					c1.535,0.291,2.749,0.787,3.644,1.487v24.519c0,0.777-0.058,1.573-0.175,2.39c-0.35,2.159-1.137,4.141-2.361,5.949
					c-0.933,1.397-2.07,2.574-3.411,3.527c-2.255,1.632-4.763,2.448-7.521,2.448h-7.668c-0.02-0.098-0.029-0.224-0.029-0.379
					c0-0.467,0.097-1.128,0.291-1.982c0.272-1.497,0.759-2.702,1.458-3.614h5.948c1.671,0,3.177-0.564,4.519-1.692
					c1.321-1.089,2.216-2.507,2.682-4.257c0.214-0.795,0.321-1.593,0.321-2.39v-0.088c-0.02,0-0.029,0.02-0.029,0.059l-0.029,0.116
					c-0.02,0-0.029-0.028-0.029-0.087c-2.235,1.573-4.713,2.36-7.434,2.36c-2.701,0-5.189-0.787-7.464-2.36
					c-1.944-1.361-3.46-3.158-4.548-5.395c-0.992-2.04-1.486-4.226-1.486-6.56c0-3.945,1.312-7.317,3.935-10.116
					c2.644-2.798,5.831-4.198,9.563-4.198c2.74,0,5.247,0.816,7.521,2.448V151.544z M1046.353,172.447
					c1.594-1.379,2.526-3.178,2.798-5.393c0.059-0.389,0.088-0.788,0.088-1.196c0-2.293-0.739-4.257-2.216-5.889
					c-1.478-1.633-3.246-2.45-5.306-2.45c-2.08,0-3.858,0.817-5.336,2.45c-1.457,1.632-2.187,3.596-2.187,5.889
					c0,0.408,0.02,0.808,0.059,1.196c0.292,2.195,1.225,3.994,2.799,5.393c1.36,1.186,2.915,1.779,4.665,1.779
					C1043.446,174.227,1044.991,173.633,1046.353,172.447z"/>
				<path fill="#2E3E3D" d="M1062.241,146.093c0.895-0.681,2.108-1.177,3.645-1.487c0.895-0.175,1.555-0.263,1.982-0.263
					c0.136,0,0.243,0.01,0.321,0.029v5.685c-0.078-0.018-0.186-0.029-0.321-0.029c-0.428,0-1.088,0.087-1.982,0.262
					c-1.536,0.312-2.75,0.808-3.645,1.488V146.093z M1062.241,153.265c0.895-0.681,2.108-1.177,3.645-1.487
					c0.855-0.175,1.496-0.263,1.924-0.263c0.155,0,0.282,0.01,0.38,0.029v28.629h-5.948V153.265z"/>
				<path fill="#2E3E3D" d="M1089.472,164.896c2.177,1.226,3.663,2.732,4.461,4.52c0.368,0.817,0.553,1.536,0.553,2.159v0.522
					c0,2.295-1.078,4.209-3.235,5.745c-1.127,0.816-2.265,1.39-3.411,1.719c-1.419,0.408-2.78,0.612-4.082,0.612h-0.029
					c-0.155,0-0.389-0.01-0.699-0.029c-4.159-0.155-7.259-1.68-9.3-4.575c-0.545-0.778-0.817-1.273-0.817-1.488
					c0.253-0.194,0.555-0.398,0.904-0.612c1.534-0.953,3.032-1.466,4.489-1.544c0.039,0.136,0.107,0.302,0.205,0.494
					c0,0.02,0.009,0.041,0.028,0.059c0.02,0.038,0.039,0.067,0.059,0.087c0.835,1.361,2.487,2.042,4.956,2.042h0.379
					c1.341-0.02,2.41-0.398,3.207-1.138c0.486-0.583,0.729-1.138,0.729-1.66c0-1.051-0.934-1.945-2.8-2.684
					c-0.933-0.39-1.855-0.66-2.77-0.817c-1.826-0.387-3.255-0.893-4.285-1.515c-2.178-1.226-3.664-2.73-4.461-4.52
					c-0.369-0.816-0.554-1.524-0.554-2.127v-0.525c0-2.293,1.068-4.218,3.207-5.773c1.127-0.815,2.274-1.379,3.439-1.69
					c1.419-0.428,2.78-0.642,4.082-0.642c0.175,0,0.408,0.01,0.7,0.029c4.178,0.155,7.27,1.672,9.271,4.549
					c0.271,0.369,0.494,0.729,0.67,1.079c0.155,0.33,0.224,0.477,0.204,0.436c-0.37,0.272-0.67,0.477-0.903,0.612
					c-1.536,0.953-3.043,1.469-4.52,1.546c-0.02-0.136-0.078-0.291-0.175-0.467c-0.02-0.039-0.049-0.087-0.088-0.146
					c-0.854-1.359-2.507-2.04-4.956-2.04h-0.32c-1.36,0-2.448,0.377-3.266,1.136c-0.486,0.583-0.729,1.128-0.729,1.634
					c0,1.05,0.923,1.952,2.77,2.711c0.933,0.369,1.866,0.642,2.799,0.816C1087.012,163.799,1088.44,164.295,1089.472,164.896z"/>
				<path fill="#2E3E3D" d="M1113.058,177.842c0.176,0.836,0.263,1.485,0.263,1.952c0,0.136-0.011,0.263-0.029,0.379l-1.808-0.029
					c-2.216-0.116-4.004-0.554-5.364-1.311c-0.642-0.369-1.146-0.7-1.517-0.991c-2.974-2.273-4.46-5.269-4.46-8.98v-22.798
					c1.516-1.147,3.45-1.721,5.802-1.721h0.175v8.076h5.947v0.146c0,1.885-0.574,3.44-1.721,4.666h-4.227v11.631
					c0,1.381,0.466,2.586,1.399,3.615c0.193,0.155,0.388,0.301,0.583,0.438c0.136,0.097,0.271,0.194,0.408,0.291
					c0.155,0.078,0.281,0.146,0.379,0.204c0.098,0.039,0.194,0.088,0.292,0.146c0.389,0.175,0.767,0.311,1.137,0.408
					c0.116,0.039,0.301,0.078,0.554,0.116c0.156,0.039,0.311,0.068,0.467,0.088h0.059c0.039,0,0.096,0.01,0.175,0.029
					C1112.271,175.131,1112.767,176.344,1113.058,177.842z"/>
				<path fill="#2E3E3D" d="M1133.116,151.515c0.019,0.117,0.029,0.253,0.029,0.408c0,0.447-0.088,1.099-0.263,1.953
					c-0.292,1.497-0.787,2.702-1.486,3.614c-0.078,0.021-0.137,0.029-0.176,0.029c-0.02,0.021-0.038,0.029-0.058,0.029
					c-0.156,0-0.312,0.021-0.467,0.059c-0.253,0.059-0.438,0.099-0.555,0.116c-0.369,0.117-0.747,0.263-1.137,0.438
					c-0.097,0.039-0.194,0.088-0.291,0.146c-0.117,0.058-0.243,0.126-0.38,0.204c-0.136,0.078-0.271,0.165-0.407,0.263
					c-0.194,0.136-0.389,0.281-0.583,0.438c-0.137,0.116-0.272,0.243-0.408,0.379c-0.137,0.155-0.272,0.312-0.409,0.467
					c-0.155,0.155-0.29,0.312-0.407,0.467c-0.098,0.155-0.165,0.263-0.204,0.32c-0.077,0.098-0.146,0.203-0.204,0.319
					c-0.194,0.292-0.379,0.642-0.555,1.05c-0.077,0.176-0.146,0.351-0.204,0.525c-0.077,0.214-0.155,0.457-0.233,0.729
					c-0.038,0.175-0.077,0.35-0.116,0.524v0.059c-0.078,0.292-0.126,0.603-0.145,0.932v0.029c-0.021,0.116-0.029,0.224-0.029,0.32
					c-0.021,0.214-0.029,0.38-0.029,0.496v14.344h-5.948v-26.908c0.894-0.7,2.109-1.195,3.645-1.487
					c0.894-0.194,1.564-0.292,2.012-0.292c0.117,0,0.213,0.01,0.292,0.029v2.448c0.446-0.309,0.874-0.581,1.282-0.814
					c0.292-0.156,0.584-0.302,0.874-0.438c0.467-0.214,0.924-0.398,1.371-0.555c0.213-0.059,0.534-0.146,0.962-0.263
					c0.059-0.02,0.146-0.038,0.263-0.058c0.097-0.02,0.175-0.039,0.233-0.059c0.291-0.059,0.631-0.107,1.02-0.146
					c0.525-0.078,1.031-0.117,1.516-0.117H1133.116z"/>
				<path fill="#2E3E3D" d="M1157.547,151.544c0.117-0.02,0.243-0.029,0.379-0.029c0.447,0,1.088,0.088,1.925,0.263
					c1.535,0.311,2.749,0.807,3.644,1.487v26.908h-5.947v-2.448c-2.274,1.632-4.781,2.448-7.521,2.448
					c-3.732,0-6.92-1.397-9.563-4.198c-2.623-2.799-3.935-6.17-3.935-10.116c0-3.965,1.312-7.347,3.935-10.146
					c2.644-2.778,5.831-4.169,9.563-4.169c2.74,0,5.247,0.807,7.521,2.419V151.544z M1150.025,174.197
					c2.06,0,3.828-0.816,5.306-2.448c1.477-1.634,2.216-3.596,2.216-5.891c0-2.313-0.739-4.286-2.216-5.918
					c-1.478-1.633-3.246-2.45-5.306-2.45c-2.08,0-3.858,0.817-5.336,2.45c-1.457,1.632-2.187,3.605-2.187,5.918
					c0,2.295,0.729,4.257,2.187,5.891C1146.167,173.381,1147.945,174.197,1150.025,174.197z"/>
				<path fill="#2E3E3D" d="M1183.932,177.842c0.176,0.836,0.263,1.485,0.263,1.952c0,0.136-0.011,0.263-0.029,0.379l-1.808-0.029
					c-2.216-0.116-4.004-0.554-5.364-1.311c-0.642-0.369-1.147-0.7-1.517-0.991c-2.974-2.273-4.46-5.269-4.46-8.98v-22.798
					c1.516-1.147,3.45-1.721,5.802-1.721h0.175v8.076h5.947v0.146c0,1.885-0.574,3.44-1.72,4.666h-4.228v11.631
					c0,1.381,0.466,2.586,1.399,3.615c0.193,0.155,0.388,0.301,0.582,0.438c0.137,0.097,0.272,0.194,0.409,0.291
					c0.155,0.078,0.282,0.146,0.379,0.204c0.098,0.039,0.194,0.088,0.292,0.146c0.389,0.175,0.767,0.311,1.137,0.408
					c0.116,0.039,0.301,0.078,0.554,0.116c0.155,0.039,0.311,0.068,0.467,0.088h0.059c0.039,0,0.096,0.01,0.175,0.029
					C1183.145,175.131,1183.641,176.344,1183.932,177.842z"/>
				<path fill="#2E3E3D" d="M1188.45,146.093c0.895-0.681,2.109-1.177,3.645-1.487c0.895-0.175,1.555-0.263,1.982-0.263
					c0.137,0,0.243,0.01,0.321,0.029v5.685c-0.078-0.018-0.185-0.029-0.321-0.029c-0.428,0-1.088,0.087-1.982,0.262
					c-1.535,0.312-2.75,0.808-3.645,1.488V146.093z M1188.45,153.265c0.895-0.681,2.109-1.177,3.645-1.487
					c0.855-0.175,1.496-0.263,1.925-0.263c0.155,0,0.281,0.01,0.379,0.029v28.629h-5.948V153.265z"/>
				<path fill="#2E3E3D" d="M1213.552,151.544c3.713,0,6.891,1.391,9.534,4.169c2.624,2.799,3.936,6.181,3.936,10.146
					c0,3.946-1.312,7.317-3.936,10.116c-2.644,2.801-5.821,4.198-9.534,4.198c-3.731,0-6.919-1.397-9.563-4.198
					c-2.623-2.799-3.935-6.17-3.935-10.116c0-3.965,1.312-7.347,3.935-10.146C1206.633,152.935,1209.82,151.544,1213.552,151.544z
					 M1213.552,174.197c2.061,0,3.829-0.816,5.307-2.448c1.477-1.634,2.216-3.596,2.216-5.891c0-2.313-0.739-4.286-2.216-5.918
					c-1.478-1.633-3.246-2.45-5.307-2.45c-2.079,0-3.857,0.817-5.335,2.45c-1.457,1.632-2.187,3.605-2.187,5.918
					c0,2.295,0.729,4.257,2.187,5.891C1209.694,173.381,1211.473,174.197,1213.552,174.197z"/>
				<path fill="#2E3E3D" d="M1254.544,153.963c3.984,2.839,5.977,6.805,5.977,11.896v14.314h-5.977v-14.314
					c0-2.313-0.729-4.286-2.187-5.918c-1.478-1.633-3.256-2.45-5.336-2.45c-2.061,0-3.829,0.817-5.306,2.45
					c-1.478,1.632-2.215,3.605-2.215,5.918v14.314h-5.948v-26.908c0.894-0.681,2.109-1.177,3.645-1.487
					c0.854-0.175,1.496-0.263,1.924-0.263c0.156,0,0.281,0.01,0.38,0.029v2.419c2.273-1.632,4.78-2.448,7.521-2.448
					C1249.782,151.515,1252.289,152.331,1254.544,153.963z"/>
			</g>
		</g>
	</g>
	<g>
		<g>
			<path fill="#2E3E3D" d="M116.876,86.511c3.715-6.195,5.169-13.748,3.501-21.342c-3.481-15.846-19.213-25.855-35.141-22.359
				c-9.793,2.15-17.375,8.914-20.956,17.484C63.552,61.513,11.08,165.338,10.529,166.65c-3.712,6.195-5.167,13.748-3.499,21.342
				c3.48,15.846,19.213,25.855,35.141,22.359c9.792-2.15,17.375-8.912,20.954-17.484C63.857,191.65,116.329,87.823,116.876,86.511z"
				/>
			<g>
				<path fill="#374745" d="M130.21,156.055c-1.697-7.773-0.23-15.502,3.523-21.84c0.212-0.514,8.172-16.508,17.936-36.077
					c-16.866-20.715-35.458-43.5-35.982-44.055c-3.432-4.898-8.421-8.766-14.547-10.756c-14.989-4.865-31.084,3.34-35.95,18.328
					c-3.34,10.279-0.526,21.08,6.406,28.422c0.65,0.928,40.058,49.333,54.901,67.47h4.078
					C130.442,157.057,130.32,156.559,130.21,156.055z"/>
				<path fill="#374745" d="M131.97,161.539h-2.202c1.368,1.664,2.186,2.652,2.292,2.766c0.304,0.434,0.625,0.857,0.954,1.277h1.064
					C133.281,164.303,132.576,162.951,131.97,161.539z"/>
				<path fill="#374745" d="M136.215,168.576h-0.757c0.953,1.238,2.013,2.4,3.167,3.475h0.896
					C138.333,170.988,137.228,169.826,136.215,168.576z"/>
				<path fill="#374745" d="M141.059,174.078c2.417,1.791,5.159,3.229,8.178,4.209c3.186,1.033,6.421,1.473,9.589,1.387
					c-6.127-0.117-11.96-2.131-16.786-5.596H141.059z"/>
				<path fill="#2E3E3D" d="M131.97,161.539c0.606,1.412,1.311,2.764,2.108,4.043h50.665c0.805-1.291,1.512-2.643,2.116-4.043
					H131.97z"/>
				<path fill="#2E3E3D" d="M142.039,174.078c4.826,3.465,10.659,5.479,16.786,5.596c2.307,0.043,4.655-0.174,7.006-0.693
					c4.081-0.9,7.779-2.602,10.974-4.902H142.039z"/>
				<path fill="#2E3E3D" d="M129.767,156.055c0.11,0.504,0.232,1.002,0.365,1.492h58.278c3.604-7.152,12.1-24.127,21.232-42.406
					c-0.694-1.999-1.246-4.308-1.648-6.929c-0.477-3.088-0.714-6.662-0.714-10.725c0-7.678,1.133-13.963,3.403-18.859
					c2.267-4.896,5.194-8.707,8.781-11.434c2.415-1.836,5.56-3.268,9.44-4.297c2.142-0.568,4.619-0.975,7.408-1.23
					c2.794-5.617,4.53-9.129,4.627-9.363c3.754-6.338,5.221-14.068,3.523-21.842C240.92,14.237,224.971,3.976,208.84,7.538
					c-9.922,2.191-17.592,9.104-21.212,17.873c-0.454,0.768-20.748,41.35-36.402,72.727c-9.764,19.569-17.723,35.563-17.936,36.077
					C129.536,140.553,128.069,148.281,129.767,156.055z"/>
				<path fill="#2E3E3D" d="M136.215,168.576c1.012,1.25,2.118,2.412,3.307,3.475h39.797c1.192-1.072,2.293-2.234,3.295-3.475
					H136.215z"/>
			</g>
		</g>
		<g>
			<path fill="none" d="M440.082,172.051c-0.15-1.146-0.282-2.307-0.401-3.475h-40.185v3.475H440.082z"/>
			<path fill="none" d="M432.037,116.012c1.564-0.154,2.686-0.488,3.367-1.004c1.086-0.872,1.92-2.067,2.499-3.585
				c0.577-1.516,0.867-3.895,0.867-7.133c0-3.289-0.29-5.668-0.867-7.133c-0.579-1.465-1.413-2.584-2.499-3.354
				c-0.681-0.514-1.803-0.85-3.367-1.002c-1.564-0.154-4.353-0.234-8.365-0.234h-24.175v23.675h24.175
				C427.684,116.242,430.472,116.166,432.037,116.012z"/>
			<path fill="none" d="M399.496,165.582H439.4c-0.109-1.307-0.215-2.654-0.317-4.043h-39.587V165.582z"/>
			<path fill="none" d="M354.51,172.051v-3.475h-13.301c-0.825,1.268-1.713,2.428-2.663,3.475H354.51z"/>
			<path fill="none" d="M344.677,161.539c-0.284,0.816-0.589,1.6-0.925,2.344c-0.263,0.582-0.535,1.148-0.815,1.699h11.573v-4.043
				H344.677z"/>
			<path fill="none" d="M437.953,148.551c-0.204-1.336-0.442-2.389-0.714-3.16c-0.272-0.771-0.646-1.4-1.122-1.889
				c-0.477-0.488-0.986-0.938-1.53-1.35c-0.612-0.309-1.19-0.59-1.734-0.848c-0.544-0.258-1.31-0.463-2.294-0.617
				c-0.987-0.154-2.211-0.295-3.672-0.424c-1.463-0.129-3.283-0.193-5.458-0.193h-21.932v17.477h39.312
				c-0.083-1.295-0.165-2.621-0.243-3.982C438.361,151.561,438.158,149.891,437.953,148.551z"/>
			<path fill="#095D80" d="M346.999,144.963c0-7.547-0.855-13.342-2.565-17.377c-1.711-4.039-3.998-7.139-6.86-9.303
				c-2.304-1.742-4.959-3.074-7.96-3.999c-3.002-0.922-7.086-1.648-12.253-2.176l-44.824-3.879c-3.701-0.369-6.336-0.66-7.906-0.873
				c-1.571-0.209-2.637-0.525-3.195-0.947c-1.328-0.951-1.99-3.115-1.99-6.492c0-3.537,0.592-5.754,1.78-6.652
				c0.697-0.525,3.561-0.791,8.588-0.791h21.365c2.862,0,4.904,0.08,6.127,0.238c1.22,0.158,2.181,0.502,2.88,1.027
				c0.768,0.582,1.292,1.52,1.571,2.813c0.278,1.293,0.558,3.707,0.838,7.244l42.206,7.916c0-10.133-0.245-16.928-0.733-20.387
				c-0.49-3.455-1.17-6.398-2.042-8.826c-0.874-2.428-1.903-4.461-3.09-6.096c-1.188-1.637-2.583-3.037-4.189-4.197
				c-2.443-1.846-5.726-3.18-9.845-3.998c-4.12-0.818-9.705-1.227-16.756-1.227h-57.705c-5.726,0-10.439,0.488-14.139,1.463
				c-3.702,0.979-6.703,2.338-9.007,4.078c-3.421,2.588-6.216,6.203-8.378,10.848c-2.165,4.645-3.247,10.607-3.247,17.893
				c0,3.852,0.226,7.242,0.681,10.172c0.453,2.93,1.1,5.45,1.938,7.56c0.838,2.111,1.867,3.893,3.089,5.346
				c1.221,1.451,2.565,2.703,4.032,3.76c4.398,3.379,11.17,5.436,20.317,6.176l44.405,3.879c3.001,0.264,5.462,0.553,7.383,0.869
				c1.92,0.318,3.195,0.688,3.823,1.109c1.257,0.949,1.885,3.115,1.885,6.492c0,3.908-0.628,6.334-1.885,7.283
				c-1.047,0.74-4.713,1.109-10.997,1.109h-21.678c-3.142,0-5.43-0.08-6.86-0.238c-1.432-0.158-2.497-0.502-3.194-1.027
				c-0.56-0.424-1.013-1.387-1.361-2.893c-0.35-1.504-0.665-4.365-0.943-8.588l-42.311-6.256c0,9.133,0.174,15.504,0.524,19.119
				c0.08,0.834,0.174,1.635,0.278,2.412h131C346.596,153.908,346.999,149.717,346.999,144.963z"/>
			<path fill="#095D80" d="M223.208,175.125c2.723,2.061,6.127,3.471,10.211,4.236s9.547,1.148,16.39,1.148h62
				c6.004,0,10.874-0.486,14.609-1.463s6.72-2.338,8.956-4.078c0.373-0.283,0.738-0.582,1.096-0.891h-114.51
				C222.363,174.447,222.776,174.799,223.208,175.125z"/>
			<path fill="#095D80" d="M343.752,163.883c0.335-0.744,0.641-1.527,0.925-2.344h-129.19c0.225,1.027,0.476,1.996,0.756,2.898
				c0.122,0.393,0.249,0.771,0.379,1.145h126.314C343.218,165.031,343.49,164.465,343.752,163.883z"/>
			<path fill="#095D80" d="M341.209,168.576H217.864c0.41,0.83,0.846,1.592,1.313,2.275c0.284,0.416,0.58,0.816,0.887,1.199h118.482
				C339.497,171.004,340.384,169.844,341.209,168.576z"/>
			<rect x="354.51" y="161.539" fill="#095D80" width="44.986" height="4.043"/>
			<path fill="#095D80" d="M440.082,172.051h45.973c-0.117-1.09-0.231-2.248-0.342-3.475h-46.031
				C439.8,169.744,439.932,170.904,440.082,172.051z"/>
			<path fill="#095D80" d="M439.083,161.539c0.102,1.389,0.208,2.736,0.317,4.043h46.055c-0.108-1.334-0.211-2.682-0.31-4.043
				H439.083z"/>
			<rect x="354.51" y="174.078" fill="#095D80" width="44.986" height="3.93"/>
			<path fill="#095D80" d="M441.014,178.008h45.802c-0.184-1.164-0.362-2.479-0.534-3.93H440.37
				C440.566,175.4,440.775,176.715,441.014,178.008z"/>
			<path fill="#095D80" d="M399.496,140.07h21.932c2.175,0,3.994,0.064,5.458,0.193c1.461,0.129,2.686,0.27,3.672,0.424
				c0.984,0.154,1.75,0.359,2.294,0.617c0.544,0.258,1.122,0.539,1.734,0.848c0.544,0.412,1.054,0.861,1.53,1.35
				c0.476,0.488,0.85,1.117,1.122,1.889c0.271,0.771,0.51,1.824,0.714,3.16c0.205,1.34,0.408,3.01,0.612,5.014
				c0.078,1.361,0.16,2.688,0.243,3.982h46.065c-0.147-2.293-0.283-4.619-0.404-6.99c-0.137-4.01-0.766-7.313-1.888-9.908
				c-1.121-2.596-2.687-4.678-4.692-6.246c-2.007-1.568-4.437-2.803-7.293-3.701c-2.857-0.9-6.088-1.658-9.691-2.275v-0.309
				c4.147-0.617,7.786-1.543,10.915-2.775c3.127-1.234,5.746-2.957,7.854-5.168c2.108-2.209,3.672-5.023,4.692-8.442
				c1.021-3.418,1.53-7.697,1.53-12.838c0-3.805-0.204-7.068-0.612-9.795c-0.408-2.725-0.986-5.063-1.734-7.018
				c-0.749-1.953-1.718-3.609-2.907-4.975c-1.19-1.359-2.636-2.684-4.335-3.969c-2.789-2.107-6.376-3.586-10.762-4.436
				c-4.386-0.848-10.251-1.271-17.596-1.271h-93.44v90.116h44.986V140.07z M399.496,92.567h24.175c4.012,0,6.801,0.08,8.365,0.234
				c1.564,0.152,2.686,0.488,3.367,1.002c1.086,0.77,1.92,1.889,2.499,3.354c0.577,1.465,0.867,3.844,0.867,7.133
				c0,3.238-0.29,5.617-0.867,7.133c-0.579,1.518-1.413,2.713-2.499,3.585c-0.681,0.516-1.803,0.85-3.367,1.004
				c-1.564,0.154-4.353,0.23-8.365,0.23h-24.175V92.567z"/>
			<rect x="354.51" y="168.576" fill="#095D80" width="44.986" height="3.475"/>
		</g>
	</g>
</g>
<rect x="521.805" y="13.955" fill="#E6E7E8" width="10.5" height="202"/>
<g>
</g>
<g>
</g>
<g>
</g>
<g>
</g>
<g>
</g>
<g>
</g>
</svg>
