<svg xmlns="http://www.w3.org/2000/svg" width="59.753" height="93.074" viewBox="0 0 59.753 93.074">
  <g id="Spices_seasoning" transform="translate(-5643.009 1377.133)">
    <g id="Group_9691" data-name="Group 9691">
      <path id="Path_12515" data-name="Path 12515" d="M88.66,634c-.66-5-2.32-10-5.69-13.84-1.75-2-3.76-2.94-5.84-4.5-4-3-3.28-6.74-3.36-11.06a.49.49,0,0,0-.32-.46,18.763,18.763,0,0,0,2-.66,4.39,4.39,0,0,0,.94-1.45c-.12-.48-.32-.93-.44-1.42s-.17-1-.24-1.45a.48.48,0,0,0-.62-.35.63.63,0,0,0-.64-.06q-.75.33-1.53.6c.1-.44.19-.87.25-1.33a2.78,2.78,0,0,0,0-1.49.62.62,0,0,0,.14-1c-2.53-2.32-7.4-1.94-10-.06a.46.46,0,0,0-.05.68,1.72,1.72,0,0,0-.45,1.65,7.451,7.451,0,0,0,.4,1.93,11.9,11.9,0,0,1-1.5-.58.63.63,0,0,0-.92.37,3,3,0,0,0,0,2.09.66.66,0,0,0-.08,1,4.45,4.45,0,0,0,2.6,1.22,4.152,4.152,0,0,0,.51.28c-.47,4.61.26,9.62-4.78,11.72A15.772,15.772,0,0,0,53.71,619c-3.57,3.47-4.89,8.44-5.44,13.23-1.79,15.38-1.31,31.53-.56,47a.77.77,0,0,0,.21.49.56.56,0,0,0,.16.3c10.93,9.85,28.26,8.46,39.93.87a5.879,5.879,0,0,0,.63-1.2c.34-8,.26-16,.35-24C89.06,648.44,89.61,641.07,88.66,634ZM64.14,597.76a8,8,0,0,0,0-.81c2.22,1.12,5.41,1.74,7.62.47v.42c0,.61,0,1.22-.06,1.82a15.46,15.46,0,0,1-7.67.27.38.38,0,0,0,0-.22C64.12,599.06,64.11,598.41,64.14,597.76Zm7.1-1.64a14.845,14.845,0,0,1-2.77.61,9.4,9.4,0,0,1-4.32-.73,11.749,11.749,0,0,1,4-.62A10.671,10.671,0,0,1,71.24,596.12Zm-7.94,6.71a10.005,10.005,0,0,1-1.66-1.24.907.907,0,0,0-.13-.08c.17-1.51,2.28-.28,3.37-.08A15.52,15.52,0,0,0,74.63,600a6.54,6.54,0,0,0,.25,2A33.7,33.7,0,0,1,68,603a39.357,39.357,0,0,0-4.7-.17ZM87.23,655.6c-.09,7.91-.34,15.84-.18,23.75-12.53,8.12-25.21,6.38-37.85,0a.54.54,0,0,0,0-.19c-.37-15.28-.95-30.89.62-46.13.38-3.76,1.13-7.63,3.33-10.8,2.42-3.53,5.73-3.81,9-5.91,3.92-2.53,3-7.73,2.52-11.86a17.081,17.081,0,0,0,8.15-.21.419.419,0,0,0-.09.16c-1.12,3.54-1.29,8,1.31,10.94,1.82,2.08,4.66,2.94,6.64,4.87a21.59,21.59,0,0,1,5.55,10.31C88.27,638.54,87.32,647.42,87.23,655.6Z" transform="translate(5595.972 -1971.056)" fill="#3c3c3b"/>
    </g>
    <path id="Path_12516" data-name="Path 12516" d="M630,63.12c-.73-6.41-1.43-12.82-2.21-19.23v-.13a.86.86,0,0,0,.35-.55h.09c2.69-.65.92-6.41.39-8a12.21,12.21,0,0,0-7.67-8c-9.52-2.92-17.32,6.83-15.7,15.6a.52.52,0,0,0,.18,1h.37c-1.58,11.31-1.89,22.9-2.44,34.3-.13,2.62-1.07,7,1.28,9.06,2.77,2.44,8.63,1.1,11.91,1,3.54,0,9.3,1,12.61-.34,2.74-1.13,2.61-4.59,2.63-7.16C631.78,74.88,630.64,68.92,630,63.12ZM617.5,28.54A9.21,9.21,0,0,1,625.37,33c.25.4,3.21,8,2.29,8.41a1,1,0,0,0-.63.78,191.894,191.894,0,0,0-20.63.5c-.49-6.77,3.6-13.99,11.08-14.15Zm12.44,53.05c-.2,4.69-2.13,4.72-6.07,4.79l-5.52.1c-4.12.06-12.44,1.74-13.51-3.89-.7-3.68.39-8.41.6-12.19.49-8.85,1.4-17.72,1.56-26.58,6.32.08,12.65,0,19,.06h0c.95,9,2,18,3,26.92.41,3.56,1.07,7.2.92,10.79Z" transform="translate(5070.972 -1376.056)" fill="#3c3c3b"/>
    <path id="Path_12517" data-name="Path 12517" d="M616.88,30.4a.6.6,0,1,0,.6.6A.6.6,0,0,0,616.88,30.4Z" transform="translate(5070.972 -1376.056)" fill="#3c3c3b"/>
    <path id="Path_12518" data-name="Path 12518" d="M613.77,31.59a1,1,0,0,0-.75,1.59.85.85,0,0,0,.69.39.92.92,0,0,0,1.07-.39,1.06,1.06,0,0,0-1.01-1.59Z" transform="translate(5070.972 -1376.056)" fill="#3c3c3b"/>
    <path id="Path_12519" data-name="Path 12519" d="M618.81,33.31v-.05c-.48-1-2-.12-1.52.89a1.1,1.1,0,0,0,1.55.39.73.73,0,0,0-.03-1.23Z" transform="translate(5070.972 -1376.056)" fill="#3c3c3b"/>
    <path id="Path_12520" data-name="Path 12520" d="M620.26,30.74a.72.72,0,1,0,.635.715.72.72,0,0,0-.635-.715Z" transform="translate(5070.972 -1376.056)" fill="#3c3c3b"/>
    <path id="Path_12521" data-name="Path 12521" d="M628.15,79.87a.41.41,0,0,0-.76.21c.23,3.59-11.71,3.88-16.53,3.37a6.34,6.34,0,0,1-3.12-4.28,26.666,26.666,0,0,1,.12-3.79c.06-2.53.17-5.06,0-7.59a.35.35,0,0,0-.69,0c-.31,2.52-.36,5-.44,7.59-.06,1.82-.43,4,0,5.8.52,2.31,2.23,3.31,4.53,3.28a.36.36,0,0,0,.23-.08C617.49,85.41,631.1,85,628.15,79.87Z" transform="translate(5070.972 -1376.056)" fill="#3c3c3b"/>
  </g>
</svg>
