<svg xmlns="http://www.w3.org/2000/svg" width="77.313" height="112.886" viewBox="0 0 77.313 112.886">
  <g id="Vegetables" transform="translate(-4793.117 669.802)">
    <path id="Path_12421" data-name="Path 12421" d="M735.63,583.9c.33-9.44-1.67-16.58-8.22-17.21,1.93-8.7,5.34-16.87,8.5-25.16,1.85-4.83,7.22-14.35,2.92-19.33-2.77-3.2-7.65-2-10.56.34-5.38,4.29-5.74,11.66-5.11,18a32.5,32.5,0,0,0-3.5-7.55c-1.69-2.63-8.21-8-11.28-5.51-5.07,1.87-1,10,.94,13,2.37,3.69,5.43,6.89,7.79,10.59,3.12,4.9,4.82,10.26,6.22,15.85a.426.426,0,0,0,0,.07c-11.61,2.68-12.94,17.57-12.61,27.15.48,13.71,4.5,27.62,12.61,38.78a.38.38,0,0,0,.44.15.67.67,0,0,0,.94-.41c.62-2.06,2.33-7.28,4.23-13.93a.59.59,0,0,0,.26-.92,215.248,215.248,0,0,0,5-21.65.48.48,0,0,0,.08-.45,94.344,94.344,0,0,0,1.21-10.33.64.64,0,0,0,.52-1.09A1.174,1.174,0,0,0,735.63,583.9Zm-11.74-42.28c.2-6.29-.18-13.71,5.32-18,2.61-2,3.29-1.9,6.25-.35a11.26,11.26,0,0,1,2.86,7.13.542.542,0,0,0,0,.1,54.045,54.045,0,0,1-2.29,7.36c-3,8.42-6.75,16.55-8.9,25.23,1.63-10.68,4.38-21.05,6.29-31.68a.233.233,0,1,0-.45-.12c-4.43,11-6.17,23.47-7.56,35.2a.517.517,0,0,0,0,.18h-.14a.421.421,0,0,0,0-.16c.6-7.67.49-16.68-1.8-24.62a.28.28,0,0,0,.42-.27Zm-6.53,7.3C715,545.48,704,534.1,708,529.18c3.24-3.61,9.16,2.32,10.89,5.12a33.5,33.5,0,0,1,3.63,9.65,60.6,60.6,0,0,1,1.45,10.13,31.57,31.57,0,0,0-10.46-17.64.255.255,0,1,0-.36.36c7,7.45,10.85,16.41,10.55,26.54a38.8,38.8,0,0,0-6.34-14.42Zm1.43,33.19c.07.35.55.23.58-.07.08-1,8.31,0,8.5,0a14.789,14.789,0,0,1,6.48,2.43,63.836,63.836,0,0,1-1.17,10c-2.47-1.74-6.66-2-9.24-1.26a.27.27,0,0,0,.07.53,16.29,16.29,0,0,1,5.39.41,23.552,23.552,0,0,1,3.52,1.64c-.17.85-.35,1.7-.53,2.54q-.89,4-1.88,8c-3.24-3.11-9-2.59-13.06-2.1-.38.05-.41.63,0,.62a30.676,30.676,0,0,1,7.66.31,14.511,14.511,0,0,1,5.08,2.49q-1.1,4.42-2.3,8.84a9.53,9.53,0,0,0-8.27-1.68c-.46.12-.26.8.2.71a9,9,0,0,1,7.75,2.13q-1.91,7-4,14c-5.43-9.59-9.4-19.76-10.75-30.77-1.24-10.09-2.11-26,8.51-31.54,5.76-3,9.39-.06,11.3,4.3a11.75,11.75,0,0,0-8-1.69c-.31,0-.24.59.08.57a11.6,11.6,0,0,1,8.37,2.76.581.581,0,0,0,.25.12,21.932,21.932,0,0,1,1,5.15c.06.79.08,1.58.09,2.37a17.471,17.471,0,0,0-6.75-2.1c-2.32-.32-6.71-1-8.73.54a.36.36,0,0,0-.16.38Z" transform="translate(4129.972 -1190.056)" fill="#3c3c3b"/>
    <path id="Path_12422" data-name="Path 12422" d="M101.43,53.49a12.48,12.48,0,0,0,3.86-7.15c.29-3-2.4-3.46-4.75-3.07a.38.38,0,0,0-.59.21,28.071,28.071,0,0,0-.5,4.43,32.311,32.311,0,0,1-.79,3.74c-4.47-1-6.68-6.53-11.68-6.2a.7.7,0,0,0-.49,1.17c1.59,2,.39,4.77,2.33,6.71a5.35,5.35,0,0,0,1.47,1c-2.36,1.19-4.33,3.76-7.21,3.33-.68-.1-1.29.67-.71,1.23a11.85,11.85,0,0,0,2.28,1.74c-9.39,9.18-15.74,22.41-16.49,35.58-.64,11.32,7.12,21.58,18.83,22.28,13.5.81,19.55-10.29,17.6-22.49a31.22,31.22,0,0,0-2.76-8.62c-2.62-5.47-4.41-8.92-1.69-14.73,1.92-4.1,4.19-8.38,1.68-12.46,1.43.56,3.07.85,4.21,1.85a.66.66,0,0,0,1.12-.46A8.22,8.22,0,0,0,101.43,53.49ZM96.82,76.67c-.7,3.82,1.08,6.84,2.69,10.13,5.76,11.75,5.49,30.23-11.75,30a18.2,18.2,0,0,1-14.43-7.64c-4.06-5.65-3.94-12.42-2.61-19,2.22-11,7.74-20.59,15.11-28.93a7.44,7.44,0,0,0,4.88.43,7,7,0,0,0,4.06-3c-.07,2.14,1.24,4.42.37,6.54-.26.63.54,1,1,.78a7.92,7.92,0,0,0,4.15-5.16C103.56,66.36,97.82,71.28,96.82,76.67ZM100.11,58a3.85,3.85,0,0,0-.53-.91.45.45,0,0,0-.76.32c0,1.45.35,2.68-.17,4.11A5.53,5.53,0,0,1,96.77,64c0-2.43-1.66-4.81-.76-7.21.14-.35-.38-.51-.57-.24h0a.43.43,0,0,0-.79-.18c-1.16,1.76-2.07,3.42-4.28,4a6.68,6.68,0,0,1-5.54-1.32c2.84-.55,5.08-3.1,7.83-4.23a4,4,0,0,0,1.11-.21c.57-.2.52-1.15-.15-1.12-3.15.15-4.6-1.45-5-4.47a9,9,0,0,0-.45-2.15c4,.67,6.13,5.75,10.38,5.78a.47.47,0,0,0,.76,0,.43.43,0,0,0,.3-.69c.87-2.25,1.74-5.36,1.26-7.75,1.44-.06,3-.06,3,2.23a6.65,6.65,0,0,1-1,2.55,11.71,11.71,0,0,1-3,4,.58.58,0,0,0,.07,1,.55.55,0,0,0,.45.55,7,7,0,0,1,5.34,5.85C103.89,59.51,101.54,59.47,100.11,58Z" transform="matrix(0.974, 0.225, -0.225, 0.974, 4753.404, -704.698)" fill="#3c3c3b"/>
  </g>
</svg>
