<svg xmlns="http://www.w3.org/2000/svg" width="50.413" height="90.247" viewBox="0 0 50.413 90.247">
  <path id="milk" d="M336.42,663.48h0a.55.55,0,0,0,0-.69,16.49,16.49,0,0,0-7.06-6.32c-.05-2.89-.42-5.81-.62-8.69.56-.26.48-1.25-.25-1.22-11.87.49-23.87.15-35.71,1a.29.29,0,0,0-.32-.07,1.427,1.427,0,0,0-.21.12h-.06a4.4,4.4,0,0,0-1.08,1.15c-.45.61-.91,1.21-1.32,1.85v.07a.48.48,0,0,0-.14.48,34,34,0,0,0,1.64,4.56c.42,1,.69,2.36,1.71,2.88a.15.15,0,0,0,.21-.09c.42-1.14-.42-2.54-.84-3.62,3.34-.29,7.74-.72,8.94,3.06-2.51.09-5,.18-7.54.29a.43.43,0,0,0-.44.42.42.42,0,0,0-.55.34c-.85,4.55-2.11,9-3.11,13.56v.05a.44.44,0,0,0-.18.31c-2.22,20.53-.9,41.94-.16,62.53a.79.79,0,0,0,.23.54.61.61,0,0,0,.59.5c12.49.74,25.2,0,37.7-.38h.06a.54.54,0,0,0,.82-.17,132.439,132.439,0,0,0,9.12-16.65.78.78,0,0,0-.18-.91A241.5,241.5,0,0,0,336.42,663.48Zm-1.73-.86.2.24a.72.72,0,0,0-.6.23,72.478,72.478,0,0,0-4.93,5.56l.36-1.11c.31-.95,2.08-4.78,1.42-5.47a.37.37,0,0,0,.59-.14.531.531,0,0,0,.11-.21c.42.13.84.27,1.25.43a4.259,4.259,0,0,0,1.6.47Zm-1.17-1.39h-.16a13.061,13.061,0,0,0-1.77-.29,15.893,15.893,0,0,0-1-1.61c-.43-.65-.87-1.29-1.32-1.93a26.929,26.929,0,0,1,4.25,3.83Zm-4.43-2.6c.21.38.4.77.62,1.15a12.719,12.719,0,0,0,1,1.78c-.72.53-.94,1.81-1.22,2.57-.45,1.2-.95,2.41-1.41,3.64A55.849,55.849,0,0,0,329.09,658.63Zm-.7-2.15c-.36-1.11-.76-2.2-1.11-3.32s-.57-2.37-1-3.49h0a19.109,19.109,0,0,1,1.46-1.24A49.325,49.325,0,0,0,328.39,656.48Zm-36.47-7a5.339,5.339,0,0,0,.91-1.25c11.22.94,22.85.26,34.11-.35a10.913,10.913,0,0,0-1.15,1.29.44.44,0,0,0-.49.21c-11.29.15-22.87.06-34.14,1Zm-.07,4.07c-.32-.8-.66-1.6-1.05-2.36,11.34.84,23.23.23,34.55-.55a18.571,18.571,0,0,0,2.24,6.07c-8.41.65-16.81.88-25.22,1.15-.55-4.79-6.67-5.16-10.52-4.28Zm1.88,5.67a.659.659,0,0,0,0-.14h0c3.18.21,6.39.3,9.61.31a2.23,2.23,0,0,1-2.7,2.07,7.648,7.648,0,0,0-2.13-.28,3.481,3.481,0,0,0-1.46.7c-.6.46-2.95,3.9-4.13,2.13.32-1.54.58-3.14.81-4.76Zm-1,6a2,2,0,0,0,1.39.46c2.61-.07,2.83-3.3,5.87-3,1.36.12,2.49.77,3.61-.4a3.6,3.6,0,0,0,.83-2.8c7.83,0,15.71-.53,23.45-1.18h0c-.33,2.07-.58,4.16-.81,6.25-3.25-2.35-8.09-2.59-10.2,1.34-1.29,2.4-2.35,3.35-5.18,3.43a11.238,11.238,0,0,0-3.66.3,3.59,3.59,0,0,0-2.58,3.14c-4.87,0-9.75-.12-14.69-.37h-.09a47.192,47.192,0,0,0,2.03-7.19ZM326.26,672c-6.53.48-12.95.72-19.39.75,1.17-1,4.38-1.67,5.47-1.81a8.722,8.722,0,0,0,1.25-.06,5.27,5.27,0,0,0,3-1.26c.87-.8,1-2,1.66-2.9,2.06-3.11,5.72-2.6,8.64-.91C326.69,667.83,326.49,669.9,326.26,672Zm.29,17.6c-4.61-.76-4.25-7.12-7.81-9.34-3.94-2.47-10,.9-10.92-5.38,6.1-.11,12.22-.68,18.16-1.14.25,5.26.43,10.52.57,15.81Zm-16.2,44.89a.75.75,0,0,0-.22.3c-6.4,0-12.8.11-19.18.43q-.45-12.46-.58-24.95c1.75-3,5-5.32,8.63-4.5,4.57,1,5.25,5.35,4.26,9.19-.47,1.84-2.38,6.42.58,7.08a9.34,9.34,0,0,0,3.61,1.9c2.48.87,4.6,2,5.17,4.77a5.9,5.9,0,0,1-2.27,5.73Zm2.06.29a7.22,7.22,0,0,0,1.3-7.94,7.51,7.51,0,0,0-2.45-2.94c-2-1.44-4.82-1.38-6.75-2.84h-.06c-1.93-1.07,1.11-7.81.92-10a7.73,7.73,0,0,0-4.43-6.26c-4.29-2-8.33.13-10.58,3.6v-4.16c0-10.27.55-20.61.07-30.87a.42.42,0,0,0,.2.1,73.069,73.069,0,0,0,16.29,1.44c-.56,4.26,3.57,5.61,7.24,5.87,3.45.25,5.22,1.67,6.54,4.84a13.63,13.63,0,0,0,1.6,3.33c1.16,1.51,2.58,2.29,4.33,1.92.39,14.57.51,29.14.92,43.71-5.06.08-10.1.11-15.14.15Zm24.09-16.21c-.69,1.09-1.37,2.21-2,3.35h0c-1-.27-2.17-1.82-2.71-2.7-1.46-2.39-.62-4.12,1.15-6,.94-1,1.35-.48,2.06-1.93,1.08-2.2-2.48-10.38,1.4-10.5a.511.511,0,0,0,.22-.05c-.09,5.88-.21,11.83-.12,17.78Zm.09-19h-.07c-2-.28-3.33.4-3.91,2.44a6.57,6.57,0,0,0,.18,3.35c.48,2,.83,2.07.06,4.43-1.19,3.63-.63,1.06-1.92,2.86-2.21,3.08-1.42,9.45,3.08,10.11-1.89,3.34-3.65,6.83-5.26,10.3.72-20-.19-40.13-1.3-60.07,2.71-2.71,5.25-5.62,7.74-8.53.38,8.93,1.17,17.83,1.36,26.77.06,2.77.06,5.5.04,8.29Z" transform="translate(-288.261 -646.559)" fill="#3c3c3b"/>
</svg>
