<svg xmlns="http://www.w3.org/2000/svg" width="86.302" height="88.894" viewBox="0 0 86.302 88.894">
  <g id="cheese" transform="translate(-4813.109 835.186)">
    <path id="Path_12411" data-name="Path 12411" d="M568.7,435.848c-1.355-11.36-2.163-22.732-2.543-34.116a.545.545,0,0,0-.059-.25.761.761,0,0,0,0-.452,31.491,31.491,0,0,0-10.338-12.941.606.606,0,0,0-.594-.178,13.751,13.751,0,0,1-3.327.654,17.825,17.825,0,0,0-.737-6.476.3.3,0,0,0-.535-.1.547.547,0,0,0,0-.4c-1.01-2.151-3.565-3.91-5.3-5.407a19.785,19.785,0,0,0-4.979-3.565.867.867,0,0,0-1.4-.559c-18.668,15.068-37.633,30.349-55.256,46.652a.524.524,0,0,0-.1.131.724.724,0,0,0-.1.3,1.079,1.079,0,0,1,0,.2.428.428,0,0,0,0,.784,131.661,131.661,0,0,0-.166,14.842.82.82,0,0,0,1.438.523c2.888,2.472,5.942,5.644,3.969,9.673a.63.63,0,0,0,0,.143,14.5,14.5,0,0,1-2.567-.333.4.4,0,0,0-.7,0,.642.642,0,0,0-.3,1.069l.107.083a65.3,65.3,0,0,0-.238,13.071.772.772,0,0,0,1.034.7.511.511,0,0,0,.464.856,320.853,320.853,0,0,0,38.109-8.318.666.666,0,0,0,.475-.44.582.582,0,0,0,.392-.535,8.175,8.175,0,0,1,1.984-5.371,19.248,19.248,0,0,1,5.573.772,31,31,0,0,1,5.549,2.947.594.594,0,0,0,.844-.44.451.451,0,0,0,.261.059c2.448-.131,5.478,0,7.819-.8.558-.178,1.034-.143,1.378-.713.535-.856-.25-1.806-.273-2.686a3.922,3.922,0,0,1,.654-2.27,5.8,5.8,0,0,1,3.375.7c1.188.642,1.592,1.723,2.543,2.531a.642.642,0,0,0,.8,0,.582.582,0,0,0,.558.131c2.721-.642,10.695-.915,12.441-3.387C570.064,440.946,568.947,437.892,568.7,435.848Zm-18.407-53.034a.629.629,0,0,0,.154-.155,43.41,43.41,0,0,1,.3,5.692,2.936,2.936,0,0,1-1.188-.832,3.256,3.256,0,0,1,.737-4.706Zm-64.715,52.344a5.276,5.276,0,0,1,7.676,4.266,4.955,4.955,0,0,1-2.234,5.145,5.313,5.313,0,0,1-1.117.5c1.628-3.838-1.378-7.427-4.325-9.91Zm42.553,9.97a5.811,5.811,0,0,1,3.268-1.283c2.971-.214,5.015,1.521,6.476,3.791a12.928,12.928,0,0,0-9.744-2.507Zm24.847-2.876a6.072,6.072,0,0,0-2.686-.57,3.339,3.339,0,0,1,2.377-.357,4,4,0,0,1,2.7,2.709,6.9,6.9,0,0,0-2.448-1.782Zm13-.808a5.775,5.775,0,0,1-3.565,1.664,55.586,55.586,0,0,1-5.395,1.592,5.228,5.228,0,0,0-7.783-4.444,5.727,5.727,0,0,0-2.59,4.456c0,.487.1.963.083,1.438a2.557,2.557,0,0,0,0,.487,1.189,1.189,0,0,0-.309.107c-1.6.8-4.432.82-6.417,1.129-.867-4.04-5.7-6.631-9.625-5.763a8.318,8.318,0,0,0-6.334,8.77h0c-12.7,2.258-25.5,5.49-38.025,8.829H485.9a.749.749,0,0,0,.428-.654,64.986,64.986,0,0,0-.154-12.251,6.833,6.833,0,0,0,8.984-6.441,7.712,7.712,0,0,0-3.078-6.132,6.857,6.857,0,0,0-3.838-1.3,6.036,6.036,0,0,0-2.008.333,14.557,14.557,0,0,0-1.426.772,129.741,129.741,0,0,0-.19-13.927c12.465-.166,25.632-4.4,37.467-7.819,13.665-3.945,27.153-7.878,41.293-9.78,1.105-.154,1.188-1.877,0-1.794-13.25.939-25.988,4.991-38.643,8.758-6.381,1.889-12.786,3.731-19.262,5.276-6.845,1.628-14,2.377-20.783,4.171,18.87-14.26,37.015-30,54.9-45.512a36.838,36.838,0,0,0,4.634,4.112c1.6,1.426,3.149,3.422,5.015,4.539a4.408,4.408,0,0,0-1.26,6.274c1.485,2.115,5.549,2.888,7.427.856a40.187,40.187,0,0,1,9.031,12.287.507.507,0,0,0,0,.143c.261,8.377.8,16.731,1.545,25.073.321,3.494,1.58,7.9,1.188,11.36.832,1.7.428,2.888-1.248,3.387Z" transform="translate(4329.972 -1207.056)" fill="#3c3c3b"/>
    <path id="Path_12412" data-name="Path 12412" d="M511.735,428.464c-.25-2.7-2.852-5.371-5.609-4.931a.261.261,0,0,0-.321-.131c-3.2.986-6.12,3.66-6.025,7.225a5.407,5.407,0,0,0,5.942,5.5,7.284,7.284,0,0,0,6.013-7.664Zm-1.687,1.462a6.049,6.049,0,0,1-2.187,3.565,5.823,5.823,0,0,0-.4-5.264c-1.367-1.925-4.6-2.6-5.549,0-.071.2.238.321.345.143,1.462-2.507,4.337-.154,4.67,1.818a3.886,3.886,0,0,1-.214,2.08,12.473,12.473,0,0,0-.82,1.58.558.558,0,0,0,.131.511,3.767,3.767,0,0,1-1.854,0c-2.484-.642-3.256-3.505-2.484-5.739a8.437,8.437,0,0,1,3.422-4,.558.558,0,0,0,.356.19C508.241,425.054,510.665,426.765,510.047,429.926Z" transform="translate(4333.105 -1197.355)" fill="#3c3c3b"/>
    <path id="Path_12413" data-name="Path 12413" d="M534.225,412.734c-.9-2.686-4.3-4.955-7.13-3.838a.642.642,0,0,0-.38.547,6.726,6.726,0,0,0-3.042,7.688,5.3,5.3,0,0,0,7.011,2.769,5.941,5.941,0,0,0,3.541-7.165Zm-9.1,4.385a5.015,5.015,0,0,1-.226-3.47.44.44,0,0,0,.606-.1,2.983,2.983,0,0,1,4.4-.368,3.565,3.565,0,0,1,.927,2.555,18.39,18.39,0,0,1-.535,2.555s0,.1,0,.143c-1.735.808-4.219.594-5.169-1.319Zm7.13-.333a6.185,6.185,0,0,0,.083-1.664,4.6,4.6,0,0,0-1.806-3.363,3.9,3.9,0,0,0-5.062.464,6.131,6.131,0,0,1,1.854-2.2c2.056,0,3.957.416,5.11,2.377a4.076,4.076,0,0,1-.214,4.385Z" transform="translate(4337.554 -1200.138)" fill="#3c3c3b"/>
    <path id="Path_12414" data-name="Path 12414" d="M537.975,415.544c-2.175-.891-3.684,1.925-3.945,3.779a3.921,3.921,0,0,0,4.016,4.622,4.611,4.611,0,0,0,4.195-4.872C542.134,417.065,540.15,414.581,537.975,415.544Zm.131.808h.131a2.9,2.9,0,0,1,2.543,3.09,4.493,4.493,0,0,0-1.188-1.889,3.078,3.078,0,0,0-3.482-.392,1.664,1.664,0,0,1,2-.808Zm.487,6.06c-2.9.808-3.565-2-3.006-4.088a.321.321,0,0,0,.178-.059,2.377,2.377,0,0,1,3.363.713,3.733,3.733,0,0,1,.511,1.7c0,.38,0,.8,0,1.188A2.7,2.7,0,0,1,538.593,422.412Z" transform="translate(4339.543 -1198.872)" fill="#3c3c3b"/>
    <path id="Path_12415" data-name="Path 12415" d="M550.1,404.2a3.411,3.411,0,0,0-3.41-2.888.392.392,0,0,0-.44-.19,3.826,3.826,0,0,0-3.1,4.123A3.565,3.565,0,0,0,550.1,404.2Zm-5.74.665a2.509,2.509,0,0,1,0-.737.178.178,0,0,0,.238-.166c0-.642,1.188-.333,1.438-.2a2.3,2.3,0,0,1,1.188,1.069,2.258,2.258,0,0,1,0,1.9l-.3.1a2.281,2.281,0,0,1-2.567-1.961Zm4.242.5a3.208,3.208,0,0,0-1.188-2.139,2.876,2.876,0,0,0-2.151-.511,3.908,3.908,0,0,1,.7-.558l.1.059a3.054,3.054,0,0,1,2.638,1.735,2.068,2.068,0,0,1-.1,1.414Z" transform="translate(4341.27 -1201.55)" fill="#3c3c3b"/>
    <path id="Path_12416" data-name="Path 12416" d="M534.1,389.587c-1.937-1.592-6.547-1.735-7.13,1.271a5.288,5.288,0,0,0-.3,6.845c2.008,2.5,6.013,2.305,8.164.1a5.763,5.763,0,0,0-.737-8.211Zm-6.4,7.225a3.9,3.9,0,0,1-.855-1.854c.131,0,.261,0,.249-.214a2.376,2.376,0,0,1,1.188-2.377,2.151,2.151,0,0,1,2.7.9,8.445,8.445,0,0,1,1.188,2.127,2.222,2.222,0,0,1,.214,1.319c-.1.321-.261.44-.3.784a.415.415,0,0,0,0,.214,3.981,3.981,0,0,1-4.385-.9Zm5.941,0a4.564,4.564,0,0,0-.594-2.5,6.167,6.167,0,0,0-2.507-3.006,2.745,2.745,0,0,0-2.305,0c1.509-1.426,3.565-1.842,5.2-.083a4.123,4.123,0,0,1,.178,5.561Z" transform="translate(4337.96 -1203.929)" fill="#3c3c3b"/>
    <path id="Path_12417" data-name="Path 12417" d="M521.938,389.79c-.642-1.188-2.567-2.709-4.052-2.222a.321.321,0,0,0-.487,0c-1.188,1.616-2.02,3.91-.737,5.739a3.173,3.173,0,0,0,4.432.986,3.648,3.648,0,0,0,.844-4.5Zm-4.325-1.188c1,.392,1.913.285,2.745,1.188a2.792,2.792,0,0,1,.689,2.579,5.085,5.085,0,0,0-.178-.677,2.864,2.864,0,0,0-1.081-1.545,1.925,1.925,0,0,0-2.721.452,7.013,7.013,0,0,1,.523-2.032Zm-.3,3.636a3.079,3.079,0,0,1-.261-1.45c.071.178.309.3.452.119a1.307,1.307,0,0,1,2.032.2,2.8,2.8,0,0,1,.463,1.367,3.986,3.986,0,0,0,.1,1.058,2.187,2.187,0,0,1-2.8-1.331Z" transform="translate(4336.163 -1204.121)" fill="#3c3c3b"/>
    <path id="Path_12418" data-name="Path 12418" d="M511.946,400.749c-.285-1.9-2.377-3.791-4.373-3.042a.345.345,0,0,0-.143.119c-1.5-.226-2.377,1.806-2.46,3.173-.071,2.163,1.45,4.456,3.838,4.171a3.376,3.376,0,0,0,1.735-.784.44.44,0,0,0,.737,0,3.2,3.2,0,0,0,.238-1.188A3.981,3.981,0,0,0,511.946,400.749Zm-5.633,1.343c-.321-1.046-.143-3.909,1.569-3.565a.214.214,0,0,0,.214-.071,3.3,3.3,0,0,1,2.377,1.675,2.158,2.158,0,0,1,.154.44,3.066,3.066,0,0,0-1.188-1.046,2.222,2.222,0,0,0-3.244,1.984.285.285,0,1,0,.57,0c.1-1.759,2.27-1.367,3.006-.333a2.936,2.936,0,0,1,.487,1.6,2.865,2.865,0,0,1-.523.606,2.115,2.115,0,0,1-3.422-1.3Z" transform="translate(4334.083 -1202.222)" fill="#3c3c3b"/>
    <path id="Path_12419" data-name="Path 12419" d="M515.681,414.935c-1.058-1.45-3.482-1.973-4.753-.7-2.127-.143-3.03,4.4-2.484,5.858a4.076,4.076,0,0,0,5.87,1.806,4.979,4.979,0,0,0,1.367-6.963Zm-5.811,5.228a3.232,3.232,0,0,1-.3-2.876h0a1.961,1.961,0,0,1,3.565-.547c1.01,1.319.357,2.674.214,4.123v.059a2.864,2.864,0,0,1-3.482-.761Zm5.062-1.046a4.218,4.218,0,0,0-2.02-3.993,2.5,2.5,0,0,0-1-.261,2.2,2.2,0,0,1,2.971,1.188,3.886,3.886,0,0,1,.048,3.066Z" transform="translate(4334.708 -1199.214)" fill="#3c3c3b"/>
  </g>
</svg>
