<svg xmlns="http://www.w3.org/2000/svg" width="90.517" height="92.375" viewBox="0 0 90.517 92.375">
  <g id="Fruits" transform="translate(-4660.191 794.464)">
    <path id="Path_12423" data-name="Path 12423" d="M468,314.94q-.337-.205-.68-.4c-12.69-4.3-26.82-.88-39.25-6.43a25.28,25.28,0,0,1-14-15.76c-2.22-7.43,0-13.74,2.75-20.53a.64.64,0,0,0,.24-.65.29.29,0,0,0-.26-.33h0l-.2-.07a4.26,4.26,0,0,0-2.93-2.27c-1-.24-2.75-.27-3.28.75a.51.51,0,0,0-.31.3c-3.34,10.06-11.56,17.56-12.36,28.53s5.08,18.65,13.92,24.28c8.47,5.39,18.79,6.95,28.67,6.83,8.6-.11,19-.68,25.45-7.05a.35.35,0,0,0,.47-.14.52.52,0,0,0,.35-.18,7.65,7.65,0,0,0,1.42-6.88Zm-56.4-45.29a4,4,0,0,1,1.68.07,3,3,0,0,1,1.21.63,4.536,4.536,0,0,1-.91-.13c-.74-.15-1.48-.36-2.22-.52Zm27,57.91c-9.41-.08-19-1.82-26.93-7.14-4.91-3.28-9.69-7.56-11.47-13.37a26,26,0,0,1,.55-15.86c2.49-7.2,9-12.84,10.08-20.5a11,11,0,0,0,2.58.93,10.279,10.279,0,0,0,2.1.41c-7.81,10.06-3.68,26.16,5.61,33.78,12.14,9.95,30.44,7.14,45,9.9a4,4,0,0,0-.65,1.08c-12.82,2.65-25.79,2.09-38-2.84-6-2.41-12.61-5.85-16.9-10.76-5.91-6.78-3.66-15.26-.95-22.85.08-.22-.26-.37-.38-.16-3.28,6-5.29,13.5-2.23,20,2.78,5.9,9.17,9.75,14.74,12.62a62.87,62.87,0,0,0,43.4,5.39,7.17,7.17,0,0,0,.11,2.62c-7.4,6.24-17.43,6.83-26.68,6.75Zm27.4-7.22a5.629,5.629,0,0,1,.24-2,5.34,5.34,0,0,1,.83-1.55,10.448,10.448,0,0,1-1.07,3.55Z" transform="matrix(0.545, 0.839, -0.839, 0.545, 4719.705, -1274.119)" fill="#3c3c3b"/>
    <path id="Path_12424" data-name="Path 12424" d="M179.08,233.29c-1.45-2-3.87-3.81-6.47-3.55a4.11,4.11,0,0,0-3.19,2,6.261,6.261,0,0,0-.52-1.16,5.18,5.18,0,0,0-5.43-2.58,6.66,6.66,0,0,0-4.5,3.95,34.37,34.37,0,0,1,2-23.84c.44-1-.89-1.82-1.46-.86A28.46,28.46,0,0,0,157,230.08a5.26,5.26,0,0,0-4.19-2.19c-3.31,0-4.77,2.69-5,5.57a6.93,6.93,0,0,0-6.21-4.06c-4.57,0-7,5-5.36,8.89a.42.42,0,0,0,.19.22,6.06,6.06,0,0,0-5.25,3.92c-1.73,4.5,2.52,7.28,6.46,7.55-.09.14-.2.27-.29.42a5,5,0,0,0,.43,5.93c1.53,1.68,3.78,2.13,6,2.18a1.49,1.49,0,0,0-.08.13c-1.71,3.48.95,7.18,4.31,8.19a4.43,4.43,0,0,0-.89,1.82c-.95,4.18,3.83,7,7.69,6.78-3,2.86-3.17,8.67,1.55,10.55,5.75,2.29,7.93-5.31,5.64-9.74,2.5.2,4.6-2.54,5.43-4.68a6.32,6.32,0,0,0,.33-3.31h0c4.27-1.49,7.62-6.87,4-10.73,4-.45,7.88-6,6-9.74a4.9,4.9,0,0,0-3.36-2.65c1.27-3-.69-7.7-3.76-8.64a4.831,4.831,0,0,0-1.29-.21,8.529,8.529,0,0,0,.35-2.83c1.5-4.39,6.8-1.19,8.36,1.39,1.87,3.08.86,6.4-2.78,7.2a.67.67,0,0,0,0,1.28,4.73,4.73,0,0,0,4.94-3C181.32,237.94,180.53,235.28,179.08,233.29Zm-14.81-3.82c3.86-.12,4.23,4.19,3.52,7a7,7,0,0,0-4.62,4.51,5.65,5.65,0,0,0-4.45-3.56v-.06h0c.38.14.54-.41.26-.61-.12-.08-.15-.26-.15-.49v-.12a8.781,8.781,0,0,1,.59-2,.42.42,0,0,0,.08-.18c.33-.82.68-1.53.77-1.69a5.1,5.1,0,0,1,4-2.8Zm-10,13a5.408,5.408,0,0,1,.21-.79c.67-1.83,2.39-3.28,4.43-2.74,3.66,1,3.74,5,4,8.09-1.92.51-3.23,2.26-4,4.24a7.63,7.63,0,0,0-4.31-4.58,10.17,10.17,0,0,1-.44-3.66.53.53,0,0,0,.12-.46Zm3.6,12.6a6.593,6.593,0,0,0-.77,0,4.72,4.72,0,0,0-3.6,2.29,8,8,0,0,0-3.08-1.36,8.09,8.09,0,0,1-1.53-4.4,3.71,3.71,0,0,1,3.78-3.86c4.05.17,5.33,4.01,5.25,7.34Zm-.49,1.31c2.16-.09,3.88,1.74,4.44,3.67a13.42,13.42,0,0,1,0,4.77,5.63,5.63,0,0,0-2.48,1.72,5.91,5.91,0,0,0-1,1.78,8.71,8.71,0,0,0-3.67-2.94c-.91-3.19-1.85-8.79,2.76-8.99Zm1.68-1.11a6.121,6.121,0,0,0,.24-1.41c.72-2.69,2-5.89,5.3-5.47,3.58.47,3.77,4.55,3.27,7.24v.09a5.48,5.48,0,0,0-5.18,3.22,5.88,5.88,0,0,0-3.58-3.66Zm-9.93-22.8c.54-1.84,2.19-3.55,4.29-3.09,3.8.84,3.63,5,4.11,8a4.47,4.47,0,0,0-4.06,3.28,6.55,6.55,0,0,0-4.51-2.87.29.29,0,0,0,.14-.29,13.4,13.4,0,0,1,.08-5.02Zm4,10.1a10,10,0,0,0,.47,3.83,5.47,5.47,0,0,0-1.67-.07,4.71,4.71,0,0,0-3.74,2.65,5.3,5.3,0,0,0-3.29-1.86c-2.11-2.47-2.09-6.18,1.31-7.63,3.02-1.27,5.55.51,6.95,3.09Zm-10-11.57c3.07.92,4.15,3.91,4.75,6.74a6.08,6.08,0,0,0-3,.92,5.6,5.6,0,0,0-1.74,1.72h0a9.58,9.58,0,0,0-6.1-1.89.39.39,0,0,0,.13-.41c-.86-3.71,1.54-8.38,5.94-7.08Zm-10.35,11.4c2.11-3.84,6.64-2.67,9.69-1h.09a5.3,5.3,0,0,0,.86,5.59A8,8,0,0,0,138.6,249C135.23,248.58,130.48,246.56,132.78,242.4ZM140,256.34a3.74,3.74,0,0,1-1-5.66c2.25-3,5.74-2.25,8.64-.91a.5.5,0,0,0,.27,0,4.584,4.584,0,0,0-.14.53,6.87,6.87,0,0,0,1.5,5.5,5.74,5.74,0,0,0-4.81,1.75A10.61,10.61,0,0,1,140,256.34Zm4.7,3.55c1-3.66,5.92-3.22,8.34-1.44a1,1,0,0,0-.06.16,8.36,8.36,0,0,0,.66,6.42,6.539,6.539,0,0,0-1.6-.16,5.38,5.38,0,0,0-3.33,1.3c-2.4-1.3-4.91-3.17-4.05-6.28Zm3.87,9.85c-.1-2.61,2.48-3.83,4.78-3.49a5.89,5.89,0,0,1,1.06.29l.08.15a.38.38,0,0,0,.54.12,13.12,13.12,0,0,1,3.16,2.56h0a8,8,0,0,0,.52,4.42,5.5,5.5,0,0,0-1.76.33.42.42,0,0,0-.2,0c-2.98.11-8.05-.35-8.22-4.38Zm8.82,15.09c-2.49-.63-3.66-3.49-3.2-5.83a5.9,5.9,0,0,1,5-4.49.079.079,0,0,0,.06.07,6.51,6.51,0,0,1,2.48,5.25c-.04,2.49-1.22,5.79-4.38,5Zm4.61-9.71a.61.61,0,0,0-.44.31A5.27,5.27,0,0,0,160,274a.24.24,0,0,0-.16-.11h0a.5.5,0,0,0-.32,0c-.25-3.13-.26-8,4.12-8,5.46-.09,2.36,8.76-1.64,9.23Zm5.47-8.08a4.2,4.2,0,0,0-1.82-2,4.26,4.26,0,0,0-2.64-.45,8.44,8.44,0,0,0,.16-4.3c1.32-3.18,5.57-4.64,7.93-1.52,2.54,3.38-.52,6.89-3.67,8.23Zm9.21-17.81c.71,3.29-2.76,6.65-5.51,7.64h0a5.52,5.52,0,0,0-2-1,6.19,6.19,0,0,0-.57-6.52.74.74,0,0,0,.32-.25c1-1.4,2.31-2.67,4.16-2.66a3.79,3.79,0,0,1,3.56,2.79ZM171,238.3a5.66,5.66,0,0,1,2.12,3.51A9.75,9.75,0,0,1,173,245a6,6,0,0,0-5.25,3.45,5.19,5.19,0,0,0-2.54-1.44,5,5,0,0,0-1.06-.11,12.85,12.85,0,0,0-.37-4.14,6.44,6.44,0,0,1,4.13-4.9.66.66,0,0,0,1-.16,3.43,3.43,0,0,1,2.09.6Z" transform="translate(4569.972 -997.056)" fill="#3c3c3b"/>
  </g>
</svg>
