<svg xmlns="http://www.w3.org/2000/svg" width="97.531" height="94.157" viewBox="0 0 97.531 94.157">
  <path id="Pastries2" d="M333.918,281.623a.509.509,0,0,0,0-.056c1.557-7.505-4.272-15.886-10.595-19.457-1.464-.832-5.56-2.721-6.473-.131-.469,1.351.944,3.39,1.307,4.609a12.67,12.67,0,0,1-.344,9.238c-3.846-.538-5.416,2.8-6.648,6.1-3.8-1.914-6.636-.457-9.1,2.664-1.795-3.165-5.129-3.753-8.612-3.9a.425.425,0,0,0-.225.05.269.269,0,0,0-.3.138c-.532.869-1.044,1.751-1.551,2.633-2.02-2.9-4.741-4.234-7.949-3.815-.488-3.083-1.782-6.3-5.172-6.917-.225-.038-.45-.063-.682-.088a.506.506,0,0,0,0-.169,22.034,22.034,0,0,1,.407-9.413c.394-1.413,1.714-3.208,1.582-4.722-.225-2.621-3.3-2-5.041-1.457-7.28,2.245-11.4,9.588-12.083,16.806-6.223,2.733-1.589,14,1.876,17.587a.369.369,0,0,0,.582-.05c-3.227,6.88,8.337,14.385,14.279,15.917a8.262,8.262,0,0,0-.156,2.652c.463,3.965,4.622,6.617,7.918,8.131a22.515,22.515,0,0,0,11.952,1.876c3.409-.413,7.111-1.582,8.375-5.11a11.452,11.452,0,0,0,.625-3.452.469.469,0,0,0,.382.15,22.922,22.922,0,0,0,14.2-5.348c3.127-2.639,3.8-5.741,2.733-8.9h.044a20.289,20.289,0,0,0,8.131-9.281C334.193,286.051,334.906,283.5,333.918,281.623ZM319.94,269.677a20.388,20.388,0,0,0-1.082-4.422c-.113-.325-.913-1.789-.794-2.07l2.308-1.282a9.534,9.534,0,0,1,2.045.869c5.979,3.127,11.345,10.8,10.632,17.756l-.038-.031c-1.739-1.445-4.7-1.82-6.811-2.433-2.433-.707-4.953-1.62-7.461-2.089A10.213,10.213,0,0,0,319.94,269.677Zm-45.094-11.683c.888-.138,2.983,0,3.434.982a9.167,9.167,0,0,1-.732,1.739,22.326,22.326,0,0,0-1.157,4.2,22.071,22.071,0,0,0,.094,7.693c-1.983-.05-4.09.263-5.979.338a47.263,47.263,0,0,0-6.511.331,7.173,7.173,0,0,0-.8.188C264.551,267.525,267.9,259.088,274.846,257.994Zm-9.894,32.842c-2.746-5.129-8.963-16.211,1.551-16.643q4.572-.188,9.144-.338c2.258-.075,4.122.219,5.491,2.183a14.259,14.259,0,0,1,1.532,3.79,11.373,11.373,0,0,0-1.451.419c-5.147,1.845-10.9,4.928-14.767,8.862a7.878,7.878,0,0,0-1.464,2.02.382.382,0,0,0-.038-.294Zm3.346-1.876a46.284,46.284,0,0,1,9.719-6.092c2.339-1.138,4.935-2.47,7.6-2.133,2.308.288,3.834,1.876,5.448,3.377-2.458,4.322-4.71,8.756-7.042,13.134-1.376,2.6-3.659,5.785-4.6,9-6.161-2.327-19.489-10.188-11.127-17.3Zm38.3,23.7c-.707,5.448-6.58,6.5-11.22,6.254a21.358,21.358,0,0,1-10.495-3.3c-1.876-1.207-4.015-2.839-4.628-5.091-.682-2.5.663-5.054,1.783-7.23,3.753-7.236,7.837-14.316,11.258-21.721a.425.425,0,0,0,.206.063c1.876.119,4.122.163,5.779,1.213,2.239,1.42,2.808,4.253,3.484,6.63,1.063,3.753,1.951,7.549,2.639,11.377s1.689,7.987,1.195,11.789Zm18.181-12.509c-.3,2.927-2.339,4.772-4.609,6.373a22.2,22.2,0,0,1-11.883,3.884.513.513,0,0,0-.375.175c0-3.371-.944-7.049-1.476-9.969-.9-5-1.814-10.814-4.04-15.417,1.47-1.376,3.177-3.127,5.329-3.215,2.339-.075,4.741,1.876,6.4,3.3a61.584,61.584,0,0,1,7.336,7.768c1.52,1.845,3.59,4.466,3.321,7.061Zm.038-3.953a13.486,13.486,0,0,0-1.551-2.6c-3.021-4.072-6.98-8.869-11.527-11.389a15.389,15.389,0,0,1,2.22-3.552c2.652-2.689,4.422-1.651,7.205-.9s6.129,1.37,8.85,2.6C338.034,284.006,328.99,293.343,324.812,296.2Z" transform="matrix(-0.839, -0.545, 0.545, -0.839, 140.78, 450.498)" fill="#3c3c3b"/>
</svg>
