<svg xmlns="http://www.w3.org/2000/svg" width="82.625" height="78.266" viewBox="0 0 82.625 78.266">
  <path id="Fruits2" d="M718.24,129.45c-.14-.3-.29-.58-.45-.87a.69.69,0,0,0-.63-1c-3.51-5-10.88-7.1-16.68-6.61s-13.34,3.21-15.84,8.82q-.3-3.54-.44-7.15a.54.54,0,0,0,.09-.44c-.2-.79-1.23-1.13-1.95-1.27a4,4,0,0,0-2.43.35,1.758,1.758,0,0,1-.77.72c-1.47,6.26-7.22,10.46-11.36,15a102.257,102.257,0,0,0-9.33,11.82c-5.19,7.78-9.91,17.46-10.09,27.06a5.21,5.21,0,0,0-5-1.56c-3.36.62-5.8,3.48-6.91,6.56-3.11,8.58,3.49,17.37,12.37,17.84,8.59.46,17.54-7.78,15.77-16.73-1.13-5.71-8-9.65-12.52-6.44.17-5,3.32-10.74,5.39-15.11a88.465,88.465,0,0,1,7.43-12.87c4.55-6.49,11.74-11.75,15.32-18.89-.84,15.91,5.25,31.54,5.58,47.47a5.86,5.86,0,0,0-2.88-.65,7.88,7.88,0,0,0-6.28,4c-3.4,5.51-1.56,13,3.54,16.75a15.383,15.383,0,0,0,18.66-.54c4.56-3.93,6.42-11.35,3.13-16.59-.83-1.87-3.24-3.2-5-3.85a10.92,10.92,0,0,0-7.62.07c1.15-8,0-15.85-1.56-23.73-1.28-6.53-2.28-12.88-2.92-19.34a36.81,36.81,0,0,0,18.3,3.75c5.08-.27,11.45-1,14.09-5.94l.06.06A.589.589,0,0,0,718.24,129.45Zm-16-6.93c5.28.08,8.89,2.09,12.43,5.12-5.16.16-10.32.58-15.46.91-4.66.29-9.54.18-13.9,2,3.28-5.33,10.89-8.13,16.9-8.03Zm-41.45,55.62c2.89,2.87,2.7,7.39,1.1,10.8-2.71,5.77-9.3,9.42-15.64,7.68a11.751,11.751,0,0,1-8.39-14.58,10.08,10.08,0,0,1,2.67-4.38c3.18-2.8,6.23-.74,8.91,1.66a23.556,23.556,0,0,0,2.54,2.32c.34.24.7-.27.43-.56a18.483,18.483,0,0,1-1.59-2,.489.489,0,0,0,.14-.11c2.51-3.06,6.8-3.81,9.8-.83Zm36.74-.85c1.4.7,2.38,1.94,3.61,2.8,1.3,4.72,1.18,9.53-2.41,13.41-3.82,4.12-10.19,4.95-15.18,2.69-5.8-2.62-9.22-10.06-5.48-15.88,4.28-6.63,8.19-.29,12.9.26.36.05.49-.51.18-.67a20.567,20.567,0,0,1-3.12-2.24,10.33,10.33,0,0,1,9.47-.37Zm-12-30.63c1.85,9.63,3.59,19.17,3,29h0a10.39,10.39,0,0,0-1.39.76h0c.21-16.65-5.59-32.78-6.13-49.45h0a.4.4,0,0,0,0-.37,2.368,2.368,0,0,1,0-.26.3.3,0,0,0-.59,0v.07a.43.43,0,0,0-.25.19c-5.27,9-13.56,15.59-19,24.5a95.719,95.719,0,0,0-6.49,12.67c-1.6,3.77-4,8.24-3.29,12.43a7.915,7.915,0,0,0-1.33,1.72c-.28-.4-.56-.78-.86-1.14,2.33-11.4,5.89-21.36,12.94-30.87a129.227,129.227,0,0,1,11.43-13.09c3-3.14,5.88-6.09,6.66-10.54a.44.44,0,0,0,.16,0,3.29,3.29,0,0,1,1.89-.07,6.516,6.516,0,0,1,1,.49c-1.18,7.87.72,16.3,2.21,23.96Zm13.56-12.28a45.249,45.249,0,0,1-14.22-3c.07-.13.15-.25.22-.37a.32.32,0,0,0,.34.18c10-1.76,20.23-1.19,30.31-2-2.92,5.19-11.51,5.38-16.69,5.19Z" transform="translate(-635.669 -120.873)" fill="#3c3c3b"/>
</svg>
