<svg xmlns="http://www.w3.org/2000/svg" width="106.366" height="74.114" viewBox="0 0 106.366 74.114">
  <g id="Home_appliances" data-name="Home appliances" transform="translate(-12.53 -402.086)">
    <path id="Path_12176" data-name="Path 12176" d="M161.6,430.77a.81.81,0,0,0-.25-.58c.38-3.36.52-7.46-2.52-9.69-3.49-2.56-10-1.72-14-2q-19.36-1.26-38.78-1.39c-12.94-.08-25.89.17-38.8.89-3.1.17-6.2.15-8.29,2.77-1.8,2.26-1.84,5-1.42,7.66-1.29,9.85-.88,20.18-1.23,30.07-.19,5.34-.39,10.68-.57,16-.1,3.29-.82,6.73,1.4,9.38a.55.55,0,0,0,.4.22c1.65,2.45,5.92,1.88,8.61,1.93h1.49c-.25,1.2-.52,2.71.22,3.54,1,1.1,3.56.68,4.86.73l3.75.15a4.27,4.27,0,0,0,2-.07c1.35-.64.93-2.7.78-3.88a.61.61,0,0,0-.11-.29l10.59.16,47.12.74h2.38c-.13,1.7-.16,3.57,1.86,3.9,3.07.51,6.59-.07,9.64-.5a.75.75,0,0,0,.56-.74,15.832,15.832,0,0,0-.08-2.39,12.7,12.7,0,0,0,6.13-.72c3.4-1.63,4-5.54,4.21-8.93C162.31,462.24,161.66,446.36,161.6,430.77ZM77.8,486.36c-.06.45,0,2.41-.12,2.57a34.759,34.759,0,0,1-4.17-.14,13.715,13.715,0,0,1-3.74-.1c-1.05-.34-1.18-1.51-1.27-2.6l9.34.15A.769.769,0,0,0,77.8,486.36Zm55.06-1-36.32-.53-18.65-.26-9.82-.15c-2.92,0-8.35,1-10.17-1.95h0c-1.7-4-.41-9.74-.26-13.87q.24-7,.49-14c.32-9.23,1.41-18.83.61-28v-.13a6.71,6.71,0,0,1,1.06-3.62c2.05-2.55,4.49-2.71,7.48-2.9,4.63-.3,9.28-.43,13.92-.58q12.93-.39,25.87-.29t25.87.71c1.77.08,3.54.18,5.32.28-.28,10.79.7,21.7.82,32.5q.18,16.5-.37,33Zm16.84,3.85c-1.89.24-3.79.41-5.69.46a9.429,9.429,0,0,1-2.43,0c-1-.37-1.22-1.45-1.33-2.45l8.32.13,1.26.05a10.588,10.588,0,0,0-.13,1.77Zm1.82-3.59c-3.86,0-7.71-.08-11.56-.14.36-11.33.5-22.66.36-34-.13-10.42.05-21.14-1.31-31.49,2.59.15,5.18.3,7.76.48,1.93.13,4.06.11,6,.43,5.46.91,7.38,5,7,9.85a.65.65,0,0,0,.27.62c-.13,12.38-.06,24.77-.13,37.16-.11,6.76,1.48,17.1-8.39,17.05Z" transform="translate(-43.02 -15.01)" fill="#3c3c3b"/>
    <path id="Path_12177" data-name="Path 12177" d="M131.37,430.33a.45.45,0,0,0-.29-.45.71.71,0,0,0-.7-.62c-21.29-.87-43-1.51-64.33-.39a.48.48,0,0,0-.34.14.45.45,0,0,0-.53.41c-.79,7.52-.93,15.12-1.05,22.68s-.54,15.24.23,22.7a.56.56,0,0,0,1.12,0c.48-7.51,0-15.16.09-22.7.11-7.38.49-14.76.48-22.13,21.38.72,42.88.47,64.27.77-1.4,15.12-.89,30.64.29,45.77-10.76,0-21.51.22-32.27.25-5.15,0-10.29,0-15.43-.33-5.63-.32-11.69-1.94-17.29-1.43a.25.25,0,0,0-.06.49c4.38,1.74,9.78,1.88,14.46,2.24,5.77.44,11.57.52,17.35.5q16.72,0,33.45-.3a.72.72,0,0,0,.51-.23.6.6,0,0,0,.67-.7C131.05,461.43,131.28,446,131.37,430.33Z" transform="translate(-43.02 -15.01)" fill="#3c3c3b"/>
    <path id="Path_12178" data-name="Path 12178" d="M153.85,434.42a5.5,5.5,0,0,0-6.26-1.68c-1.49.6-3.48,2.42-3,4.16-.86,2.48,0,6,3.21,6a4.74,4.74,0,0,0,6-1.32,5.74,5.74,0,0,0,.05-7.16Zm-5.79.72a.47.47,0,0,0,.41.26c1.58.09,3,1,3,2.79a3.74,3.74,0,0,1-3.06,3.36c-3.95.61-3.69-6.04-.35-6.41Zm1.8,7.26a5,5,0,0,0,2.84-4.4c-.06-2.08-2.2-4.25-4.35-3.52a.68.68,0,0,0-.17.09,2.68,2.68,0,0,0-2.47.63,5.65,5.65,0,0,1,3.53-1.82,4.7,4.7,0,0,1,4.14,2.24c1.8,2.91-.44,6.83-3.52,6.78Z" transform="translate(-43.02 -15.01)" fill="#3c3c3b"/>
    <path id="Path_12179" data-name="Path 12179" d="M155.85,450.53c-1.93-5.12-9.67-4.32-9.79,1.14a4.22,4.22,0,0,0-.34,2.26,3.43,3.43,0,0,0,3.27,2.89,4.34,4.34,0,0,0,4.82.26,5.46,5.46,0,0,0,2.04-6.55Zm-2,5.29a3.06,3.06,0,0,1-3.1.7,5.06,5.06,0,0,0,2.79-5.13c-.19-1.65-2.41-4.13-4-2.35a.3.3,0,0,0,.22.51c.87,0,1.74,0,2.28.81a3.3,3.3,0,0,1,.32,2.27,3.53,3.53,0,0,1-2.68,3,2.45,2.45,0,0,1-.54,0l-.27-.19a.39.39,0,0,0-.54,0,2.34,2.34,0,0,1-1.48-2.52,6,6,0,0,1,2.53-3.9c.19-.14.09-.53-.18-.42a6.121,6.121,0,0,0-1.88,1.25,4.28,4.28,0,0,1,7.42.55,4.57,4.57,0,0,1-.9,5.42Z" transform="translate(-43.02 -15.01)" fill="#3c3c3b"/>
    <path id="Path_12180" data-name="Path 12180" d="M154.31,475.27c-2.77,0-5.58,0-8.34.21a.45.45,0,0,0-.1.88,15.271,15.271,0,0,0-.1,3.64.7.7,0,0,0,.69.69c2.61-.21,5.23-.31,7.85-.26a.67.67,0,0,0,.66-.66v-3.83a.68.68,0,0,0-.66-.67Zm-7.18,4v-2.83c2.17.14,4.37.17,6.55.17v2.49q-3.29-.04-6.55.18Z" transform="translate(-43.02 -15.01)" fill="#3c3c3b"/>
  </g>
</svg>
