<svg xmlns="http://www.w3.org/2000/svg" width="103.121" height="65.949" viewBox="0 0 103.121 65.949">
  <g id="meat" transform="translate(-5333.975 775.632)">
    <path id="Path_12407" data-name="Path 12407" d="M593.61,219.27c-5.72-4.05-14.26,1.79-11.36,8.3a70.347,70.347,0,0,0-10.65-2.09c-.37-3.53-2.84-7.62-4.07-10.12a72.329,72.329,0,0,0-14-19.41c-10.34-10.18-26-20-41-15.33-15.43,4.8-19.88,24.37-18.19,38.59,1.91,16,12.63,26.73,29,26.14,10.24-.37,20.65-2.65,30.4-5.67,5.78-1.79,12.7-3.84,16.19-9a108.4,108.4,0,0,0,10.83,2.69c-2.19,5,1.66,11.84,7.62,10.47s6-8.41,2.7-12.31a7.34,7.34,0,0,0,5.63-3.89C598,224.67,596.08,221,593.61,219.27Zm-90.86,16.15-.32-.39a11.321,11.321,0,0,1-1.26-1.94.31.31,0,0,0-.29-.19c-5.79-8.92-6.66-21.8-3.47-32.57,2.71-9.19,8.51-17.06,18.44-18.81a23.67,23.67,0,0,1,2.5-.3.61.61,0,0,0,.25.14c12,3.53,6.91,24.87,4.69,33.49a87.824,87.824,0,0,1-5.71,15.71c-1.16,2.44-2.52,5.46-4.93,6.91C509,239.69,505.19,238.23,502.75,235.42ZM569,228.91a.73.73,0,0,0-.2.73c-5.22,6.13-14.31,8.18-21.79,10.13-8.49,2.21-17.51,4.14-26.31,3.94a24.41,24.41,0,0,1-12.8-3.7,8.82,8.82,0,0,0,4.16-.57c6.56-2.56,9.32-13,11.28-19,2.77-8.5,4.76-18.12,4.22-27.12-.24-4-1.54-9.65-5.06-12.05,7.08.63,13.88,3.95,19.72,7.9a71,71,0,0,1,17.29,16.65,72,72,0,0,1,5.72,9.1C566.7,217.59,572,226,569,228.91Zm20.34.87a.7.7,0,0,0-.54,1.27,3.147,3.147,0,0,0,.56.26c2.39,3.15,4,8.85-1,10.59s-7.7-4.48-6-8.35a.85.85,0,0,0-.42-1.14.58.58,0,0,0-.29-.16,101,101,0,0,0-11.35-2.33l.06-.1a5,5,0,0,0,1.22-3.38c3.52.94,7.07,1.79,10.59,2.69a.72.72,0,0,0,.89-.5.43.43,0,0,0,.4-.56c-1.52-4.88,2.41-10.24,7.79-8.09a6.45,6.45,0,0,1,3.81,4.21c.94,3.31-2.5,6.12-5.68,5.59Z" transform="translate(4839.972 -955.056)" fill="#3c3c3b"/>
    <path id="Path_12408" data-name="Path 12408" d="M514.35,196.26a.27.27,0,0,0-.2,0l-.18.05a7.839,7.839,0,0,0-.8.09.52.52,0,0,0-.41.34c-4.5,1.93-6.16,7.07-6.84,11.74-.42,2.91-.91,11.68,4.45,10.61C518,217.55,524,196.05,514.35,196.26Zm1.87,13.83c-1.18,3.12-6.12,11.28-8.74,4.7-2.19-5.49,1.07-13.52,5.59-17.18a.5.5,0,0,0,.28.06C519.78,197.54,517.57,206.5,516.22,210.09Z" transform="translate(4839.972 -955.056)" fill="#3c3c3b"/>
  </g>
</svg>
