<svg id="Layer_1" xmlns="http://www.w3.org/2000/svg" xmlns:xlink="http://www.w3.org/1999/xlink" viewBox="0 0 320 500">
            <defs>
                <symbol id="hardware" viewBox="0 0 512 512">
                   <path d="m368 432h-128l16-80h96z" fill="#b2b2b2"/>
                   <path d="m512 128v192c0 26.51-21.49 48-48 48h-272v-288h272c26.51 0 48 21.49 48 48z" fill="#74f7f9"/>
                   <path d="m512 128v110h-146c-87.018 0-158-70.499-158-158h256c26.51 0 48 21.49 48 48z" fill="#8dffff"/>
                   <path d="m512 272v48c0 26.51-21.49 48-48 48h-272v-96z" fill="#b2b2b2"/>
                   <path d="m208 48v416c0 8.84-7.16 16-16 16h-176c-8.84 0-16-7.16-16-16v-416c0-8.84 7.16-16 16-16h176c8.84 0 16 7.16 16 16z" fill="#999"/>
                   <path d="m208 48v400c-114.88 0-208-93.12-208-208v-192c0-8.84 7.16-16 16-16h176c8.84 0 16 7.16 16 16z" fill="#aaa"/>
                   <path d="m208 96h-208v-48c0-8.837 7.163-16 16-16h176c8.837 0 16 7.163 16 16z" fill="#b2b2b2"/>
                   <path d="m0 128h208v48h-208z" fill="#b2b2b2"/>
                   <path d="m464 80h-256v-32c0-8.84-7.16-16-16-16h-176c-8.84 0-16 7.16-16 16v416c0 8.84 7.16 16 16 16h176c8.84 0 16-7.16 16-16v-16h208c8.836 0 16-7.164 16-16s-7.164-16-16-16h-50.883l-9.6-48h108.483c26.467 0 48-21.533 48-48v-192c0-26.467-21.533-48-48-48zm0 32c8.822 0 16 7.178 16 16v144h-272v-160zm-432 32h144v48h-144zm144-80v48h-144v-48zm0 384h-144v-224h144zm32-80h44.483l-9.6 48h-34.883zm124.483 48h-56.966l9.6-48h37.767zm131.517-80c-4.404 0-251.568 0-256 0v-32h272v16c0 8.822-7.178 16-16 16z"/>
                   <path d="m104 352c-13.23 0-24 10.77-24 24s10.77 24 24 24 24-10.77 24-24-10.77-24-24-24z"/>
                   <path d="m128 256h-48c-8.836 0-16 7.164-16 16s7.164 16 16 16h48c8.836 0 16-7.164 16-16s-7.164-16-16-16z"/>
                </symbol>

                <symbol id="printer" viewBox="0 0 64 64">
                  <g id="Filled_outline" data-name="Filled outline">
                  <path d="m3 33h58a0 0 0 0 1 0 0v24a4 4 0 0 1 -4 4h-50a4 4 0 0 1 -4-4v-24a0 0 0 0 1 0 0z" fill="#c6c6ba"/>
                  <path d="m13 57h38v4h-38z" fill="#dbdbd1"/>
                  <path d="m7 33h50v24h-50z" fill="#5a6470"/>
                  <path d="m11 27h6v6h-6z" fill="#aabece"/>
                  <path d="m47 27h6v6h-6z" fill="#aabece"/>
                  <path d="m47 33h-30v-30h24l6 6z" fill="#cdeef6"/>
                  <path d="m7 29h4a0 0 0 0 1 0 0v4a0 0 0 0 1 0 0h-8a0 0 0 0 1 0 0 4 4 0 0 1 4-4z" fill="#dbdbd1"/>
                  <path d="m53 29h8a0 0 0 0 1 0 0v4a0 0 0 0 1 0 0h-4a4 4 0 0 1 -4-4 0 0 0 0 1 0 0z" fill="#dbdbd1" transform="matrix(-1 0 0 -1 114 62)"/>
                  <path d="m11 37h42v8h-42z" fill="#cfdfe8"/>
                  <circle cx="13" cy="51" fill="#55b56a" r="2"/>
                  <path d="m49 49h4v4h-4z" fill="#af3544"/>
                  <path d="m45 49h4v4h-4z" fill="#dd3e46"/>
                  <path d="m37 49h4v4h-4z" fill="#fcf05a"/>
                  <g fill="#394d5c"><path d="m14 40h2v2h-2z"/>
                  <path d="m18 40h10v2h-10z"/><path d="m48 40h2v2h-2z"/>
                  </g><path d="m47 9h-6v-6z" fill="#b4d1d6"/>
                  <path d="m57 28h-3v-1a1 1 0 0 0 -1-1h-5v-17a1 1 0 0 0 -.293-.707l-6-6a1 1 0 0 0 -.707-.293h-24a1 1 0 0 0 -1 1v23h-5a1 1 0 0 0 -1 1v1h-3a5.006 5.006 0 0 0 -5 5v24a5.006 5.006 0 0 0 5 5h50a5.006 5.006 0 0 0 5-5v-24a5.006 5.006 0 0 0 -5-5zm-3 2h3a3.006 3.006 0 0 1 2.829 2h-5.829zm-6-2h4v4h-4zm-6-22.586 2.586 2.586h-2.586zm-24-1.414h22v5a1 1 0 0 0 1 1h5v22h-28zm-6 24h4v4h-4zm-5 2h3v2h-5.829a3.006 3.006 0 0 1 2.829-2zm5 30h-5a3 3 0 0 1 -3-3v-23h2v23a1 1 0 0 0 1 1h5zm38 0h-36v-2h36zm-42-4v-22h48v22zm52 1a3 3 0 0 1 -3 3h-5v-2h5a1 1 0 0 0 1-1v-23h2z"/>
                  <path d="m10 46h44v-10h-44zm2-8h40v6h-40z"/>
                  <path d="m13 48a3 3 0 1 0 3 3 3 3 0 0 0 -3-3zm0 4a1 1 0 1 1 1-1 1 1 0 0 1 -1 1z"/>
                  <path d="m44 48v6h10v-6zm4 4h-2v-2h2zm4 0h-2v-2h2z"/>
                  <path d="m36 54h6v-6h-6zm2-4h2v2h-2z"/>
                  <path d="m14 40h2v2h-2z"/>
                  <path d="m18 40h10v2h-10z"/>
                  <path d="m48 40h2v2h-2z"/></g>
                </symbol>
                <symbol id="display" viewBox="0 -75 512.00002 512">
                  <g id="surface1">
                    <path d="M 220.691406 262.621094 L 220.691406 353.101562 L 291.308594 353.101562 L 291.308594 262.621094 C 271.28125 244.433594 240.71875 244.433594 220.691406 262.621094 Z M 220.691406 262.621094 " style=" stroke:none;fill-rule:nonzero;fill:rgb(25.882353%,25.490196%,25.882353%);fill-opacity:1;" />
                    <path d="M 150.070312 344.277344 L 361.929688 344.277344 L 361.929688 361.929688 L 150.070312 361.929688 Z M 150.070312 344.277344 " style=" stroke:none;fill-rule:nonzero;fill:rgb(25.490196%,25.098039%,25.882353%);fill-opacity:1;" />
                    <path d="M 512 0 L 473.070312 5.386719 C 329.039062 25.246094 182.960938 25.246094 38.929688 5.386719 L 0 0 L 0 141.242188 L 512 141.242188 Z M 512 0 " style=" stroke:none;fill-rule:nonzero;fill:rgb(0%,36.862745%,80.784314%);fill-opacity:1;" />
                    <path d="M 0 141.242188 L 0 282.484375 L 38.929688 277.097656 C 99.183594 268.746094 159.875 263.914062 220.691406 262.621094 C 244.257812 262.089844 267.742188 262.089844 291.308594 262.621094 C 352.125 263.914062 412.816406 268.746094 473.070312 277.097656 L 512 282.484375 L 512 141.242188 Z M 0 141.242188 " style=" stroke:none;fill-rule:nonzero;fill:rgb(0%,42.745098%,94.117647%);fill-opacity:1;" />
                    </g>
                </symbol>

                <symbol id="dinner" viewBox="0 0 64 64">
                  <g><g><path d="m18 28c-1.105 0-2-.895-2-2v-4h4v4c0 1.105-.895 2-2 2z" fill="#a2dbf7"/></g><g><path d="m46 28c-1.105 0-2-.895-2-2v-4h4v4c0 1.105-.895 2-2 2z" fill="#a2dbf7"/></g><g><path d="m25 28h14v4h-14z" fill="#8892a0"/></g><g><path d="m25 29.974c.167.008.331.026.5.026 2.244 0 4.319-.744 6.026-2h-6.526z" fill="#b8bec6"/></g><g><path d="m27 28v-1c0-2.761 2.239-5 5-5 2.761 0 5 2.239 5 5v1z" fill="#a0a8b3"/></g><g><path d="m35.206 23.193c-.87-.734-1.979-1.193-3.206-1.193-2.761 0-5 2.239-5 5v1h4.526c1.625-1.196 2.912-2.859 3.68-4.807z" fill="#c6cbd1"/></g><g><path d="m16 36h32v4h-32z" fill="#976947"/></g><g><path d="m14 32h36v4h-36z" fill="#976947"/></g><g><path d="m30 40h4v18h-4z" fill="#976947"/></g><g><path d="m26 58h12v4h-12z" fill="#976947"/></g><g><path d="m62 52v-26h-4v22h-13v4z" fill="#976947"/></g><g><path d="m58 44h-9c-1.105 0-2 .895-2 2v2h11z" fill="#c1a591"/></g><g><path d="m47 52h4v10h-4z" fill="#976947"/></g><g><path d="m58 52h4v10h-4z" fill="#976947"/></g><g><path d="m2 52v-26h4v22h13v4z" fill="#976947"/></g><g><path d="m6 44h9c1.105 0 2 .895 2 2v2h-11z" fill="#c1a591"/></g><g><path d="m13 52h4v10h-4z" fill="#976947"/></g><g><path d="m2 52h4v10h-4z" fill="#976947"/></g><g><path d="m32 14-4.586-4.586c-.905-.905-1.414-2.133-1.414-3.414v-.172c0-1.171.465-2.293 1.293-3.121.453-.453 1.067-.707 1.707-.707.64 0 1.254.254 1.707.707l1.293 1.293 1.293-1.293c.453-.453 1.067-.707 1.707-.707.64 0 1.254.254 1.707.707.828.828 1.293 1.951 1.293 3.121v.172c0 1.281-.509 2.509-1.414 3.414z" fill="#bf5763"/></g><g><path d="m32 4-1.293-1.293c-.453-.453-1.067-.707-1.707-.707s-1.254.254-1.707.707c-.828.828-1.293 1.951-1.293 3.121v.172c0 1.281.509 2.509 1.414 3.414l.526.526c3.975-.466 7.06-3.84 7.06-7.94-.64 0-1.254.254-1.707.707z" fill="#e0747c"/></g><g><path d="m50 37h-36c-.553 0-1-.447-1-1v-4c0-.553.447-1 1-1h36c.553 0 1 .447 1 1v4c0 .553-.447 1-1 1zm-35-2h34v-2h-34z"/></g><g><path d="m62 53h-17c-.553 0-1-.447-1-1v-4c0-.553.447-1 1-1h12v-21c0-.553.447-1 1-1h4c.553 0 1 .447 1 1v26c0 .553-.447 1-1 1zm-16-2h15v-24h-2v21c0 .553-.447 1-1 1h-12z"/></g><g><path d="m48 48h-2v-2c0-1.654 1.346-3 3-3h9v2h-9c-.552 0-1 .448-1 1z"/></g><g><path d="m51 63h-4c-.553 0-1-.447-1-1v-10h2v9h2v-9h2v10c0 .553-.447 1-1 1z"/></g><g><path d="m62 63h-4c-.553 0-1-.447-1-1v-10h2v9h2v-9h2v10c0 .553-.447 1-1 1z"/></g><g><path d="m19 53h-17c-.553 0-1-.447-1-1v-26c0-.553.447-1 1-1h4c.553 0 1 .447 1 1v21h12c.553 0 1 .447 1 1v4c0 .553-.447 1-1 1zm-16-2h15v-2h-12c-.553 0-1-.447-1-1v-21h-2z"/></g><g><path d="m18 48h-2v-2c0-.552-.448-1-1-1h-9v-2h9c1.654 0 3 1.346 3 3z"/></g><g><path d="m17 63h-4c-.553 0-1-.447-1-1v-10h2v9h2v-9h2v10c0 .553-.447 1-1 1z"/></g><g><path d="m6 63h-4c-.553 0-1-.447-1-1v-10h2v9h2v-9h2v10c0 .553-.447 1-1 1z"/></g><g><path d="m48 41h-32c-.553 0-1-.447-1-1v-4h2v3h30v-3h2v4c0 .553-.447 1-1 1z"/></g><g><path d="m29 40h2v18h-2z"/></g><g><path d="m33 40h2v18h-2z"/></g><g><path d="m38 63h-12c-.553 0-1-.447-1-1v-4c0-.553.447-1 1-1h12c.553 0 1 .447 1 1v4c0 .553-.447 1-1 1zm-11-2h10v-2h-10z"/></g><g><path d="m18 29c-1.654 0-3-1.346-3-3v-4c0-.553.447-1 1-1h4c.553 0 1 .447 1 1v4c0 1.654-1.346 3-3 3zm-1-6v3c0 .552.448 1 1 1s1-.448 1-1v-3z"/></g><g><path d="m17 28h2v4h-2z"/></g><g><path d="m46 29c-1.654 0-3-1.346-3-3v-4c0-.553.447-1 1-1h4c.553 0 1 .447 1 1v4c0 1.654-1.346 3-3 3zm-1-6v3c0 .552.448 1 1 1s1-.448 1-1v-3z"/></g><g><path d="m45 28h2v4h-2z"/></g><g><path d="m40 32h-2v-3h-12v3h-2v-4c0-.553.447-1 1-1h14c.553 0 1 .447 1 1z"/></g><g><path d="m38 28h-2v-1c0-2.206-1.794-4-4-4s-4 1.794-4 4v1h-2v-1c0-3.309 2.691-6 6-6s6 2.691 6 6z"/></g><g><path d="m32 15c-.256 0-.512-.098-.707-.293l-4.586-4.586c-1.085-1.085-1.707-2.587-1.707-4.121v-.172c0-1.446.563-2.806 1.586-3.828 1.289-1.289 3.539-1.289 4.828 0l.586.586.586-.586c1.289-1.289 3.539-1.289 4.828 0 1.023 1.022 1.586 2.382 1.586 3.828v.172c0 1.534-.622 3.036-1.707 4.121l-4.586 4.586c-.195.195-.451.293-.707.293zm-3-12c-.378 0-.732.147-1 .414-.645.645-1 1.502-1 2.414v.172c0 1.008.408 1.994 1.121 2.707l3.879 3.879 3.879-3.879c.713-.713 1.121-1.699 1.121-2.707v-.172c0-.912-.355-1.77-1-2.414-.535-.533-1.465-.533-2 0l-1.293 1.293c-.391.391-1.023.391-1.414 0l-1.293-1.293c-.268-.267-.622-.414-1-.414z"/></g></g>
                </symbol>
                 <symbol id="smartphone" viewBox="0 -38 512 512">
                  <path d="m413.441406 46.019531h-57.324218c-4.289063 0-7.765626 3.476563-7.765626 7.761719 0 4.289062 3.476563 7.761719 7.765626 7.761719h20.898437v34.328125c0 4.289062 3.476563 7.761718 7.761719 7.761718 4.289062 0 7.761718-3.472656 7.761718-7.761718v-34.328125h20.902344c4.285156 0 7.761719-3.472657 7.761719-7.761719 0-4.285156-3.472656-7.761719-7.761719-7.761719zm0 0" fill="#5a5f64"/><path d="m501.351562 201.898438v35.082031h-233.144531v-35.082031c0-40.941407 21.226563-76.941407 53.273438-97.566407 18.070312-11.632812 39.585937-18.382812 62.675781-18.382812h1.242188c63.734374 0 115.445312 51.410156 115.941406 115.019531.011718.308594.011718.621094.011718.929688zm0 0" fill="#919196"/><path d="m501.339844 200.96875h-188.925782c-8.789062 0-15.921874-7.132812-15.921874-15.917969v-8.808593c0-27.167969 9.347656-52.140626 24.988281-71.910157 18.070312-11.632812 39.585937-18.382812 62.675781-18.382812h1.242188c63.734374 0 115.445312 51.410156 115.941406 115.019531zm0 0" fill="#a0a0a5"/><path d="m512 241.0625v.46875c0 7.96875-6.457031 14.425781-14.4375 14.425781h-225.566406c-7.980469 0-14.4375-6.457031-14.4375-14.425781v-.46875c0-7.976562 6.457031-14.4375 14.4375-14.4375h225.566406c7.75 0 14.074219 6.097656 14.417969 13.765625.019531.226563.019531.445313.019531.671875zm0 0" fill="#4b5055"/><path d="m511.980469 240.390625h-217.214844c-7.753906 0-14.074219-6.105469-14.417969-13.765625h217.214844c7.75 0 14.074219 6.097656 14.417969 13.765625zm0 0" fill="#5a5f64"/><path d="m224.292969 25.402344v384.632812c0 14.027344-11.375 25.398438-25.410157 25.398438h-173.472656c-14.035156 0-25.410156-11.371094-25.410156-25.398438v-384.632812c0-14.023438 11.375-25.39843775 25.410156-25.39843775h173.472656c14.035157 0 25.410157 11.37499975 25.410157 25.39843775zm0 0" fill="#d2d2d7"/><path d="m224.292969 25.402344v384.632812c0 14.027344-11.375 25.398438-25.410157 25.398438h-142.425781c-14.03125 0-25.40625-11.371094-25.40625-25.398438v-384.632812c0-14.023438 11.375-25.39843775 25.40625-25.39843775h142.425781c14.035157 0 25.410157 11.37499975 25.410157 25.39843775zm0 0" fill="#ebebf0"/><path d="m33.097656 0 11.339844 49.105469c.773438 3.347656 3.753906 5.71875 7.191406 5.71875h121.042969c3.433594 0 6.414063-2.371094 7.1875-5.71875l11.34375-49.105469c-15.515625 0-135.855469 0-158.105469 0zm0 0" fill="#b9b9be"/><path d="m202.714844 86.902344v312.566406c0 4.007812-3.25 7.246094-7.246094 7.246094h-166.632812c-4.007813 0-7.246094-3.238282-7.246094-7.246094v-312.566406c0-4.003906 3.238281-7.246094 7.246094-7.246094h166.632812c3.996094 0 7.246094 3.242188 7.246094 7.246094zm0 0" fill="#f29500"/><path d="m202.714844 86.902344v312.566406c0 4.007812-3.25 7.246094-7.246094 7.246094h-135.585938c-4.003906 0-7.242187-3.238282-7.242187-7.246094v-312.566406c0-4.003906 3.238281-7.246094 7.242187-7.246094h135.585938c3.996094 0 7.246094 3.242188 7.246094 7.246094zm0 0" fill="#ffa90b"/><path d="m124.105469 19.105469h-56.390625c-4.289063 0-7.765625 3.476562-7.765625 7.761719 0 4.285156 3.476562 7.761718 7.765625 7.761718h56.390625c4.289062 0 7.761719-3.476562 7.761719-7.761718 0-4.285157-3.472657-7.761719-7.761719-7.761719zm0 0" fill="#7d8287"/><path d="m156.582031 26.867188c0 4.625-3.746093 8.375-8.375 8.375-4.625 0-8.375-3.75-8.375-8.375s3.75-8.375 8.375-8.375c4.628907 0 8.375 3.75 8.375 8.375zm0 0" fill="#7d8287"/><path d="m360.4375 285.136719h-12.976562c6.386718 0 11.882812 4.132812 13.820312 9.886719 3.210938 9.457031-3.804688 19.320312-13.8125 19.320312l-45.523438.027344c4.035157 0 7.675782 1.625 10.328126 4.277344 9.140624 9.140624 2.683593 24.9375-10.316407 24.960937-7.140625 0-95.335937 0-102.382812 0-5.292969 0-10.320313-1.203125-14.800781-3.34375-11.597657-5.507813-19.628907-17.320313-19.683594-31.011719l.140625-77.175781v-.058594c.007812-2.910156 2.4375-5.257812 5.359375-5.257812 5.550781-.679688 26.632812 4.238281 36.808594-15.675781l16.574218-32.554688c7.359375-14.46875 31.933594 5.527344 21.730469 25.578125l-6.761719 13.289063c-2.183594 4.285156.933594 9.363281 5.753906 9.363281 104.3125-.019531 85.464844-.015625 87.738282-.015625 8.738281 0 15.535156 7.558594 14.988281 15.191406-.296875 7.628906-6.546875 13.8125-14.210937 14.007812-.121094.007813-.253907.007813-.375.007813 2.984374 0-8.664063.003906 27.042968-.007813 7.128906 0 14.894532 6.136719 14.976563 15.183594.058593 7.945313-5.882813 14.007813-14.417969 14.007813zm0 0" fill="#fdc478"/><g fill="#ffa733"><path d="m362.035156 300.367188c-.316406 7.765624-6.714844 13.976562-14.566406 13.976562l-45.523438.027344h-31.140624c-3.867188 0-7.003907-3.136719-7.003907-7.003906 0-3.875 3.136719-7.003907 7.003907-7.003907h91.230468zm0 0"/><path d="m374.855469 271.128906c.058593 7.945313-5.882813 14.007813-14.417969 14.007813h-76.988281c-3.867188 0-7.003907-3.128907-7.003907-7.003907 0-3.867187 3.136719-7.003906 7.003907-7.003906zm0 0"/><path d="m347.421875 241.9375c-.300781 7.628906-6.546875 13.8125-14.210937 14.007812h-48.660157c-3.867187 0-7.003906-3.128906-7.003906-7.003906 0-3.867187 3.136719-7.003906 7.003906-7.003906zm0 0"/></g><path d="m154.140625 336.667969h-95.660156c-6.023438 0-10.949219-4.925781-10.949219-10.949219v-89.0625c0-6.019531 4.925781-10.949219 10.949219-10.949219h95.660156c6.023437 0 10.953125 4.929688 10.953125 10.949219v89.0625c0 6.023438-4.929688 10.949219-10.953125 10.949219zm0 0" fill="#b9d3fd"/><path d="m171.632812 355.339844h-27.011718c-6.019532 0-10.949219-4.929688-10.949219-10.949219v-126.402344c0-6.023437 4.929687-10.949219 10.949219-10.949219h27.011718c6.023438 0 10.949219 4.925782 10.949219 10.949219v126.402344c0 6.019531-4.925781 10.949219-10.949219 10.949219zm0 0" fill="#5596fb"/><path d="m182.578125 328.574219v15.820312c0 6.011719-4.921875 10.945313-10.945313 10.945313h-27.011718c-6.023438 0-10.945313-4.933594-10.945313-10.945313v-126.40625c0-6.023437 4.921875-10.953125 10.945313-10.953125h15.816406v110.585938c0 6.023437 4.933594 10.953125 10.953125 10.953125zm0 0" fill="#2476ed"/>
                </symbol>

                <symbol id="del-insur" viewBox="0 0 64 64">
                  <g id="Delivery"><path d="m57 25h-16v28h20v-24a4 4 0 0 0 -4-4z" fill="#ff7956"/><path d="m61 29v24h-4v-24a4 4 0 0 0 -4-4h4a4 4 0 0 1 4 4z" fill="#ff5023"/><path d="m51 29h10v10h-10z" fill="#46f8ff"/><path d="m57 29h4v10h-4z" fill="#00d7df"/><circle cx="49" cy="53" fill="#898890" r="8"/><path d="m57 53a8 8 0 0 1 -8 8 8.239 8.239 0 0 1 -2-.25 8.005 8.005 0 0 0 0-15.5 8.239 8.239 0 0 1 2-.25 8 8 0 0 1 8 8z" fill="#57565c"/><path d="m45 29h6v10h-6z" fill="#00d7df"/><path d="m48 29h3v10h-3z" fill="#009698"/><circle cx="49" cy="53" fill="#acabb1" r="2"/><path d="m51 53a2 2 0 0 1 -3 1.73 2 2 0 0 0 0-3.46 2 2 0 0 1 3 1.73z" fill="#787680"/><path d="m3 17h38v36h-38z" fill="#c0ab91"/><path d="m37 17h4v36h-4z" fill="#a78966"/><path d="m34 8v9a10 10 0 0 1 -2.93 6.93l-9.07 9.07-9.07-9.07a10 10 0 0 1 -2.93-6.93v-9l12-5z" fill="#ff7956"/><path d="m31 10v6.86a6.959 6.959 0 0 1 -2.05 4.95l-6.95 6.95-6.95-6.95a6.959 6.959 0 0 1 -2.05-4.95v-6.86l9-3.75z" fill="#ffde55"/><circle cx="15" cy="53" fill="#898890" r="8"/><path d="m23 53a8 8 0 0 1 -8 8 8.239 8.239 0 0 1 -2-.25 8.005 8.005 0 0 0 0-15.5 8.239 8.239 0 0 1 2-.25 8 8 0 0 1 8 8z" fill="#57565c"/><circle cx="15" cy="53" fill="#acabb1" r="2"/><path d="m17 53a2 2 0 0 1 -3 1.73 2 2 0 0 0 0-3.46 2 2 0 0 1 3 1.73z" fill="#787680"/><path d="m34 8v8.86a9.991 9.991 0 0 1 -2.93 7.07l-9.07 9.07-2-2 7.07-7.07a9.991 9.991 0 0 0 2.93-7.07v-8.86l-10-4.17 2-.83z" fill="#ff5023"/><path d="m31 10v6.86a6.959 6.959 0 0 1 -2.05 4.95l-6.95 6.95-2-2 4.95-4.95a6.959 6.959 0 0 0 2.05-4.95v-6.86l-7-2.92 2-.83z" fill="#ffcd00"/><path d="m57 24h-15v-7a1 1 0 0 0 -1-1h-6v-8a1 1 0 0 0 -.615-.923l-12-5a1.007 1.007 0 0 0 -.77 0l-12 5a1 1 0 0 0 -.615.923v8h-6a1 1 0 0 0 -1 1v36a1 1 0 0 0 1 1h3.059a9 9 0 0 0 17.882 0h16.118a9 9 0 0 0 17.882 0h3.059a1 1 0 0 0 1-1v-24a5.006 5.006 0 0 0 -5-5zm-11 14v-8h4v8zm6-8h8v8h-8zm-41-21.333 11-4.584 11 4.584v8.191a8.945 8.945 0 0 1 -2.636 6.364l-8.364 8.364-8.364-8.364a8.945 8.945 0 0 1 -2.636-6.364zm-7 9.333h5.061a10.916 10.916 0 0 0 3.161 6.636l9.071 9.071a1 1 0 0 0 1.414 0l9.071-9.071a10.916 10.916 0 0 0 3.161-6.636h5.061v34h-16.059a9 9 0 0 0 -17.882 0h-2.059zm11 42a7 7 0 1 1 7-7 7.008 7.008 0 0 1 -7 7zm34 0a7 7 0 1 1 7-7 7.008 7.008 0 0 1 -7 7zm8.941-8a8.99 8.99 0 0 0 -15.941-4.644v-21.356h15a3 3 0 0 1 2.816 2h-14.816a1 1 0 0 0 -1 1v10a1 1 0 0 0 1 1h15v12z"/><path d="m15 50a3 3 0 1 0 3 3 3 3 0 0 0 -3-3zm0 4a1 1 0 1 1 1-1 1 1 0 0 1 -1 1z"/><path d="m49 50a3 3 0 1 0 3 3 3 3 0 0 0 -3-3zm0 4a1 1 0 1 1 1-1 1 1 0 0 1 -1 1z"/><path d="m20 40h2v2h-2z"/><path d="m24 40h12v2h-12z"/><path d="m22 44h2v2h-2z"/><path d="m26 44h10v2h-10z"/><path d="m22 20a1 1 0 0 0 .707-.293l5.657-5.657-1.414-1.414-4.95 4.95-2.121-2.122-1.414 1.414 2.828 2.829a1 1 0 0 0 .707.293z"/><path d="m21.293 29.464a1 1 0 0 0 1.414 0l6.95-6.949a7.951 7.951 0 0 0 2.343-5.657v-6.858a1 1 0 0 0 -.615-.923l-9-3.75a1.007 1.007 0 0 0 -.77 0l-9 3.75a1 1 0 0 0 -.615.923v6.858a7.951 7.951 0 0 0 2.343 5.657zm-7.293-18.797 8-3.334 8 3.334v6.191a5.965 5.965 0 0 1 -1.757 4.242l-6.243 6.243-6.243-6.243a5.966 5.966 0 0 1 -1.757-4.242z"/></g>
                </symbol>


                 <symbol id="calendar" viewBox="0 0 64 64">
                <path d="m14.995 33h4v4h-4z" fill="#d7e9ff"/><path d="m50.005 24.03v2.319c-.61-.88-1.48-1.58-2.5-1.97.62-.25 1.29-.38 2-.38.17.001.34.011.5.031z" fill="#fff"/><path d="m23.995 33h4v4h-4z" fill="#d7e9ff"/><path d="m23.995 17h4v4h-4z" fill="#d7e9ff"/><path d="m23.995 41h4v4h-4z" fill="#d7e9ff"/><path d="m50.005 26.35.01 6.65h-6.01v-3.5c0-2.33 1.45-4.32 3.5-5.12 1.019.39 1.89 1.09 2.5 1.97z" fill="#fff"/><path d="m23.995 25h4v4h-4z" fill="#d7e9ff"/><path d="m32.995 17h4v4h-4z" fill="#d7e9ff"/><path d="m41.995 21h4v-4h-4zm3.51 3c-3.04 0-5.5 2.46-5.5 5.5v3.5h-8.01v16h-30v-36h48l.01 11.03c-.16-.021-.33-.03-.5-.03-.71 0-1.38.13-2 .38-.62-.25-1.29-.38-2-.38zm-8.51 5v-4h-4v4zm0-8v-4h-4v4zm-9 24v-4h-4v4zm0-8v-4h-4v4zm0-8v-4h-4v4zm0-8v-4h-4v4zm-9 24v-4h-4v4zm0-8v-4h-4v4zm0-8v-4h-4v4zm0-8v-4h-4v4zm-9 24v-4h-4v4zm0-8v-4h-4v4zm0-8v-4h-4v4zm0-8v-4h-4v4z" fill="#fff"/><path d="m58.005 33h4v30h-4z" fill="#94c1ff"/><path d="m48.005 49h3v-6c0-1.66-1.34-2.99-3-3zm2.01-16h.99 4 3v30h-26.01v-7.98-3-3.02-16h8.01 4zm-8.51 12h1.49.01c.56-.01 1-.45 1-1v-2h-2.51-2.49v2h-.01c0 .55.45 1 1 1z" fill="#d7e9ff"/><path d="m32.995 25h4v4h-4z" fill="#d7e9ff"/><path d="m41.495 42h2.51v2c0 .55-.44.99-1 1h-.01-1.49-1.51c-.55 0-1-.45-1-1h.01v-2z" fill="#fff"/><path d="m45.505 24c.71 0 1.38.13 2 .38-2.05.8-3.5 2.79-3.5 5.12v3.5h-4v-3.5c0-3.04 2.46-5.5 5.5-5.5z" fill="#fff"/><path d="m31.995 55.02-30 .02v-3.02h30z" fill="#d7e9ff"/><path d="m1.995 49h30v3.02h-30z" fill="#d7e9ff"/><path d="m14.995 41h4v4h-4z" fill="#d7e9ff"/><path d="m51.005 43v6h-3v-9c1.66.01 3 1.34 3 3z" fill="#fff"/><path d="m41.995 17h4v4h-4z" fill="#d7e9ff"/><path d="m5.995 17h4v4h-4z" fill="#d7e9ff"/><path d="m5.995 25h4v4h-4z" fill="#d7e9ff"/><path d="m14.995 17h4v4h-4z" fill="#d7e9ff"/><path d="m14.995 25h4v4h-4z" fill="#d7e9ff"/><path d="m5.995 41h4v4h-4z" fill="#d7e9ff"/><path d="m5.995 33h4v4h-4z" fill="#d7e9ff"/><path d="m43.995 5v2.5c0 .83-.67 1.5-1.5 1.5s-1.5-.67-1.5-1.5v-2.5-2.5c0-.83.67-1.5 1.5-1.5s1.5.67 1.5 1.5z" fill="#d7e9ff"/><path d="m21.995 5v2.5c0 .83-.67 1.5-1.5 1.5s-1.5-.67-1.5-1.5v-2.5-2.5c0-.83.67-1.5 1.5-1.5s1.5.67 1.5 1.5z" fill="#d7e9ff"/><path d="m32.995 5v2.5c0 .83-.67 1.5-1.5 1.5s-1.5-.67-1.5-1.5v-2.5-2.5c0-.83.67-1.5 1.5-1.5s1.5.67 1.5 1.5z" fill="#d7e9ff"/><path d="m10.995 5v2.5c0 .83-.67 1.5-1.5 1.5s-1.5-.67-1.5-1.5v-2.5-2.5c0-.83.67-1.5 1.5-1.5s1.5.67 1.5 1.5z" fill="#d7e9ff"/><path d="m49.995 7v6h-48v-6c0-1.1.89-2 2-2h4v2.5c0 .83.67 1.5 1.5 1.5s1.5-.67 1.5-1.5v-2.5h8v2.5c0 .83.67 1.5 1.5 1.5s1.5-.67 1.5-1.5v-2.5h8v2.5c0 .83.67 1.5 1.5 1.5s1.5-.67 1.5-1.5v-2.5h8v2.5c0 .83.67 1.5 1.5 1.5s1.5-.67 1.5-1.5v-2.5h4c1.1 0 2 .9 2 2z" fill="#94c1ff"/><g fill="#116fff"><path d="m1.994 8.001c-.553 0-1-.448-1-1 0-1.654 1.346-3 3-3 .553 0 1 .448 1 1s-.447 1-1 1c-.552 0-1 .449-1 1 0 .552-.447 1-1 1z"/><path d="m49.994 8.001c-.553 0-1-.448-1-1 0-.551-.448-1-1-1-.553 0-1-.448-1-1s.447-1 1-1c1.654 0 3 1.346 3 3 0 .552-.447 1-1 1z"/><path d="m49.994 14.001h-48c-.553 0-1-.448-1-1s.447-1 1-1h48c.553 0 1 .448 1 1s-.447 1-1 1z"/><path d="m50.012 21.999c-.552 0-.999-.447-1-.999l-.018-13.998c-.001-.553.446-1.001.999-1.001h.001c.552 0 .999.447 1 .999l.018 13.998c.001.552-.447 1.001-1 1.001z"/><path d="m1.994 56.034c-.553 0-1-.447-1-1v-48.033c0-.552.447-1 1-1s1 .448 1 1v48.033c0 .553-.447 1-1 1z"/><path d="m28.992 50.001h-26.998c-.553 0-1-.447-1-1s.447-1 1-1h26.998c.553 0 1 .447 1 1s-.447 1-1 1z"/><path d="m1.994 53.019c-.552 0-1-.447-1-1 0-.552.447-1 1-1l26.998-.002c.552 0 1 .447 1 1 0 .552-.447 1-1 1z"/><path d="m1.994 56.034c-.552 0-1-.447-1-.999 0-.553.447-1.001.999-1.001l26.998-.018h.001c.552 0 1 .447 1 .999 0 .553-.447 1.001-.999 1.001z"/><path d="m9.494 10.001c-1.379 0-2.5-1.122-2.5-2.5v-5c0-1.378 1.121-2.5 2.5-2.5s2.5 1.122 2.5 2.5v5c0 1.378-1.121 2.5-2.5 2.5zm0-8c-.275 0-.5.224-.5.5v5c0 .276.225.5.5.5s.5-.224.5-.5v-5c0-.276-.224-.5-.5-.5z"/><path d="m20.494 10.001c-1.379 0-2.5-1.122-2.5-2.5v-5c0-1.378 1.121-2.5 2.5-2.5s2.5 1.122 2.5 2.5v5c0 1.378-1.121 2.5-2.5 2.5zm0-8c-.275 0-.5.224-.5.5v5c0 .276.225.5.5.5s.5-.224.5-.5v-5c0-.276-.224-.5-.5-.5z"/><path d="m31.494 10.001c-1.379 0-2.5-1.122-2.5-2.5v-5c0-1.378 1.121-2.5 2.5-2.5s2.5 1.122 2.5 2.5v5c0 1.378-1.121 2.5-2.5 2.5zm0-8c-.275 0-.5.224-.5.5v5c0 .276.225.5.5.5s.5-.224.5-.5v-5c0-.276-.224-.5-.5-.5z"/><path d="m42.494 10.001c-1.379 0-2.5-1.122-2.5-2.5v-5c0-1.378 1.121-2.5 2.5-2.5s2.5 1.122 2.5 2.5v5c0 1.378-1.121 2.5-2.5 2.5zm0-8c-.275 0-.5.224-.5.5v5c0 .276.225.5.5.5s.5-.224.5-.5v-5c0-.276-.224-.5-.5-.5z"/><path d="m7.994 6.001h-4c-.553 0-1-.448-1-1s.447-1 1-1h4c.553 0 1 .448 1 1s-.447 1-1 1z"/><path d="m18.994 6.001h-8c-.553 0-1-.448-1-1s.447-1 1-1h8c.553 0 1 .448 1 1s-.447 1-1 1z"/><path d="m29.994 6.001h-8c-.553 0-1-.448-1-1s.447-1 1-1h8c.553 0 1 .448 1 1s-.447 1-1 1z"/><path d="m40.994 6.001h-8c-.553 0-1-.448-1-1s.447-1 1-1h8c.553 0 1 .448 1 1s-.447 1-1 1z"/><path d="m47.994 6.001h-4c-.553 0-1-.448-1-1s.447-1 1-1h4c.553 0 1 .448 1 1s-.447 1-1 1z"/><path d="m9.994 22.001h-4c-.553 0-1-.448-1-1v-4c0-.552.447-1 1-1h4c.553 0 1 .448 1 1v4c0 .552-.447 1-1 1zm-3-2h2v-2h-2z"/><path d="m18.994 22.001h-4c-.553 0-1-.448-1-1v-4c0-.552.447-1 1-1h4c.553 0 1 .448 1 1v4c0 .552-.447 1-1 1zm-3-2h2v-2h-2z"/><path d="m27.994 22.001h-4c-.553 0-1-.448-1-1v-4c0-.552.447-1 1-1h4c.553 0 1 .448 1 1v4c0 .552-.447 1-1 1zm-3-2h2v-2h-2z"/><path d="m36.994 22.001h-4c-.553 0-1-.448-1-1v-4c0-.552.447-1 1-1h4c.553 0 1 .448 1 1v4c0 .552-.447 1-1 1zm-3-2h2v-2h-2z"/><path d="m9.994 30.001h-4c-.553 0-1-.448-1-1v-4c0-.552.447-1 1-1h4c.553 0 1 .448 1 1v4c0 .552-.447 1-1 1zm-3-2h2v-2h-2z"/><path d="m18.994 30.001h-4c-.553 0-1-.448-1-1v-4c0-.552.447-1 1-1h4c.553 0 1 .448 1 1v4c0 .552-.447 1-1 1zm-3-2h2v-2h-2z"/><path d="m27.994 30.001h-4c-.553 0-1-.448-1-1v-4c0-.552.447-1 1-1h4c.553 0 1 .448 1 1v4c0 .552-.447 1-1 1zm-3-2h2v-2h-2z"/><path d="m9.994 38.001h-4c-.553 0-1-.447-1-1v-4c0-.552.447-1 1-1h4c.553 0 1 .448 1 1v4c0 .553-.447 1-1 1zm-3-2h2v-2h-2z"/><path d="m18.994 38.001h-4c-.553 0-1-.447-1-1v-4c0-.552.447-1 1-1h4c.553 0 1 .448 1 1v4c0 .553-.447 1-1 1zm-3-2h2v-2h-2z"/><path d="m27.994 38.001h-4c-.553 0-1-.447-1-1v-4c0-.552.447-1 1-1h4c.553 0 1 .448 1 1v4c0 .553-.447 1-1 1zm-3-2h2v-2h-2z"/><path d="m9.994 46.001h-4c-.553 0-1-.447-1-1v-4c0-.553.447-1 1-1h4c.553 0 1 .447 1 1v4c0 .553-.447 1-1 1zm-3-2h2v-2h-2z"/><path d="m18.994 46.001h-4c-.553 0-1-.447-1-1v-4c0-.553.447-1 1-1h4c.553 0 1 .447 1 1v4c0 .553-.447 1-1 1zm-3-2h2v-2h-2z"/><path d="m27.994 46.001h-4c-.553 0-1-.447-1-1v-4c0-.553.447-1 1-1h4c.553 0 1 .447 1 1v4c0 .553-.447 1-1 1zm-3-2h2v-2h-2z"/><path d="m36.994 30.001h-4c-.553 0-1-.448-1-1v-4c0-.552.447-1 1-1h4c.553 0 1 .448 1 1v4c0 .552-.447 1-1 1zm-3-2h2v-2h-2z"/><path d="m45.994 22.001h-4c-.553 0-1-.448-1-1v-4c0-.552.447-1 1-1h4c.553 0 1 .448 1 1v4c0 .552-.447 1-1 1zm-3-2h2v-2h-2z"/><path d="m58.004 63.999h-26.004c-.553 0-1-.447-1-1v-30.004c0-.552.447-1 1-1h26.004c.553 0 1 .448 1 1v30.004c0 .553-.447 1-1 1zm-25.004-2h24.004v-28.004h-24.004z"/><path d="m41.502 59.003c-.553 0-1-.447-1-1v-13.002c0-.553.447-1 1-1s1 .447 1 1v13.002c0 .553-.447 1-1 1z"/><path d="m39.998 45.999c-1.102 0-1.998-.896-1.998-1.997 0-.533.421-.925.954-.95.53-.028.992.418 1.046.947.552.001.998.448.998 1 0 .553-.447 1-1 1z"/><path d="m43 46.001c-.553 0-1-.447-1-1s.447-1 1-1c0-.553.448-1.001 1.001-1.001s1.001.446 1.001.999c0 1.104-.898 2.002-2.002 2.002z"/><path d="m43.004 45.999h-3.006c-.553 0-1-.447-1-1s.447-1 1-1h3.006c.553 0 1 .447 1 1s-.447 1-1 1z"/><path d="m39.002 45c-.553 0-1-.447-1-1v-4.002c0-.553.447-1 1-1s1 .447 1 1v4.002c0 .553-.447 1-1 1z"/><path d="m44.002 45c-.553 0-1-.447-1-1v-4.002c0-.553.447-1 1-1s1 .447 1 1v4.002c0 .553-.447 1-1 1z"/><path d="m48.002 59.003c-.553 0-1-.447-1-1v-18.008c0-.553.447-1 1-1s1 .447 1 1v18.008c0 .553-.447 1-1 1z"/><path d="m51.002 44.001c-.553 0-1-.447-1-1 0-1.106-.899-2.006-2.006-2.006-.553 0-1-.447-1-1s.447-1 1-1c2.209 0 4.006 1.797 4.006 4.006 0 .553-.447 1-1 1z"/><path d="m51.002 49.997c-.553 0-1-.447-1-1v-5.996c0-.553.447-1 1-1s1 .447 1 1v5.996c0 .553-.447 1-1 1z"/><path d="m51.002 49.997h-3c-.553 0-1-.447-1-1s.447-1 1-1h3c.553 0 1 .447 1 1s-.447 1-1 1z"/><path d="m44.002 42.997h-5c-.553 0-1-.447-1-1s.447-1 1-1h5c.553 0 1 .447 1 1s-.447 1-1 1z"/><path d="m41.5 42.996c-.553 0-1-.447-1-1v-1.998c0-.553.447-1 1-1s1 .447 1 1v1.998c0 .553-.447 1-1 1z"/><path d="m62.006 63.999h-4.002c-.553 0-1-.447-1-1s.447-1 1-1h3.002v-28.004h-3.002c-.553 0-1-.447-1-1 0-.552.447-1 1-1h4.002c.553 0 1 .448 1 1v30.004c0 .553-.447 1-1 1z"/><path d="m51.004 30.499c-.553 0-1-.448-1-1 0-2.481-2.019-4.5-4.5-4.5s-4.5 2.019-4.5 4.5c0 .552-.447 1-1 1s-1-.448-1-1c0-3.584 2.916-6.5 6.5-6.5s6.5 2.916 6.5 6.5c0 .552-.447 1-1 1z"/><path d="m40.004 33.995c-.553 0-1-.447-1-1v-3.496c0-.552.447-1 1-1s1 .448 1 1v3.496c0 .553-.447 1-1 1z"/><path d="m51.004 33.995c-.553 0-1-.447-1-1v-3.496c0-.552.447-1 1-1s1 .448 1 1v3.496c0 .553-.447 1-1 1z"/><path d="m55.008 30.499c-.553 0-1-.448-1-1 0-2.481-2.019-4.5-4.5-4.5s-4.5 2.019-4.5 4.5c0 .552-.447 1-1 1s-1-.448-1-1c0-3.584 2.916-6.5 6.5-6.5s6.5 2.916 6.5 6.5c0 .552-.447 1-1 1z"/><path d="m44.008 33.995c-.553 0-1-.447-1-1v-3.496c0-.552.447-1 1-1s1 .448 1 1v3.496c0 .553-.447 1-1 1z"/><path d="m55.008 33.995c-.553 0-1-.447-1-1v-3.496c0-.552.447-1 1-1s1 .448 1 1v3.496c0 .553-.447 1-1 1z"/></g>
                </symbol>

                 <symbol id="money" viewBox="0 0 64 64">
                 <path d="m57 35h-50a2.006 2.006 0 0 1 -2-2v4a2.006 2.006 0 0 0 2 2h50a2.006 2.006 0 0 0 2-2v-4a2.006 2.006 0 0 1 -2 2z" fill="#009986"/><path d="m57 31h-50a2.006 2.006 0 0 1 -2-2v4a2.006 2.006 0 0 0 2 2h50a2.006 2.006 0 0 0 2-2v-4a2.006 2.006 0 0 1 -2 2z" fill="#00b39d"/><path d="m57 5h-50a2.006 2.006 0 0 0 -2 2v22a2.006 2.006 0 0 0 2 2h50a2.006 2.006 0 0 0 2-2v-22a2.006 2.006 0 0 0 -2-2z" fill="#00ccb3"/><path d="m44 29v16.65a10.013 10.013 0 0 1 -4.45 8.32l-7.55 5.03-7.55-5.03a10.013 10.013 0 0 1 -4.45-8.32v-16.65z" fill="#ff5023"/><path d="m36 12.26a7 7 0 1 0 -8 11.48 7 7 0 1 0 8-11.48z" fill="#ffd422"/><path d="m36 33h-12v12.65a6 6 0 0 0 2.67 4.99l5.33 3.55 5.33-3.55a6 6 0 0 0 2.67-4.99v-12.65z" fill="#ffd422"/><path d="m28 5v7.26 11.48 5.26h8v-5.26-11.48-7.26z" fill="#e6e7e8"/><path d="m57 4h-50a3 3 0 0 0 -3 3v30a3 3 0 0 0 3 3h12v5.648a10.979 10.979 0 0 0 4.9 9.152l7.547 5.031a1 1 0 0 0 1.11 0l7.543-5.031a10.979 10.979 0 0 0 4.9-9.152v-5.648h12a3 3 0 0 0 3-3v-30a3 3 0 0 0 -3-3zm-20 10.692a5.971 5.971 0 0 1 0 6.616zm-2 13.308h-6v-22h6zm-8-6.692a5.971 5.971 0 0 1 0-6.616zm-21 10.508a2.966 2.966 0 0 0 1 .184h12v2h-12a1 1 0 0 1 -1-1zm1 6.184a1 1 0 0 1 -1-1v-1.184a2.966 2.966 0 0 0 1 .184h12v2zm12-9v1h-12a1 1 0 0 1 -1-1v-22a1 1 0 0 1 1-1h20v5.776a7.956 7.956 0 0 0 0 12.448v3.776h-7a1 1 0 0 0 -1 1zm24 16.648a8.983 8.983 0 0 1 -4.008 7.489l-6.992 4.663-6.992-4.661a8.983 8.983 0 0 1 -4.008-7.491v-15.648h22zm14-7.648h-12v-2h12a2.966 2.966 0 0 0 1-.184v1.184a1 1 0 0 1 -1 1zm0-4h-12v-2h12a2.966 2.966 0 0 0 1-.184v1.184a1 1 0 0 1 -1 1zm0-4h-12v-1a1 1 0 0 0 -1-1h-7v-3.776a7.956 7.956 0 0 0 0-12.448v-5.776h20a1 1 0 0 1 1 1v22a1 1 0 0 1 -1 1z"/><path d="m53 25h-3v2h4a1 1 0 0 0 1-1v-4h-2z"/><path d="m11 22h-2v4a1 1 0 0 0 1 1h4v-2h-3z"/><path d="m54 9h-4v2h3v3h2v-4a1 1 0 0 0 -1-1z"/><path d="m9 10v4h2v-3h3v-2h-4a1 1 0 0 0 -1 1z"/><path d="m20 17h2v2h-2z"/><path d="m42 17h2v2h-2z"/><path d="m26.117 51.473 5.328 3.551a1 1 0 0 0 1.11 0l5.328-3.551a6.989 6.989 0 0 0 3.117-5.825v-12.648a1 1 0 0 0 -1-1h-16a1 1 0 0 0 -1 1v12.648a6.989 6.989 0 0 0 3.117 5.825zm-1.117-17.473h14v11.648a4.991 4.991 0 0 1 -2.227 4.161l-4.773 3.182-4.773-3.182a4.993 4.993 0 0 1 -2.227-4.161z"/><path d="m31 45a1 1 0 0 0 .707-.293l5-5-1.414-1.414-4.293 4.293-2.293-2.293-1.414 1.414 3 3a1 1 0 0 0 .707.293z"/>
                </symbol>

                <symbol id="callcenter" viewBox="0 0 512 512">
                <path style="fill:#48AEF9;" d="M435.916,485.92c-5.94-29.832-12.925-64.913-14.647-73.559
                    c-4.407-22.074-20.625-31.049-29.559-34.382c-0.108-0.032-6.118-1.805-6.01-1.773l0,0c-0.689-0.203-59.458-17.731-62.583-18.653l0,0
                    h-133.95l0,0l0,0l0,0c-3.672,1.083-61.977,18.42-62.767,18.653l0,0c-2.109,0.622-6.276,1.851-6.01,1.773
                    c-8.934,3.333-25.152,12.308-29.559,34.382c0,0-8.891,44.787-14.762,74.347C73.468,499.8,83.487,512,96.835,512h317.679
                    C428.277,512,438.604,499.418,435.916,485.92z"/>
                <path style="fill:#3997EE;" d="M103.881,486.707c5.872-29.56,14.762-83.618,14.762-83.618c3.479-17.424,14.315-26.682,23.121-31.451
                    c-20.012,5.949-21.479,6.371-21.373,6.34c-8.934,3.333-25.152,12.308-29.559,34.382c0,0-8.891,44.787-14.762,74.347
                    C73.468,499.8,83.487,512,96.835,512h27.812C111.298,512,101.28,499.8,103.881,486.707z"/>
                <path style="fill:#EDB87E;" d="M260.646,323.748c-16.465,0.773-32.102-2.662-45.975-9.325c0,8.866,0,22.406,0,31.261l0,0
                    l16.737,37.534l6.422,15.196c25.389,0.109,10.916,0.047,36.305,0.155l22.94-53.009v-30.779
                    C285.914,319.989,273.61,323.139,260.646,323.748z"/>
                <path style="fill:#E4A970;" d="M265.642,398.414l-6.423-15.196l-13.199-29.599c-2.333-5.231-3.538-10.895-3.538-16.623v-14.109
                    c-9.806-1.405-19.153-4.306-27.812-8.465v31.261l16.737,37.534l6.423,15.196c21.875,0.094,14.18,0.061,27.863,0.119L265.642,398.414
                    z"/>
                <path style="fill:#647892;" d="M247.315,0.287c-74.19,4.684-131.53,67.137-131.53,141.474c0,11.23,0,33.314,0,43.708h281.208
                    c0-9.4,0-35.002,0-44.866C396.992,60.071,328.935-4.866,247.315,0.287z"/>
                <path style="fill:#4D6682;" d="M189.263,141.761c0-64.776,43.541-120.522,103.828-136.891c-14.475-3.918-29.866-5.588-45.776-4.583
                    c-74.19,4.684-131.53,67.137-131.53,141.474c0,11.23,0,33.314,0,43.708h73.478v-30.534V141.761z"/>
                <g>
                    <path style="fill:#3997EE;" d="M158.532,468.737c0-4.267-3.459-7.725-7.725-7.725s-7.725,3.458-7.725,7.725V512h15.451
                        L158.532,468.737L158.532,468.737z"/>
                    <path style="fill:#3997EE;" d="M369.696,512v-43.263c0-4.267-3.459-7.725-7.725-7.725s-7.725,3.458-7.725,7.725V512H369.696z"/>
                </g>
                <polygon style="fill:#FAC149;" points="274.574,395.603 237.814,395.603 232.839,399.273 242.059,426.505 270.259,426.505 
                    279.524,399.274 "/>
                <path style="fill:#F8A748;" d="M264.451,395.603h-26.637l-4.975,3.67l9.22,27.232h28.199l-8.8-21.376
                    C260.278,401.641,261.488,397.789,264.451,395.603L264.451,395.603z"/>
                <path style="fill:#F4C48B;" d="M350.548,155.759l-33.369-25.982c-5.63-4.383-12.204-5.23-18.026-2.969l0,0
                    c-22.707,8.778-82.499,30.037-133.487,32.06l0.007,0.014c0,0-7.654,0.468-7.654,6.532v61.78c0,56.372,46.723,102.289,103.034,99.662
                    c52.162-2.434,93.708-45.49,93.708-98.263v-61.976C354.76,159.529,350.549,155.76,350.548,155.759z"/>
                <path style="fill:#EDB87E;" d="M185.958,228.594v-61.976c0-5.012,2.1-8.356,3.334-9.89c-7.971,1.08-15.901,1.834-23.627,2.14
                    l0.007,0.014c0,0-7.654,0.468-7.654,6.532v61.78c0,56.372,46.723,102.289,103.034,99.662c3.144-0.147,6.248-0.444,9.307-0.879
                    C222.648,319.194,185.958,278.186,185.958,228.594z"/>
                <polygon style="fill:#FAC149;" points="281.431,512 270.259,426.505 256.271,426.505 242.283,426.505 231.111,512 "/>
                <polygon style="fill:#F8A748;" points="270.259,426.505 256.271,426.505 242.283,426.505 231.111,512 259.103,512 270.267,426.57 
                    "/>
                <g>
                    <path style="fill:#3997EE;" d="M297.076,340.221l-22.712,55.382l19.045,14.014c4.379,3.247,10.65,1.342,12.482-3.792l17.226-48.273
                        L297.076,340.221z"/>
                    <path style="fill:#3997EE;" d="M214.671,340.221l23.25,55.382l-19.045,14.014c-4.379,3.247-10.65,1.342-12.482-3.792
                        l-17.226-48.273L214.671,340.221z"/>
                </g>
                <g>
                    <path style="fill:#EFEFEF;" d="M256.169,301.357h-55.293c-34.163,0-64.134-22.524-64.134-57.391v-15.832
                        c0-4.267,3.459-7.725,7.725-7.725s7.725,3.458,7.725,7.725v15.832c0,25.866,22.699,41.94,48.683,41.94h55.293
                        c4.267,0,7.725,3.458,7.725,7.725S260.436,301.357,256.169,301.357z"/>
                    <path style="fill:#EFEFEF;" d="M369.245,170.539c-4.267,0-7.725-3.458-7.725-7.725v-21.006c0-58.75-47.707-106.892-106.434-105.863
                        c-56.375,0.999-102.669,47.069-102.669,104.534v22.334c0,4.267-3.459,7.725-7.725,7.725c-4.267,0-7.725-3.458-7.725-7.725v-22.334
                        c0-64.898,52.049-118.817,117.846-119.983c67.41-1.15,122.159,53.915,122.159,121.312v21.006
                        C376.97,167.08,373.512,170.539,369.245,170.539z"/>
                </g>
                <path style="fill:#FAC149;" d="M382.557,168.221v65.927c13.027-5.316,22.207-18.068,22.207-32.964
                    C404.764,186.289,395.584,173.537,382.557,168.221z"/>
                <path style="fill:#F8A748;" d="M382.557,197.838v36.31c13.027-5.316,22.207-18.068,22.207-32.964c0-6.635-1.83-12.838-5.002-18.155
                    C395.814,189.649,389.782,194.89,382.557,197.838z"/>
                <path style="fill:#FAC149;" d="M130.431,168.221v65.927C100.801,222.101,100.734,180.295,130.431,168.221z"/>
                <path style="fill:#F8A748;" d="M113.936,181.812c-12.186,18.597-4.431,43.828,16.495,52.336v-38.697
                    C123.626,192.674,117.888,187.871,113.936,181.812z"/>
                <path style="fill:#3997EE;" d="M246.891,307.022h18.616c7.512,0,13.997-5.772,14.328-13.277c0.351-7.966-6.003-14.535-13.892-14.535
                    h-19.489c-7.889,0-14.243,6.569-13.892,14.535C232.893,301.25,239.378,307.022,246.891,307.022z"/>
                <path style="fill:#1E88D8;" d="M256.213,293.745c-0.32-7.25,4.921-13.325,11.811-14.362c-0.681-0.102-1.372-0.173-2.081-0.173
                    h-19.488c-7.889,0-14.243,6.568-13.892,14.535c0.331,7.505,6.816,13.277,14.328,13.277h18.616c0.856,0,1.695-0.084,2.517-0.228
                    C261.634,305.676,256.506,300.395,256.213,293.745z"/>
                <path style="fill:#F8A748;" d="M130.334,234.143v-65.917c0-7.512,5.772-13.997,13.277-14.328
                    c7.966-0.351,14.535,6.003,14.535,13.892v66.789c0,7.889-6.568,14.243-14.535,13.892
                    C136.106,248.14,130.334,241.655,130.334,234.143z"/>
                <path style="fill:#F38D1A;" d="M143.611,207.783c-7.505-0.33-13.277-6.816-13.277-14.328v40.688c0,7.512,5.772,13.998,13.277,14.328
                    c7.966,0.351,14.535-6.003,14.535-13.892v-40.688C158.146,201.78,151.578,208.134,143.611,207.783z"/>
                <path style="fill:#F8A748;" d="M354.802,234.143v-65.917c0-7.512,5.777-13.997,13.288-14.328
                    c7.973-0.351,14.546,6.003,14.546,13.892v66.788c0,7.889-6.574,14.243-14.546,13.892
                    C360.579,248.14,354.802,241.655,354.802,234.143z"/>
                <path style="fill:#F38D1A;" d="M368.09,207.783c-7.511-0.331-13.288-6.816-13.288-14.328v40.688c0,7.512,5.777,13.998,13.288,14.328
                    c7.973,0.351,14.546-6.003,14.546-13.892v-40.688C382.636,201.78,376.062,208.134,368.09,207.783z"/>
                <g>
                </g>
                <g>
                </g>
                <g>
                </g>
                <g>
                </g>
                <g>
                </g>
                <g>
                </g>
                <g>
                </g>
                <g>
                </g>
                <g>
                </g>
                <g>
                </g>
                <g>
                </g>
                <g>
                </g>
                <g>
                </g>
                <g>
                </g>
                <g>
                </g>
                </symbol>

                  <symbol id="stats" viewBox="0 0 64 64">
                    <g id="Fill_Outline" data-name="Fill Outline"><g id="Color"><g><rect fill="#57b7eb" height="40" rx="4" width="58" x="3" y="9"/><path d="m13 21v-12h-6a4 4 0 0 0 -4 4v32a4 4 0 0 0 4 4h50a4 4 0 0 0 4-4v-8h-32a16 16 0 0 1 -16-16z" fill="#4891d3"/><path d="m3 43h58a0 0 0 0 1 0 0v2a4 4 0 0 1 -4 4h-50a4 4 0 0 1 -4-4v-2a0 0 0 0 1 0 0z" fill="#d0d8da"/><path d="m42 57h-20l.211-.422a16.937 16.937 0 0 0 1.789-7.578h16a16.937 16.937 0 0 0 1.789 7.578z" fill="#93999a"/><path d="m18 57h28a4 4 0 0 1 4 4 0 0 0 0 1 0 0h-36a0 0 0 0 1 0 0 4 4 0 0 1 4-4z" fill="#d0d8da"/><path d="m12 46a3 3 0 0 1 -3-3h-6v2a4 4 0 0 0 4 4h50a3.992 3.992 0 0 0 3.859-3z" fill="#93999a"/><path d="m22 57 .211-.422a16.937 16.937 0 0 0 1.789-7.578h16z" fill="#656b76"/><path d="m21 59a2 2 0 0 1 -2-2h-1a4 4 0 0 0 -4 4h36a3.955 3.955 0 0 0 -.555-2z" fill="#93999a"/><g><path d="m25 38h-16l1-16h14z" fill="#f9e109"/><path d="m24.9 36.451a15.986 15.986 0 0 1 -11.85-14.451h-3.05l-1 16h16z" fill="#fcbc04"/><path d="m14 30h6v4h-6z" fill="#f89c8d"/><path d="m15.8 30h-1.8v4h5.721a16.06 16.06 0 0 1 -3.921-4z" fill="#f8664f"/></g><circle cx="41" cy="20" fill="#f9e109" r="6"/><path d="m41 14v6h6a6 6 0 0 0 -6-6z" fill="#f89c8d"/><path d="m29 34h4v4h-4z" fill="#f9e109"/><path d="m37 32h4v6h-4z" fill="#f9e109"/><path d="m45 29h4v9h-4z" fill="#f9e109"/><path d="m53 25h4v13h-4z" fill="#f9e109"/><rect fill="#f89c8d" height="4" rx="2" width="4" x="53" y="15"/><g fill="#fcbc04"><path d="m35 20a6 6 0 0 0 6 6v-12a6 6 0 0 0 -6 6z"/><path d="m56 37a2 2 0 0 1 -2-2v-10h-1v13h4v-1z"/><path d="m48 37a2 2 0 0 1 -2-2v-6h-1v9h4v-1z"/><path d="m40 37a2 2 0 0 1 -2-2v-3h-1v6h4v-1z"/><path d="m32 37a2 2 0 0 1 -2-2v-1h-1v4h4v-1z"/></g></g></g><g id="Outline_copy" data-name="Outline copy"><g fill="#434951"><path d="m17 15a4 4 0 0 0 -4 4v2h-3a1 1 0 0 0 -1 .938l-1 16a1 1 0 0 0 1 1.062h16a1 1 0 0 0 1-1.062l-.623-9.938h7.623a1 1 0 0 0 .625-.219l2.952-2.362a7 7 0 1 0 -1.356-1.476l-2.572 2.057h-7.4l-.249-4.062a1 1 0 0 0 -1-.938h-3v-2a4 4 0 0 0 -4-4zm28.9 4h-3.9v-3.9a5.016 5.016 0 0 1 3.9 3.9zm-9.9 1a5.009 5.009 0 0 1 4-4.9v4.9a1 1 0 0 0 1 1h4.9a4.994 4.994 0 0 1 -7.711 3.13l.437-.349a1 1 0 1 0 -1.25-1.562l-.58.464a4.962 4.962 0 0 1 -.796-2.683zm-21-1a2 2 0 0 1 4 0v2h-4zm8.061 4 .187 3h-.248a1 1 0 0 0 0 2h.373l.563 9h-13.872l.875-14h2.061v2a1 1 0 0 0 2 0v-2h4v2a1 1 0 0 0 2 0v-2z"/><path d="m20 31a1 1 0 0 0 0-2h-6a1 1 0 0 0 -1 1v4a1 1 0 0 0 1 1h6a1 1 0 0 0 0-2h-5v-2z"/><path d="m33 39a1 1 0 0 0 1-1v-4a1 1 0 0 0 -1-1h-4a1 1 0 0 0 -1 1v4a1 1 0 0 0 2 0v-3h2v3a1 1 0 0 0 1 1z"/><path d="m37 31a1 1 0 0 0 -1 1v6a1 1 0 0 0 1 1h4a1 1 0 0 0 1-1v-6a1 1 0 0 0 -1-1zm3 6h-2v-4h2z"/><path d="m49 39a1 1 0 0 0 1-1v-9a1 1 0 0 0 -1-1h-4a1 1 0 0 0 -1 1v9a1 1 0 0 0 2 0v-8h2v8a1 1 0 0 0 1 1z"/><path d="m52 38a1 1 0 0 0 1 1h4a1 1 0 0 0 1-1v-13a1 1 0 0 0 -1-1h-4a1 1 0 0 0 -1 1zm2-12h2v11h-2z"/><path d="m55 20a3 3 0 1 0 -3-3 3 3 0 0 0 3 3zm0-4a1 1 0 1 1 -1 1 1 1 0 0 1 1-1z"/><path d="m61 22a1 1 0 0 0 -1 1v22a3 3 0 0 1 -3 3h-50a3 3 0 0 1 -3-3v-1h53a1 1 0 0 0 0-2h-53v-6a1 1 0 0 0 -2 0v9a5.006 5.006 0 0 0 5 5h15.941a16.013 16.013 0 0 1 -1.568 6h-3.373a5.006 5.006 0 0 0 -5 5 1 1 0 0 0 1 1h24a1 1 0 0 0 0-2h-22.829a3.006 3.006 0 0 1 2.829-2h28a3.006 3.006 0 0 1 2.829 2h-6.829a1 1 0 0 0 0 2h8a1 1 0 0 0 1-1 5.006 5.006 0 0 0 -5-5h-3.372a15.991 15.991 0 0 1 -1.569-6h15.941a5.006 5.006 0 0 0 5-5v-22a1 1 0 0 0 -1-1zm-20.578 34h-16.844a18.081 18.081 0 0 0 1.394-6h14.056a18.081 18.081 0 0 0 1.394 6z"/><path d="m57 8h-50a5.006 5.006 0 0 0 -5 5v19a1 1 0 0 0 2 0v-19a3 3 0 0 1 3-3h50a3 3 0 0 1 3 3v6a1 1 0 0 0 2 0v-6a5.006 5.006 0 0 0 -5-5z"/></g></g></g>
                </symbol>
                <symbol id="news" viewBox="0 0 505.536 505.536">
                   <path d="m103.757 465.536c0 16.569 13.799 30 30.822 30h236.379c17.022 0 30.822-13.431 30.822-30v-47.282h-298.023z" fill="#e8e7e9"/><path d="m103.757 308.399v-222.593h298.022v332.448h-298.022v-30.597" fill="#80b6ff"/><path d="m401.779 40c0-16.569-13.799-30-30.822-30h-236.378c-17.022 0-30.822 13.431-30.822 30v45.806h298.023v-45.806z" fill="#e8e7e9"/><circle cx="248.794" cy="456.895" fill="#f2efef" r="38.641"/><path d="m330.629 371.289h-155.722c-5.523 0-10-4.477-10-10v-216.123c0-5.523 4.477-10 10-10h155.721c5.523 0 10 4.477 10 10v216.123c.001 5.522-4.477 10-9.999 10z" fill="#ffc144"/><path d="m296.261 41.168h-86.986c-12.84 0-12.859 20 0 20h86.986c12.841 0 12.859-20 0-20z"/><path d="m411.779 40c0-22.056-18.313-40-40.822-40h-236.378c-22.509 0-40.822 17.944-40.822 40v268.399c0 12.84 20 12.859 20 0v-212.593h278.022v312.448h-278.022v-20.597c0-12.84-20-12.859-20 0v77.879c0 22.056 18.313 40 40.822 40h236.379c22.509 0 40.822-17.944 40.822-40v-425.536zm-277.2 445.536c-11.481 0-20.822-8.972-20.822-20v-37.282h95.757c-12.336 16.872-12.34 40.403 0 57.282zm114.215 0c-15.793 0-28.641-12.848-28.641-28.641 0-15.792 12.848-28.641 28.641-28.641 15.792 0 28.641 12.848 28.641 28.641s-12.848 28.641-28.641 28.641zm142.985-20c0 11.028-9.341 20-20.822 20h-82.883c12.336-16.872 12.341-40.403 0-57.282h103.705zm0-389.73h-278.022v-35.806c0-11.028 9.341-20 20.822-20h236.379c11.481 0 20.822 8.972 20.822 20v35.806z"/><path d="m95.439 353.738c2.382 3.542 6.864 5.233 10.984 4.086 4.2-1.17 7.214-5.027 7.33-9.391.237-8.899-11.052-13.623-17.215-7.157-3.192 3.349-3.67 8.603-1.099 12.462z"/><path d="m330.628 381.289c11.028 0 20-8.972 20-20v-216.123c0-11.028-8.972-20-20-20h-155.721c-11.028 0-20 8.972-20 20v216.123c0 11.028 8.972 20 20 20zm-155.721-236.123h155.721l.013 216.122s-.004 0-.013 0h-155.721z"/><path d="m292.287 205.539h-79.039c-12.84 0-12.859 20 0 20h79.039c12.84 0 12.859-20 0-20z"/><path d="m292.287 242.57h-79.039c-12.84 0-12.859 20 0 20h79.039c12.84 0 12.859-20 0-20z"/><path d="m292.287 277.868h-79.039c-12.84 0-12.859 20 0 20h79.039c12.84 0 12.859-20 0-20z"/>
                </symbol>
            </defs>
        </svg>