<svg xmlns="http://www.w3.org/2000/svg" width="104.751" height="79.025" viewBox="0 0 104.751 79.025">
  <path id="Chicks" d="M140.7,517.35c2-3.31.41-8.3-3.82-9.24a6.54,6.54,0,0,0-2.75,0,4.59,4.59,0,0,0-3.26-2.73,4.48,4.48,0,0,0-2.91.36,7.08,7.08,0,0,0-.69-4,5,5,0,0,0-5.41-2.58,4.36,4.36,0,0,0-3.63,4.61c.09,1.79,1.1,4.45,3,5.12-.91.39-1.5,1.49-2.07,2.24-.87,1.14-1.71,2.31-2.51,3.49a3.328,3.328,0,0,0-.37-.58,3,3,0,0,0-2.78-1.14c-2.06.53-1.65,3-.5,4.3-5.85-1-14.26,1.33-16.85,6.77-5.85-7.21-17.19-10.35-25.9-9-13,2-22.35,13-24,25.7-1.71,13.18-.46,30.65,14.61,35,8.3,2.37,17.49,2.52,26.05,2.38s17.35-.39,25.76-1.82c5.95-1,13.89-3.65,15.41-10.4,1.47-6.5-4.36-10.83-9.31-13.72v-.08a.71.71,0,0,0-.14-.29,3.24,3.24,0,0,0-1.53-1.55,23.411,23.411,0,0,0,3.06-9.8,5.3,5.3,0,0,0,6.66.15c1.8-1.51,1.3-3.44-.06-4.73,1.75-1.73,3.48-3.47,5.28-5.15s4-3.27,5.82-5.12a8,8,0,0,0,7,4c2.41-.07,5-1.49,5.48-4C151.15,520.24,145.33,515.83,140.7,517.35Zm-18.63-7.79a.45.45,0,0,0,0-.53h0a.36.36,0,0,0,.18-.67c-2.88-1.83-3.89-8,.78-7.81a3.62,3.62,0,0,1,3.26,2.76c.47,1.59-.28,2.69-.36,4.2a.44.44,0,0,0,.07.28.47.47,0,0,0,.77.24.571.571,0,0,0,.16-.11,1.738,1.738,0,0,0,.12-.14,3.38,3.38,0,0,1,5.57.8,5.69,5.69,0,0,0-2.1,1.75,5.38,5.38,0,0,0-1.08,3.37h-.18a2.4,2.4,0,0,1-1.84-.9.46.46,0,0,0-.76.44v.07c-1,.4-1.78,1.56-2.52,2.37-.9,1-1.77,2-2.65,3l-.24-.08a2.81,2.81,0,0,0-.15-4.07,3.09,3.09,0,0,0-2.53-.73,46.582,46.582,0,0,0,3.5-4.24Zm.31,9.61c.9-.86,1.8-1.71,2.68-2.58a9.849,9.849,0,0,0,2.16-2.35,3,3,0,0,0,2.38.79,11.78,11.78,0,0,0,1.39,3.31c-1.62,1.59-3.18,3.25-4.75,4.9a34.526,34.526,0,0,0-3.59,3.84,3.63,3.63,0,0,0-3.54-2.58,3.89,3.89,0,0,0-1.48.31,5.88,5.88,0,0,0,.33-1.73c1.73,1.27,4.42,1.19,5.22-1.18a2.43,2.43,0,0,0-.8-2.73Zm-7.75-.32c.74.07.82-1,.17-1.24l-.37-.1a.61.61,0,0,0,0-.44c-.26-.57-.76-1-1-1.59s-.1-1.24.52-1.29c1-.1,1.78.93,2.07,1.87a1.29,1.29,0,0,0,0,.48.47.47,0,0,0,.13.24c.11.37.74.47.8,0a.76.76,0,0,0,0-.15c.36-.36.55-.86,1-1.17a1.76,1.76,0,0,1,2-.1,1.7,1.7,0,0,1-.25,3.07,2,2,0,0,0-.86.25.56.56,0,0,0,0,1c.92.46,3.36,0,2.94,1.74-.47,2-2.94,1.14-4.1.41h0a1.937,1.937,0,0,0-.23-.33.57.57,0,0,0-.94.25,8.72,8.72,0,0,0,0,2,8.821,8.821,0,0,1-.55,2.09.47.47,0,0,0,.12.48,5.53,5.53,0,0,0-.18,4c-5-2-10.87-1.34-16.27,1a16.82,16.82,0,0,0-2.9-6.52C100.58,518.92,108.32,518.24,114.63,518.85ZM126.37,563c.62,5.53-4.53,8.88-9.14,10.38-7.18,2.35-15.36,2.28-22.86,2.67A145.217,145.217,0,0,1,71,575.67c-9.35-1-18.18-3.3-21.72-13-2.58-7.09-2.43-16.08-1.16-23.46a27.72,27.72,0,0,1,12.05-18.54c11.88-7.83,34.39-4.59,38.31,11.15-9.81,4.77-17.49,15.07-13.69,25,3.42,9,13.24,9,20.56,5A31.171,31.171,0,0,0,116,551.88a4,4,0,0,0,.61.32.66.66,0,0,0,.36.6C120.93,555.12,125.81,557.9,126.37,563Zm-3.91-28.09a.41.41,0,0,0,.25.51,12.525,12.525,0,0,1,2.75,1.13c1.49,1.19.9,2.93-.77,3.51a4.79,4.79,0,0,1-4.55-.94V539c0-.85-1.39-1.1-1.53-.21-1.2,7.66-4.38,14-10.53,18.92-6.86,5.45-19.26,8.28-22.1-2.94-2.06-8.11,4.24-15.74,10.71-19.77,6.91-4.29,14-4.6,21.62-2.48a.45.45,0,0,0,.34-.82c-.33-.22-.68-.42-1-.62a8.59,8.59,0,0,1-.63-3.19,2.16,2.16,0,0,1,2.13-2c1.9-.09,2.73,1.61,2.58,3.23a1.72,1.72,0,0,0-.29.74.61.61,0,0,0,0,.36.45.45,0,0,0,.83.22.16.16,0,0,1,.07-.13,3,3,0,0,1,2-1,2,2,0,0,1,2,1.61c.58,2.25-1.64,3.46-3.57,3.25a.418.418,0,0,0-.31.73ZM144,528a6.71,6.71,0,0,1-4.89-3.24.75.75,0,0,0-1.17-.12.65.65,0,0,0-.92-.24c-3.67,2.19-7,5.73-9.82,9.19a3.65,3.65,0,0,0,.43-3.4,3.36,3.36,0,0,0-3-2.25,3.791,3.791,0,0,0-1.42.24c1.24-1.37,2.79-2.58,4.11-3.87,1.69-1.67,3.4-3.32,5-5A.76.76,0,0,0,132,518c-.89-2-1.7-4.05-.52-6.1a4.56,4.56,0,0,1,5-2.11c4.15.95,4.42,6,1.32,8.36a.77.77,0,0,0,.66,1.37.44.44,0,0,0,.6.08c3.78-2.7,9.42,0,9.79,4.69C149,527,146.36,528.24,144,528Z" transform="translate(-45.665 -499.062)" fill="#3c3c3b"/>
</svg>
