<svg xmlns="http://www.w3.org/2000/svg" width="41.435" height="66.639" viewBox="0 0 41.435 66.639">
  <g id="sweets" transform="translate(-23.701 -83.111)">
    <path id="Path_12301" data-name="Path 12301" d="M211.833,183.883c.619-1.479-.406-3.653-.688-5.077q-1.1-5.214-2.263-10.415c-1.479-6.638-2.979-13.27-4.547-19.888a4.6,4.6,0,0,0,1.527-1.341,2.879,2.879,0,0,0-.378-3.811,5.339,5.339,0,0,0-3.047-2.126c0-3.839-4.946-5.655-8.255-4.884a5.682,5.682,0,0,0-4.21,3.591,5.945,5.945,0,0,0-.282,1.562,3.123,3.123,0,0,0-2.511-.5,3.041,3.041,0,0,0-2.064,2.463A5.414,5.414,0,0,0,179,141.445c-2.222.853-4.478,3.935-3.343,6.274a4.066,4.066,0,0,0-2.979.8,5.084,5.084,0,0,0-1.926,4.465c.083,1.376.53,3,2.064,3.206a2.387,2.387,0,0,0,1.844-.523c-.619,3.55-.1,7.512,0,11.076.1,4.41.213,8.826.378,13.236a.509.509,0,0,0,.3.461h0a104.893,104.893,0,0,0,16.662,13.187q4.54,2.986,9.308,5.613c2.47,1.376,5.5,3.687,8.413,3.557a.537.537,0,0,0,.5-.757c1.6-1.087,1.2-3.784,1.3-5.579C211.7,192.5,212.659,187.818,211.833,183.883Zm-36.1-17.136v-2.58c4.932,4.038,34.348,27.049,34.9,26.691h0a.475.475,0,0,0,0,.509,3.864,3.864,0,0,1-.034.633c-.055,1.025.069,2.937,0,4.815-5.221-4.54-11.241-8.365-16.827-12.431-5.923-4.32-11.853-8.661-17.886-12.8Q175.786,169.175,175.731,166.747Zm34.981,22.7c-1.314-1.376-3.653-2.58-4.864-3.5l-10.216-7.767c-6.563-4.987-13.071-10.126-19.888-14.77a33.744,33.744,0,0,0-.543-8.338,3.589,3.589,0,0,0,.4-.688,2.511,2.511,0,0,0,2.628.31c5.276,5.957,11.172,11.426,16.978,16.861q4.32,4.059,8.744,8.021c1.9,1.706,4.306,4.423,6.879,4.974.028,1.72-.014,3.309-.124,4.932Zm-3.44-22.013q1.011,4.554,2.009,9.108c.227,1.011,1.52,4.293,1.142,5.208-.929,2.2-2.621-.447-3.674-1.376-9.631-8.372-18.505-17.5-27.888-26.141a3.048,3.048,0,0,0,.771-1.61c1.314,1.507,3.213,2.511,5.242,1.637a4.159,4.159,0,0,0,1.94-5.091c1.211,1.376,3.33,1.665,4.279.144,1.286,1.658,3.158,2.944,5.373,2.311a3.288,3.288,0,0,0,2.428-3.206,5.62,5.62,0,0,0,4.189.516c1.431,6.205,2.848,12.348,4.21,18.505Zm-35.18-13.015a4.423,4.423,0,0,1-.172-3.006c.585-2.229,2.415-2.786,4.458-2.752a.316.316,0,0,0,.158-.592l-.131-.069a.219.219,0,0,0,0-.062c-1.114-2.428,1.507-5.545,3.921-5.73,2.215-.172,3.316,1.376,4.63,2.814a.4.4,0,0,0,.365.117c.151.282.55.062.5-.22a2.511,2.511,0,0,1,1.63-3.075c1.41-.323,2.064.764,2.587,1.809a.365.365,0,0,0,.688-.083,2.12,2.12,0,0,0,0-.413.206.206,0,0,0,0-.3.645.645,0,0,1-.062-.083,2.064,2.064,0,0,0-.234-.537c-.186-1.149.949-2.91,1.513-3.44a5.359,5.359,0,0,1,3.866-1.417c2.538,0,5.276,1.376,5.5,4.059-.234.241-.227.729.179.791l.31.069h.055c2.146.578,4.609,3.268,2.064,4.939a.688.688,0,0,0-1,.475,5.345,5.345,0,0,1-4.423-.619l-.124-.041a.468.468,0,0,0-.736.5,2.391,2.391,0,0,1-3.254,2.91,5.773,5.773,0,0,1-2.869-2.573c-.241-.365-.949-.385-1.032.131-1.624,1.328-2.814,1.376-3.557.213a.282.282,0,0,0-.482.1l-.083-.131a.461.461,0,0,0-.832.351c.316,1.768.977,4.224-1.376,4.884-1.919.537-3.584-.9-4.657-2.325a.385.385,0,0,0-.55-.076.371.371,0,0,0-.44.385c.055.8.31,1.575-.365,2.222a1.816,1.816,0,0,1-2.4-.117c-.275-.241-.764.076-.537.413a.876.876,0,0,1,.069.083C174.355,154.832,172.979,156.043,172.092,154.42Zm37.347,47.239c-3.343-.454-7.271-3.371-10.1-5.022q-3.921-2.28-7.684-4.815c-5.4-3.591-10.47-7.622-15.6-11.591a.523.523,0,0,0,.062-.261q-.117-3.825-.22-7.657c5.263,4.258,10.773,8.255,16.207,12.266,5.957,4.416,11.819,9.369,18.154,13.215a.44.44,0,0,0,.3.055C210.43,199.492,210.127,200.971,209.439,201.659Z" transform="translate(-147.028 -53.056)" fill="#71496b"/>
    <path id="Path_12302" data-name="Path 12302" d="M214.264,179.232a.729.729,0,0,0-1.2-.323l-1.163.688a32.492,32.492,0,0,0,.048-5.5.722.722,0,0,0-1.335-.358l-2.882,3.756c.2-4.2,2.133-8.166,2.064-12.444,0-.475-.605-.942-1.046-.6-2.394,1.837-3.405,4.588-5.125,6.92,0-4.024,2.194-7.822,2.016-11.929a.729.729,0,0,0-1.225-.509,25.874,25.874,0,0,0-4.994,6.515,21.266,21.266,0,0,0-.963,2.064,3.756,3.756,0,0,1-.516-2.311c-.282-1.768-.3-3.618-.468-5.407-.041-.413-.523-.853-.942-.537a8.4,8.4,0,0,0-3.371,5.1.378.378,0,0,0,.722.2,7.106,7.106,0,0,1,2.38-3.584c.041,2.332-.069,5.015.537,7.106.227.784.4,1.376,1.3,1.376,1.066.041,1.376-1.025,1.809-1.8a37.21,37.21,0,0,1,4.224-6.384c-.44,4.059-2.525,7.808-1.768,12.011a.722.722,0,0,0,1.2.316c1.947-2.064,2.9-4.891,4.76-6.962-.4,4.327-2.415,8.372-1.967,12.809a.688.688,0,0,0,1.321.358L210.6,176a34.279,34.279,0,0,1-.275,4.815c-.069.488.509.791.908.688a5.023,5.023,0,0,0,1.844-.77,7.32,7.32,0,0,1-.151,2.38c-.138.86,1.135,1.252,1.335.371A9.838,9.838,0,0,0,214.264,179.232Z" transform="translate(-154.026 -60.099)" fill="#d11"/>
  </g>
</svg>
