<svg xmlns="http://www.w3.org/2000/svg" width="123.59" height="140.712" viewBox="0 0 123.59 140.712">
  <g id="Pastries" transform="matrix(0.53, 0.848, -0.848, 0.53, -3242.743, -3578.215)">
    <path id="Path_12420" data-name="Path 12420" d="M571.248,305.227c-9.3-2.838-21.943-1.385-31.493,0A159.287,159.287,0,0,0,483.9,324.6a.876.876,0,0,0-.557.107.565.565,0,0,0-.286.394c-1.621.952-3.222,1.928-4.78,2.938-8.718,5.651-16.331,12.578-20.932,20.791-3.991,7.12-5.918,16.509,2.39,22.1a.573.573,0,0,0,.516.593c11.1,2.6,22.343.075,32.641-3.405a227.393,227.393,0,0,0,30.3-12.728,220.676,220.676,0,0,0,27.376-16.426c8.213-5.792,17.037-12.086,22.775-19.614C576.923,314.642,579.5,307.748,571.248,305.227Zm-18.437.4c1.579,1.411.706,4.949.137,6.56a10.421,10.421,0,0,1-2.748,4.173,16.033,16.033,0,0,0-3.464-10.433c2.011-.175,4.022-.309,6.033-.384.021.059.021.059.042.059Zm-24.491,3.339q3.58-.835,7.213-1.494a16.42,16.42,0,0,1,1.527,7.67c-.105,1.536-.663,5.651-2.3,7.27a18.52,18.52,0,0,0-7.118-13.279Zm-8.75,2.3c2.369,2.638,1.7,6.836,1.474,9.857-.211,2.846-.505,5.759-2.053,8.3-.566-5.722-3.687-11.1-8.8-15.157q4.644-1.653,9.382-3.021Zm-19.521,6.944c3.254,5.367,7.371,13.546,2.938,19.2-1.927-5.926-3.506-12.077-9.9-15.984,2.274-1.152,4.591-2.212,6.96-3.23Zm-22.975,12.52c2.169-1.5,4.422-2.93,6.749-4.315a24.821,24.821,0,0,1,4.928,11.794,16.719,16.719,0,0,1-.758,6.777c-.684,2.045-1.653,5.6-2.59,1.669-1.358-5.6-3.569-11.518-9.2-15.341Zm-10.435,8.689A17.575,17.575,0,0,1,470.4,358.77c-1.611-5.008-3.727-10.016-9.171-13.2a61.018,61.018,0,0,1,5.412-6.151Zm100.65-15.992c-11.93,11.476-27.208,21.334-42.823,29.463a227.074,227.074,0,0,1-27.376,12.061c-11.235,4.1-23.5,8.071-35.968,5.517-8.929-6.819-6.318-16.151-.189-24.439,5.191,4.023,7.065,9.181,8.687,14.665a.671.671,0,0,0,.572.386.772.772,0,0,0,.681-.252c3.864-6.677,3.159-16.6-3.422-22.177A78.517,78.517,0,0,1,475.7,331.7c5.591,5.35,7.56,11.543,8.918,18.362a.8.8,0,0,0,.927.409c4.107-.835,4.7-7.462,4.77-10.133a23.657,23.657,0,0,0-5.265-14.6c2.359-1.369,4.8-2.679,7.307-3.923,6.254,4.474,7.371,11.109,9.561,17.236a.748.748,0,0,0,.576.453.961.961,0,0,0,.783-.169c5.8-5.7,2.99-15.959-2.022-21.592q4.075-1.7,8.265-3.2a.425.425,0,0,0,.095.159c5.152,4.692,7.964,10.715,7.907,16.935a.723.723,0,0,0,.62.614.958.958,0,0,0,.927-.28c3.327-3.422,3.612-8.146,3.78-12.319.105-2.888.39-6.335-1.769-8.789,1.948-.543,3.885-1.043,5.833-1.519,3.706,4.449,6.149,8.881,6.318,14.314a.621.621,0,0,0,.333.516,1,1,0,0,0,.72.1c2.906-.835,3.833-5.367,4.212-7.4a14.981,14.981,0,0,0-1.621-9.607c2.927-.492,5.886-.885,8.855-1.177,1.99,3.94,3.159,7.612,2.738,11.977-.063.6.906.793,1.39.459a11.67,11.67,0,0,0,4.959-7.086c.421-1.794.884-4.173-.211-5.884H558.7c5.265.092,13.246-.242,15.4,4.248,2.306,4.749-3.043,9.982-6.791,13.613Z" transform="translate(4329.972 -1207.056)" fill="#3c3c3b"/>
  </g>
</svg>
