<svg xmlns="http://www.w3.org/2000/svg" width="78.42" height="79.719" viewBox="0 0 78.42 79.719">
  <g id="Hot_drinks" data-name="Hot drinks" transform="translate(-5450.301 1462.03)">
    <path id="Path_12510" data-name="Path 12510" d="M424.9,702.17c.16-1.67.26-3.34.3-5a.72.72,0,0,0-.6-.79.82.82,0,0,0-.45-.38A71.331,71.331,0,0,0,394,692.68a124.1,124.1,0,0,0-13.85,2.11c-3.19.66-9.46.88-11.55,3.5a.44.44,0,0,0-.06.52l.13.23a.49.49,0,0,0-.19.34.44.44,0,0,0-.45.37,29,29,0,0,0,7.62,24.68c-7,.07-19,3.86-14.23,12.7,5.22,9.68,20.7,9.82,30,9.55a107.7,107.7,0,0,0,19.35-2.35c4.5-1,9.87-2.07,13.09-5.7,2.17-2.44,3.32-6.21,2-9.33-1.47-3.46-5.09-4.34-8.5-4.56.41-.57.82-1.15,1.2-1.75,6,6.4,18.27,2.94,20-5.69C440,710.15,433,697.78,424.9,702.17Zm-.61,4.57c4.78.46,10.21,2.41,9.42,8.4-.82,6.34-8.67,6.85-12.83,3.52h0A49.588,49.588,0,0,0,424.29,706.74Zm-43.72-10.42a117.289,117.289,0,0,1,15.26-2.18,67.75,67.75,0,0,1,27.62,3.43v.1c-6.64,6.27-15.79,7-24.57,7.14a93.683,93.683,0,0,1-15-1c-4.82-.71-10.78-1.26-14.44-4.79l-.1-.07C370.62,697.68,379.06,696.63,380.57,696.32Zm42.48,32.15c2.42,2.49,1.4,6.49-.55,8.76-2.18,2.54-5.72,3.6-8.84,4.42a101.416,101.416,0,0,1-22.2,3.15c-6.61.22-13.67.15-19.93-2.25-4.81-1.84-12.75-7.45-7.29-12.94,3-3.05,8.44-3.78,12.58-4a30.663,30.663,0,0,0,3.2,2.7c-3.37,1.17-6.66,4.17-4.15,7.86,3.34,4.9,12.95,4.27,18,4.51,6.56.31,16.29.85,21.66-3.81,3.36-2.92,2-6.7-1.57-8.32a26.392,26.392,0,0,0,2.16-2.2,1.43,1.43,0,0,0,.33.1c2.14.24,4.99.36,6.6,2.02Zm-10,.85c5.67,5.91-2.66,8.45-6.76,9.21a53.421,53.421,0,0,1-11.58.53c-4-.14-8.35-.11-12.22-1.14-2.83-.75-3.63-.79-4.34-4-.74-3.33.35-3.59,2.79-5a30.461,30.461,0,0,0,15.83,5.3c6.86.36,12.23-1.57,16.29-4.9Zm5-8.5c-4.31,7.7-11.76,11.69-20.53,11.58-17.69-.23-29.06-15.33-28.5-32.12,2.7,3,6.75,3.71,10.67,4.46a94.206,94.206,0,0,0,18.2,1.71c8.2,0,18.83-.38,25.23-6.35-.8,7.13-1.45,14.3-5.04,20.72Zm18.39-2.26c-2.42,6.53-12.2,7.51-17,2.9.36-.65.7-1.33,1-2,4.24,4.61,12.94,3.35,14.64-3.12,1.61-6.14-4.56-12.24-10.66-10.88.09-.65.18-1.3.26-2,8.58-3.17,14.45,7.92,11.79,15.1Z" transform="translate(5089.972 -2129.056)" fill="#3c3c3b"/>
    <path id="Path_12511" data-name="Path 12511" d="M388.55,690.65c-2.78-.85-6.56-1-7.07-4.42-.37-2.45,1.52-3.87,1.65-6.32.2-3.59-3.79-5.88-6.57-7.26-.76-.38-1.62.58-.95,1.23,2.72,2.6,6.73,4.33,4.58,8.87-.77,1.6-1.63,2.81-.93,4.64,1.28,3.32,6.09,4.21,9.15,4.26a.51.51,0,0,0,.14-1Z" transform="translate(5089.972 -2129.056)" fill="#3c3c3b"/>
    <path id="Path_12512" data-name="Path 12512" d="M398.57,667.2c-.6-.49-1.62.13-1.14.88.34.53,2.35,3.36,2.37,3.41,1.79,3.51-.36,5.06-2.83,7.08-1.05.85-2.05,1.3-2.54,2.64-1.17,3.22,2.47,5.87,4.67,7.57.59.45,1.21-.48.76-1-.79-.88-3-2.83-3.28-3.79-1.18-3.59,1.82-3.76,3.52-4.92a5.27,5.27,0,0,0,2.17-2.75C403.5,672.85,401.14,669.33,398.57,667.2Z" transform="translate(5089.972 -2129.056)" fill="#3c3c3b"/>
    <path id="Path_12513" data-name="Path 12513" d="M419.9,672.81c-.45-.84-1.88-.26-1.56.66.47,1.39,1.1,2.7,1.62,4.08.44,1.17,1,2.47-.47,3.21a6,6,0,0,1-2.46.13c-2.4-.16-4.7-1.63-7.06-.43a4.35,4.35,0,0,0-.63,7.44c.38.25.86-.25.63-.63-1.16-1.85-1.53-4.63,1.28-5.4,1.44-.4,3.18.54,4.59.78s3.73.44,5.15-.41C424.36,680.23,421.14,675.12,419.9,672.81Z" transform="translate(5089.972 -2129.056)" fill="#3c3c3b"/>
  </g>
</svg>
