<svg xmlns="http://www.w3.org/2000/svg" width="101.129" height="101.921" viewBox="0 0 101.129 101.921">
  <path id="pans" d="M535.76,589.89v-.54a.671.671,0,0,0-.08-.33.62.62,0,0,0,.12-.49c1.3.09,2.61.15,3.91.2a.64.64,0,0,0,.69-.59c3.65-2,.61-9.5-.86-12.11-3.22-5.72-9.06-9.69-14.78-12.75a4.83,4.83,0,0,0,1.18-1.66c.62-1.59-1.06-2.45-2.29-3a3.7,3.7,0,0,0-4.26.48,3.841,3.841,0,0,0-.83,1.25,39.42,39.42,0,0,0-16.42-3.08c-3.93.19-13.47,1.26-14.72,6.08a.28.28,0,0,0-.21.28c0,5.73,4.4,10.31,9.39,13.64a15.3,15.3,0,0,0-4.68.57l-.06-.16c-1.31-2.95-4-3.17-6.66-4-1.75-.58-3.77-1.31-4.44-3.46-.39-1.25-.3-4.64-.49-6.07-.79-6.12,2.77-9.82,6-14.31a.481.481,0,0,0,.14,0,10.68,10.68,0,0,0,4.35-12.34c-1.55-4.53-6-7.27-10.46-8.36-11.56-2.82-24.73,4.14-29.56,14.85-2.13,4.72-2.25,10,1.07,14.22a13.2,13.2,0,0,0,5.62,4.19c3.53,1.34,7.66-.67,10.92.69,3.56,1.49,1.67,8.6,3.16,11.66a8.47,8.47,0,0,0,4.18,4.06,8.8,8.8,0,0,0,3.39.59,16.22,16.22,0,0,0-5,1.87.58.58,0,0,0-.78.35c-.2.72-.38,1.46-.55,2.2-2.44-1.92-5.68-2.13-8.73-1.91-2.64.18-6.07.42-7,3.41-2.16,7.23,9.59,9.14,14.32,8.25-.16,2.36-.22,4.71-.22,7,0,5.81.1,12.2,2.24,17.7,4.08,10.48,15.28,11.15,25.13,11.77s23.27,1.69,29.62-7.49c4.46-6.44,6.31-15.15,7.11-23.48,1.7,1.32,5.61,1.27,7,1.09,2.95-.4,6.64-1.68,7.76-4.73C552.67,588,539.73,587.65,535.76,589.89Zm-64.06-.18a17.4,17.4,0,0,1-5-.3c-1.26-.28-3.5-.81-4.18-2v-1.7a8.189,8.189,0,0,1,2.09-.37,11.879,11.879,0,0,1,2.91.23,38.35,38.35,0,0,1,4.57,1.3h.05C472,587.78,471.81,588.75,471.7,589.71Zm.64-4.18c-2.07-.74-12.13-3.79-11.72.93.39,4.39,7.79,4.61,11,4-.06.49-.11,1-.15,1.48a1,1,0,0,0-.34,0,14.71,14.71,0,0,1-7.1-.32c-2.7-.84-9.27-5-3.34-7.91,3.31-1.59,8.6-.79,11.85.8-.08.36-.13.69-.2,1.02Zm23.05-7a35.473,35.473,0,0,0,3.94.38,52.288,52.288,0,0,0,5.36,2.62,95.22,95.22,0,0,0,29.09,6.83,93.681,93.681,0,0,1-30,2.41,108.474,108.474,0,0,1-11.5-1.52.17.17,0,0,0,0-.07c-1.48-3.42.76-7.08-.07-10.51a22.424,22.424,0,0,1,3.18-.13Zm-23.27-7.38a34.352,34.352,0,0,1,.27-3.49c0-1.64.13-2.84-1-4.19-2.39-2.93-6.73-1.53-9.87-1.69-9.36-.49-13.06-10.26-9.25-18a25.53,25.53,0,0,1,12.55-11.73c5.48-2.45,11.94-3.2,17.59-.91,8,3.23,9.68,11.84,3.45,17.75a20.32,20.32,0,0,0-6.62,9.18,12.671,12.671,0,0,0-.49,5.5c.2,1.66.83,3.39.79,5.07,0,.08-.81,3.37-.47,4.12,1.31,2.87,4.49,1.76,7.06,2.33,7.22,1.61,3.21,8.87,4.59,13.8-1.36-.31-2.71-.67-4-1.09.76-3,4.51-4.54,1.6-7.84-2.55-2.91-6-1.24-9.22-1.84-4.05-.7-6.74-2.74-6.98-6.96Zm8.22,9.33c2-.3,4.06-.21,6.07-.45a4.913,4.913,0,0,1,1,.68c1.25,1.11-1,4.5-1.32,6.91a31,31,0,0,1-10.83-6c1.74-.37,3.36-.87,5.08-1.13Zm47.83,38.58c-5.49,10.63-18.34,9.79-28.73,9.24-5.1-.27-10.58-.59-15.48-2.12-6.24-2-9.15-7.19-10.29-13.31-1.89-10.23-.36-20.5.65-30.71,5.63,7.12,16.41,8.45,24.8,9.53,11.7,1.5,24,1.2,35.31-2.2-.43,9.77-1.71,20.75-6.26,29.58ZM508.71,581.4c-8.57-3.08-17.8-8.22-20.68-17.45,2-4.41,11.83-5.22,15.8-5.19a38.632,38.632,0,0,1,14.4,3.12,10.369,10.369,0,0,0,.14,2.36.52.52,0,0,0,.59.46c.86.91,2.44.54,3.46.11a7.088,7.088,0,0,0,1-.5,51.524,51.524,0,0,1,9.22,6.1,24.61,24.61,0,0,1,5.11,5.76c.94,1.51,4.84,9.61,1.68,10.78a.75.75,0,0,0-.35.27A103.119,103.119,0,0,1,508.71,581.4Zm27.39,11.41a11.379,11.379,0,0,1,4.71-.92,9,9,0,0,1,2.47.39,2.13,2.13,0,0,1,1,3.47c-2.14,2.14-6.27,1.1-8.81.15q.1-1.56.18-3.09a.58.58,0,0,0,.45,0Zm11.38,3.44c-2.83,3.17-8.44,3-12.16,1.76l.09-1.3c3.21,1.79,10.13,2.7,11-2,1-5.33-7.95-4.36-10.68-3.25h0v-.24a.67.67,0,0,0,.55,0C539.34,589.64,553.21,589.83,547.48,596.25Z" transform="translate(-449.216 -528.511)" fill="#3c3c3b"/>
</svg>
