<svg xmlns="http://www.w3.org/2000/svg" width="56.022" height="79.892" viewBox="0 0 56.022 79.892">
  <g id="juice" transform="translate(-658.681 -197.676)">
    <path id="Path_12158" data-name="Path 12158" d="M750.83,225.23c-.75-.72-2.15-.27-3.07-.2-2,.17-4,.38-6,.61a.52.52,0,0,0-.36.88c2.34,2.25,4.66,4.61,7.19,6.65a.343.343,0,0,0,.48-.49,84.839,84.839,0,0,0-6.15-6.14c1.84-.21,3.68-.4,5.52-.55a3.85,3.85,0,0,1,1.34-.1c.68.3.72,1.29.79,1.9a8.54,8.54,0,0,1-.78,4.36c-.25.57.55,1.08.86.5a8.7,8.7,0,0,0,1-4C751.62,227.67,751.59,225.94,750.83,225.23Z" transform="translate(-43.02 -15.01)" fill="#3c3c3b"/>
    <path id="Path_12159" data-name="Path 12159" d="M747.67,221.72c-2,.64-4,1.33-6.08,2a14.892,14.892,0,0,1,.21-2.3c.11-.64.21-2.35,1-2.51.52-.11,1.72.71,2.19,1a23.576,23.576,0,0,1,2.25,1.73c.38.3,1.11-.11.75-.58a9.151,9.151,0,0,0-2.82-2.31c-.74-.42-2-1.22-2.9-1s-1.14,1.37-1.33,2.15a18.172,18.172,0,0,0-.54,4.64.59.59,0,0,0,.73.56,48.754,48.754,0,0,0,6.82-2.68.377.377,0,0,0-.28-.7Z" transform="translate(-43.02 -15.01)" fill="#3c3c3b"/>
    <path id="Path_12160" data-name="Path 12160" d="M738.77,219.81a.54.54,0,0,0-.79-.32,14.21,14.21,0,0,0-3.05,2.3,6.841,6.841,0,0,0-1.89,2.56c-.2.87.61,1.16,1.28,1.35a13.36,13.36,0,0,0,4.4.45.51.51,0,0,0,.48-.43.28.28,0,0,0,.27-.3C739.32,223.55,739.08,221.65,738.77,219.81Zm-3.12,5.1a4.289,4.289,0,0,1-1.46-.35c-.05-.15.23-.52.38-.72a12.181,12.181,0,0,1,3.3-3c.26,1.45.56,2.9.91,4.33h-.06a17.55,17.55,0,0,1-3.07-.26Z" transform="translate(-43.02 -15.01)" fill="#3c3c3b"/>
    <path id="Path_12161" data-name="Path 12161" d="M745.93,213.25c-8.22-2.39-16.57,3.1-18.53,11.22a9.794,9.794,0,0,0-.19,1h0a60.47,60.47,0,0,0-24.33,1.16c-.15-.35-.73-.23-.78.16-.36-.14-.55.43-.25.63l.24.15c-.2,9.95,1,20,1.68,30q1,15.34,2.06,30.7a.88.88,0,0,0,1.18.74c8.4,4.11,19.83,5.73,27.32-1a.7.7,0,0,0,.11-.89c1.76-14.57,4.1-29.44,5.31-44.24,6.92,3.51,15.23-1,17.36-8.23C759.54,226.16,754.54,215.75,745.93,213.25ZM727,226.77h.08a16.549,16.549,0,0,0,.53,5.49c-8.05.65-17-2.1-23.93-4.86a111.513,111.513,0,0,1,23.32-.63Zm9.45,29.62q-1.63,15.32-3.5,30.62c-8.25,5.78-16.48,3.23-25.52.88l-2.13-31.4c-.63-9.4-.81-19-2.19-28.33A44,44,0,0,0,728,233.69c1.58,4.3,4.92,7.81,9.77,7.9-.43,4.94-.77,9.89-1.34,14.8Zm1.45-15.53a15.06,15.06,0,0,1-8.13-7.39c.56-.09,1.11-.19,1.65-.32,1.48,2.86,3.85,5.19,6.68,5.78-.1.65-.16,1.29-.22,1.93Zm.26-2.56a13.15,13.15,0,0,1-5.55-5.45c.62-.17,1.22-.38,1.81-.6a17.489,17.489,0,0,0,1.25,1.59.56.56,0,0,0,.87-.12c.65-1.12,1.24-2.28,1.79-3.45.32-.22.63-.44.93-.68-.46,2.89-.82,5.8-1.12,8.71Zm-3.5-7.7c-.33-.54-.78-1.35-.65-1.53.25-.34,1.68-.42,2.12-.52l1.92-.43c-.12.29-.26.56-.38.85a19.064,19.064,0,0,1-3.03,1.63Zm1.88.72c-.2.38-.38.76-.58,1.13-.17-.2-.33-.41-.49-.62.34-.16.7-.33,1.05-.51Zm3.05-3.78v.25a.9.9,0,0,0-.23,0,.54.54,0,0,0-.71-.39h-.08c-1.27.09-2.52.26-3.78.41-.71.09-1.71.06-1.92.91s.44,1.67.8,2.29c-.56.2-1.12.38-1.69.53a10.51,10.51,0,0,1-.86-6.83c1.44-5.55,9.25-9.07,14.18-7.06,4,1.65,8.56,6.79,8.51,11.41-.07,6.27-7.73,12-13.73,9.58a7.607,7.607,0,0,1,.07-1.26.54.54,0,0,0,.26.2c1.9.67,6.45.18,6.55-2.58,0-1.23-1.35-2.38-2.08-3.19a27.335,27.335,0,0,0-4.28-4h0a.572.572,0,0,0,0-.13c-.09-.53-.94-.68-1.03-.14Zm.55,9.24c.17-2.84.3-5.67.36-8.49,1.25,1.51,2.64,2.91,3.92,4.39,1,1.11,2.14,2.43.31,3.59a5.83,5.83,0,0,1-4.09.34.51.51,0,0,0-.52.17Zm-.24,4.54h0c0-.46.06-.92.1-1.37,5.6,2.17,12.23-2.08,14.34-7.42,2.48-6.31-2.74-13.61-8.55-16-5.59-2.32-13.53,1.46-15.52,7.19a12,12,0,0,0,.57,8.1c-.52.11-1,.2-1.56.28a13.05,13.05,0,0,1-.26-7.18c1.63-6.79,8.2-11.79,15.25-10.37s12.11,8.78,11.9,16c-.32,8.38-8.37,14.26-16.29,10.77Z" transform="translate(-43.02 -15.01)" fill="#3c3c3b"/>
    <path id="Path_12162" data-name="Path 12162" d="M735.81,243.46a.5.5,0,0,0-.33-.4c-8.64-3.81-19.68-4.7-28.92-2.8a.26.26,0,0,0-.21.26.25.25,0,0,0-.24.25A290.818,290.818,0,0,0,709,286.06a.39.39,0,0,0,.4.33h0c6.94,3.8,15.19,3.27,22.1-.29a.49.49,0,0,0,.21-.71.23.23,0,0,0,.37-.13c1.59-6.37,1.46-13.21,2.12-19.73.72-7.21,1.33-14.43,1.91-21.65a.41.41,0,0,0-.3-.42Zm-1,.73c-3.85,3.1-9.66,2.83-14.33,2.54-5.08-.31-10.3-1.76-13.67-5.84,9.44.11,19.04-.58,27.96,3.3Zm-1.34,20.4c-.53,6.81-2.06,13.81-1.81,20.65v.05a.55.55,0,0,0-.69-.14c-6.83,3.64-14,3.49-21.06.8h0c-.91-14.55-1.74-29.29-3.15-43.81,1.79,3.83,8.45,5.28,12,5.66,4.95.53,12.19,1.05,16.34-2.44-.58,6.4-1.16,12.81-1.67,19.23Z" transform="translate(-43.02 -15.01)" fill="#3c3c3b"/>
    <path id="Path_12163" data-name="Path 12163" d="M729,278.51c-.6-1.38-1.19-2.76-1.8-4.14a.72.72,0,0,0-.82-.34,45.086,45.086,0,0,0-7.38,2.65.63.63,0,0,0-.1,1.09c.52,1.37,1.06,2.74,1.63,4.1a9.161,9.161,0,0,0,1.32,2.85c1.29,1.29,3.86-.33,5.17-.8s3.21-.83,3.13-2.59a9.171,9.171,0,0,0-1.15-2.82Zm-.52,3.35c-.31.46-2.39.91-3,1.13s-1.6.85-2.39.63-1-1.06-1.34-1.85c-.62-1.32-1.27-2.62-1.94-3.92a44.479,44.479,0,0,1,6.33-2.24l1.59,3.63c.27.5,1.16,2.03.78,2.62Z" transform="translate(-43.02 -15.01)" fill="#3c3c3b"/>
    <path id="Path_12164" data-name="Path 12164" d="M720,270.94c-2.16-1.27-4.41-2.4-6.69-3.45a.73.73,0,0,0-1.05.43l-1.65,4.31c-.36.93-1.16,2.16-1,3.2.24,1.52,2.69,2.86,3.9,3.43a.68.68,0,0,0,.59,0,.37.37,0,0,0,.62.19c1.94-2.3,3.72-4.75,5.53-7.16a.7.7,0,0,0-.25-.95Zm-5.55,7.17a.62.62,0,0,0-.28-.37,10.491,10.491,0,0,1-2.5-1.75c-.74-.87-.53-1.28-.13-2.31.59-1.53,1.19-3.05,1.79-4.58,1.79.86,3.56,1.77,5.32,2.69-1.41,2.08-2.86,4.21-4.18,6.32Z" transform="translate(-43.02 -15.01)" fill="#3c3c3b"/>
    <path id="Path_12165" data-name="Path 12165" d="M728.69,261.39a.7.7,0,0,0-.84-.47,51.843,51.843,0,0,0-8.19,3,.64.64,0,0,0,0,1.14c.56,1.19,1.16,2.36,1.75,3.54a10.92,10.92,0,0,0,1.47,2.79c1.16,1.13,3.89.11,5.3-.1s2.64-.53,2.51-2.26a32.9,32.9,0,0,0-2-7.64Zm-2,8.75a6.479,6.479,0,0,1-2.46.27c-.87-.23-1-.85-1.52-1.66-.73-1.22-1.47-2.44-2.23-3.64a57.387,57.387,0,0,1,7.14-2.68c.39,1.25.75,2.51,1.07,3.78a8.11,8.11,0,0,1,.5,2.26c-.19,1.77-1.26,1.53-2.54,1.67Z" transform="translate(-43.02 -15.01)" fill="#3c3c3b"/>
  </g>
</svg>
