<svg xmlns="http://www.w3.org/2000/svg" width="59.386" height="120.298" viewBox="0 0 59.386 120.298">
  <g id="ice_cream" data-name="ice cream" transform="translate(-377.772 -11.286)">
    <path id="Path_12254" data-name="Path 12254" d="M478.53,55.74a13.34,13.34,0,0,0-8.87-6.41c3-9.84-3.55-21.18-13.89-22.84-9.07-1.47-22.16,5.56-20,16.12a14,14,0,0,0-6.63,1.17,14.24,14.24,0,0,0-8.1,15.6c.65,3.44,2.69,6.16,4.86,8.81,4.56,5.55,6.35,10.15,5.62,17-.87,1.56-1.06,3.69.24,5a2.92,2.92,0,0,0,4,.18c1.32,8.51,2.91,17,4.23,25.43,1.19,7.55,2.35,15.09,3.56,22.63.58,3.59,1,7.7,5.33,8.16a.47.47,0,0,0,.42-.16c5.19.52,10.28-23.62,11-26.88,3.33-14.84,5.8-30,8.09-45.07a1,1,0,0,0-.5-1c.55-.41.42-1.48-.42-1.43a170.192,170.192,0,0,1-19.14.24,33.779,33.779,0,0,0,2.29-9.06c2.38-4.9,5.76-9.6,11.07-11.5,6.43-2.29,14,.18,16.21,7.12,1.84,5.81-1.57,9.93-4.87,14.23a12.431,12.431,0,0,0-2.44,4.52c-.46,1.88.44,7.34-3.12,7-.75-.08-.93,1.2-.18,1.32A3.24,3.24,0,0,0,471,84.49c.78-1.13.63-2.39.8-3.68a14.33,14.33,0,0,1,4-8.44C479.79,67.65,481.83,61.55,478.53,55.74Zm-11.76,18a.769.769,0,0,0-.13.32c-2.29,12-4,24-6.23,36-.63,3.44-7.57,36.46-11.29,35.06a.53.53,0,0,0-.59.15c-4.53-2.39-4.31-13.87-5-18.08q-1.46-9.36-2.92-18.7c-1.92-12.28-3.28-24.84-6.18-36.93C444.8,75,456,74.35,466.77,73.71ZM446.84,72a.57.57,0,0,0,0,.25,86.13,86.13,0,0,1-12.53-1.73.46.46,0,0,0-.57.45.37.37,0,0,0-.22.38c.44,6,1.21,12,2.13,18a2.08,2.08,0,0,1-3.43-1.07,6.42,6.42,0,0,1,.36-3,15.57,15.57,0,0,0-.76-11.12c-3-6.84-10.53-10.74-9.3-19.22,1.53-10.53,14.36-14.16,21.71-6.84C450.65,54.53,449.84,64.1,446.84,72Zm17.27-22.75c-6.35,1.12-10.9,5.75-13.35,11.4a19.09,19.09,0,0,0-3.89-11.91,15.54,15.54,0,0,0-10-6c-.45-10.26,11.22-16.75,20.37-14.14,8.86,2.52,12.7,12.09,10.8,20.5a14.35,14.35,0,0,0-3.93.12Z" transform="translate(-43.02 -15.01)" fill="#3c3c3b"/>
    <path id="Path_12255" data-name="Path 12255" d="M463.51,85.47a19.71,19.71,0,0,0-4-3.42c.3-.51.59-1,.88-1.56a.632.632,0,0,0-1.09-.64c-.3.48-.62,1-.94,1.42l-.73-.5c-1.09-.75-2.19-1.48-3.32-2.18.39-.48.77-1,1.14-1.44s-.48-1.22-1-.74-.92,1-1.37,1.46c-.84-.51-1.69-1-2.56-1.49a.5.5,0,0,0-.51.87l2.31,1.46c-1.14,1.33-2.23,2.73-3.27,4.14l-5.42-4.37c.56-.63,1.15-1.26,1.75-1.89.34-.36-.11-1-.56-.72a13.719,13.719,0,0,0-2.13,1.85l-4.32-3.47c-.38-.31-.92.19-.55.55,1.32,1.3,2.68,2.58,4.05,3.85a20.211,20.211,0,0,0-2.81,4.67c-.21.5.48.94.75.43a26.117,26.117,0,0,1,3-4.27c1.73,1.59,3.52,3.14,5.33,4.67l-.68.93c-1.12,1.54-2.32,3.12-3.39,4.76l-5.16-4.58a.354.354,0,0,0-.5.5q2.44,2.59,5,5.1a22.414,22.414,0,0,0-1.82,3.59c-.07.18.2.32.33.18a31,31,0,0,0,2.35-2.95q1.88,1.81,3.83,3.58a62.129,62.129,0,0,0-3.34,5.36c-1.19-1-2.39-2.06-3.65-3-.22-.17-.47.19-.29.39,1.07,1.18,2.21,2.42,3.4,3.67a39.121,39.121,0,0,0-1.77,3.9c-.15.4.51.68.7.29.57-1.16,1.19-2.28,1.84-3.38,1.38,1.42,2.82,2.83,4.32,4.18a53.333,53.333,0,0,0-3.51,4.75q-1.665-1.5-3.39-3a.3.3,0,0,0-.42.42q1.62,1.74,3.32,3.42a15.568,15.568,0,0,0-1.53,3.49.27.27,0,0,0,.49.2c.61-1,1.24-1.91,1.88-2.86l3,3c.31.31.62.61.92.93-.93,1.46-1.83,2.93-2.68,4.42-.75-.91-1.47-1.84-2.19-2.77-.28-.36-.81.1-.61.46a20.936,20.936,0,0,0,2.25,3.28c-.8,1.41-1.58,2.83-2.31,4.23a.383.383,0,1,0,.66.39c.79-1.26,1.6-2.49,2.42-3.72.21.24.42.49.64.72a28.5,28.5,0,0,0,2.39,2.42c-.89,1.43-1.73,2.92-2.52,4.42-.88-.83-1.73-1.69-2.63-2.5-.19-.17-.53,0-.37.28a23.131,23.131,0,0,0,2.58,3c-.57,1.08-1.11,2.17-1.65,3.25a.22.22,0,0,0-.12.23l-.63,1.25c-.24.48.45.89.72.42l.49-.82c.43.55.87,1.09,1.34,1.61s1.25,1.6,2.1,1.85c.25.07.39-.2.31-.4-.34-.78-1.3-1.37-1.89-2s-1-1.08-1.53-1.63c.57-1,1.16-1.91,1.76-2.87a11.49,11.49,0,0,0,3,2.45.38.38,0,0,0,.45-.59,19.471,19.471,0,0,0-3-2.68c.92-1.49,1.83-3,2.68-4.53a4.309,4.309,0,0,0,.85.39.44.44,0,0,0,.49-.63,7.569,7.569,0,0,0-.74-.87,30.507,30.507,0,0,0,1.39-2.81c.16-.36-.3-.84-.6-.47-.62.77-1.19,1.58-1.75,2.41a29.911,29.911,0,0,1-2.4-2c-.28-.28-.54-.57-.8-.86q1.45-2.14,3-4.25a36.489,36.489,0,0,0,4.71,4.28c.46.33.85-.35.55-.73a36.858,36.858,0,0,0-4.53-4.57c1.3-1.8,2.62-3.59,3.93-5.38.78.48,1.57.94,2.37,1.34.48.23,1.09-.42.61-.79-.71-.57-1.43-1.12-2.15-1.68,1.37-1.87,2.75-3.75,4.1-5.65.25-.36-.11-.75-.47-.74a.47.47,0,0,0-.18-.4l-4.27-3.64c2.17-2.8,4.32-5.63,6.29-8.56.39-.58-.53-1.31-1-.76s-.65.84-1,1.25a.59.59,0,0,0-.16-.21q-2.28-1.91-4.59-3.79c1.16-1.57,2.27-3.16,3.3-4.82a29.2,29.2,0,0,0,4.16,3,.514.514,0,1,0,.67-.78ZM445,90.67c1-1.49,2-3,3.11-4.45.32-.43.66-.84,1-1.25q2,1.69,4.13,3.33c-1.46,1.92-2.92,3.84-4.31,5.8C447.6,93,446.28,91.82,445,90.67Zm.67,10.73c1.11-1.77,2.31-3.47,3.56-5.15q2.37,2.11,4.8,4.15c-.73,1-1.45,2-2.19,3a24.287,24.287,0,0,1-1.58,2l-.76-.64c-1.3-1.06-2.57-2.22-3.85-3.36Zm5.05,14.6c-.4-.36-.8-.72-1.18-1.08l-2.84-2.65c1.13-1.63,2.3-3.22,3.5-4.8a50.1,50.1,0,0,0,4.23,3.29C453.13,112.43,451.9,114.18,450.72,116Zm8.67-11.26a.611.611,0,0,0,.14.07c-1.45,1.49-2.85,3.07-4.18,4.74-1.42-1.08-2.84-2.17-4.22-3.31q1.94-2.5,3.89-5c1.44,1.18,2.9,2.35,4.37,3.48Zm-.11-11.87a.5.5,0,0,0,.23.09c-1.6,2.07-3.14,4.18-4.67,6.31l-4.77-4.13c1.47-1.94,3-3.86,4.44-5.8,1.58,1.19,3.17,2.38,4.77,3.51ZM454.18,87l-4.09-3.33c1.15-1.4,2.33-2.77,3.47-4.18,1,.67,2,1.35,3,2.07.34.24.68.49,1,.75C456.51,83.9,455.36,85.46,454.18,87Z" transform="translate(-43.02 -15.01)" fill="#3c3c3b"/>
  </g>
</svg>
